<?xml version="1.0" encoding="UTF-8"?>
<svg id="Capa_1" data-name="Capa 1" xmlns="http://www.w3.org/2000/svg" viewBox="0 0 446.81 34">
  <defs>
    <style>
      .cls-1 {
        fill: #1d1d1b;
      }

      .cls-2 {
        fill: #cbdec8;
      }
    </style>
  </defs>
  <g>
    <g>
      <path class="cls-1" d="M109.58,4.65c-.69-.25-3.03,0-4.8.38-1.77.38-3.98,1.2-5.18,1.64s-5.12,2.08-4.8,3.66,2.21,1.64,2.21,1.64l-.06,4.17s-1.71.32-1.71,1.2,1.07,1.71,1.07,1.71c0,0,.19,2.53.19,6.06s2.65,4.48,5.56,4.8c2.91.32,6.19.38,6.95.38s1.2-1.01,1.2-1.96-.88-1.89-1.26-1.83-1.2.76-1.2.76c0,0-1.96.51-4.04,0-2.08-.51-4.11-.63-3.85-3.16.25-2.53.32-5.56,1.83-5.49,1.52.06,3.92-.19,5.81-.32,1.89-.13,1.45-2.91.44-2.97-1.01-.06-3.35.13-4.55.38-1.2.25-2.59-.51-2.59-1.33s.44-4.04.44-4.04l6.32-1.96s.88-.25,2.59-.95c1.71-.69.13-2.53-.57-2.78Z"/>
      <path class="cls-1" d="M60.05,27.19c-.24-.81-.9-2.79-1.75-5.83-.85-3.03-2.84-11.08-3.13-12.41-.28-1.33.09-2.61-.52-3.84-.62-1.23-1.28-2.32-2.18-2.32s-1.33.99-1.8,2.56c-.47,1.56-2.46,8.19-3.22,10.71,0,0-.24.95-.71,2.08-.47,1.14-1.04,1.71-1.66,1.71s-.66,1.33-.09,1.61c.57.28.76,1.47.24,2.56-.52,1.09-1.52,4.59-1.75,5.02-.24.43-.57,3.08.66,3.51s1.99.05,2.27-.76c.28-.81.95-3.6,1.66-6.35.71-2.75.81-3.17,2.13-3.65,1.33-.47,3.27-.57,3.88-.52s.9,1.56,1.37,3.46c.47,1.89,1.04,4.36,1.56,4.83s1.75.81,2.61,0c.85-.81.66-1.56.43-2.37ZM53,18.66c-.89-.12-3,.02-3,.02,0,0,1.54-5.02,2.27-6.96,0,0,1.35,6.18,1.44,6.37s.17.69-.72.57Z"/>
      <path class="cls-1" d="M79.82,28.83c-.44-.73-1.8-2.15-3.54-3.95-1.74-1.8-5.34-4.96-6.51-5.87-1.17-.92-1.33-1.58-.82-1.83.51-.25,2.31-1.67,4.2-4.04,1.89-2.37.95-5.59-.22-7.58-1.17-1.99-3.06-2.72-6-2.62-2.94.09-3.44,2.18-3.76,4.99-.32,2.81-.16,9.79-.32,12.95-.16,3.16-.51,7.93-.41,9.82s3,1.23,3.22.41,1.11-10.96,1.11-10.96c0,0,7.58,7.58,9.85,9.63,2.27,2.05,2.12,1.48,2.75.92.63-.57.88-1.14.44-1.86ZM66.78,7.17c.28-1.17,1.55-1.42,2.18-1.07.63.35,2.75,1.07,1.83,3.88s-2.84,4.42-3.85,4.74c0,0-.44-6.38-.16-7.55Z"/>
      <path class="cls-1" d="M85.12,5.91s-4.36.57-5.87.63-3.54-.38-4.2-1.39,0-1.77,1.42-1.93,3.28-.41,5.43-.51,3.6-1.48,4.29-1.45,2.24.95,4.99.51,5.97-1.36,7.42-1.26,2.27,2.11.82,3.02-10.26,1.91-10.26,1.91c0,0-.76,7.26-.79,11.15s-.06,10.93.06,11.4.06,2.62-.63,2.91-3.19-.19-3.32-3.09"/>
    </g>
    <g>
      <path class="cls-1" d="M153.77,4.65c-.69-.25-3.03,0-4.8.38-1.77.38-3.98,1.2-5.18,1.64s-5.12,2.08-4.8,3.66,2.21,1.64,2.21,1.64l-.06,4.17s-1.71.32-1.71,1.2,1.07,1.71,1.07,1.71c0,0,.19,2.53.19,6.06s2.65,4.48,5.56,4.8c2.91.32,6.19.38,6.95.38s1.2-1.01,1.2-1.96-.88-1.89-1.26-1.83-1.2.76-1.2.76c0,0-1.96.51-4.04,0-2.08-.51-4.11-.63-3.85-3.16.25-2.53.32-5.56,1.83-5.49,1.52.06,3.92-.19,5.81-.32,1.89-.13,1.45-2.91.44-2.97-1.01-.06-3.35.13-4.55.38-1.2.25-2.59-.51-2.59-1.33s.44-4.04.44-4.04l6.32-1.96s.88-.25,2.59-.95c1.71-.69.13-2.53-.57-2.78Z"/>
      <path class="cls-1" d="M135.97,12.63c-2.18-4.26-6.41-6.41-9.16-7.26s-3.6.32-3.28,1.07c.32.76,1.64,1.99,1.64,1.99,0,0-.19,14.15-.25,17.72,0,0-.19,2.31-.03,3.41.16,1.11,2.02,1.64,2.68,1.23.66-.41,4.45-3.73,6.57-7.01s4.01-6.88,1.83-11.15ZM133,18.76c-.85,2.31-4.39,6.28-4.39,6.28,0,0-.44-13.77.13-15.16,0,0,3.28,1.64,3.95,3.19.66,1.55,1.17,3.38.32,5.68Z"/>
    </g>
    <g>
      <path class="cls-1" d="M194.79,4.65c-.69-.25-3.03,0-4.8.38-1.77.38-3.98,1.2-5.18,1.64s-5.12,2.08-4.8,3.66,2.21,1.64,2.21,1.64l-.06,4.17s-1.71.32-1.71,1.2,1.07,1.71,1.07,1.71c0,0,.19,2.53.19,6.06s2.65,4.48,5.56,4.8c2.91.32,6.19.38,6.95.38s1.2-1.01,1.2-1.96-.88-1.89-1.26-1.83-1.2.76-1.2.76c0,0-1.96.51-4.04,0-2.08-.51-4.11-.63-3.85-3.16.25-2.53.32-5.56,1.83-5.49,1.52.06,3.92-.19,5.81-.32,1.89-.13,1.45-2.91.44-2.97-1.01-.06-3.35.13-4.55.38-1.2.25-2.59-.51-2.59-1.33s.44-4.04.44-4.04l6.32-1.96s.88-.25,2.59-.95c1.71-.69.13-2.53-.57-2.78Z"/>
      <path class="cls-1" d="M215.48,28.83c-.44-.73-1.8-2.15-3.54-3.95-1.74-1.8-5.34-4.96-6.51-5.87-1.17-.92-1.33-1.58-.82-1.83.51-.25,2.31-1.67,4.2-4.04,1.89-2.37.95-5.59-.22-7.58-1.17-1.99-3.06-2.72-6-2.62-2.94.09-3.44,2.18-3.76,4.99-.32,2.81-.16,9.79-.32,12.95-.16,3.16-.51,7.93-.41,9.82s3,1.23,3.22.41,1.11-10.96,1.11-10.96c0,0,7.58,7.58,9.85,9.63,2.27,2.05,2.12,1.48,2.75.92.63-.57.88-1.14.44-1.86ZM202.44,7.17c.28-1.17,1.55-1.42,2.18-1.07.63.35,2.75,1.07,1.83,3.88s-2.84,4.42-3.85,4.74c0,0-.44-6.38-.16-7.55Z"/>
      <path class="cls-1" d="M172.41,21.28c.82,1.83,1.39,3.69,1.26,5.49s-1.11,3.6-1.45,3.92c0,0-.95-.35-1.36.41s-.47,1.77.22,2.12,1.64.92,3.6-.32,2.84-3.32,3.03-5.75,0-4.45-2.43-9.13-3.13-5.34-3.28-7.96,2.31-6.06,3.09-6.16c0,0,.32.47.98.35s1.99-1.36,1.26-2.46-3.13-1.52-5.46-.35-3.85,6.16-3.82,7.96,1.48,5.97,2.46,7.96,1.89,3.92,1.89,3.92Z"/>
    </g>
    <g>
      <path class="cls-1" d="M239.38,4.65c-.69-.25-3.03,0-4.8.38-1.77.38-3.98,1.2-5.18,1.64s-5.12,2.08-4.8,3.66,2.21,1.64,2.21,1.64l-.06,4.17s-1.71.32-1.71,1.2,1.07,1.71,1.07,1.71c0,0,.19,2.53.19,6.06s2.65,4.48,5.56,4.8c2.91.32,6.19.38,6.95.38s1.2-1.01,1.2-1.96-.88-1.89-1.26-1.83-1.2.76-1.2.76c0,0-1.96.51-4.04,0-2.08-.51-4.11-.63-3.85-3.16.25-2.53.32-5.56,1.83-5.49,1.52.06,3.92-.19,5.81-.32,1.89-.13,1.45-2.91.44-2.97-1.01-.06-3.35.13-4.55.38-1.2.25-2.59-.51-2.59-1.33s.44-4.04.44-4.04l6.32-1.96s.88-.25,2.59-.95c1.71-.69.13-2.53-.57-2.78Z"/>
      <path class="cls-1" d="M344.89,28.46c-.44-.73-1.8-2.15-3.54-3.95-1.74-1.8-5.34-4.96-6.51-5.87-1.17-.92-1.33-1.58-.82-1.83.51-.25,2.31-1.67,4.2-4.04,1.89-2.37.95-5.59-.22-7.58-1.17-1.99-3.06-2.72-6-2.62-2.94.09-3.44,2.18-3.76,4.99-.32,2.81-.16,9.79-.32,12.95-.16,3.16-.51,7.93-.41,9.82s3,1.23,3.22.41,1.11-10.96,1.11-10.96c0,0,7.58,7.58,9.85,9.63,2.27,2.05,2.12,1.48,2.75.92.63-.57.88-1.14.44-1.86ZM331.85,6.79c.28-1.17,1.55-1.42,2.18-1.07.63.35,2.75,1.07,1.83,3.88s-2.84,4.42-3.85,4.74c0,0-.44-6.38-.16-7.55Z"/>
      <path class="cls-1" d="M424.66,28.46c-.44-.73-1.8-2.15-3.54-3.95-1.74-1.8-5.34-4.96-6.51-5.87-1.17-.92-1.33-1.58-.82-1.83.51-.25,2.31-1.67,4.2-4.04,1.89-2.37.95-5.59-.22-7.58-1.17-1.99-3.06-2.72-6-2.62-2.94.09-3.44,2.18-3.76,4.99-.32,2.81-.16,9.79-.32,12.95-.16,3.16-.51,7.93-.41,9.82s3,1.23,3.22.41,1.11-10.96,1.11-10.96c0,0,7.58,7.58,9.85,9.63,2.27,2.05,2.12,1.48,2.75.92.63-.57.88-1.14.44-1.86ZM411.62,6.79c.28-1.17,1.55-1.42,2.18-1.07.63.35,2.75,1.07,1.83,3.88s-2.84,4.42-3.85,4.74c0,0-.44-6.38-.16-7.55Z"/>
      <path class="cls-1" d="M307.73,27.48c-.24-.81-.9-2.79-1.75-5.83-.85-3.03-2.84-11.08-3.13-12.41-.28-1.33.09-2.61-.52-3.84-.62-1.23-1.28-2.32-2.18-2.32s-1.33.99-1.8,2.56c-.47,1.56-2.46,8.19-3.22,10.71,0,0-.24.95-.71,2.08-.47,1.14-1.04,1.71-1.66,1.71s-.66,1.33-.09,1.61c.57.28.76,1.47.24,2.56-.52,1.09-1.52,4.59-1.75,5.02-.24.43-.57,3.08.66,3.51s1.99.05,2.27-.76c.28-.81.95-3.6,1.66-6.35.71-2.75.81-3.17,2.13-3.65,1.33-.47,3.27-.57,3.88-.52s.9,1.56,1.37,3.46c.47,1.89,1.04,4.36,1.56,4.83s1.75.81,2.61,0c.85-.81.66-1.56.43-2.37ZM300.69,18.96c-.89-.12-3,.02-3,.02,0,0,1.54-5.02,2.27-6.96,0,0,1.35,6.18,1.44,6.37s.17.69-.72.57Z"/>
      <path class="cls-1" d="M404.73,27.48c-.24-.81-.9-2.79-1.75-5.83-.85-3.03-2.84-11.08-3.13-12.41-.28-1.33.09-2.61-.52-3.84-.62-1.23-1.28-2.32-2.18-2.32s-1.33.99-1.8,2.56c-.47,1.56-2.46,8.19-3.22,10.71,0,0-.24.95-.71,2.08-.47,1.14-1.04,1.71-1.66,1.71s-.66,1.33-.09,1.61c.57.28.76,1.47.24,2.56-.52,1.09-1.52,4.59-1.75,5.02-.24.43-.57,3.08.66,3.51s1.99.05,2.27-.76c.28-.81.95-3.6,1.66-6.35.71-2.75.81-3.17,2.13-3.65,1.33-.47,3.27-.57,3.88-.52s.9,1.56,1.37,3.46c.47,1.89,1.04,4.36,1.56,4.83s1.75.81,2.61,0c.85-.81.66-1.56.43-2.37ZM397.68,18.96c-.89-.12-3,.02-3,.02,0,0,1.54-5.02,2.27-6.96,0,0,1.35,6.18,1.44,6.37s.17.69-.72.57Z"/>
      <path class="cls-1" d="M293.26,28.46c-.44-.73-1.8-2.15-3.54-3.95-1.74-1.8-5.34-4.96-6.51-5.87-1.17-.92-1.33-1.58-.82-1.83.51-.25,2.31-1.67,4.2-4.04,1.89-2.37.95-5.59-.22-7.58-1.17-1.99-3.06-2.72-6-2.62-2.94.09-3.44,2.18-3.76,4.99-.32,2.81-.16,9.79-.32,12.95-.16,3.16-.51,7.93-.41,9.82s3,1.23,3.22.41,1.11-10.96,1.11-10.96c0,0,7.58,7.58,9.85,9.63,2.27,2.05,2.12,1.48,2.75.92.63-.57.88-1.14.44-1.86ZM280.22,6.79c.28-1.17,1.55-1.42,2.18-1.07.63.35,2.75,1.07,1.83,3.88s-2.84,4.42-3.85,4.74c0,0-.44-6.38-.16-7.55Z"/>
      <path class="cls-1" d="M265.59,6.01s-4.36.57-5.87.63-3.54-.38-4.2-1.39,0-1.77,1.42-1.93,3.28-.41,5.43-.51,3.6-1.48,4.29-1.45,2.24.95,4.99.51,5.97-1.36,7.42-1.26,2.27,2.11.82,3.02-10.26,1.91-10.26,1.91c0,0-.76,7.26-.79,11.15s-.06,10.93.06,11.4.06,2.62-.63,2.91-3.19-.19-3.32-3.09"/>
      <path class="cls-1" d="M355.69,12.63c-2.18-4.26-6.41-6.41-9.16-7.26s-3.6.32-3.28,1.07c.32.76,1.64,1.99,1.64,1.99,0,0-.19,14.15-.25,17.72,0,0-.19,2.31-.03,3.41.16,1.11,2.02,1.64,2.68,1.23.66-.41,4.45-3.73,6.57-7.01s4.01-6.88,1.83-11.15ZM352.72,18.76c-.85,2.31-4.39,6.28-4.39,6.28,0,0-.44-13.77.13-15.16,0,0,3.28,1.64,3.95,3.19.66,1.55,1.17,3.38.32,5.68Z"/>
      <path class="cls-1" d="M249.65,18.32s-1.39,1.93-2.68,5.46-2.24,6.95-3.32,7.83-3.13.57-3.06-.95,1.23-3.76,2.97-8.15,4.23-8.53,4.33-8.97-3.88-5.59-4.42-6.09.19-1.52.85-1.8,2.08-.25,3.44,1.55,1.86,2.46,1.86,2.46c0,0,3.38-6.51,4.42-7.14s2.53-.54,3.25.28-1.36,3.16-1.93,4.2-3.51,6.95-3.51,6.95c0,0,.51,1.11,2.27,4.29s2.62,5.24,2.62,5.62-.57,1.52-1.48,1.45-2.56-.88-3.38-3.16-1.29-2.87-2.24-3.85Z"/>
      <path class="cls-1" d="M325.12,16.39c-.66-3.22-1.89-6.02-3.93-6.21-2.04-.19-2.46-.71-3.77-1.61-1.31-.9-2.67-.14-3.72.81-1.04.95-4.17,4.55-3.98,8.67.19,4.12.76,5.21,2.94,7.06,2.18,1.85,3.88,1.85,6.49.9,2.61-.95,4.26-3.6,5.16-5.4.9-1.8.9-3.75.81-4.22ZM321.33,16.82c-.19,1.09.05,2.89-2.08,4.88-2.13,1.99-2.94,2.13-4.31,1.04-1.37-1.09-1.71-2.46-1.66-3.76.05-1.3.38-2.95.71-3.48.33-.53.66-1.31.95-1.15.28.15.99.77,1.42.87s1.66-1.33,1.99-1.75c.33-.43.71-1.23,2.04.24.61.68,1.14,2.04.95,3.13Z"/>
      <path class="cls-1" d="M446.77,16.39c-.66-3.22-1.89-6.02-3.93-6.21-2.04-.19-2.46-.71-3.77-1.61-1.31-.9-2.67-.14-3.72.81-1.04.95-4.17,4.55-3.98,8.67.19,4.12.76,5.21,2.94,7.06,2.18,1.85,3.88,1.85,6.49.9,2.61-.95,4.26-3.6,5.16-5.4.9-1.8.9-3.75.81-4.22ZM442.98,16.82c-.19,1.09.05,2.89-2.08,4.88-2.13,1.99-2.94,2.13-4.31,1.04-1.37-1.09-1.71-2.46-1.66-3.76.05-1.3.38-2.95.71-3.48.33-.53.66-1.31.95-1.15.28.15.99.77,1.42.87s1.66-1.33,1.99-1.75c.33-.43.71-1.23,2.04.24.61.68,1.14,2.04.95,3.13Z"/>
      <path class="cls-1" d="M365.01,10.8c-.18,1.52-1.04,8.72-1.33,13.26s.57,6.53-1.8,6.86-2.27-3.2-2.18-5.88,1.42-8.94,1.42-12.73-.28-6.57,1.89-6.74,2.23,3.23,1.99,5.23Z"/>
      <path class="cls-1" d="M428.5,10.8c-.18,1.52-1.04,8.72-1.33,13.26s.57,6.53-1.8,6.86-2.27-3.2-2.18-5.88,1.42-8.94,1.42-12.73-.28-6.57,1.89-6.74,2.23,3.23,1.99,5.23Z"/>
      <path class="cls-1" d="M373.28,11.5s-.95,4.8-.82,8.34-.02,10.47-.01,12.09-.94,2.18-1.95,2.06-1.96-.89-1.83-2.43,0-10.07.32-13.55.69-11.14.95-12.93.19-3.55,1.71-3.43,3.22,2.84,4.67,7.01,4.48,11.05,4.48,11.05c0,0,1.14-9.6,1.45-11.56s.57-4.04.57-4.67.13-1.97,1.77-1.84,1.71.95,1.71,1.84-1.58,11.24-1.64,16.04-.19,6.69,0,9.35-3.41,2.02-4.17.13-7.2-17.49-7.2-17.49Z"/>
    </g>
    <g>
      <path class="cls-1" d="M15.39,4.69c-.69-.25-3.03,0-4.8.38-1.77.38-3.98,1.2-5.18,1.64S.29,8.8.61,10.38s2.21,1.64,2.21,1.64l-.06,4.17s-1.71.32-1.71,1.2,1.07,1.71,1.07,1.71c0,0,.19,2.53.19,6.06s2.65,4.48,5.56,4.8c2.91.32,6.19.38,6.95.38s1.2-1.01,1.2-1.96-.88-1.89-1.26-1.83-1.2.76-1.2.76c0,0-1.96.51-4.04,0-2.08-.51-4.11-.63-3.85-3.16.25-2.53.32-5.56,1.83-5.49,1.52.06,3.92-.19,5.81-.32,1.89-.13,1.45-2.91.44-2.97-1.01-.06-3.35.13-4.55.38-1.2.25-2.59-.51-2.59-1.33s.44-4.04.44-4.04l6.32-1.96s.88-.25,2.59-.95c1.71-.69.13-2.53-.57-2.78Z"/>
      <path class="cls-1" d="M18.9,10.8c-.06-3.09.06-5.43,0-6.69s2.53-1.45,3.09-.38-.51,21.98-.51,21.98c0,0,4.11-2.65,5.43-3.41s2.84-.76,3.79-.06-.32,1.89-1.71,2.84-6.32,4.71-7.52,5.26-3.35.42-3.54-1.54.95-18,.95-18Z"/>
    </g>
  </g>
  <g>
    <g>
      <path class="cls-2" d="M108.99,4.16c-.69-.25-3.03,0-4.8.38-1.77.38-3.98,1.2-5.18,1.64s-5.12,2.08-4.8,3.66,2.21,1.64,2.21,1.64l-.06,4.17s-1.71.32-1.71,1.2,1.07,1.71,1.07,1.71c0,0,.19,2.53.19,6.06s2.65,4.48,5.56,4.8c2.91.32,6.19.38,6.95.38s1.2-1.01,1.2-1.96-.88-1.89-1.26-1.83-1.2.76-1.2.76c0,0-1.96.51-4.04,0-2.08-.51-4.11-.63-3.85-3.16.25-2.53.32-5.56,1.83-5.49,1.52.06,3.92-.19,5.81-.32,1.89-.13,1.45-2.91.44-2.97-1.01-.06-3.35.13-4.55.38-1.2.25-2.59-.51-2.59-1.33s.44-4.04.44-4.04l6.32-1.96s.88-.25,2.59-.95c1.71-.69.13-2.53-.57-2.78Z"/>
      <path class="cls-2" d="M59.46,26.69c-.24-.81-.9-2.79-1.75-5.83-.85-3.03-2.84-11.08-3.13-12.41-.28-1.33.09-2.61-.52-3.84-.62-1.23-1.28-2.32-2.18-2.32s-1.33.99-1.8,2.56c-.47,1.56-2.46,8.19-3.22,10.71,0,0-.24.95-.71,2.08-.47,1.14-1.04,1.71-1.66,1.71s-.66,1.33-.09,1.61c.57.28.76,1.47.24,2.56-.52,1.09-1.52,4.59-1.75,5.02-.24.43-.57,3.08.66,3.51s1.99.05,2.27-.76c.28-.81.95-3.6,1.66-6.35.71-2.75.81-3.17,2.13-3.65,1.33-.47,3.27-.57,3.88-.52s.9,1.56,1.37,3.46c.47,1.89,1.04,4.36,1.56,4.83s1.75.81,2.61,0c.85-.81.66-1.56.43-2.37ZM52.41,18.16c-.89-.12-3,.02-3,.02,0,0,1.54-5.02,2.27-6.96,0,0,1.35,6.18,1.44,6.37s.17.69-.72.57Z"/>
      <path class="cls-2" d="M79.23,28.33c-.44-.73-1.8-2.15-3.54-3.95-1.74-1.8-5.34-4.96-6.51-5.87-1.17-.92-1.33-1.58-.82-1.83.51-.25,2.31-1.67,4.2-4.04,1.89-2.37.95-5.59-.22-7.58-1.17-1.99-3.06-2.72-6-2.62-2.94.09-3.44,2.18-3.76,4.99-.32,2.81-.16,9.79-.32,12.95-.16,3.16-.51,7.93-.41,9.82s3,1.23,3.22.41,1.11-10.96,1.11-10.96c0,0,7.58,7.58,9.85,9.63,2.27,2.05,2.12,1.48,2.75.92.63-.57.88-1.14.44-1.86ZM66.19,6.67c.28-1.17,1.55-1.42,2.18-1.07.63.35,2.75,1.07,1.83,3.88s-2.84,4.42-3.85,4.74c0,0-.44-6.38-.16-7.55Z"/>
      <path class="cls-2" d="M84.53,5.41s-4.36.57-5.87.63-3.54-.38-4.2-1.39,0-1.77,1.42-1.93,3.28-.41,5.43-.51,3.6-1.48,4.29-1.45,2.24.95,4.99.51S96.57-.09,98.02,0s2.27,2.11.82,3.02-10.26,1.91-10.26,1.91c0,0-.76,7.26-.79,11.15s-.06,10.93.06,11.4.06,2.62-.63,2.91-3.19-.19-3.32-3.09"/>
    </g>
    <g>
      <path class="cls-2" d="M153.18,4.16c-.69-.25-3.03,0-4.8.38-1.77.38-3.98,1.2-5.18,1.64s-5.12,2.08-4.8,3.66,2.21,1.64,2.21,1.64l-.06,4.17s-1.71.32-1.71,1.2,1.07,1.71,1.07,1.71c0,0,.19,2.53.19,6.06s2.65,4.48,5.56,4.8c2.91.32,6.19.38,6.95.38s1.2-1.01,1.2-1.96-.88-1.89-1.26-1.83-1.2.76-1.2.76c0,0-1.96.51-4.04,0-2.08-.51-4.11-.63-3.85-3.16.25-2.53.32-5.56,1.83-5.49,1.52.06,3.92-.19,5.81-.32,1.89-.13,1.45-2.91.44-2.97-1.01-.06-3.35.13-4.55.38-1.2.25-2.59-.51-2.59-1.33s.44-4.04.44-4.04l6.32-1.96s.88-.25,2.59-.95c1.71-.69.13-2.53-.57-2.78Z"/>
      <path class="cls-2" d="M135.38,12.13c-2.18-4.26-6.41-6.41-9.16-7.26s-3.6.32-3.28,1.07c.32.76,1.64,1.99,1.64,1.99,0,0-.19,14.15-.25,17.72,0,0-.19,2.31-.03,3.41.16,1.11,2.02,1.64,2.68,1.23.66-.41,4.45-3.73,6.57-7.01s4.01-6.88,1.83-11.15ZM132.41,18.26c-.85,2.31-4.39,6.28-4.39,6.28,0,0-.44-13.77.13-15.16,0,0,3.28,1.64,3.95,3.19.66,1.55,1.17,3.38.32,5.68Z"/>
    </g>
    <g>
      <path class="cls-2" d="M194.2,4.16c-.69-.25-3.03,0-4.8.38-1.77.38-3.98,1.2-5.18,1.64s-5.12,2.08-4.8,3.66,2.21,1.64,2.21,1.64l-.06,4.17s-1.71.32-1.71,1.2,1.07,1.71,1.07,1.71c0,0,.19,2.53.19,6.06s2.65,4.48,5.56,4.8c2.91.32,6.19.38,6.95.38s1.2-1.01,1.2-1.96-.88-1.89-1.26-1.83-1.2.76-1.2.76c0,0-1.96.51-4.04,0-2.08-.51-4.11-.63-3.85-3.16.25-2.53.32-5.56,1.83-5.49,1.52.06,3.92-.19,5.81-.32,1.89-.13,1.45-2.91.44-2.97-1.01-.06-3.35.13-4.55.38-1.2.25-2.59-.51-2.59-1.33s.44-4.04.44-4.04l6.32-1.96s.88-.25,2.59-.95c1.71-.69.13-2.53-.57-2.78Z"/>
      <path class="cls-2" d="M214.89,28.33c-.44-.73-1.8-2.15-3.54-3.95-1.74-1.8-5.34-4.96-6.51-5.87-1.17-.92-1.33-1.58-.82-1.83.51-.25,2.31-1.67,4.2-4.04,1.89-2.37.95-5.59-.22-7.58-1.17-1.99-3.06-2.72-6-2.62-2.94.09-3.44,2.18-3.76,4.99-.32,2.81-.16,9.79-.32,12.95-.16,3.16-.51,7.93-.41,9.82s3,1.23,3.22.41,1.11-10.96,1.11-10.96c0,0,7.58,7.58,9.85,9.63,2.27,2.05,2.12,1.48,2.75.92.63-.57.88-1.14.44-1.86ZM201.85,6.67c.28-1.17,1.55-1.42,2.18-1.07.63.35,2.75,1.07,1.83,3.88s-2.84,4.42-3.85,4.74c0,0-.44-6.38-.16-7.55Z"/>
      <path class="cls-2" d="M171.82,20.79c.82,1.83,1.39,3.69,1.26,5.49s-1.11,3.6-1.45,3.92c0,0-.95-.35-1.36.41s-.47,1.77.22,2.12,1.64.92,3.6-.32,2.84-3.32,3.03-5.75,0-4.45-2.43-9.13c-2.43-4.67-3.13-5.34-3.28-7.96s2.31-6.06,3.09-6.16c0,0,.32.47.98.35s1.99-1.36,1.26-2.46-3.13-1.52-5.46-.35-3.85,6.16-3.82,7.96,1.48,5.97,2.46,7.96,1.89,3.92,1.89,3.92Z"/>
    </g>
    <g>
      <path class="cls-2" d="M238.79,4.16c-.69-.25-3.03,0-4.8.38-1.77.38-3.98,1.2-5.18,1.64s-5.12,2.08-4.8,3.66,2.21,1.64,2.21,1.64l-.06,4.17s-1.71.32-1.71,1.2,1.07,1.71,1.07,1.71c0,0,.19,2.53.19,6.06s2.65,4.48,5.56,4.8c2.91.32,6.19.38,6.95.38s1.2-1.01,1.2-1.96-.88-1.89-1.26-1.83-1.2.76-1.2.76c0,0-1.96.51-4.04,0-2.08-.51-4.11-.63-3.85-3.16.25-2.53.32-5.56,1.83-5.49,1.52.06,3.92-.19,5.81-.32,1.89-.13,1.45-2.91.44-2.97-1.01-.06-3.35.13-4.55.38-1.2.25-2.59-.51-2.59-1.33s.44-4.04.44-4.04l6.32-1.96s.88-.25,2.59-.95c1.71-.69.13-2.53-.57-2.78Z"/>
      <path class="cls-2" d="M344.3,27.96c-.44-.73-1.8-2.15-3.54-3.95-1.74-1.8-5.34-4.96-6.51-5.87-1.17-.92-1.33-1.58-.82-1.83.51-.25,2.31-1.67,4.2-4.04,1.89-2.37.95-5.59-.22-7.58-1.17-1.99-3.06-2.72-6-2.62-2.94.09-3.44,2.18-3.76,4.99-.32,2.81-.16,9.79-.32,12.95-.16,3.16-.51,7.93-.41,9.82s3,1.23,3.22.41,1.11-10.96,1.11-10.96c0,0,7.58,7.58,9.85,9.63,2.27,2.05,2.12,1.48,2.75.92.63-.57.88-1.14.44-1.86ZM331.26,6.29c.28-1.17,1.55-1.42,2.18-1.07.63.35,2.75,1.07,1.83,3.88s-2.84,4.42-3.85,4.74c0,0-.44-6.38-.16-7.55Z"/>
      <path class="cls-2" d="M424.07,27.96c-.44-.73-1.8-2.15-3.54-3.95-1.74-1.8-5.34-4.96-6.51-5.87-1.17-.92-1.33-1.58-.82-1.83.51-.25,2.31-1.67,4.2-4.04,1.89-2.37.95-5.59-.22-7.58-1.17-1.99-3.06-2.72-6-2.62-2.94.09-3.44,2.18-3.76,4.99-.32,2.81-.16,9.79-.32,12.95-.16,3.16-.51,7.93-.41,9.82s3,1.23,3.22.41,1.11-10.96,1.11-10.96c0,0,7.58,7.58,9.85,9.63,2.27,2.05,2.12,1.48,2.75.92.63-.57.88-1.14.44-1.86ZM411.03,6.29c.28-1.17,1.55-1.42,2.18-1.07.63.35,2.75,1.07,1.83,3.88s-2.84,4.42-3.85,4.74c0,0-.44-6.38-.16-7.55Z"/>
      <path class="cls-2" d="M307.14,26.98c-.24-.81-.9-2.79-1.75-5.83-.85-3.03-2.84-11.08-3.13-12.41-.28-1.33.09-2.61-.52-3.84-.62-1.23-1.28-2.32-2.18-2.32s-1.33.99-1.8,2.56c-.47,1.56-2.46,8.19-3.22,10.71,0,0-.24.95-.71,2.08-.47,1.14-1.04,1.71-1.66,1.71s-.66,1.33-.09,1.61c.57.28.76,1.47.24,2.56-.52,1.09-1.52,4.59-1.75,5.02-.24.43-.57,3.08.66,3.51s1.99.05,2.27-.76c.28-.81.95-3.6,1.66-6.35.71-2.75.81-3.17,2.13-3.65,1.33-.47,3.27-.57,3.88-.52s.9,1.56,1.37,3.46c.47,1.89,1.04,4.36,1.56,4.83s1.75.81,2.61,0c.85-.81.66-1.56.43-2.37ZM300.1,18.46c-.89-.12-3,.02-3,.02,0,0,1.54-5.02,2.27-6.96,0,0,1.35,6.18,1.44,6.37s.17.69-.72.57Z"/>
      <path class="cls-2" d="M404.14,26.98c-.24-.81-.9-2.79-1.75-5.83-.85-3.03-2.84-11.08-3.13-12.41-.28-1.33.09-2.61-.52-3.84-.62-1.23-1.28-2.32-2.18-2.32s-1.33.99-1.8,2.56c-.47,1.56-2.46,8.19-3.22,10.71,0,0-.24.95-.71,2.08-.47,1.14-1.04,1.71-1.66,1.71s-.66,1.33-.09,1.61c.57.28.76,1.47.24,2.56-.52,1.09-1.52,4.59-1.75,5.02-.24.43-.57,3.08.66,3.51s1.99.05,2.27-.76c.28-.81.95-3.6,1.66-6.35.71-2.75.81-3.17,2.13-3.65,1.33-.47,3.27-.57,3.88-.52s.9,1.56,1.37,3.46c.47,1.89,1.04,4.36,1.56,4.83s1.75.81,2.61,0c.85-.81.66-1.56.43-2.37ZM397.1,18.46c-.89-.12-3,.02-3,.02,0,0,1.54-5.02,2.27-6.96,0,0,1.35,6.18,1.44,6.37s.17.69-.72.57Z"/>
      <path class="cls-2" d="M292.67,27.96c-.44-.73-1.8-2.15-3.54-3.95-1.74-1.8-5.34-4.96-6.51-5.87-1.17-.92-1.33-1.58-.82-1.83.51-.25,2.31-1.67,4.2-4.04,1.89-2.37.95-5.59-.22-7.58-1.17-1.99-3.06-2.72-6-2.62-2.94.09-3.44,2.18-3.76,4.99-.32,2.81-.16,9.79-.32,12.95-.16,3.16-.51,7.93-.41,9.82s3,1.23,3.22.41,1.11-10.96,1.11-10.96c0,0,7.58,7.58,9.85,9.63,2.27,2.05,2.12,1.48,2.75.92.63-.57.88-1.14.44-1.86ZM279.63,6.29c.28-1.17,1.55-1.42,2.18-1.07.63.35,2.75,1.07,1.83,3.88s-2.84,4.42-3.85,4.74c0,0-.44-6.38-.16-7.55Z"/>
      <path class="cls-2" d="M265,5.51s-4.36.57-5.87.63-3.54-.38-4.2-1.39,0-1.77,1.42-1.93,3.28-.41,5.43-.51,3.6-1.48,4.29-1.45,2.24.95,4.99.51,5.97-1.36,7.42-1.26,2.27,2.11.82,3.02-10.26,1.91-10.26,1.91c0,0-.76,7.26-.79,11.15s-.06,10.93.06,11.4.06,2.62-.63,2.91-3.19-.19-3.32-3.09"/>
      <path class="cls-2" d="M355.1,12.13c-2.18-4.26-6.41-6.41-9.16-7.26s-3.6.32-3.28,1.07c.32.76,1.64,1.99,1.64,1.99,0,0-.19,14.15-.25,17.72,0,0-.19,2.31-.03,3.41.16,1.11,2.02,1.64,2.68,1.23.66-.41,4.45-3.73,6.57-7.01s4.01-6.88,1.83-11.15ZM352.13,18.26c-.85,2.31-4.39,6.28-4.39,6.28,0,0-.44-13.77.13-15.16,0,0,3.28,1.64,3.95,3.19.66,1.55,1.17,3.38.32,5.68Z"/>
      <path class="cls-2" d="M249.06,17.82s-1.39,1.93-2.68,5.46-2.24,6.95-3.32,7.83-3.13.57-3.06-.95,1.23-3.76,2.97-8.15,4.23-8.53,4.33-8.97-3.88-5.59-4.42-6.09.19-1.52.85-1.8,2.08-.25,3.44,1.55,1.86,2.46,1.86,2.46c0,0,3.38-6.51,4.42-7.14s2.53-.54,3.25.28-1.36,3.16-1.93,4.2-3.51,6.95-3.51,6.95c0,0,.51,1.11,2.27,4.29s2.62,5.24,2.62,5.62-.57,1.52-1.48,1.45-2.56-.88-3.38-3.16-1.29-2.87-2.24-3.85Z"/>
      <path class="cls-2" d="M324.53,15.89c-.66-3.22-1.89-6.02-3.93-6.21-2.04-.19-2.46-.71-3.77-1.61-1.31-.9-2.67-.14-3.72.81-1.04.95-4.17,4.55-3.98,8.67.19,4.12.76,5.21,2.94,7.06,2.18,1.85,3.88,1.85,6.49.9,2.61-.95,4.26-3.6,5.16-5.4.9-1.8.9-3.75.81-4.22ZM320.74,16.32c-.19,1.09.05,2.89-2.08,4.88-2.13,1.99-2.94,2.13-4.31,1.04-1.37-1.09-1.71-2.46-1.66-3.76.05-1.3.38-2.95.71-3.48.33-.53.66-1.31.95-1.15.28.15.99.77,1.42.87s1.66-1.33,1.99-1.75c.33-.43.71-1.23,2.04.24.61.68,1.14,2.04.95,3.13Z"/>
      <path class="cls-2" d="M446.18,15.89c-.66-3.22-1.89-6.02-3.93-6.21-2.04-.19-2.46-.71-3.77-1.61-1.31-.9-2.67-.14-3.72.81-1.04.95-4.17,4.55-3.98,8.67.19,4.12.76,5.21,2.94,7.06,2.18,1.85,3.88,1.85,6.49.9,2.61-.95,4.26-3.6,5.16-5.4.9-1.8.9-3.75.81-4.22ZM442.39,16.32c-.19,1.09.05,2.89-2.08,4.88-2.13,1.99-2.94,2.13-4.31,1.04-1.37-1.09-1.71-2.46-1.66-3.76.05-1.3.38-2.95.71-3.48.33-.53.66-1.31.95-1.15.28.15.99.77,1.42.87s1.66-1.33,1.99-1.75c.33-.43.71-1.23,2.04.24.61.68,1.14,2.04.95,3.13Z"/>
      <path class="cls-2" d="M364.42,10.3c-.18,1.52-1.04,8.72-1.33,13.26s.57,6.53-1.8,6.86-2.27-3.2-2.18-5.88,1.42-8.94,1.42-12.73-.28-6.57,1.89-6.74,2.23,3.23,1.99,5.23Z"/>
      <path class="cls-2" d="M427.91,10.3c-.18,1.52-1.04,8.72-1.33,13.26s.57,6.53-1.8,6.86-2.27-3.2-2.18-5.88,1.42-8.94,1.42-12.73-.28-6.57,1.89-6.74,2.23,3.23,1.99,5.23Z"/>
      <path class="cls-2" d="M372.69,11s-.95,4.8-.82,8.34-.02,10.47-.01,12.09-.94,2.18-1.95,2.06-1.96-.89-1.83-2.43,0-10.07.32-13.55.69-11.14.95-12.93.19-3.55,1.71-3.43,3.22,2.84,4.67,7.01,4.48,11.05,4.48,11.05c0,0,1.14-9.6,1.45-11.56s.57-4.04.57-4.67.13-1.97,1.77-1.84,1.71.95,1.71,1.84-1.58,11.24-1.64,16.04-.19,6.69,0,9.35-3.41,2.02-4.17.13-7.2-17.49-7.2-17.49Z"/>
    </g>
    <g>
      <path class="cls-2" d="M14.8,4.2c-.69-.25-3.03,0-4.8.38-1.77.38-3.98,1.2-5.18,1.64S-.3,8.3.02,9.88s2.21,1.64,2.21,1.64l-.06,4.17s-1.71.32-1.71,1.2,1.07,1.71,1.07,1.71c0,0,.19,2.53.19,6.06s2.65,4.48,5.56,4.8c2.91.32,6.19.38,6.95.38s1.2-1.01,1.2-1.96-.88-1.89-1.26-1.83-1.2.76-1.2.76c0,0-1.96.51-4.04,0-2.08-.51-4.11-.63-3.85-3.16.25-2.53.32-5.56,1.83-5.49,1.52.06,3.92-.19,5.81-.32,1.89-.13,1.45-2.91.44-2.97-1.01-.06-3.35.13-4.55.38-1.2.25-2.59-.51-2.59-1.33s.44-4.04.44-4.04l6.32-1.96s.88-.25,2.59-.95c1.71-.69.13-2.53-.57-2.78Z"/>
      <path class="cls-2" d="M18.31,10.3c-.06-3.09.06-5.43,0-6.69s2.53-1.45,3.09-.38-.51,21.98-.51,21.98c0,0,4.11-2.65,5.43-3.41s2.84-.76,3.79-.06-.32,1.89-1.71,2.84-6.32,4.71-7.52,5.26-3.35.42-3.54-1.54.95-18,.95-18Z"/>
    </g>
  </g>
</svg>