<?xml version="1.0" encoding="UTF-8"?>
<svg id="Capa_1" data-name="Capa 1" xmlns="http://www.w3.org/2000/svg" viewBox="0 0 23 23">
  <defs>
    <style>
      .cls-1 {
        fill: #1d1d1b;
      }

      .cls-2 {
        fill: #fff;
      }

      .cls-3 {
        fill: #93af8e;
      }

      .cls-4 {
        fill: #e8501e;
      }

      .cls-5 {
        fill: #ea6544;
      }

      .cls-6 {
        fill: #e94d25;
      }

      .cls-7 {
        fill: #cbdec8;
      }
    </style>
  </defs>
  <path class="cls-6" d="M17,214v-23l37-9s12-2,19-4c7-2,2-5,2-5l-14-3v-16c0,0,9,0,9,0l-7-13-34,6-15-57-24-7-21,36-46,6L61,8S23,31,2,41,0,13,0,142s22,45,22,45l2,2v19s38,22,66,22,62-15,62-15Z"/>
  <g>
    <path class="cls-5" d="M157,194h-35v35c27-2,49-16,49-16v-23l37-9s3-6,8-14l-59,13v13Z"/>
    <path class="cls-5" d="M45,189v-35c0,0-32-1-32-1L33,27c-7,5-12,1-13,14C17,5,0,13,0,142c0,12,22,45,22,45l2,2v19s17,11,41,18l-3-34-36-2Z"/>
    <path class="cls-5" d="M134,47l21-38,17,69,27-2s-2,15,6,22c8,7,24,8,24,8,0-8-1-13-1-13l-14-3v-16c0,0,9,0,9,0l-7-13-34,6-15-57L144,0l-21,36-46,6L61,8s-6,4-13,9l23,39,63-9Z"/>
  </g>
  <g>
    <g>
      <g>
        <path class="cls-1" d="M1,124s0,0,0,0c0,2,0,13,0,14s0,2,0,2-1,0-2,0-1,0-1,0,0,0,0,0,0,0-1,0,0,0,0,0c0,0-3,0-5,0s-3,0-4-2-2-3-2-5,0-3,1-4,2-2,4-3,3,0,4,0,2,0,2,0,0,0,0,0,0,0,0,0c0,0,0,0,0-1s0,0,0,0,0,0,1,0,1,0,1,0,0,0,1,0,0,0,0,0ZM95,131s0,0,0,0c0,0,0,0,0,0s0,0-1,0,0,0-2,0-2,0-3,0-2,2-1,3,0,2,1,2,2,0,4,0,2,0,2,0c0,0,0-2,0-2Z"/>
        <path class="cls-1" d="M48,124s0,0,0,0c0,2,0,13,0,14s0,2,0,2-1,0-2,0-1,0-1,0,0,0,0,0,0,0-1,0,0,0,0,0c0,0-3,0-5,0s-3,0-4-2-2-3-2-5,0-3,1-4,2-2,4-3,3,0,4,0,2,0,2,0,0,0,0,0,0,0,0,0c0,0,0,0,0-1s0,0,0,0,0,0,1,0,1,0,1,0,0,0,1,0,0,0,0,0ZM43,131s0,0,0,0c0,0,0,0,0,0s0,0-1,0,0,0-2,0-2,0-3,0-2,2-1,3,0,2,1,2,2,0,4,0,2,0,2,0c0,0,0-2,0-2Z"/>
        <path class="cls-1" d="M63,125c0,0,0,0,0-1s0,0,0-1-2,0-5,0-5,0-6,2-2,3-3,4,0,3,0,5,2,3,4,4,5,0,6,0,3,0,3,0,0-1,0-2,0-1,0-1,0-1-2,0-3,0-5,0-3-2-3-3,0-3,1-3,2,0,3,0,2,0,3,0,1,0,1,0,0,0,0,0Z"/>
        <path class="cls-1" d="M66,134c0,1,0,3,1,4s2,3,5,3,4-1,5-3,2-3,2-4,1-4,1-5,0-3,0-4,0-1,0-1,0,0-1,0,0,0-2,0,0,0,0,1,0,2,0,3-1,4-2,6-1,2-2,2-2,0-2-2,0-4,0-4,0-5,0-5,0-1-1-1-1,0-2,0,0,0,0,0,0,0,0,0,0,5,0,6,0,3,0,3Z"/>
        <path class="cls-1" d="M117,139c0,0,0,0,0,0s0,0,0,0,0,0-1,0,0,0-1,0,0,0,0-1,0,0,0,0,0,0-1,0-2,0-3,0-3,0-5-2-2-4-2-6,2-4,4-6,4-1,5-1,1,0,2,0,1,0,0,0,0-1,0-2,0,0,0-2,0,0,1,0,2,0,2,0,0,0,0,1,0,5,0,7,0,8,0,9,0,2,0,2c0,0,0,0,0,2ZM113,128s0,0,0,0,0,0-1,0-1,0-2,0-2,0-3,0-1,1-1,2,0,2,1,3,2,0,3,0,2,0,2,0,1-1,1-2,0-2,0-2,0-2,0-2Z"/>
        <path class="cls-1" d="M12,132c0,0,0-4,0-5s0-1,0-3,0-2,0-2c0,0,0,0,0,0s0,0,0,0,0,0,1,0,1,0,1,0,0,0,0,0,0,0,0,0,0,0,1,0,1,0,2,0,0,0,0,1,0,0,0,1,0,0,0,0,0,0,0,0-1,0-2,2-2,3-2,4,0,3,0,4,0,2,0,3,0,1-1,1,0,0-1,0,0,0-1,0,0,0,0-1,0-2,0-3,0-3,0-3Z"/>
        <path class="cls-1" d="M147,127c0,0,0-2,0-2,0,0,0,0,0,0s0,0-2,0-1,0-1,0,0,0,0,0c0,0,0,0,0-1,0,0,0,0,0-1,0,0,0,0-2-1,0,0-1,0-3,0s-3,0-4,1-2,2-3,3-2,3-2,5c0,2,0,3,0,5,0,2,3,4,5,4,2,0,4,0,7-2,2-2,4-4,4-6,0-2,0-4,0-4ZM142,131c0,0,0,1,0,2,0,0-1,2-3,2-1,0-2,0-3,0s-1-2-1-3c0,0,0-2,0-3,0-1,1-2,2-3s2,0,3,0c1,0,2,1,2,2,0,1,0,2,0,3Z"/>
        <path class="cls-1" d="M154,145s0,1,0,2,0,0,0,0,0,0,1,0,1,0,3-2,2-2,2-3,0-2,0-4,0-4-2-4-2-1-3-2-2-1-3-3,0-2,0-3,1-2,2-3,0,0,1-1,1,0,0-2,0-1-1-2,0-1-2,0-3,2-4,3-3,4-3,6,0,6,3,7,3,2,4,3,0,2,0,3-2,0-2,2,0,1,0,1Z"/>
      </g>
      <g>
        <path class="cls-1" d="M178,125c0,0,0,0,0-1s0,0,0-1-2,0-5,0-5,0-6,2-2,3-3,4,0,3,0,5,2,3,4,4,5,0,6,0,3,0,3,0,0-1,0-2,0-1,0-1,0-1-2,0-3,0-5,0-3-2-3-3,0-3,1-3,2,0,3,0,2,0,3,0,1,0,1,0,0,0,0,0Z"/>
        <path class="cls-1" d="M165,138s0-1,0-2,0,0,0,0,0,0-1,0-1,0-1,0,0,1,0,2,0,0,0,1,0,0,1,0,1,0,2,0,0,0,0-1Z"/>
        <path class="cls-1" d="M197,128c0,0,0-2,0-2,0,0,0-1,0-1s0,0-1,0c0,0,0,0-1,0,0,0-1,0-1,0,0,0,0,0,0,0s0,0,0,0c0,0,0,0,0-1,0,0,0,0,0,0,0,0,0,0-3,0-2,0-4,0-5,1-1,0-3,2-4,4,0,1-2,3-2,5s0,3,0,4c0,0,0,2,2,3s3,2,5,2,3,0,4-1c0,0,2-1,3-2,0,0,2-2,2-5,0-3,0-4,0-4ZM193,129c0,0,0,2,0,2,0,0,0,2-2,3s-2,0-3,0c0,0-2-1-2-2,0-1,0-2,0-4s1-3,2-3,3-1,4,0,1,3,1,4Z"/>
      </g>
    </g>
    <g>
      <g>
        <path class="cls-2" d="M99,123s0,0,0,0c0,2,0,13,0,14s0,2,0,2-1,0-2,0-1,0-1,0,0,0,0,0,0,0-1,0,0,0,0,0c0,0-3,0-5,0s-3,0-4-2-2-3-2-5,0-3,1-4,2-2,4-3,3,0,4,0,2,0,2,0,0,0,0,0,0,0,0,0c0,0,0,0,0-1s0,0,0,0,0,0,1,0,1,0,1,0,0,0,1,0,0,0,0,0ZM95,131s0,0,0,0c0,0,0,0,0,0s0,0-1,0,0,0-2,0-2,0-3,0-2,2-1,3,0,2,1,2,2,0,4,0,2,0,2,0c0,0,0-2,0-2Z"/>
        <path class="cls-3" d="M48,123s0,0,0,0c0,2,0,13,0,14s0,2,0,2-1,0-2,0-1,0-1,0,0,0,0,0,0,0-1,0,0,0,0,0c0,0-3,0-5,0s-3,0-4-2-2-3-2-5,0-3,1-4,2-2,4-3,3,0,4,0,2,0,2,0,0,0,0,0,0,0,0,0c0,0,0,0,0-1s0,0,0,0,0,0,1,0,1,0,1,0,0,0,1,0,0,0,0,0ZM43,131s0,0,0,0c0,0,0,0,0,0s0,0-1,0,0,0-2,0-2,0-3,0-2,2-1,3,0,2,1,2,2,0,4,0,2,0,2,0c0,0,0-2,0-2Z"/>
        <path class="cls-2" d="M63,125c0,0,0,0,0-1s0,0,0-1-2,0-5,0-5,0-6,2-2,3-3,4,0,3,0,5,2,3,4,4,5,0,6,0,3,0,3,0,0-1,0-2,0-1,0-1,0-1-2,0-3,0-5,0-3-2-3-3,0-3,1-3,2,0,3,0,2,0,3,0,1,0,1,0,0,0,0,0Z"/>
        <path class="cls-2" d="M65,133c0,1,0,3,1,4s2,3,5,3,4-1,5-3,2-3,2-4,1-4,1-5,0-3,0-4,0-1,0-1,0,0-1,0,0,0-2,0,0,0,0,1,0,2,0,3-1,4-2,6-1,2-2,2-2,0-2-2,0-4,0-4,0-5,0-5,0-1-1-1-1,0-2,0,0,0,0,0,0,0,0,0,0,5,0,6,0,3,0,3Z"/>
        <path class="cls-2" d="M117,139c0,0,0,0,0,0s0,0,0,0,0,0-1,0,0,0-1,0,0,0,0-1,0,0,0,0,0,0-1,0-2,0-3,0-3,0-5-2-2-4-2-6,2-4,4-6,4-1,5-1,1,0,2,0,1,0,0,0,0-1,0-2,0,0,0-2,0,0,1,0,2,0,2,0,0,0,0,1,0,5,0,7,0,8,0,9,0,2,0,2c0,0,0,0,0,2ZM113,128s0,0,0,0,0,0-1,0-1,0-2,0-2,0-3,0-1,1-1,2,0,2,1,3,2,0,3,0,2,0,2,0,1-1,1-2,0-2,0-2,0-2,0-2Z"/>
        <path class="cls-2" d="M12,131c0,0,0-4,0-5s0-1,0-3,0-2,0-2c0,0,0,0,0,0s0,0,0,0,0,0,1,0,1,0,1,0,0,0,0,0,0,0,0,0,0,0,1,0,1,0,2,0,0,0,0,1,0,0,0,1,0,0,0,0,0,0,0,0-1,0-2,2-2,3-2,4,0,3,0,4,0,2,0,3,0,1-1,1,0,0-1,0,0,0-1,0,0,0,0-1,0-2,0-3,0-3,0-3Z"/>
        <path class="cls-2" d="M146,127c0,0,0-2,0-2,0,0,0,0,0,0s0,0-2,0-1,0-1,0,0,0,0,0c0,0,0,0,0-1,0,0,0,0,0-1,0,0,0,0-2-1,0,0-1,0-3,0s-3,0-4,1-2,2-3,3-2,3-2,5c0,2,0,3,0,5,0,2,3,4,5,4,2,0,4,0,7-2,2-2,4-4,4-6,0-2,0-4,0-4ZM142,131c0,0,0,1,0,2,0,0-1,2-3,2-1,0-2,0-3,0s-1-2-1-3c0,0,0-2,0-3,0-1,1-2,2-3s2,0,3,0c1,0,2,1,2,2,0,1,0,2,0,3Z"/>
        <path class="cls-2" d="M153,144s0,1,0,2,0,0,0,0,0,0,1,0,1,0,3-2,2-2,2-3,0-2,0-4,0-4-2-4-2-1-3-2-2-1-3-3,0-2,0-3,1-2,2-3,0,0,1-1,1,0,0-2,0-1-1-2,0-1-2,0-3,2-4,3-3,4-3,6,0,6,3,7,3,2,4,3,0,2,0,3-2,0-2,2,0,1,0,1Z"/>
      </g>
      <g>
        <path class="cls-3" d="M178,125c0,0,0,0,0-1s0,0,0-1-2,0-5,0-5,0-6,2-2,3-3,4,0,3,0,5,2,3,4,4,5,0,6,0,3,0,3,0,0-1,0-2,0-1,0-1,0-1-2,0-3,0-5,0-3-2-3-3,0-3,1-3,2,0,3,0,2,0,3,0,1,0,1,0,0,0,0,0Z"/>
        <path class="cls-3" d="M164,137s0-1,0-2,0,0,0,0,0,0-1,0-1,0-1,0,0,1,0,2,0,0,0,1,0,0,1,0,1,0,2,0,0,0,0-1Z"/>
        <path class="cls-3" d="M197,127c0,0,0-2,0-2,0,0,0-1,0-1s0,0-1,0c0,0,0,0-1,0,0,0-1,0-1,0,0,0,0,0,0,0s0,0,0,0c0,0,0,0,0-1,0,0,0,0,0,0,0,0,0,0-3,0-2,0-4,0-5,1-1,0-3,2-4,4,0,1-2,3-2,5s0,3,0,4c0,0,0,2,2,3s3,2,5,2,3,0,4-1c0,0,2-1,3-2,0,0,2-2,2-5,0-3,0-4,0-4ZM193,129c0,0,0,2,0,2,0,0,0,2-2,3s-2,0-3,0c0,0-2-1-2-2,0-1,0-2,0-4s1-3,2-3,3-1,4,0,1,3,1,4Z"/>
      </g>
    </g>
  </g>
  <g>
    <path class="cls-4" d="M131,84s0,2,0,3c0,1,0,5,0,7,0,1,0,9,0,1,0,1,0,6,0,7,0,0,0,2-2,2-1,0-3,0-4,0h-3c0,0-3,0-4,0s-5,0-6,0c0,0-5,0-6,0,0,0-2,0-3,0s-1,0-1-1c0,0,0-4,0-5,0,0,0-5,0-6,0-1,0-4,0-5s0-8,0-8c0,0,0-7,0-8,0,0,0-1,0-2,0,0,0-1,1-1s3,0,4,0c1,0,8,1,9,1,2,0,6,0,8,1,2,0,7,0,8,0,0,0,1,0,2,0,0,0,0,0,0,0Z"/>
    <g>
      <path class="cls-3" d="M13,81c-2,0-1-1-1-1,0,0,0-3-1-4,0-1,0-1,0-3,0-1-2,0-2,0,0,0-2,2-2,2l-2,3s-4,0-6,0c-3,0-6,0-7,0s-2,1-2,2c0,0,0,0,0,2,0,0,0,3,0,5s0,8,0,1,0,7,0,9c0,2,0,6,0,7,0,0,0,4,0,4,0,0,0,2,1,2s2,0,2,0c2,0,6,0,6,0,2,0,7-1,7-1,1,0,4,0,6,0s3,0,6,0c2,0,3-1,3-2s3-24,3-26c0-2,0-3-3-4ZM131,84s0,2,0,3c0,1,0,5,0,7,0,1,0,9,0,1,0,1,0,6,0,7,0,0,0,2-2,2-1,0-3,0-4,0h-3c0,0-3,0-4,0s-5,0-6,0c0,0-5,0-6,0,0,0-2,0-3,0s-1,0-1-1c0,0,0-4,0-5,0,0,0-5,0-6,0-1,0-4,0-5s0-8,0-8c0,0,0-7,0-8,0,0,0-1,0-2,0,0,0-1,1-1s3,0,4,0c1,0,8,1,9,1,2,0,6,0,8,1,2,0,7,0,8,0,0,0,1,0,2,0,0,0,0,0,0,0Z"/>
      <path class="cls-2" d="M128,84c-2,0-9-1-12-2s-8-1-8-1c-2,0-6,0-6,0-2,0-3,1-3,2,0,2,0,9,0,1s0,8,0,1c0,2,0,4,0,5,0,1,0,3,0,5s0,2,3,2c1,0,5,0,8,0,3,0,12,0,14-1,2,0,2-1,2-2s0-3,0-5c0-1,0-14,0-15,0-1,0-5,0-5,0,0,0-2-2-2ZM112,113c-2,0-7,0-8,0,0,0,0,0,0,0,0,0,0-3,0-4,0,0,1-9,1-1s1-7,2-8c0-2,1-4,1-4,0,0,0,2,1,2,0,0,0,2,1,2,0,0,0,0,0,0,0,0,4,0,4,0,0,0,1,0,2,0,0,0,0,0,0,0l2-3s1,6,2,7,0,0,0,0c0,0,2,0,2,0,0,0,0,0,0,0,0,0,0,0,0,1s0,0,1,0c0,0,1,0,1,0,0,0,0,5,0,5,0,0,0,0,0,0s-2,0-3,0c-1,0-3,0-3,0,0,0,0,4,0,5s0,2,0,2c-3,0-6,0-7,0ZM125,95s0,0,0,0c0,0,1,0,1,0,0,0,0,1,0,2s0,0,0,0,0,0-1,0,0,0,0,0,0,0,0,0ZM13,87c0,0,0,6,0,9s-1,13-1,14c0,1,0,2-2,2,0,0-3,0-5,0,0,0,0-1,0-1,0,0,0-4,0-4,0,0,0,0,0,0,0,0,0,0,2,0,0,0,2,0,3,0,0,0,1,0,1-1s0-5,0-5c0,0,0-3,0-4s0-1,0-1c0,0-2,0-3,0,0,0-3,0-3,0,0,0,0-2,0-3s0-2,0-3c0,0,0-1-1-1,0,0,0,0-1,1,0,0-1,3-2,3,0,0,0,0,0,0,0,0-3,0-4,0s0,0,0,0c0,0-2-3-2-4,0,0-1,0-2,0,0,0-1,3-2,4,0,1-1,4-1,6s-1,7-1,9,0,4,0,4h0c0,0,0,0,0,0s0-4,0-6c0-2,0-12,0-14,0-2,0-7,0-8,0,0,0-1,2-1,0,0,7,0,8,1s9,1,12,1,5,0,6,0c1,0,2,1,2,2Z"/>
      <g>
        <ellipse class="cls-7" cx="117" cy="96" rx="0" ry="1"/>
        <path class="cls-7" d="M113,98s0,0,0-1,0-1,0-1,0,0,0,1,0,1,0,1Z"/>
        <polygon class="cls-7" points="119 107 115 107 115 11 119 11 119 107"/>
        <polygon class="cls-7" points="112 111 112 113 116 113 115 11 112 111"/>
        <polygon class="cls-7" points="108 106 107 111 112 111 111 106 108 106"/>
        <path class="cls-7" d="M103,114s0,0,0,0c0,0,2,0,3,0v-3s-3-1-3-1c0,0,0,4,0,4Z"/>
        <polygon class="cls-7" points="105 101 104 106 108 106 108 103 105 101"/>
      </g>
    </g>
  </g>
  <g>
    <g>
      <g>
        <path class="cls-1" d="M85,143s0,0,0,0c0,0,0,0-1,0s0,0,0,0,0,0,0,0h0c0,0,0,0,0,1s0,0,0,0c0,0,0,0,0,1s0,0,1,0c0,0,1,0,1,0s0,0,0,0,0,0,0,0,0,0,0,0c0,0,0,0,0,0,0,0,0,0,0,0,0,0,0-1,0-1,0,0,0,0,1,0,0,0,0,0,0,0,0,0,0,0,0,0,0,0,0,0,0,0s0,0,0,0h1s0,0,0,0c0,0,0,0,0,0Z"/>
        <path class="cls-1" d="M75,147s0,0,0-1c0,0,0-2,0-2,0,0,0,0,0,0,0,0,0,0,0,0s0,0,0,0c0,0,0,2,0,2s0,0,0,0c0,0,0,0,0,0s0,0,0,0c0,0,0,0,0,0,0,0,0,0,0,0,0,0,0,0,0,0s0,0,0,0c0,0,0,0,0-1,0,0,0,0,0,0,0,0,0,0,0,0s0,0,0,0c0,0,0,0,0,0s0,0,0,0c0,0,0,0,0,0ZM74,146s0,0,0,0c0,0,0,0,0-1s0,1,0,1,0,0,0,0Z"/>
        <path class="cls-1" d="M79,148s0,0,0,0c0,0-1,0-1-1,0,0,0,0,0,0,0,0,0,0,0,0,0,0,0-1,0-1,0,0,0,0-1,0,0,0,0,0,0,0,0,0,0,2,0,3,0,0,0,2,0,2s0,0,0,0,0-2,0-2c0,0,1,1,2,2,0,0,0,0,0,0,0,0,0,0,0,0ZM77,144s0,0,0,0c0,0,0,0,0,0s0,0,0,0,0-1,0-1Z"/>
        <path class="cls-1" d="M8,143s0,0-1,0,0,0,0,0,0,0,0,0,0,0,1,0,0,0,0,0,0,0,0,0,1,0,1,0,0,0,0,0-2,0-2,0c0,0,0,1,0,2s0,2,0,2,0,0,0,0,0,0,0,0"/>
      </g>
      <g>
        <path class="cls-1" d="M94,143s0,0,0,0c0,0,0,0-1,0s0,0,0,0,0,0,0,0h0c0,0,0,0,0,1s0,0,0,0c0,0,0,0,0,1s0,0,1,0c0,0,1,0,1,0s0,0,0,0,0,0,0,0,0,0,0,0c0,0,0,0,0,0,0,0,0,0,0,0,0,0,0-1,0-1,0,0,0,0,1,0,0,0,0,0,0,0,0,0,0,0,0,0,0,0,0,0,0,0s0,0,0,0h1s0,0,0,0c0,0,0,0,0,0Z"/>
        <path class="cls-1" d="M9,145c0,0-1-1-2-1s0,0,0,0c0,0,0,0,0,0,0,0,0,3,0,3s0,0,0,0c0,0,0,0,0,0,0,0,0,0,1-1s0-1,0-2ZM9,146s0,1,0,1c0,0,0-3,0-3s0,0,0,0c0,0,0,0,0,1Z"/>
      </g>
      <g>
        <path class="cls-1" d="M102,143s0,0,0,0c0,0,0,0-1,0s0,0,0,0,0,0,0,0h0c0,0,0,0,0,1s0,0,0,0c0,0,0,0,0,1s0,0,1,0c0,0,1,0,1,0s0,0,0,0,0,0,0,0,0,0,0,0c0,0,0,0,0,0,0,0,0,0,0,0,0,0,0-1,0-1,0,0,0,0,1,0,0,0,0,0,0,0,0,0,0,0,0,0,0,0,0,0,0,0s0,0,0,0h1s0,0,0,0c0,0,0,0,0,0Z"/>
        <path class="cls-1" d="M106,148s0,0,0,0c0,0-1,0-1-1,0,0,0,0,0,0,0,0,0,0,0,0,0,0,0-1,0-1,0,0,0,0-1,0,0,0,0,0,0,0,0,0,0,2,0,3,0,0,0,2,0,2s0,0,0,0,0-2,0-2c0,0,1,1,2,2,0,0,0,0,0,0,0,0,0,0,0,0ZM103,144s0,0,0,0c0,0,0,0,0,0s0,0,0,0,0-1,0-1Z"/>
        <path class="cls-1" d="M97,146s0,0,0,1,0,0,0,0,0,0,0,0,0,0,0,0,0,0,0,0,0,0,0-1,0,0,0-2,0-1,0-2,0-1,0-1,0,0,0,0,0,0,0,0,0,0-1,0,0,1,0,2,0,1,0,2,0,0,0,0Z"/>
      </g>
      <g>
        <path class="cls-1" d="M11,143s0,0,0,0c0,0,0,0-1,0s0,0,0,0,0,0,0,0h0c0,0,0,0,0,1s0,0,0,0c0,0,0,0,0,1s0,0,1,0c0,0,1,0,1,0s0,0,0,0,0,0,0,0,0,0,0,0c0,0,0,0,0,0,0,0,0,0,0,0,0,0,0-1,0-1,0,0,0,0,1,0,0,0,0,0,0,0,0,0,0,0,0,0,0,0,0,0,0,0s0,0,0,0h1s0,0,0,0c0,0,0,0,0,0Z"/>
        <path class="cls-1" d="M131,148s0,0,0,0c0,0-1,0-1-1,0,0,0,0,0,0,0,0,0,0,0,0,0,0,0-1,0-1,0,0,0,0-1,0,0,0,0,0,0,0,0,0,0,2,0,3,0,0,0,2,0,2s0,0,0,0,0-2,0-2c0,0,1,1,2,2,0,0,0,0,0,0,0,0,0,0,0,0ZM128,144s0,0,0,0c0,0,0,0,0,0s0,0,0,0,0-1,0-1Z"/>
        <path class="cls-1" d="M146,148s0,0,0,0c0,0-1,0-1-1,0,0,0,0,0,0,0,0,0,0,0,0,0,0,0-1,0-1,0,0,0,0-1,0,0,0,0,0,0,0,0,0,0,2,0,3,0,0,0,2,0,2s0,0,0,0,0-2,0-2c0,0,1,1,2,2,0,0,0,0,0,0,0,0,0,0,0,0ZM144,144s0,0,0,0c0,0,0,0,0,0s0,0,0,0,0-1,0-1Z"/>
        <path class="cls-1" d="M124,148s0,0,0-1c0,0,0-2,0-2,0,0,0,0,0,0,0,0,0,0,0,0s0,0,0,0c0,0,0,2,0,2s0,0,0,0c0,0,0,0,0,0s0,0,0,0c0,0,0,0,0,0,0,0,0,0,0,0,0,0,0,0,0,0s0,0,0,0c0,0,0,0,0-1,0,0,0,0,0,0,0,0,0,0,0,0s0,0,0,0c0,0,0,0,0,0s0,0,0,0c0,0,0,0,0,0ZM122,146s0,0,0,0c0,0,0,0,0-1s0,1,0,1,0,0,0,0Z"/>
        <path class="cls-1" d="M143,148s0,0,0-1c0,0,0-2,0-2,0,0,0,0,0,0,0,0,0,0,0,0s0,0,0,0c0,0,0,2,0,2s0,0,0,0c0,0,0,0,0,0s0,0,0,0c0,0,0,0,0,0,0,0,0,0,0,0,0,0,0,0,0,0s0,0,0,0c0,0,0,0,0-1,0,0,0,0,0,0,0,0,0,0,0,0s0,0,0,0c0,0,0,0,0,0s0,0,0,0c0,0,0,0,0,0ZM141,146s0,0,0,0c0,0,0,0,0-1s0,1,0,1,0,0,0,0Z"/>
        <path class="cls-1" d="M121,148s0,0,0,0c0,0-1,0-1-1,0,0,0,0,0,0,0,0,0,0,0,0,0,0,0-1,0-1,0,0,0,0-1,0,0,0,0,0,0,0,0,0,0,2,0,3,0,0,0,2,0,2s0,0,0,0,0-2,0-2c0,0,1,1,2,2,0,0,0,0,0,0,0,0,0,0,0,0ZM118,144s0,0,0,0c0,0,0,0,0,0s0,0,0,0,0-1,0-1Z"/>
        <path class="cls-1" d="M115,143s0,0-1,0,0,0,0,0,0,0,0,0,0,0,1,0,0,0,0,0,0,0,0,0,1,0,1,0,0,0,0,0-2,0-2,0c0,0,0,1,0,2s0,2,0,2,0,0,0,0,0,0,0,0"/>
        <path class="cls-1" d="M133,145c0,0-1-1-2-1s0,0,0,0c0,0,0,0,0,0,0,0,0,3,0,3s0,0,0,0c0,0,0,0,0,0,0,0,0,0,1-1s0-1,0-2ZM132,146s0,1,0,1c0,0,0-3,0-3s0,0,0,0c0,0,0,0,0,1Z"/>
        <path class="cls-1" d="M112,146s0,0,0,1,0,1,0,2,0,0,0,0,0,0,0-2,0-2,0-2,0-1,0-1,0,0,0,0,0,0,0,0,0,0,0,0c0,0,0-1,0-1s0,0,0,0,0,0,0,0,0,1,0,1c0,0,0,0,0,0s0,1,0,1,0,0,0,0,0,0,0,0,0,0,0,0Z"/>
        <path class="cls-1" d="M127,145c0,0,0-1,0-1,0,0,0,0,0,0,0,0,0,0,0,0,0,0,0,0,0,2,0,0,0,1,0,1,0,0,0,0,1,0,0,0,0,0,1-1,0,0,0,0,0,0ZM126,145s0,0,0,0c0,0,0,0,0,0,0,0,0,0,0,0,0,0,0,0,0,0,0,0,0,0,0,0,0,0,0,0,0,0s0,0,0,0c0,0,0,0,0,0,0,0,0,0,0,0Z"/>
        <path class="cls-1" d="M151,145c0,0,0-1,0-1,0,0,0,0,0,0,0,0,0,0,0,0,0,0,0,0,0,2,0,0,0,1,0,1,0,0,0,0,1,0,0,0,0,0,1-1,0,0,0,0,0,0ZM15,145s0,0,0,0c0,0,0,0,0,0,0,0,0,0,0,0,0,0,0,0,0,0,0,0,0,0,0,0,0,0,0,0,0,0s0,0,0,0c0,0,0,0,0,0,0,0,0,0,0,0Z"/>
        <path class="cls-1" d="M135,144s0,2,0,3,0,1,0,1,0,0,0-1,0-2,0-2,0-1,0-1,0,0,0,1Z"/>
        <path class="cls-1" d="M147,144s0,2,0,3,0,1,0,1,0,0,0-1,0-2,0-2,0-1,0-1,0,0,0,1Z"/>
        <path class="cls-1" d="M136,144s0,0,0,2,0,2,0,2,0,0,0,0,0,0,0,0,0-2,0-3,0-2,0-3,0,0,0,0,0,0,0,1,0,2,0,2c0,0,0-2,0-2s0,0,0,0,0,0,0,0,0,0,0,0,0,2,0,3,0,1,0,2,0,0,0,0-1-3-1-3Z"/>
      </g>
      <g>
        <path class="cls-1" d="M67,143s0,0,0,0c0,0,0,0-1,0s0,0,0,0,0,0,0,0h0c0,0,0,0,0,1s0,0,0,0c0,0,0,0,0,1s0,0,1,0c0,0,1,0,1,0s0,0,0,0,0,0,0,0,0,0,0,0c0,0,0,0,0,0,0,0,0,0,0,0,0,0,0-1,0-1,0,0,0,0,1,0,0,0,0,0,0,0,0,0,0,0,0,0,0,0,0,0,0,0s0,0,0,0h1s0,0,0,0c0,0,0,0,0,0Z"/>
        <path class="cls-1" d="M67,144c0,0,0-1,0-1s0,0,0,0,0,4,0,4c0,0,0,0,1,0s0,0,0,0,0,0,0,0-1,0-1,1,0,0,0,0,0-4,0-4Z"/>
      </g>
    </g>
    <g>
      <g>
        <path class="cls-7" d="M85,143s0,0,0,0c0,0,0,0-1,0s0,0,0,0,0,0,0,0h0c0,0,0,0,0,1s0,0,0,0c0,0,0,0,0,1s0,0,1,0c0,0,1,0,1,0s0,0,0,0,0,0,0,0,0,0,0,0c0,0,0,0,0,0,0,0,0,0,0,0,0,0,0-1,0-1,0,0,0,0,1,0,0,0,0,0,0,0,0,0,0,0,0,0,0,0,0,0,0,0s0,0,0,0h1s0,0,0,0c0,0,0,0,0,0Z"/>
        <path class="cls-7" d="M75,147s0,0,0-1c0,0,0-2,0-2,0,0,0,0,0,0,0,0,0,0,0,0s0,0,0,0c0,0,0,2,0,2s0,0,0,0c0,0,0,0,0,0s0,0,0,0c0,0,0,0,0,0,0,0,0,0,0,0,0,0,0,0,0,0s0,0,0,0c0,0,0,0,0-1,0,0,0,0,0,0,0,0,0,0,0,0s0,0,0,0c0,0,0,0,0,0s0,0,0,0c0,0,0,0,0,0ZM74,146s0,0,0,0c0,0,0,0,0-1s0,1,0,1,0,0,0,0Z"/>
        <path class="cls-7" d="M79,148s0,0,0,0c0,0-1,0-1-1,0,0,0,0,0,0,0,0,0,0,0,0,0,0,0-1,0-1,0,0,0,0-1,0,0,0,0,0,0,0,0,0,0,2,0,3,0,0,0,2,0,2s0,0,0,0,0-2,0-2c0,0,1,1,2,2,0,0,0,0,0,0,0,0,0,0,0,0ZM77,143s0,0,0,0c0,0,0,0,0,0s0,0,0,0,0-1,0-1Z"/>
        <path class="cls-7" d="M8,143s0,0-1,0,0,0,0,0,0,0,0,0,0,0,1,0,0,0,0,0,0,0,0,0,1,0,1,0,0,0,0,0-2,0-2,0c0,0,0,1,0,2s0,2,0,2,0,0,0,0,0,0,0,0"/>
      </g>
      <g>
        <path class="cls-7" d="M94,143s0,0,0,0c0,0,0,0-1,0s0,0,0,0,0,0,0,0h0c0,0,0,0,0,1s0,0,0,0c0,0,0,0,0,1s0,0,1,0c0,0,1,0,1,0s0,0,0,0,0,0,0,0,0,0,0,0c0,0,0,0,0,0,0,0,0,0,0,0,0,0,0-1,0-1,0,0,0,0,1,0,0,0,0,0,0,0,0,0,0,0,0,0,0,0,0,0,0,0s0,0,0,0h1s0,0,0,0c0,0,0,0,0,0Z"/>
        <path class="cls-7" d="M9,145c0,0-1-1-2-1s0,0,0,0c0,0,0,0,0,0,0,0,0,3,0,3s0,0,0,0c0,0,0,0,0,0,0,0,0,0,1-1s0-1,0-2ZM9,146s0,1,0,1c0,0,0-3,0-3s0,0,0,0c0,0,0,0,0,1Z"/>
      </g>
      <g>
        <path class="cls-7" d="M102,143s0,0,0,0c0,0,0,0-1,0s0,0,0,0,0,0,0,0h0c0,0,0,0,0,1s0,0,0,0c0,0,0,0,0,1s0,0,1,0c0,0,1,0,1,0s0,0,0,0,0,0,0,0,0,0,0,0c0,0,0,0,0,0,0,0,0,0,0,0,0,0,0-1,0-1,0,0,0,0,1,0,0,0,0,0,0,0,0,0,0,0,0,0,0,0,0,0,0,0s0,0,0,0h1s0,0,0,0c0,0,0,0,0,0Z"/>
        <path class="cls-7" d="M106,148s0,0,0,0c0,0-1,0-1-1,0,0,0,0,0,0,0,0,0,0,0,0,0,0,0-1,0-1,0,0,0,0-1,0,0,0,0,0,0,0,0,0,0,2,0,3,0,0,0,2,0,2s0,0,0,0,0-2,0-2c0,0,1,1,2,2,0,0,0,0,0,0,0,0,0,0,0,0ZM103,143s0,0,0,0c0,0,0,0,0,0s0,0,0,0,0-1,0-1Z"/>
        <path class="cls-7" d="M97,146s0,0,0,1,0,0,0,0,0,0,0,0,0,0,0,0,0,0,0,0,0,0,0-1,0,0,0-2,0-1,0-2,0-1,0-1,0,0,0,0,0,0,0,0,0,0-1,0,0,1,0,2,0,1,0,2,0,0,0,0Z"/>
      </g>
      <g>
        <path class="cls-7" d="M11,143s0,0,0,0c0,0,0,0-1,0s0,0,0,0,0,0,0,0h0c0,0,0,0,0,1s0,0,0,0c0,0,0,0,0,1s0,0,1,0c0,0,1,0,1,0s0,0,0,0,0,0,0,0,0,0,0,0c0,0,0,0,0,0,0,0,0,0,0,0,0,0,0-1,0-1,0,0,0,0,1,0,0,0,0,0,0,0,0,0,0,0,0,0,0,0,0,0,0,0s0,0,0,0h1s0,0,0,0c0,0,0,0,0,0Z"/>
        <path class="cls-7" d="M131,148s0,0,0,0c0,0-1,0-1-1,0,0,0,0,0,0,0,0,0,0,0,0,0,0,0-1,0-1,0,0,0,0-1,0,0,0,0,0,0,0,0,0,0,2,0,3,0,0,0,2,0,2s0,0,0,0,0-2,0-2c0,0,1,1,2,2,0,0,0,0,0,0,0,0,0,0,0,0ZM128,143s0,0,0,0c0,0,0,0,0,0s0,0,0,0,0-1,0-1Z"/>
        <path class="cls-7" d="M146,148s0,0,0,0c0,0-1,0-1-1,0,0,0,0,0,0,0,0,0,0,0,0,0,0,0-1,0-1,0,0,0,0-1,0,0,0,0,0,0,0,0,0,0,2,0,3,0,0,0,2,0,2s0,0,0,0,0-2,0-2c0,0,1,1,2,2,0,0,0,0,0,0,0,0,0,0,0,0ZM144,143s0,0,0,0c0,0,0,0,0,0s0,0,0,0,0-1,0-1Z"/>
        <path class="cls-7" d="M124,147s0,0,0-1c0,0,0-2,0-2,0,0,0,0,0,0,0,0,0,0,0,0s0,0,0,0c0,0,0,2,0,2s0,0,0,0c0,0,0,0,0,0s0,0,0,0c0,0,0,0,0,0,0,0,0,0,0,0,0,0,0,0,0,0s0,0,0,0c0,0,0,0,0-1,0,0,0,0,0,0,0,0,0,0,0,0s0,0,0,0c0,0,0,0,0,0s0,0,0,0c0,0,0,0,0,0ZM122,146s0,0,0,0c0,0,0,0,0-1s0,1,0,1,0,0,0,0Z"/>
        <path class="cls-7" d="M142,147s0,0,0-1c0,0,0-2,0-2,0,0,0,0,0,0,0,0,0,0,0,0s0,0,0,0c0,0,0,2,0,2s0,0,0,0c0,0,0,0,0,0s0,0,0,0c0,0,0,0,0,0,0,0,0,0,0,0,0,0,0,0,0,0s0,0,0,0c0,0,0,0,0-1,0,0,0,0,0,0,0,0,0,0,0,0s0,0,0,0c0,0,0,0,0,0s0,0,0,0c0,0,0,0,0,0ZM141,146s0,0,0,0c0,0,0,0,0-1s0,1,0,1,0,0,0,0Z"/>
        <path class="cls-7" d="M121,148s0,0,0,0c0,0-1,0-1-1,0,0,0,0,0,0,0,0,0,0,0,0,0,0,0-1,0-1,0,0,0,0-1,0,0,0,0,0,0,0,0,0,0,2,0,3,0,0,0,2,0,2s0,0,0,0,0-2,0-2c0,0,1,1,2,2,0,0,0,0,0,0,0,0,0,0,0,0ZM118,143s0,0,0,0c0,0,0,0,0,0s0,0,0,0,0-1,0-1Z"/>
        <path class="cls-7" d="M115,143s0,0-1,0,0,0,0,0,0,0,0,0,0,0,1,0,0,0,0,0,0,0,0,0,1,0,1,0,0,0,0,0-2,0-2,0c0,0,0,1,0,2s0,2,0,2,0,0,0,0,0,0,0,0"/>
        <path class="cls-7" d="M133,145c0,0-1-1-2-1s0,0,0,0c0,0,0,0,0,0,0,0,0,3,0,3s0,0,0,0c0,0,0,0,0,0,0,0,0,0,1-1s0-1,0-2ZM132,146s0,1,0,1c0,0,0-3,0-3s0,0,0,0c0,0,0,0,0,1Z"/>
        <path class="cls-7" d="M112,146s0,0,0,1,0,1,0,2,0,0,0,0,0,0,0-2,0-2,0-2,0-1,0-1,0,0,0,0,0,0,0,0,0,0,0,0c0,0,0-1,0-1s0,0,0,0,0,0,0,0,0,1,0,1c0,0,0,0,0,0s0,1,0,1,0,0,0,0,0,0,0,0,0,0,0,0Z"/>
        <path class="cls-7" d="M127,145c0,0,0-1,0-1,0,0,0,0,0,0,0,0,0,0,0,0,0,0,0,0,0,2,0,0,0,1,0,1,0,0,0,0,1,0,0,0,0,0,1-1,0,0,0,0,0,0ZM126,145s0,0,0,0c0,0,0,0,0,0,0,0,0,0,0,0,0,0,0,0,0,0,0,0,0,0,0,0,0,0,0,0,0,0s0,0,0,0c0,0,0,0,0,0,0,0,0,0,0,0Z"/>
        <path class="cls-7" d="M151,145c0,0,0-1,0-1,0,0,0,0,0,0,0,0,0,0,0,0,0,0,0,0,0,2,0,0,0,1,0,1,0,0,0,0,1,0,0,0,0,0,1-1,0,0,0,0,0,0ZM15,145s0,0,0,0c0,0,0,0,0,0,0,0,0,0,0,0,0,0,0,0,0,0,0,0,0,0,0,0,0,0,0,0,0,0s0,0,0,0c0,0,0,0,0,0,0,0,0,0,0,0Z"/>
        <path class="cls-7" d="M135,144s0,2,0,3,0,1,0,1,0,0,0-1,0-2,0-2,0-1,0-1,0,0,0,1Z"/>
        <path class="cls-7" d="M147,144s0,2,0,3,0,1,0,1,0,0,0-1,0-2,0-2,0-1,0-1,0,0,0,1Z"/>
        <path class="cls-7" d="M136,144s0,0,0,2,0,2,0,2,0,0,0,0,0,0,0,0,0-2,0-3,0-2,0-3,0,0,0,0,0,0,0,1,0,2,0,2c0,0,0-2,0-2s0,0,0,0,0,0,0,0,0,0,0,0,0,2,0,3,0,1,0,2,0,0,0,0-1-3-1-3Z"/>
      </g>
      <g>
        <path class="cls-7" d="M67,143s0,0,0,0c0,0,0,0-1,0s0,0,0,0,0,0,0,0h0c0,0,0,0,0,1s0,0,0,0c0,0,0,0,0,1s0,0,1,0c0,0,1,0,1,0s0,0,0,0,0,0,0,0,0,0,0,0c0,0,0,0,0,0,0,0,0,0,0,0,0,0,0-1,0-1,0,0,0,0,1,0,0,0,0,0,0,0,0,0,0,0,0,0,0,0,0,0,0,0s0,0,0,0h1s0,0,0,0c0,0,0,0,0,0Z"/>
        <path class="cls-7" d="M67,144c0,0,0-1,0-1s0,0,0,0,0,4,0,4c0,0,0,0,1,0s0,0,0,0,0,0,0,0-1,0-1,1,0,0,0,0,0-4,0-4Z"/>
      </g>
    </g>
  </g>
</svg>