<?xml version="1.0" encoding="UTF-8"?>
<svg id="Capa_1" data-name="Capa 1" xmlns="http://www.w3.org/2000/svg" viewBox="0 0 181.95 223.11">
  <defs>
    <style>
      .cls-1 {
        fill: #fff;
      }

      .cls-2 {
        fill: #93af8e;
      }

      .cls-3 {
        fill: #e8501e;
      }

      .cls-4 {
        fill: #cbdec8;
      }
    </style>
  </defs>
  <path class="cls-3" d="M172.83,56.03c-.26,2-.58,9.04-1.1,14.35-.53,5.31-2.1,26.59-2.73,33.84-.63,7.25-2.42,44.3-2.73,49.45-.32,5.15-2.36,32.16-2.63,36.31-.26,4.15.81,10.83-10.46,12.46-7.43,1.07-16.08,1.89-21.86,2.52l-16.5,1.52c-4.1.26-14.66,1.42-18.39,1.63s-25.54,2.31-30.06,2.57c-4.52.26-23.28,2.26-27.7,2.68-4.41.42-8.62,1.1-12.77,1.58s-6.88-1.42-7.3-5.47c-.42-4.05-1.31-18.45-1.94-23.02-.63-4.57-2.58-27.01-3.31-32.21-.74-5.2-1.89-19.76-2.73-26.17s-3.31-38.05-3.63-42.51c-.32-4.47-2.1-36.16-2.42-40.73-.32-4.57-.21-5.83-.37-8.67-.16-2.84,3.73-7.15,7.2-6.52s15.66,2.36,21.65,3.26c5.99.89,38.31,5.68,46.88,6.78,8.57,1.1,31.27,4.36,40.73,5.47,9.46,1.1,35.16,4.36,38.21,4.89,3.05.53,7.36,1,9.88,1.31,2.52.32,4.36,2.68,4.1,4.68Z"/>
  <g>
    <path class="cls-2" d="M167.82,41.73c-12.13-1.23-49.36-5.97-49.36-5.97,0,0-5.02-15.06-7.29-20.75-2.27-5.68-1.61-7.48-4.74-12.69-3.13-5.21-7.86,0-7.86,0-3.22,4.74-8.05,11.56-8.05,11.56l-12.32,17.43s-19.04-2.18-31.93-3.69c-12.88-1.52-28.8-2.56-35.15-3.13S.23,31.21.04,35.38c-.19,4.17.28,5.02.47,7.77.19,2.75,1.71,14.4,2.27,22.83s2.94,39.69,3.51,49.36,1.61,34.01,1.89,42.82c.28,8.81,1.23,27.66,1.42,32.68.19,5.02,1.14,18.47,1.14,18.47,0,0,.28,7.77,5.31,11.4s11.75,2.05,11.75,2.05c8.81-1.23,29.37-4.36,29.37-4.36,10.61-1.71,36.19-5.97,36.19-5.97,6.63-1.14,21.69-3.6,28.33-4.64,0,0,16.86-2.84,29.18-4.26,12.32-1.42,13.26-5.68,13.93-12.03s15.92-122.78,16.96-131.59c1.04-8.81-1.8-16.96-13.93-18.19ZM172.8,56.02c-.26,2-.58,9.04-1.1,14.35-.53,5.31-2.1,26.59-2.73,33.84-.63,7.25-2.42,44.3-2.73,49.45-.32,5.15-2.36,32.16-2.63,36.31-.26,4.15.81,10.83-10.46,12.46-7.43,1.07-16.08,1.89-21.86,2.52l-16.5,1.52c-4.1.26-14.66,1.42-18.39,1.63s-25.54,2.31-30.06,2.57c-4.52.26-23.28,2.26-27.7,2.68-4.41.42-8.62,1.1-12.77,1.58s-6.88-1.42-7.3-5.47c-.42-4.05-1.31-18.45-1.94-23.02-.63-4.57-2.58-27.01-3.31-32.21-.74-5.2-1.89-19.76-2.73-26.17s-3.31-38.05-3.63-42.51c-.32-4.47-2.1-36.16-2.42-40.73-.32-4.57-.21-5.83-.37-8.67-.16-2.84,3.73-7.15,7.2-6.52s15.66,2.36,21.65,3.26c5.99.89,38.31,5.68,46.88,6.78,8.57,1.1,31.27,4.36,40.73,5.47,9.46,1.1,35.16,4.36,38.21,4.89,3.05.53,7.36,1,9.88,1.31,2.52.32,4.36,2.68,4.1,4.68Z"/>
    <path class="cls-1" d="M157.12,55.65c-10.29-1.57-44.72-6.16-60.06-8.15s-42.16-5.4-42.16-5.4c-8.43-.95-30.41-4.07-30.41-4.07-7.96-.85-12.87,5.74-12.69,10.52.38,10.61,3.32,43.2,3.88,51.06s3.32,40.83,4.17,50.21c.85,9.38,1.52,17.91,1.99,23.59.47,5.68.85,15.44,1.99,22.74s5.01,11.39,12.69,10.71c7.39-.66,26.62-1.89,41.49-2.94,14.87-1.04,60.44-4.74,69.73-5.49,9.28-.76,11.56-5.59,11.94-10.14s1.23-17.05,1.61-22.83c.38-5.78,3.98-68.78,4.36-75.41.38-6.63,1.14-24.44,1.14-24.44,0-1.61-.95-8.62-9.66-9.95ZM76.5,201.93c-7.77.66-34.96,3.41-41.21,3.88-1.49.11-2.82-.26-3.99-.93.28-2.32,2.09-17.12,2.66-21.57.62-4.83,5.87-43.63,6.49-47.94s6.63-32.97,8.72-40.97c2.08-8.01,6.54-18.9,6.54-18.9,0,0,4.88,8.57,6.35,11.46,1.47,2.89,4.64,9.33,5.49,10.71.85,1.37,1.99,1.28,3.6,1.04,1.61-.24,21.03-3.55,21.03-3.55,0,0,5.64-.38,7.63-1.89,1.99-1.52,2.37-3.51,2.37-3.51l7.72-14.49s7.34,30.65,7.91,32.78,1.61,1.99,2.61,1.89c.99-.09,12.03-1.47,12.03-1.47,0,0-.05,2.65,0,3.6.05.95-.19,4.59,2.42,7.39s4.93,3.32,5.87,3.55c.95.24,6.82.14,6.82.14,0,0-2.84,25.72-3.03,27.43-.19,1.71-.62,2.32-2.42,2.84s-8.95,2.51-15.44,4.26c-6.49,1.75-15.77,3.27-15.77,3.27,0,0,1.37,20.32,1.37,25.29,0,4.1.1,10.19.13,12.2-15.8,1.55-31.97,3.14-35.89,3.48ZM139.64,109.04c0-1.52,1.28-2.13,2.79-2.18,1.52-.05,6.21-.47,6.21-.47,0,0-.43,7.53-.43,8.15s-.09,1.37-1.18,1.28-3.98,0-5.59-.33-1.94-1.56-2.04-2.7.24-2.23.24-3.74ZM164.79,67.4c-.47,3.88-1.42,31.74-2.37,47.46s-6.06,65.65-5.97,72.19c.09,6.54-4.74,7.67-10.52,8.15-2.42.2-13.59,1.29-26.34,2.54-.11-1.5-.37-5.26-.33-6.62.05-1.71-1.09-20.32-1.04-22.26.05-1.94.52-2.23,2.46-2.7,1.94-.47,4.83-1.37,7.82-2.04,2.98-.66,11.89-3.17,15.44-4.22,3.55-1.04,6.77-2.51,7.2-6.96s2.51-22.97,2.7-26.01c.19-3.03,1.71-16.44,1.75-20.18s-.81-5.83-4.17-6.82c-3.36-.99-10.04.14-14.64.71-4.59.57-12.93,1.75-12.93,1.75,0,0-2.94-11.46-4.07-16.39s-2.65-10.33-3.98-14.78c-1.33-4.45-2.37-6.82-5.07-6.92-2.7-.09-4.74,3.69-5.97,5.73-1.23,2.04-6.82,12.79-7.91,14.59-1.09,1.8-1.71,3.36-4.93,3.69-3.22.33-16.63,2.89-18.09,2.89s-2.13-.9-2.56-2.04c-1.55-4.13-8.15-14.78-11.18-19.23-3.03-4.45-6.92-2.84-9.47,1.04-2.56,3.88-6.92,15.63-8.24,21.41-1.33,5.78-5.49,22.26-7.11,31.17s-5.49,37.23-6.63,45.28-2.65,21.69-2.65,21.69l-.28,3.7c0-.1,0-.2,0-.29,0,0-1.33-19.61-1.99-31.36-.66-11.75-3.88-59.59-4.55-71.43-.66-11.84-2.84-37.42-2.65-41.87.19-4.45,4.17-7.2,7.67-6.82,3.51.38,33.63,4.17,41.02,5.12s47.65,5.21,60.16,6.82,23.21,2.84,30.41,3.6c7.2.76,9.47,5.49,9,9.38Z"/>
    <g>
      <ellipse class="cls-4" cx="102.01" cy="117.18" rx="3.38" ry="5.12"/>
      <path class="cls-4" d="M80.25,124.14c1.99,0,3.6-2.25,3.6-5.03s-1.61-5.03-3.6-5.03-3.6,2.25-3.6,5.03,1.61,5.03,3.6,5.03Z"/>
      <polygon class="cls-4" points="111.38 167.64 93.08 168.52 93.08 186.26 112.26 186.25 111.38 167.64"/>
      <polygon class="cls-4" points="74.82 187.53 76.5 201.93 96.17 200.04 93.08 186.26 74.82 187.53"/>
      <polygon class="cls-4" points="54.99 165.29 50.38 189.23 74.82 187.53 73.12 165.67 54.99 165.29"/>
      <path class="cls-4" d="M31.3,204.88c1.17.68,2.5,1.05,3.99.93,2.39-.18,7.83-.69,14.08-1.29l1.02-15.28-16.46-5.65c-.6,4.74-2.35,19.01-2.63,21.29Z"/>
      <polygon class="cls-4" points="39.55 141.9 36.64 163.32 54.99 165.29 56.32 147.45 39.55 141.9"/>
    </g>
  </g>
</svg>