<?xml version="1.0" encoding="UTF-8" standalone="no"?>
<svg
   id="Capa_1"
   data-name="Capa 1"
   viewBox="0 0 874.99997 386"
   version="1.1"
   sodipodi:docname="Logotipo.svg"
   width="875"
   height="386"
   inkscape:version="1.4.3 (0d15f75042, 2025-12-25)"
   inkscape:export-filename="Logotipo.png"
   inkscape:export-xdpi="96"
   inkscape:export-ydpi="96"
   xmlns:inkscape="http://www.inkscape.org/namespaces/inkscape"
   xmlns:sodipodi="http://sodipodi.sourceforge.net/DTD/sodipodi-0.dtd"
   xmlns="http://www.w3.org/2000/svg"
   xmlns:svg="http://www.w3.org/2000/svg">
  <sodipodi:namedview
     id="namedview92"
     pagecolor="#505050"
     bordercolor="#eeeeee"
     borderopacity="1"
     inkscape:showpageshadow="0"
     inkscape:pageopacity="0"
     inkscape:pagecheckerboard="0"
     inkscape:deskcolor="#505050"
     inkscape:zoom="0.58809036"
     inkscape:cx="397.89804"
     inkscape:cy="140.28456"
     inkscape:window-width="1366"
     inkscape:window-height="702"
     inkscape:window-x="0"
     inkscape:window-y="0"
     inkscape:window-maximized="1"
     inkscape:current-layer="Capa_1" />
  <defs
     id="defs1">
    <style
       id="style1">
      .cls-1 {
        fill: #1d1d1b;
      }

      .cls-2 {
        fill: #fff;
      }

      .cls-3 {
        fill: #93af8e;
      }

      .cls-4 {
        fill: #e8501e;
      }

      .cls-5 {
        fill: #cbdec8;
      }
    </style>
  </defs>
  <g
     id="g92"
     transform="matrix(0.99902192,0,0,0.9992462,-365.53066,-0.2995777)">
    <g
       id="g32">
      <g
         id="g20">
        <g
           id="g16">
          <path
             class="cls-1"
             d="m 729.62,250.76 c -0.17,0.54 -0.28,1.1 -0.29,1.67 -0.23,8.82 -2,74.2 -3.07,78.86 -1.15,4.99 0.44,10.68 -4.81,10.63 -5.25,-0.05 -7.44,-0.62 -10.99,-0.28 -3.55,0.34 -6.16,-0.28 -7.53,-1.66 -0.57,-0.57 -0.98,-1.54 -1.23,-2.7 -0.61,-2.8 -3.28,-4.65 -6.13,-4.35 -0.12,0.01 -0.24,0.02 -0.35,0.04 -3.51,0.33 -17.01,1.75 -25.25,-0.62 -8.24,-2.37 -15.39,-5.54 -21.93,-13.64 -6.54,-8.1 -9.14,-17.43 -8.91,-25.77 0.24,-8.34 1.89,-15.77 6.11,-22.31 4.22,-6.54 12.03,-13.69 23.16,-15.96 11.13,-2.27 16.96,-1.04 22.78,0 4.29,0.77 9.52,2.22 11.99,2.94 1.19,0.35 2.42,-0.58 2.32,-1.81 0,-0.01 0,-0.03 0,-0.04 -0.14,-1.47 -0.19,-5.21 -0.09,-7.01 0.1,-1.8 1.71,-2.98 3.79,-3.03 2.08,-0.05 4.31,-0.38 6.77,-0.43 2.46,-0.05 5.4,0.52 7.63,0.81 2.23,0.28 4.59,-0.05 5.73,1.61 0.73,1.07 0.54,2.31 0.31,3.06 z m -25.46,41.41 c 0.03,-0.29 0.11,-0.56 0.19,-0.84 0.5,-1.62 0.42,-3.93 -0.63,-4.88 -1.14,-1.04 -3.98,-3.69 -7.11,-5.02 -3.13,-1.33 -5.02,-2.75 -11.56,-3.88 -6.54,-1.14 -11.56,-0.19 -15.63,1.42 -4.07,1.61 -8.53,8.91 -7.2,15.06 1.33,6.15 1.52,8.62 7.48,12.88 5.97,4.26 12.6,3.69 19.8,2.65 7.2,-1.04 10.71,-5.31 10.71,-5.31 2.74,-2.41 3.73,-10.2 3.94,-12.09 z"
             id="path9" />
          <path
             class="cls-1"
             d="m 459.05,250.76 c -0.17,0.54 -0.28,1.1 -0.29,1.67 -0.23,8.82 -2,74.2 -3.07,78.86 -1.15,4.99 0.44,10.68 -4.81,10.63 -5.25,-0.05 -7.44,-0.62 -10.99,-0.28 -3.55,0.34 -6.16,-0.28 -7.53,-1.66 -0.57,-0.57 -0.98,-1.54 -1.23,-2.7 -0.61,-2.8 -3.28,-4.65 -6.13,-4.35 -0.12,0.01 -0.24,0.02 -0.35,0.04 -3.51,0.33 -17.01,1.75 -25.25,-0.62 -8.24,-2.37 -15.39,-5.54 -21.93,-13.64 -6.54,-8.1 -9.14,-17.43 -8.91,-25.77 0.23,-8.34 1.89,-15.77 6.11,-22.31 4.22,-6.54 12.03,-13.69 23.16,-15.96 11.13,-2.27 16.96,-1.04 22.78,0 4.29,0.77 9.52,2.22 11.99,2.94 1.19,0.35 2.42,-0.58 2.32,-1.81 0,-0.01 0,-0.03 0,-0.04 -0.14,-1.47 -0.19,-5.21 -0.09,-7.01 0.1,-1.8 1.71,-2.98 3.79,-3.03 2.08,-0.05 4.31,-0.38 6.77,-0.43 2.46,-0.05 5.4,0.52 7.63,0.81 2.23,0.28 4.59,-0.05 5.73,1.61 0.73,1.07 0.54,2.31 0.31,3.06 z m -25.46,41.41 c 0.03,-0.29 0.11,-0.56 0.19,-0.84 0.5,-1.62 0.42,-3.93 -0.63,-4.88 -1.14,-1.04 -3.98,-3.69 -7.11,-5.02 -3.13,-1.33 -5.02,-2.75 -11.56,-3.88 -6.54,-1.14 -11.56,-0.19 -15.63,1.42 -4.07,1.61 -8.53,8.91 -7.2,15.06 1.33,6.15 1.52,8.62 7.48,12.88 5.97,4.26 12.6,3.69 19.8,2.65 7.2,-1.04 10.71,-5.31 10.71,-5.31 2.74,-2.41 3.73,-10.2 3.94,-12.09 z"
             id="path10" />
          <path
             class="cls-1"
             d="m 537.06,260.15 c 1.46,-3.1 3.16,-5.37 4.93,-7.39 1.77,-2.02 2.53,-5.05 -0.76,-6.63 -3.29,-1.58 -10.93,-5.12 -23.94,-5.49 -13.01,-0.38 -26.72,4.55 -33.28,11.31 -6.57,6.76 -12.44,13.96 -14.53,22.86 -2.08,8.91 -2.15,16.86 0.95,26.08 3.09,9.22 9.09,17.68 20.72,23.49 11.63,5.81 24.88,4.99 30.38,4.11 5.49,-0.88 13.45,-2.08 18.06,-4.29 4.61,-2.21 2.78,-7.58 2.53,-8.84 -0.25,-1.26 -1.89,-6.38 -2.34,-8.27 -0.45,-1.89 -3.09,-6.63 -8.46,-5.12 -5.37,1.52 -17.43,4.8 -26.02,2.27 -8.59,-2.53 -13.83,-9.09 -13.26,-17.81 0.57,-8.72 3.98,-14.72 6.95,-16.93 2.97,-2.21 8.46,-4.74 13.33,-5.18 4.87,-0.44 12.82,1.64 14.97,2.21 2.15,0.57 5.94,0.38 7.33,-1.64 1.39,-2.02 1.72,-3.15 2.46,-4.74 z"
             id="path11" />
          <path
             class="cls-1"
             d="m 551.01,306.51 c 0.88,6.18 2.84,17.24 7.07,24.44 4.23,7.2 12.95,16.55 25.83,16.29 12.88,-0.26 21.35,-7.26 28.17,-16.86 6.82,-9.6 9.6,-16.67 11.94,-23.43 2.34,-6.76 6.06,-19.83 7.58,-25.83 1.52,-6 3.98,-17.43 4.42,-20.84 0.44,-3.41 -0.76,-7.33 -3.66,-7.52 -2.9,-0.19 -4.61,0.57 -6.57,-0.19 -1.96,-0.76 -3.85,-1.83 -8.34,-2.08 -4.48,-0.25 -4.48,5.43 -5.05,8.02 -0.57,2.59 -2.21,13.45 -3.47,18.06 -1.26,4.61 -7.07,24.57 -11.18,33.09 -4.11,8.53 -6.88,13.33 -12.06,13.33 -5.18,0 -7.96,-2.46 -9.98,-11.24 -2.02,-8.78 -2.53,-19.89 -2.78,-23.81 -0.25,-3.92 0.95,-25.01 0.88,-28.36 -0.07,-3.35 -2.59,-7.2 -6.13,-7.26 -3.54,-0.06 -7.07,0.19 -8.65,0 -1.58,-0.19 -3.54,-1.14 -4.61,-1.14 -1.07,0 -3.85,1.14 -3.85,4.48 0,3.34 -0.06,27.6 -0.25,34.61 -0.19,7.01 0.38,14.06 0.69,16.23 z"
             id="path12" />
          <path
             class="cls-1"
             d="m 821.17,336.69 c -0.03,3.69 -3.25,5.24 -4.89,5.18 -1.64,-0.06 -2.97,-0.6 -4.89,-0.73 -1.93,-0.13 -4.77,0.35 -6.88,0.47 -2.11,0.12 -4.42,-0.06 -6.06,-2.02 -1.64,-1.96 -1.67,-3.32 -1.67,-5.68 0,-2.36 -1.23,-2.08 -2.94,-1.99 -1.71,0.09 -4.26,1.8 -7.01,2.08 -2.75,0.28 -8.91,0.57 -14.59,0 -5.68,-0.57 -18.19,-3.79 -27,-13.74 -8.81,-9.95 -10.61,-20.56 -10.71,-30.98 -0.09,-10.42 8.43,-24.82 19.42,-31.64 10.99,-6.82 21.98,-7.11 28.71,-6.06 6.73,1.04 6.35,2.37 11.46,2.37 5.11,0 5.4,-3.79 5.21,-5.49 -0.19,-1.7 0.19,-7.29 0.57,-9.85 0.38,-2.56 -0.47,-5.4 0,-10.42 0.47,-5.02 4.74,-5.12 6.35,-5.4 1.61,-0.28 10.14,0.47 12.22,0.76 2.08,0.28 4.74,0.47 4.83,6.44 0.09,5.97 -0.47,25.58 -0.76,36.47 -0.28,10.89 -0.85,44.81 -1.23,51.25 -0.38,6.44 0,9.76 0,9.76 0.16,3.22 -0.09,5.53 -0.13,9.22 z m -22.75,-60.66 c 0,0 -1.37,2.61 -4.31,2.98 -2.94,0.37 -4.55,-0.9 -7.58,-2.04 -3.03,-1.14 -6.25,-2.13 -8.95,-2.04 -2.7,0.09 -9.66,0.57 -14.31,5.49 -4.64,4.93 -5.4,7.11 -5.49,11.75 -0.09,4.64 3.6,12.13 7.44,14.59 3.84,2.46 8.95,3.88 15.02,3.93 6.06,0.05 9.19,-1.99 11.42,-3.08 2.23,-1.09 7.63,-5.73 7.29,-9.99 -0.33,-4.26 -0.85,-8.67 -0.76,-11.98 0.09,-3.31 0.24,-9.62 0.24,-9.62 z"
             id="path13" />
          <path
             class="cls-1"
             d="m 836.61,295.37 c -0.51,-5.43 -1.39,-21.46 -1.64,-26.77 0,0 -0.63,-8.2 -0.88,-14.39 -0.25,-6.19 -1.14,-11.36 -1.14,-11.36 0,0 -0.13,-3.68 1.83,-4.56 1.96,-0.88 2.72,0.25 4.61,0 1.89,-0.25 3.79,-1.26 6.44,-1.52 2.65,-0.26 5.43,-0.63 7.45,0.63 2.02,1.26 2.78,3.28 3.54,4.67 0.76,1.39 3.03,1.92 4.55,0.77 1.52,-1.15 2.27,-2.54 6.44,-5.07 4.17,-2.53 7.71,-3.16 8.97,-2.02 1.26,1.14 3.79,4.07 4.29,7.09 0.5,3.02 1.01,5.04 1.26,6.81 0.25,1.77 0.76,2.4 1.01,4.04 0.25,1.64 -0.13,3.79 -1.89,4.55 -1.76,0.76 -6.19,3.41 -12.38,9.85 -6.19,6.44 -8.08,18.72 -8.34,24.26 -0.26,5.54 0.13,17.8 0.76,23.11 0.63,5.31 1.64,11.24 1.01,14.53 -0.63,3.29 -2.78,5.81 -5.68,5.81 -2.9,0 -5.18,-0.76 -6.19,-0.63 -1.01,0.13 -4.04,1.64 -6.57,1.39 -2.53,-0.25 -4.93,-3.79 -4.8,-7.07 0.13,-3.28 -0.83,-9.85 -1.3,-16.42 -0.47,-6.57 -1.35,-17.71 -1.35,-17.71 z"
             id="path14" />
          <path
             class="cls-1"
             d="m 976.57,270.63 c -0.63,-4.42 -2.27,-11.24 -3.03,-13.26 -0.76,-2.02 -3.03,-3.79 -4.17,-3.79 -1.14,0 -4.67,0.88 -8.72,3.03 -4.05,2.15 -5.94,3.41 -6.82,3.41 -0.88,0 -2.4,-0.38 -2.4,-0.38 0,0 2.4,-4.55 4.55,-7.71 2.15,-3.16 4.42,-4.29 3.92,-7.96 -0.51,-3.66 -4.55,-5.18 -8.46,-5.94 -3.92,-0.76 -7.83,-2.27 -13.26,-2.27 -5.43,0 -14.27,1.77 -21.98,6.95 -7.71,5.18 -12.76,11.75 -16.67,16.93 -3.91,5.18 -8.84,17.81 -10.23,26.78 -1.39,8.97 -1.14,17.94 4.04,29.81 5.18,11.87 16.55,19.71 25.26,21.73 8.72,2.02 23.62,1.64 36.51,-8.84 12.88,-10.48 18.95,-24.25 21.09,-34.23 2.15,-9.98 1.01,-19.83 0.38,-24.25 z m -23.78,20.18 c -1.33,4.74 -1.99,6.35 -3.22,9.38 -1.16,2.85 -6.16,9.47 -13.74,12.79 -7.58,3.32 -12.32,3.88 -18.38,-2.46 -6.06,-6.34 -6.06,-13.07 -5.87,-15.06 0.19,-1.99 0.95,-11.46 3.88,-17.62 2.94,-6.16 7.58,-11.65 11.46,-14.02 3.88,-2.37 9.19,-4.64 15.63,-3.79 6.44,0.85 9.47,7.39 10.23,12.98 0.76,5.59 1.33,13.07 0,17.81 z"
             id="path15" />
          <path
             class="cls-1"
             d="m 1012.19,366.13 c 0.47,2.37 2.27,8.24 2.56,9.66 0.29,1.42 0.57,3.13 1.33,4.26 0.76,1.13 2.37,3.41 6.25,1.8 3.88,-1.61 7.48,-3.98 13.17,-9.38 5.69,-5.4 9.57,-12.6 10.61,-16.39 1.04,-3.79 3.41,-11.94 2.65,-20.08 -0.76,-8.14 -5.02,-19.42 -11.08,-24.25 -6.06,-4.83 -8.72,-6.82 -13.93,-9.28 -5.21,-2.46 -11.75,-6.82 -13.36,-14.02 -1.45,-6.47 0.47,-11.18 3.41,-17.62 2.94,-6.44 6.63,-10.23 10.23,-14.21 0,0 3.32,-3.69 7.2,-6.25 3.88,-2.56 7.11,-3.69 4.36,-8.72 -2.75,-5.03 -4.26,-6.16 -5.68,-10.8 -1.42,-4.64 -3.98,-7.2 -8.43,-4.83 -4.45,2.37 -14.21,11.56 -19.14,16.96 -4.93,5.4 -14.31,20.75 -16.67,33.54 -2.36,12.79 1.99,31.55 14.59,40.17 12.6,8.62 17.43,10.04 21.79,17.43 4.36,7.39 1.52,12.69 -0.19,15.06 -1.71,2.37 -8.01,4.8 -9.19,9.85 -0.97,4.18 -0.47,7.11 -0.47,7.11 z"
             id="path16" />
        </g>
        <g
           id="g19">
          <path
             class="cls-1"
             d="m 1140.03,259.6 c 1.46,-3.1 3.16,-5.37 4.93,-7.39 1.77,-2.02 2.53,-5.05 -0.76,-6.63 -3.29,-1.58 -10.93,-5.12 -23.94,-5.49 -13.01,-0.38 -26.72,4.55 -33.28,11.31 -6.57,6.76 -12.44,13.96 -14.53,22.86 -2.08,8.91 -2.15,16.86 0.95,26.08 3.09,9.22 9.09,17.68 20.72,23.49 11.63,5.81 24.88,4.99 30.38,4.11 5.49,-0.88 13.45,-2.08 18.06,-4.29 4.61,-2.21 2.78,-7.58 2.53,-8.84 -0.25,-1.26 -1.89,-6.38 -2.34,-8.27 -0.45,-1.89 -3.09,-6.63 -8.46,-5.12 -5.37,1.52 -17.43,4.8 -26.02,2.27 -8.59,-2.53 -13.83,-9.09 -13.26,-17.81 0.57,-8.72 3.98,-14.72 6.95,-16.93 2.97,-2.21 8.46,-4.74 13.33,-5.18 4.87,-0.44 12.82,1.64 14.97,2.21 2.15,0.57 5.94,0.38 7.33,-1.64 1.39,-2.02 1.72,-3.15 2.46,-4.74 z"
             id="path17" />
          <path
             class="cls-1"
             d="m 1070.93,328.71 c 0.09,-1.45 0,-7.58 0,-8.91 0,-1.33 -1.04,-4.83 -3.88,-5.12 -2.84,-0.29 -3.41,-0.28 -5.78,-0.57 -2.37,-0.29 -7.58,2.08 -7.58,5.02 0,2.94 0.28,7.01 0,8.62 -0.28,1.61 -0.09,5.21 1.61,6.63 1.7,1.42 4.55,1.61 5.78,1.71 1.23,0.1 6.92,0.19 8.24,-1.8 1.32,-1.99 1.49,-3.69 1.61,-5.59 z"
             id="path18" />
          <path
             class="cls-1"
             d="m 1242.21,271.86 c -0.28,-3.41 -1.75,-9.14 -2.32,-12.08 -0.57,-2.94 -3.27,-5.68 -4.97,-5.64 -1.7,0.04 -3.79,0.43 -5.4,0.99 -1.61,0.57 -0.95,0.38 -5.26,2.37 -4.31,1.99 -6.21,2.27 -6.21,2.27 -0.43,-1.18 0.76,-2.75 2.08,-5.45 1.32,-2.7 1.56,-1.89 3.17,-4.41 1.61,-2.51 2.27,-4.12 2.18,-5.83 -0.09,-1.71 -2.65,-3.69 -2.65,-3.69 0,0 -4.5,-3.27 -14.31,-4.41 -9.81,-1.14 -20.18,1.94 -27.09,6.96 -6.92,5.02 -14.97,13.12 -18.62,19.89 -3.65,6.77 -8.05,18.19 -8.57,25.01 -0.52,6.82 0.28,17.1 1.89,21.74 1.61,4.64 4.55,12.84 10.94,19.09 6.39,6.25 18.33,10.52 27.14,10.52 8.81,0 16.72,-3.74 20.61,-6.11 3.88,-2.37 10.71,-7.96 13.55,-11.37 2.84,-3.41 10.52,-11.61 13.07,-26.19 2.56,-14.59 1.04,-20.27 0.76,-23.68 z m -22.8,9.76 c -0.11,3.6 0,8.59 -2.4,13.83 -2.4,5.24 -4.74,10.55 -11.31,15.35 -6.57,4.8 -10.04,4.86 -14.53,4.23 -4.48,-0.63 -10.67,-5.56 -12.51,-11.12 -1.83,-5.56 -2.08,-13.07 0,-20.02 2.08,-6.95 7.14,-14.72 13.07,-19.07 5.93,-4.35 14.21,-5.68 20.78,-2.84 6.57,2.84 6.95,17.44 6.88,19.64 z"
             id="path19" />
        </g>
      </g>
      <g
         id="g31">
        <g
           id="g27">
          <path
             class="cls-2"
             d="m 728.12,248.75 c -0.17,0.54 -0.28,1.1 -0.29,1.67 -0.23,8.82 -2,74.2 -3.07,78.86 -1.15,4.99 0.44,10.68 -4.81,10.63 -5.25,-0.05 -7.44,-0.62 -10.99,-0.28 -3.55,0.34 -6.16,-0.28 -7.53,-1.66 -0.57,-0.57 -0.98,-1.54 -1.23,-2.7 -0.61,-2.8 -3.28,-4.65 -6.13,-4.35 -0.12,0.01 -0.24,0.02 -0.35,0.04 -3.51,0.33 -17.01,1.75 -25.25,-0.62 -8.24,-2.37 -15.39,-5.54 -21.93,-13.64 -6.54,-8.1 -9.14,-17.43 -8.91,-25.77 0.24,-8.34 1.89,-15.77 6.11,-22.31 4.22,-6.54 12.03,-13.69 23.16,-15.96 11.13,-2.27 16.96,-1.04 22.78,0 4.29,0.77 9.52,2.22 11.99,2.94 1.19,0.35 2.42,-0.58 2.32,-1.81 0,-0.01 0,-0.03 0,-0.04 -0.14,-1.47 -0.19,-5.21 -0.09,-7.01 0.1,-1.8 1.71,-2.98 3.79,-3.03 2.08,-0.05 4.31,-0.38 6.77,-0.43 2.46,-0.05 5.4,0.52 7.63,0.81 2.23,0.28 4.59,-0.05 5.73,1.61 0.73,1.07 0.54,2.31 0.31,3.06 z m -25.46,41.41 c 0.03,-0.29 0.11,-0.56 0.19,-0.84 0.5,-1.62 0.42,-3.93 -0.63,-4.88 -1.14,-1.04 -3.98,-3.69 -7.11,-5.02 -3.13,-1.33 -5.02,-2.75 -11.56,-3.88 -6.54,-1.14 -11.56,-0.19 -15.63,1.42 -4.07,1.61 -8.53,8.91 -7.2,15.06 1.33,6.15 1.52,8.62 7.48,12.88 5.97,4.26 12.6,3.69 19.8,2.65 7.2,-1.04 10.71,-5.31 10.71,-5.31 2.74,-2.41 3.73,-10.2 3.94,-12.09 z"
             id="path20" />
          <path
             class="cls-3"
             d="m 457.55,248.75 c -0.17,0.54 -0.28,1.1 -0.29,1.67 -0.23,8.82 -2,74.2 -3.07,78.86 -1.15,4.99 0.44,10.68 -4.81,10.63 -5.25,-0.05 -7.44,-0.62 -10.99,-0.28 -3.55,0.34 -6.16,-0.28 -7.53,-1.66 -0.57,-0.57 -0.98,-1.54 -1.23,-2.7 -0.61,-2.8 -3.28,-4.65 -6.13,-4.35 -0.12,0.01 -0.24,0.02 -0.35,0.04 -3.51,0.33 -17.01,1.75 -25.25,-0.62 -8.24,-2.37 -15.39,-5.54 -21.93,-13.64 -6.54,-8.1 -9.14,-17.43 -8.91,-25.77 0.23,-8.34 1.89,-15.77 6.11,-22.31 4.22,-6.54 12.03,-13.69 23.16,-15.96 11.13,-2.27 16.96,-1.04 22.78,0 4.29,0.77 9.52,2.22 11.99,2.94 1.19,0.35 2.42,-0.58 2.32,-1.81 0,-0.01 0,-0.03 0,-0.04 -0.14,-1.47 -0.19,-5.21 -0.09,-7.01 0.1,-1.8 1.71,-2.98 3.79,-3.03 2.08,-0.05 4.31,-0.38 6.77,-0.43 2.46,-0.05 5.4,0.52 7.63,0.81 2.23,0.28 4.59,-0.05 5.73,1.61 0.73,1.07 0.54,2.31 0.31,3.06 z m -25.46,41.41 c 0.03,-0.29 0.11,-0.56 0.19,-0.84 0.5,-1.62 0.42,-3.93 -0.63,-4.88 -1.14,-1.04 -3.98,-3.69 -7.11,-5.02 -3.13,-1.33 -5.02,-2.75 -11.56,-3.88 -6.54,-1.14 -11.56,-0.19 -15.63,1.42 -4.07,1.61 -8.53,8.91 -7.2,15.06 1.33,6.15 1.52,8.62 7.48,12.88 5.97,4.26 12.6,3.69 19.8,2.65 7.2,-1.04 10.71,-5.31 10.71,-5.31 2.74,-2.41 3.73,-10.2 3.94,-12.09 z"
             id="path21" />
          <path
             class="cls-2"
             d="m 535.55,258.14 c 1.46,-3.1 3.16,-5.37 4.93,-7.39 1.77,-2.02 2.53,-5.05 -0.76,-6.63 -3.29,-1.58 -10.93,-5.12 -23.94,-5.49 -13.01,-0.38 -26.72,4.55 -33.28,11.31 -6.57,6.76 -12.44,13.96 -14.53,22.86 -2.08,8.91 -2.15,16.86 0.95,26.08 3.09,9.22 9.09,17.68 20.72,23.49 11.63,5.81 24.88,4.99 30.38,4.11 5.49,-0.88 13.45,-2.08 18.06,-4.29 4.61,-2.21 2.78,-7.58 2.53,-8.84 -0.25,-1.26 -1.89,-6.38 -2.34,-8.27 -0.45,-1.89 -3.09,-6.63 -8.46,-5.12 -5.37,1.52 -17.43,4.8 -26.02,2.27 -8.59,-2.53 -13.83,-9.09 -13.26,-17.81 0.57,-8.72 3.98,-14.72 6.95,-16.93 2.97,-2.21 8.46,-4.74 13.33,-5.18 4.87,-0.44 12.82,1.64 14.97,2.21 2.15,0.57 5.94,0.38 7.33,-1.64 1.39,-2.02 1.72,-3.15 2.46,-4.74 z"
             id="path22" />
          <path
             class="cls-2"
             d="m 549.51,304.49 c 0.88,6.18 2.84,17.24 7.07,24.44 4.23,7.2 12.95,16.55 25.83,16.29 12.88,-0.26 21.35,-7.26 28.17,-16.86 6.82,-9.6 9.6,-16.67 11.94,-23.43 2.34,-6.76 6.06,-19.83 7.58,-25.83 1.52,-6 3.98,-17.43 4.42,-20.84 0.44,-3.41 -0.76,-7.33 -3.66,-7.52 -2.9,-0.19 -4.61,0.57 -6.57,-0.19 -1.96,-0.76 -3.85,-1.83 -8.34,-2.08 -4.48,-0.25 -4.48,5.43 -5.05,8.02 -0.57,2.59 -2.21,13.45 -3.47,18.06 -1.26,4.61 -7.07,24.57 -11.18,33.09 -4.11,8.53 -6.88,13.33 -12.06,13.33 -5.18,0 -7.96,-2.46 -9.98,-11.24 -2.02,-8.78 -2.53,-19.89 -2.78,-23.81 -0.25,-3.92 0.95,-25.01 0.88,-28.36 -0.07,-3.35 -2.59,-7.2 -6.13,-7.26 -3.54,-0.06 -7.07,0.19 -8.65,0 -1.58,-0.19 -3.54,-1.14 -4.61,-1.14 -1.07,0 -3.85,1.14 -3.85,4.48 0,3.34 -0.06,27.6 -0.25,34.61 -0.19,7.01 0.38,14.06 0.69,16.23 z"
             id="path23" />
          <path
             class="cls-2"
             d="m 819.67,334.68 c -0.03,3.69 -3.25,5.24 -4.89,5.18 -1.64,-0.06 -2.97,-0.6 -4.89,-0.73 -1.93,-0.13 -4.77,0.35 -6.88,0.47 -2.11,0.12 -4.42,-0.06 -6.06,-2.02 -1.64,-1.96 -1.67,-3.32 -1.67,-5.68 0,-2.36 -1.23,-2.08 -2.94,-1.99 -1.71,0.09 -4.26,1.8 -7.01,2.08 -2.75,0.28 -8.91,0.57 -14.59,0 -5.68,-0.57 -18.19,-3.79 -27,-13.74 -8.81,-9.95 -10.61,-20.56 -10.71,-30.98 -0.09,-10.42 8.43,-24.82 19.42,-31.64 10.99,-6.82 21.98,-7.11 28.71,-6.06 6.73,1.04 6.35,2.37 11.46,2.37 5.11,0 5.4,-3.79 5.21,-5.49 -0.19,-1.7 0.19,-7.29 0.57,-9.85 0.38,-2.56 -0.47,-5.4 0,-10.42 0.47,-5.02 4.74,-5.12 6.35,-5.4 1.61,-0.28 10.14,0.47 12.22,0.76 2.08,0.28 4.74,0.47 4.83,6.44 0.09,5.97 -0.47,25.58 -0.76,36.47 -0.28,10.89 -0.85,44.81 -1.23,51.25 -0.38,6.44 0,9.76 0,9.76 0.16,3.22 -0.09,5.53 -0.13,9.22 z m -22.76,-60.66 c 0,0 -1.37,2.61 -4.31,2.98 -2.94,0.37 -4.55,-0.9 -7.58,-2.04 -3.03,-1.14 -6.25,-2.13 -8.95,-2.04 -2.7,0.09 -9.66,0.57 -14.31,5.49 -4.64,4.93 -5.4,7.11 -5.49,11.75 -0.09,4.64 3.6,12.13 7.44,14.59 3.84,2.46 8.95,3.88 15.02,3.93 6.06,0.05 9.19,-1.99 11.42,-3.08 2.23,-1.09 7.63,-5.73 7.29,-9.99 -0.33,-4.26 -0.85,-8.67 -0.76,-11.98 0.09,-3.31 0.24,-9.62 0.24,-9.62 z"
             id="path24" />
          <path
             class="cls-2"
             d="m 835.11,293.36 c -0.51,-5.43 -1.39,-21.46 -1.64,-26.77 0,0 -0.63,-8.2 -0.88,-14.39 -0.25,-6.19 -1.14,-11.36 -1.14,-11.36 0,0 -0.13,-3.68 1.83,-4.56 1.96,-0.88 2.72,0.25 4.61,0 1.89,-0.25 3.79,-1.26 6.44,-1.52 2.65,-0.26 5.43,-0.63 7.45,0.63 2.02,1.26 2.78,3.28 3.54,4.67 0.76,1.39 3.03,1.92 4.55,0.77 1.52,-1.15 2.27,-2.54 6.44,-5.07 4.17,-2.53 7.71,-3.16 8.97,-2.02 1.26,1.14 3.79,4.07 4.29,7.09 0.5,3.02 1.01,5.04 1.26,6.81 0.25,1.77 0.76,2.4 1.01,4.04 0.25,1.64 -0.13,3.79 -1.89,4.55 -1.76,0.76 -6.19,3.41 -12.38,9.85 -6.19,6.44 -8.08,18.72 -8.34,24.26 -0.26,5.54 0.13,17.8 0.76,23.11 0.63,5.31 1.64,11.24 1.01,14.53 -0.63,3.29 -2.78,5.81 -5.68,5.81 -2.9,0 -5.18,-0.76 -6.19,-0.63 -1.01,0.13 -4.04,1.64 -6.57,1.39 -2.53,-0.25 -4.93,-3.79 -4.8,-7.07 0.13,-3.28 -0.83,-9.85 -1.3,-16.42 -0.47,-6.57 -1.35,-17.71 -1.35,-17.71 z"
             id="path25" />
          <path
             class="cls-2"
             d="m 975.07,268.62 c -0.63,-4.42 -2.27,-11.24 -3.03,-13.26 -0.76,-2.02 -3.03,-3.79 -4.17,-3.79 -1.14,0 -4.67,0.88 -8.72,3.03 -4.05,2.15 -5.94,3.41 -6.82,3.41 -0.88,0 -2.4,-0.38 -2.4,-0.38 0,0 2.4,-4.55 4.55,-7.71 2.15,-3.16 4.42,-4.29 3.92,-7.96 -0.51,-3.66 -4.55,-5.18 -8.46,-5.94 -3.92,-0.76 -7.83,-2.27 -13.26,-2.27 -5.43,0 -14.27,1.77 -21.98,6.95 -7.71,5.18 -12.76,11.75 -16.67,16.93 -3.91,5.18 -8.84,17.81 -10.23,26.78 -1.39,8.97 -1.14,17.94 4.04,29.81 5.18,11.87 16.55,19.71 25.26,21.73 8.72,2.02 23.62,1.64 36.51,-8.84 12.88,-10.48 18.95,-24.25 21.09,-34.23 2.15,-9.98 1.01,-19.83 0.38,-24.25 z m -23.78,20.18 c -1.33,4.74 -1.99,6.35 -3.22,9.38 -1.16,2.85 -6.16,9.47 -13.74,12.79 -7.58,3.32 -12.32,3.88 -18.38,-2.46 -6.06,-6.34 -6.06,-13.07 -5.87,-15.06 0.19,-1.99 0.95,-11.46 3.88,-17.62 2.94,-6.16 7.58,-11.65 11.46,-14.02 3.88,-2.37 9.19,-4.64 15.63,-3.79 6.44,0.85 9.47,7.39 10.23,12.98 0.76,5.59 1.33,13.07 0,17.81 z"
             id="path26" />
          <path
             class="cls-2"
             d="m 1010.69,364.12 c 0.47,2.37 2.27,8.24 2.56,9.66 0.29,1.42 0.57,3.13 1.33,4.26 0.76,1.13 2.37,3.41 6.25,1.8 3.88,-1.61 7.48,-3.98 13.17,-9.38 5.69,-5.4 9.57,-12.6 10.61,-16.39 1.04,-3.79 3.41,-11.94 2.65,-20.08 -0.76,-8.14 -5.02,-19.42 -11.08,-24.25 -6.06,-4.83 -8.72,-6.82 -13.93,-9.28 -5.21,-2.46 -11.75,-6.82 -13.36,-14.02 -1.45,-6.47 0.47,-11.18 3.41,-17.62 2.94,-6.44 6.63,-10.23 10.23,-14.21 0,0 3.32,-3.69 7.2,-6.25 3.88,-2.56 7.11,-3.69 4.36,-8.72 -2.75,-5.03 -4.26,-6.16 -5.68,-10.8 -1.42,-4.64 -3.98,-7.2 -8.43,-4.83 -4.45,2.37 -14.21,11.56 -19.14,16.96 -4.93,5.4 -14.31,20.75 -16.67,33.54 -2.36,12.79 1.99,31.55 14.59,40.17 12.6,8.62 17.43,10.04 21.79,17.43 4.36,7.39 1.52,12.69 -0.19,15.06 -1.71,2.37 -8.01,4.8 -9.19,9.85 -0.97,4.18 -0.47,7.11 -0.47,7.11 z"
             id="path27" />
        </g>
        <g
           id="g30">
          <path
             class="cls-3"
             d="m 1138.53,257.59 c 1.46,-3.1 3.16,-5.37 4.93,-7.39 1.77,-2.02 2.53,-5.05 -0.76,-6.63 -3.29,-1.58 -10.93,-5.12 -23.94,-5.49 -13.01,-0.38 -26.72,4.55 -33.28,11.31 -6.57,6.76 -12.44,13.96 -14.53,22.86 -2.08,8.91 -2.15,16.86 0.95,26.08 3.09,9.22 9.09,17.68 20.72,23.49 11.63,5.81 24.88,4.99 30.38,4.11 5.49,-0.88 13.45,-2.08 18.06,-4.29 4.61,-2.21 2.78,-7.58 2.53,-8.84 -0.25,-1.26 -1.89,-6.38 -2.34,-8.27 -0.45,-1.89 -3.09,-6.63 -8.46,-5.12 -5.37,1.52 -17.43,4.8 -26.02,2.27 -8.59,-2.53 -13.83,-9.09 -13.26,-17.81 0.57,-8.72 3.98,-14.72 6.95,-16.93 2.97,-2.21 8.46,-4.74 13.33,-5.18 4.87,-0.44 12.82,1.64 14.97,2.21 2.15,0.57 5.94,0.38 7.33,-1.64 1.39,-2.02 1.72,-3.15 2.46,-4.74 z"
             id="path28" />
          <path
             class="cls-3"
             d="m 1069.43,326.69 c 0.09,-1.45 0,-7.58 0,-8.91 0,-1.33 -1.04,-4.83 -3.88,-5.12 -2.84,-0.29 -3.41,-0.28 -5.78,-0.57 -2.37,-0.29 -7.58,2.08 -7.58,5.02 0,2.94 0.28,7.01 0,8.62 -0.28,1.61 -0.09,5.21 1.61,6.63 1.7,1.42 4.55,1.61 5.78,1.71 1.23,0.1 6.92,0.19 8.24,-1.8 1.32,-1.99 1.49,-3.69 1.61,-5.59 z"
             id="path29" />
          <path
             class="cls-3"
             d="m 1240.71,269.85 c -0.28,-3.41 -1.75,-9.14 -2.32,-12.08 -0.57,-2.94 -3.27,-5.68 -4.97,-5.64 -1.7,0.04 -3.79,0.43 -5.4,0.99 -1.61,0.57 -0.95,0.38 -5.26,2.37 -4.31,1.99 -6.21,2.27 -6.21,2.27 -0.43,-1.18 0.76,-2.75 2.08,-5.45 1.32,-2.7 1.56,-1.89 3.17,-4.41 1.61,-2.51 2.27,-4.12 2.18,-5.83 -0.09,-1.71 -2.65,-3.69 -2.65,-3.69 0,0 -4.5,-3.27 -14.31,-4.41 -9.81,-1.14 -20.18,1.94 -27.09,6.96 -6.92,5.02 -14.97,13.12 -18.62,19.89 -3.65,6.77 -8.05,18.19 -8.57,25.01 -0.52,6.82 0.28,17.1 1.89,21.74 1.61,4.64 4.55,12.84 10.94,19.09 6.39,6.25 18.33,10.52 27.14,10.52 8.81,0 16.72,-3.74 20.61,-6.11 3.88,-2.37 10.71,-7.96 13.55,-11.37 2.84,-3.41 10.52,-11.61 13.07,-26.19 2.56,-14.59 1.04,-20.27 0.76,-23.68 z m -22.8,9.76 c -0.11,3.6 0,8.59 -2.4,13.83 -2.4,5.24 -4.74,10.55 -11.31,15.35 -6.57,4.8 -10.04,4.86 -14.53,4.23 -4.48,-0.63 -10.67,-5.56 -12.51,-11.12 -1.83,-5.56 -2.08,-13.07 0,-20.02 2.08,-6.95 7.14,-14.72 13.07,-19.07 5.93,-4.35 14.21,-5.68 20.78,-2.84 6.57,2.84 6.95,17.44 6.88,19.64 z"
             id="path30" />
        </g>
      </g>
    </g>
    <g
       id="g40">
      <path
         class="cls-4"
         d="m 885.81,56.03 c -0.26,2 -0.58,9.04 -1.1,14.35 -0.53,5.31 -2.1,26.59 -2.73,33.84 -0.63,7.25 -2.42,44.3 -2.73,49.45 -0.32,5.15 -2.36,32.16 -2.63,36.31 -0.26,4.15 0.81,10.83 -10.46,12.46 -7.43,1.07 -16.08,1.89 -21.86,2.52 l -16.5,1.52 c -4.1,0.26 -14.66,1.42 -18.39,1.63 -3.73,0.21 -25.54,2.31 -30.06,2.57 -4.52,0.26 -23.28,2.26 -27.7,2.68 -4.41,0.42 -8.62,1.1 -12.77,1.58 -4.15,0.48 -6.88,-1.42 -7.3,-5.47 -0.42,-4.05 -1.31,-18.45 -1.94,-23.02 -0.63,-4.57 -2.58,-27.01 -3.31,-32.21 -0.74,-5.2 -1.89,-19.76 -2.73,-26.17 -0.84,-6.41 -3.31,-38.05 -3.63,-42.51 -0.32,-4.47 -2.1,-36.16 -2.42,-40.73 -0.32,-4.57 -0.21,-5.83 -0.37,-8.67 -0.16,-2.84 3.73,-7.15 7.2,-6.52 3.47,0.63 15.66,2.36 21.65,3.26 5.99,0.89 38.31,5.68 46.88,6.78 8.57,1.1 31.27,4.36 40.73,5.47 9.46,1.1 35.16,4.36 38.21,4.89 3.05,0.53 7.36,1 9.88,1.31 2.52,0.32 4.36,2.68 4.1,4.68 z"
         id="path32" />
      <g
         id="g39">
        <path
           class="cls-3"
           d="m 880.8,41.73 c -12.13,-1.23 -49.36,-5.97 -49.36,-5.97 0,0 -5.02,-15.06 -7.29,-20.75 -2.27,-5.68 -1.61,-7.48 -4.74,-12.69 -3.13,-5.21 -7.86,0 -7.86,0 -3.22,4.74 -8.05,11.56 -8.05,11.56 l -12.32,17.43 c 0,0 -19.04,-2.18 -31.93,-3.69 -12.88,-1.52 -28.8,-2.56 -35.15,-3.13 -6.35,-0.57 -10.89,6.73 -11.08,10.89 -0.19,4.17 0.28,5.02 0.47,7.77 0.19,2.75 1.71,14.4 2.27,22.83 0.56,8.43 2.94,39.69 3.51,49.36 0.57,9.67 1.61,34.01 1.89,42.82 0.28,8.81 1.23,27.66 1.42,32.68 0.19,5.02 1.14,18.47 1.14,18.47 0,0 0.28,7.77 5.31,11.4 5.03,3.63 11.75,2.05 11.75,2.05 8.81,-1.23 29.37,-4.36 29.37,-4.36 10.61,-1.71 36.19,-5.97 36.19,-5.97 6.63,-1.14 21.69,-3.6 28.33,-4.64 0,0 16.86,-2.84 29.18,-4.26 12.32,-1.42 13.26,-5.68 13.93,-12.03 0.67,-6.35 15.92,-122.78 16.96,-131.59 1.04,-8.81 -1.8,-16.96 -13.93,-18.19 z m 4.98,14.29 c -0.26,2 -0.58,9.04 -1.1,14.35 -0.53,5.31 -2.1,26.59 -2.73,33.84 -0.63,7.25 -2.42,44.3 -2.73,49.45 -0.32,5.15 -2.36,32.16 -2.63,36.31 -0.26,4.15 0.81,10.83 -10.46,12.46 -7.43,1.07 -16.08,1.89 -21.86,2.52 l -16.5,1.52 c -4.1,0.26 -14.66,1.42 -18.39,1.63 -3.73,0.21 -25.54,2.31 -30.06,2.57 -4.52,0.26 -23.28,2.26 -27.7,2.68 -4.41,0.42 -8.62,1.1 -12.77,1.58 -4.15,0.48 -6.88,-1.42 -7.3,-5.47 -0.42,-4.05 -1.31,-18.45 -1.94,-23.02 -0.63,-4.57 -2.58,-27.01 -3.31,-32.21 -0.74,-5.2 -1.89,-19.76 -2.73,-26.17 -0.84,-6.41 -3.31,-38.05 -3.63,-42.51 -0.32,-4.47 -2.1,-36.16 -2.42,-40.73 -0.32,-4.57 -0.21,-5.83 -0.37,-8.67 -0.16,-2.84 3.73,-7.15 7.2,-6.52 3.47,0.63 15.66,2.36 21.65,3.26 5.99,0.89 38.31,5.68 46.88,6.78 8.57,1.1 31.27,4.36 40.73,5.47 9.46,1.1 35.16,4.36 38.21,4.89 3.05,0.53 7.36,1 9.88,1.31 2.52,0.32 4.36,2.68 4.1,4.68 z"
           id="path33" />
        <path
           class="cls-2"
           d="m 870.1,55.65 c -10.29,-1.57 -44.72,-6.16 -60.06,-8.15 -15.34,-1.99 -42.16,-5.4 -42.16,-5.4 -8.43,-0.95 -30.41,-4.07 -30.41,-4.07 -7.96,-0.85 -12.87,5.74 -12.69,10.52 0.38,10.61 3.32,43.2 3.88,51.06 0.56,7.86 3.32,40.83 4.17,50.21 0.85,9.38 1.52,17.91 1.99,23.59 0.47,5.68 0.85,15.44 1.99,22.74 1.14,7.3 5.01,11.39 12.69,10.71 7.39,-0.66 26.62,-1.89 41.49,-2.94 14.87,-1.04 60.44,-4.74 69.73,-5.49 9.28,-0.76 11.56,-5.59 11.94,-10.14 0.38,-4.55 1.23,-17.05 1.61,-22.83 0.38,-5.78 3.98,-68.78 4.36,-75.41 0.38,-6.63 1.14,-24.44 1.14,-24.44 0,-1.61 -0.95,-8.62 -9.66,-9.95 z m -80.62,146.28 c -7.77,0.66 -34.96,3.41 -41.21,3.88 -1.49,0.11 -2.82,-0.26 -3.99,-0.93 0.28,-2.32 2.09,-17.12 2.66,-21.57 0.62,-4.83 5.87,-43.63 6.49,-47.94 0.62,-4.31 6.63,-32.97 8.72,-40.97 2.08,-8.01 6.54,-18.9 6.54,-18.9 0,0 4.88,8.57 6.35,11.46 1.47,2.89 4.64,9.33 5.49,10.71 0.85,1.37 1.99,1.28 3.6,1.04 1.61,-0.24 21.03,-3.55 21.03,-3.55 0,0 5.64,-0.38 7.63,-1.89 1.99,-1.52 2.37,-3.51 2.37,-3.51 l 7.72,-14.49 c 0,0 7.34,30.65 7.91,32.78 0.57,2.13 1.61,1.99 2.61,1.89 0.99,-0.09 12.03,-1.47 12.03,-1.47 0,0 -0.05,2.65 0,3.6 0.05,0.95 -0.19,4.59 2.42,7.39 2.61,2.8 4.93,3.32 5.87,3.55 0.95,0.24 6.82,0.14 6.82,0.14 0,0 -2.84,25.72 -3.03,27.43 -0.19,1.71 -0.62,2.32 -2.42,2.84 -1.8,0.52 -8.95,2.51 -15.44,4.26 -6.49,1.75 -15.77,3.27 -15.77,3.27 0,0 1.37,20.32 1.37,25.29 0,4.1 0.1,10.19 0.13,12.2 -15.8,1.55 -31.97,3.14 -35.89,3.48 z m 63.14,-92.89 c 0,-1.52 1.28,-2.13 2.79,-2.18 1.52,-0.05 6.21,-0.47 6.21,-0.47 0,0 -0.43,7.53 -0.43,8.15 0,0.62 -0.09,1.37 -1.18,1.28 -1.09,-0.09 -3.98,0 -5.59,-0.33 -1.61,-0.33 -1.94,-1.56 -2.04,-2.7 -0.1,-1.14 0.24,-2.23 0.24,-3.74 z M 877.77,67.4 c -0.47,3.88 -1.42,31.74 -2.37,47.46 -0.95,15.72 -6.06,65.65 -5.97,72.19 0.09,6.54 -4.74,7.67 -10.52,8.15 -2.42,0.2 -13.59,1.29 -26.34,2.54 -0.11,-1.5 -0.37,-5.26 -0.33,-6.62 0.05,-1.71 -1.09,-20.32 -1.04,-22.26 0.05,-1.94 0.52,-2.23 2.46,-2.7 1.94,-0.47 4.83,-1.37 7.82,-2.04 2.98,-0.66 11.89,-3.17 15.44,-4.22 3.55,-1.04 6.77,-2.51 7.2,-6.96 0.43,-4.45 2.51,-22.97 2.7,-26.01 0.19,-3.03 1.71,-16.44 1.75,-20.18 0.04,-3.74 -0.81,-5.83 -4.17,-6.82 -3.36,-0.99 -10.04,0.14 -14.64,0.71 -4.59,0.57 -12.93,1.75 -12.93,1.75 0,0 -2.94,-11.46 -4.07,-16.39 -1.13,-4.93 -2.65,-10.33 -3.98,-14.78 -1.33,-4.45 -2.37,-6.82 -5.07,-6.92 -2.7,-0.09 -4.74,3.69 -5.97,5.73 -1.23,2.04 -6.82,12.79 -7.91,14.59 -1.09,1.8 -1.71,3.36 -4.93,3.69 -3.22,0.33 -16.63,2.89 -18.09,2.89 -1.46,0 -2.13,-0.9 -2.56,-2.04 -1.55,-4.13 -8.15,-14.78 -11.18,-19.23 -3.03,-4.45 -6.92,-2.84 -9.47,1.04 -2.56,3.88 -6.92,15.63 -8.24,21.41 -1.33,5.78 -5.49,22.26 -7.11,31.17 -1.62,8.91 -5.49,37.23 -6.63,45.28 -1.14,8.05 -2.65,21.69 -2.65,21.69 l -0.28,3.7 c 0,-0.1 0,-0.2 0,-0.29 0,0 -1.33,-19.61 -1.99,-31.36 -0.66,-11.75 -3.88,-59.59 -4.55,-71.43 -0.66,-11.84 -2.84,-37.42 -2.65,-41.87 0.19,-4.45 4.17,-7.2 7.67,-6.82 3.51,0.38 33.63,4.17 41.02,5.12 7.39,0.95 47.65,5.21 60.16,6.82 12.51,1.61 23.21,2.84 30.41,3.6 7.2,0.76 9.47,5.49 9,9.38 z"
           id="path34" />
        <g
           id="g38">
          <ellipse
             class="cls-5"
             cx="814.98999"
             cy="117.18"
             rx="3.3800001"
             ry="5.1199999"
             id="ellipse34" />
          <path
             class="cls-5"
             d="m 793.24,124.14 c 1.99,0 3.6,-2.25 3.6,-5.03 0,-2.78 -1.61,-5.03 -3.6,-5.03 -1.99,0 -3.6,2.25 -3.6,5.03 0,2.78 1.61,5.03 3.6,5.03 z"
             id="path35" />
          <polygon
             class="cls-5"
             points="825.24,186.25 824.36,167.64 806.06,168.52 806.06,186.26 "
             id="polygon35" />
          <polygon
             class="cls-5"
             points="806.06,186.26 787.8,187.53 789.48,201.93 809.15,200.04 "
             id="polygon36" />
          <polygon
             class="cls-5"
             points="786.1,165.67 767.97,165.29 763.36,189.23 787.8,187.53 "
             id="polygon37" />
          <path
             class="cls-5"
             d="m 744.28,204.88 c 1.17,0.68 2.5,1.05 3.99,0.93 2.39,-0.18 7.83,-0.69 14.08,-1.29 l 1.02,-15.28 -16.46,-5.65 c -0.6,4.74 -2.35,19.01 -2.63,21.29 z"
             id="path37" />
          <polygon
             class="cls-5"
             points="769.3,147.45 752.53,141.9 749.62,163.32 767.97,165.29 "
             id="polygon38" />
        </g>
      </g>
    </g>
    <g
       id="g91">
      <g
         id="g65">
        <g
           id="g43">
          <path
             class="cls-1"
             d="m 657.51,356.95 c -0.69,-0.25 -3.03,0 -4.8,0.38 -1.77,0.38 -3.98,1.2 -5.18,1.64 -1.2,0.44 -5.12,2.08 -4.8,3.66 0.32,1.58 2.21,1.64 2.21,1.64 l -0.06,4.17 c 0,0 -1.71,0.32 -1.71,1.2 0,0.88 1.07,1.71 1.07,1.71 0,0 0.19,2.53 0.19,6.06 0,3.53 2.65,4.48 5.56,4.8 2.91,0.32 6.19,0.38 6.95,0.38 0.76,0 1.2,-1.01 1.2,-1.96 0,-0.95 -0.88,-1.89 -1.26,-1.83 -0.38,0.06 -1.2,0.76 -1.2,0.76 0,0 -1.96,0.51 -4.04,0 -2.08,-0.51 -4.11,-0.63 -3.85,-3.16 0.25,-2.53 0.32,-5.56 1.83,-5.49 1.52,0.06 3.92,-0.19 5.81,-0.32 1.89,-0.13 1.45,-2.91 0.44,-2.97 -1.01,-0.06 -3.35,0.13 -4.55,0.38 -1.2,0.25 -2.59,-0.51 -2.59,-1.33 0,-0.82 0.44,-4.04 0.44,-4.04 l 6.32,-1.96 c 0,0 0.88,-0.25 2.59,-0.95 1.71,-0.69 0.13,-2.53 -0.57,-2.78 z"
             id="path40" />
          <path
             class="cls-1"
             d="m 607.98,379.49 c -0.24,-0.81 -0.9,-2.79 -1.75,-5.83 -0.85,-3.03 -2.84,-11.08 -3.13,-12.41 -0.28,-1.33 0.09,-2.61 -0.52,-3.84 -0.62,-1.23 -1.28,-2.32 -2.18,-2.32 -0.9,0 -1.33,0.99 -1.8,2.56 -0.47,1.56 -2.46,8.19 -3.22,10.71 0,0 -0.24,0.95 -0.71,2.08 -0.47,1.14 -1.04,1.71 -1.66,1.71 -0.62,0 -0.66,1.33 -0.09,1.61 0.57,0.28 0.76,1.47 0.24,2.56 -0.52,1.09 -1.52,4.59 -1.75,5.02 -0.24,0.43 -0.57,3.08 0.66,3.51 1.23,0.43 1.99,0.05 2.27,-0.76 0.28,-0.81 0.95,-3.6 1.66,-6.35 0.71,-2.75 0.81,-3.17 2.13,-3.65 1.33,-0.47 3.27,-0.57 3.88,-0.52 0.61,0.05 0.9,1.56 1.37,3.46 0.47,1.89 1.04,4.36 1.56,4.83 0.52,0.47 1.75,0.81 2.61,0 0.85,-0.81 0.66,-1.56 0.43,-2.37 z m -7.04,-8.53 c -0.89,-0.12 -3,0.02 -3,0.02 0,0 1.54,-5.02 2.27,-6.96 0,0 1.35,6.18 1.44,6.37 0.09,0.19 0.17,0.69 -0.72,0.57 z"
             id="path41" />
          <path
             class="cls-1"
             d="m 627.75,381.13 c -0.44,-0.73 -1.8,-2.15 -3.54,-3.95 -1.74,-1.8 -5.34,-4.96 -6.51,-5.87 -1.17,-0.92 -1.33,-1.58 -0.82,-1.83 0.51,-0.25 2.31,-1.67 4.2,-4.04 1.89,-2.37 0.95,-5.59 -0.22,-7.58 -1.17,-1.99 -3.06,-2.72 -6,-2.62 -2.94,0.09 -3.44,2.18 -3.76,4.99 -0.32,2.81 -0.16,9.79 -0.32,12.95 -0.16,3.16 -0.51,7.93 -0.41,9.82 0.1,1.89 3,1.23 3.22,0.41 0.22,-0.82 1.11,-10.96 1.11,-10.96 0,0 7.58,7.58 9.85,9.63 2.27,2.05 2.12,1.48 2.75,0.92 0.63,-0.57 0.88,-1.14 0.44,-1.86 z m -13.04,-21.66 c 0.28,-1.17 1.55,-1.42 2.18,-1.07 0.63,0.35 2.75,1.07 1.83,3.88 -0.92,2.81 -2.84,4.42 -3.85,4.74 0,0 -0.44,-6.38 -0.16,-7.55 z"
             id="path42" />
          <path
             class="cls-1"
             d="m 633.06,358.2 c 0,0 -4.36,0.57 -5.87,0.63 -1.51,0.06 -3.54,-0.38 -4.2,-1.39 -0.66,-1.01 0,-1.77 1.42,-1.93 1.42,-0.16 3.28,-0.41 5.43,-0.51 2.15,-0.1 3.6,-1.48 4.29,-1.45 0.69,0.03 2.24,0.95 4.99,0.51 2.75,-0.44 5.97,-1.36 7.42,-1.26 1.45,0.1 2.27,2.11 0.82,3.02 -1.45,0.91 -10.26,1.91 -10.26,1.91 0,0 -0.76,7.26 -0.79,11.15 -0.03,3.89 -0.06,10.93 0.06,11.4 0.12,0.47 0.06,2.62 -0.63,2.91 -0.69,0.29 -3.19,-0.19 -3.32,-3.09"
             id="path43" />
        </g>
        <g
           id="g45">
          <path
             class="cls-1"
             d="m 701.71,356.95 c -0.69,-0.25 -3.03,0 -4.8,0.38 -1.77,0.38 -3.98,1.2 -5.18,1.64 -1.2,0.44 -5.12,2.08 -4.8,3.66 0.32,1.58 2.21,1.64 2.21,1.64 l -0.06,4.17 c 0,0 -1.71,0.32 -1.71,1.2 0,0.88 1.07,1.71 1.07,1.71 0,0 0.19,2.53 0.19,6.06 0,3.53 2.65,4.48 5.56,4.8 2.91,0.32 6.19,0.38 6.95,0.38 0.76,0 1.2,-1.01 1.2,-1.96 0,-0.95 -0.88,-1.89 -1.26,-1.83 -0.38,0.06 -1.2,0.76 -1.2,0.76 0,0 -1.96,0.51 -4.04,0 -2.08,-0.51 -4.11,-0.63 -3.85,-3.16 0.25,-2.53 0.32,-5.56 1.83,-5.49 1.52,0.06 3.92,-0.19 5.81,-0.32 1.89,-0.13 1.45,-2.91 0.44,-2.97 -1.01,-0.06 -3.35,0.13 -4.55,0.38 -1.2,0.25 -2.59,-0.51 -2.59,-1.33 0,-0.82 0.44,-4.04 0.44,-4.04 l 6.32,-1.96 c 0,0 0.88,-0.25 2.59,-0.95 1.71,-0.69 0.13,-2.53 -0.57,-2.78 z"
             id="path44" />
          <path
             class="cls-1"
             d="m 683.9,364.93 c -2.18,-4.26 -6.41,-6.41 -9.16,-7.26 -2.75,-0.85 -3.6,0.32 -3.28,1.07 0.32,0.76 1.64,1.99 1.64,1.99 0,0 -0.19,14.15 -0.25,17.72 0,0 -0.19,2.31 -0.03,3.41 0.16,1.11 2.02,1.64 2.68,1.23 0.66,-0.41 4.45,-3.73 6.57,-7.01 2.12,-3.28 4.01,-6.88 1.83,-11.15 z m -2.97,6.13 c -0.85,2.31 -4.39,6.28 -4.39,6.28 0,0 -0.44,-13.77 0.13,-15.16 0,0 3.28,1.64 3.95,3.19 0.66,1.55 1.17,3.38 0.32,5.68 z"
             id="path45" />
        </g>
        <g
           id="g48">
          <path
             class="cls-1"
             d="m 742.73,356.95 c -0.69,-0.25 -3.03,0 -4.8,0.38 -1.77,0.38 -3.98,1.2 -5.18,1.64 -1.2,0.44 -5.12,2.08 -4.8,3.66 0.32,1.58 2.21,1.64 2.21,1.64 l -0.06,4.17 c 0,0 -1.71,0.32 -1.71,1.2 0,0.88 1.07,1.71 1.07,1.71 0,0 0.19,2.53 0.19,6.06 0,3.53 2.65,4.48 5.56,4.8 2.91,0.32 6.19,0.38 6.95,0.38 0.76,0 1.2,-1.01 1.2,-1.96 0,-0.95 -0.88,-1.89 -1.26,-1.83 -0.38,0.06 -1.2,0.76 -1.2,0.76 0,0 -1.96,0.51 -4.04,0 -2.08,-0.51 -4.11,-0.63 -3.85,-3.16 0.25,-2.53 0.32,-5.56 1.83,-5.49 1.52,0.06 3.92,-0.19 5.81,-0.32 1.89,-0.13 1.45,-2.91 0.44,-2.97 -1.01,-0.06 -3.35,0.13 -4.55,0.38 -1.2,0.25 -2.59,-0.51 -2.59,-1.33 0,-0.82 0.44,-4.04 0.44,-4.04 l 6.32,-1.96 c 0,0 0.88,-0.25 2.59,-0.95 1.71,-0.69 0.13,-2.53 -0.57,-2.78 z"
             id="path46" />
          <path
             class="cls-1"
             d="m 763.41,381.13 c -0.44,-0.73 -1.8,-2.15 -3.54,-3.95 -1.74,-1.8 -5.34,-4.96 -6.51,-5.87 -1.17,-0.92 -1.33,-1.58 -0.82,-1.83 0.51,-0.25 2.31,-1.67 4.2,-4.04 1.89,-2.37 0.95,-5.59 -0.22,-7.58 -1.17,-1.99 -3.06,-2.72 -6,-2.62 -2.94,0.09 -3.44,2.18 -3.76,4.99 -0.32,2.81 -0.16,9.79 -0.32,12.95 -0.16,3.16 -0.51,7.93 -0.41,9.82 0.1,1.89 3,1.23 3.22,0.41 0.22,-0.82 1.11,-10.96 1.11,-10.96 0,0 7.58,7.58 9.85,9.63 2.27,2.05 2.12,1.48 2.75,0.92 0.63,-0.57 0.88,-1.14 0.44,-1.86 z m -13.04,-21.66 c 0.28,-1.17 1.55,-1.42 2.18,-1.07 0.63,0.35 2.75,1.07 1.83,3.88 -0.92,2.81 -2.84,4.42 -3.85,4.74 0,0 -0.44,-6.38 -0.16,-7.55 z"
             id="path47" />
          <path
             class="cls-1"
             d="m 720.34,373.58 c 0.82,1.83 1.39,3.69 1.26,5.49 -0.13,1.8 -1.11,3.6 -1.45,3.92 0,0 -0.95,-0.35 -1.36,0.41 -0.41,0.76 -0.47,1.77 0.22,2.12 0.69,0.35 1.64,0.92 3.6,-0.32 1.96,-1.24 2.84,-3.32 3.03,-5.75 0.19,-2.43 0,-4.45 -2.43,-9.13 -2.43,-4.68 -3.13,-5.34 -3.28,-7.96 -0.15,-2.62 2.31,-6.06 3.09,-6.16 0,0 0.32,0.47 0.98,0.35 0.66,-0.12 1.99,-1.36 1.26,-2.46 -0.73,-1.1 -3.13,-1.52 -5.46,-0.35 -2.33,1.17 -3.85,6.16 -3.82,7.96 0.03,1.8 1.48,5.97 2.46,7.96 0.98,1.99 1.89,3.92 1.89,3.92 z"
             id="path48" />
        </g>
        <g
           id="g62">
          <path
             class="cls-1"
             d="m 787.32,356.95 c -0.69,-0.25 -3.03,0 -4.8,0.38 -1.77,0.38 -3.98,1.2 -5.18,1.64 -1.2,0.44 -5.12,2.08 -4.8,3.66 0.32,1.58 2.21,1.64 2.21,1.64 l -0.06,4.17 c 0,0 -1.71,0.32 -1.71,1.2 0,0.88 1.07,1.71 1.07,1.71 0,0 0.19,2.53 0.19,6.06 0,3.53 2.65,4.48 5.56,4.8 2.91,0.32 6.19,0.38 6.95,0.38 0.76,0 1.2,-1.01 1.2,-1.96 0,-0.95 -0.88,-1.89 -1.26,-1.83 -0.38,0.06 -1.2,0.76 -1.2,0.76 0,0 -1.96,0.51 -4.04,0 -2.08,-0.51 -4.11,-0.63 -3.85,-3.16 0.25,-2.53 0.32,-5.56 1.83,-5.49 1.52,0.06 3.92,-0.19 5.81,-0.32 1.89,-0.13 1.45,-2.91 0.44,-2.97 -1.01,-0.06 -3.35,0.13 -4.55,0.38 -1.2,0.25 -2.59,-0.51 -2.59,-1.33 0,-0.82 0.44,-4.04 0.44,-4.04 l 6.32,-1.96 c 0,0 0.88,-0.25 2.59,-0.95 1.71,-0.69 0.13,-2.53 -0.57,-2.78 z"
             id="path49" />
          <path
             class="cls-1"
             d="m 892.83,380.75 c -0.44,-0.73 -1.8,-2.15 -3.54,-3.95 -1.74,-1.8 -5.34,-4.96 -6.51,-5.87 -1.17,-0.92 -1.33,-1.58 -0.82,-1.83 0.51,-0.25 2.31,-1.67 4.2,-4.04 1.89,-2.37 0.95,-5.59 -0.22,-7.58 -1.17,-1.99 -3.06,-2.72 -6,-2.62 -2.94,0.09 -3.44,2.18 -3.76,4.99 -0.32,2.81 -0.16,9.79 -0.32,12.95 -0.16,3.16 -0.51,7.93 -0.41,9.82 0.1,1.89 3,1.23 3.22,0.41 0.22,-0.82 1.11,-10.96 1.11,-10.96 0,0 7.58,7.58 9.85,9.63 2.27,2.05 2.12,1.48 2.75,0.92 0.63,-0.57 0.88,-1.14 0.44,-1.86 z m -13.05,-21.66 c 0.28,-1.17 1.55,-1.42 2.18,-1.07 0.63,0.35 2.75,1.07 1.83,3.88 -0.92,2.81 -2.84,4.42 -3.85,4.74 0,0 -0.44,-6.38 -0.16,-7.55 z"
             id="path50" />
          <path
             class="cls-1"
             d="m 972.59,380.75 c -0.44,-0.73 -1.8,-2.15 -3.54,-3.95 -1.74,-1.8 -5.34,-4.96 -6.51,-5.87 -1.17,-0.92 -1.33,-1.58 -0.82,-1.83 0.51,-0.25 2.31,-1.67 4.2,-4.04 1.89,-2.37 0.95,-5.59 -0.22,-7.58 -1.17,-1.99 -3.06,-2.72 -6,-2.62 -2.94,0.09 -3.44,2.18 -3.76,4.99 -0.32,2.81 -0.16,9.79 -0.32,12.95 -0.16,3.16 -0.51,7.93 -0.41,9.82 0.1,1.89 3,1.23 3.22,0.41 0.22,-0.82 1.11,-10.96 1.11,-10.96 0,0 7.58,7.58 9.85,9.63 2.27,2.05 2.12,1.48 2.75,0.92 0.63,-0.57 0.88,-1.14 0.44,-1.86 z m -13.04,-21.66 c 0.28,-1.17 1.55,-1.42 2.18,-1.07 0.63,0.35 2.75,1.07 1.83,3.88 -0.92,2.81 -2.84,4.42 -3.85,4.74 0,0 -0.44,-6.38 -0.16,-7.55 z"
             id="path51" />
          <path
             class="cls-1"
             d="m 855.67,379.78 c -0.24,-0.81 -0.9,-2.79 -1.75,-5.83 -0.85,-3.03 -2.84,-11.08 -3.13,-12.41 -0.28,-1.33 0.09,-2.61 -0.52,-3.84 -0.62,-1.23 -1.28,-2.32 -2.18,-2.32 -0.9,0 -1.33,0.99 -1.8,2.56 -0.47,1.56 -2.46,8.19 -3.22,10.71 0,0 -0.24,0.95 -0.71,2.08 -0.47,1.14 -1.04,1.71 -1.66,1.71 -0.62,0 -0.66,1.33 -0.09,1.61 0.57,0.28 0.76,1.47 0.24,2.56 -0.52,1.09 -1.52,4.59 -1.75,5.02 -0.24,0.43 -0.57,3.08 0.66,3.51 1.23,0.43 1.99,0.05 2.27,-0.76 0.28,-0.81 0.95,-3.6 1.66,-6.35 0.71,-2.75 0.81,-3.17 2.13,-3.65 1.33,-0.47 3.27,-0.57 3.88,-0.52 0.61,0.05 0.9,1.56 1.37,3.46 0.47,1.89 1.04,4.36 1.56,4.83 0.52,0.47 1.75,0.81 2.61,0 0.85,-0.81 0.66,-1.56 0.43,-2.37 z m -7.05,-8.53 c -0.89,-0.12 -3,0.02 -3,0.02 0,0 1.54,-5.02 2.27,-6.96 0,0 1.35,6.18 1.44,6.37 0.09,0.19 0.17,0.69 -0.72,0.57 z"
             id="path52" />
          <path
             class="cls-1"
             d="m 952.66,379.78 c -0.24,-0.81 -0.9,-2.79 -1.75,-5.83 -0.85,-3.03 -2.84,-11.08 -3.13,-12.41 -0.28,-1.33 0.09,-2.61 -0.52,-3.84 -0.62,-1.23 -1.28,-2.32 -2.18,-2.32 -0.9,0 -1.33,0.99 -1.8,2.56 -0.47,1.56 -2.46,8.19 -3.22,10.71 0,0 -0.24,0.95 -0.71,2.08 -0.47,1.14 -1.04,1.71 -1.66,1.71 -0.62,0 -0.66,1.33 -0.09,1.61 0.57,0.28 0.76,1.47 0.24,2.56 -0.52,1.09 -1.52,4.59 -1.75,5.02 -0.24,0.43 -0.57,3.08 0.66,3.51 1.23,0.43 1.99,0.05 2.27,-0.76 0.28,-0.81 0.95,-3.6 1.66,-6.35 0.71,-2.75 0.81,-3.17 2.13,-3.65 1.33,-0.47 3.27,-0.57 3.88,-0.52 0.61,0.05 0.9,1.56 1.37,3.46 0.47,1.89 1.04,4.36 1.56,4.83 0.52,0.47 1.75,0.81 2.61,0 0.85,-0.81 0.66,-1.56 0.43,-2.37 z m -7.04,-8.53 c -0.89,-0.12 -3,0.02 -3,0.02 0,0 1.54,-5.02 2.27,-6.96 0,0 1.35,6.18 1.44,6.37 0.09,0.19 0.17,0.69 -0.72,0.57 z"
             id="path53" />
          <path
             class="cls-1"
             d="m 841.19,380.75 c -0.44,-0.73 -1.8,-2.15 -3.54,-3.95 -1.74,-1.8 -5.34,-4.96 -6.51,-5.87 -1.17,-0.92 -1.33,-1.58 -0.82,-1.83 0.51,-0.25 2.31,-1.67 4.2,-4.04 1.89,-2.37 0.95,-5.59 -0.22,-7.58 -1.17,-1.99 -3.06,-2.72 -6,-2.62 -2.94,0.09 -3.44,2.18 -3.76,4.99 -0.32,2.81 -0.16,9.79 -0.32,12.95 -0.16,3.16 -0.51,7.93 -0.41,9.82 0.1,1.89 3,1.23 3.22,0.41 0.22,-0.82 1.11,-10.96 1.11,-10.96 0,0 7.58,7.58 9.85,9.63 2.27,2.05 2.12,1.48 2.75,0.92 0.63,-0.57 0.88,-1.14 0.44,-1.86 z m -13.04,-21.66 c 0.28,-1.17 1.55,-1.42 2.18,-1.07 0.63,0.35 2.75,1.07 1.83,3.88 -0.92,2.81 -2.84,4.42 -3.85,4.74 0,0 -0.44,-6.38 -0.16,-7.55 z"
             id="path54" />
          <path
             class="cls-1"
             d="m 813.52,358.31 c 0,0 -4.36,0.57 -5.87,0.63 -1.51,0.06 -3.54,-0.38 -4.2,-1.39 -0.66,-1.01 0,-1.77 1.42,-1.93 1.42,-0.16 3.28,-0.41 5.43,-0.51 2.15,-0.1 3.6,-1.48 4.29,-1.45 0.69,0.03 2.24,0.95 4.99,0.51 2.75,-0.44 5.97,-1.36 7.42,-1.26 1.45,0.1 2.27,2.11 0.82,3.02 -1.45,0.91 -10.26,1.91 -10.26,1.91 0,0 -0.76,7.26 -0.79,11.15 -0.03,3.89 -0.06,10.93 0.06,11.4 0.12,0.47 0.06,2.62 -0.63,2.91 -0.69,0.29 -3.19,-0.19 -3.32,-3.09"
             id="path55" />
          <path
             class="cls-1"
             d="m 903.62,364.93 c -2.18,-4.26 -6.41,-6.41 -9.16,-7.26 -2.75,-0.85 -3.6,0.32 -3.28,1.07 0.32,0.76 1.64,1.99 1.64,1.99 0,0 -0.19,14.15 -0.25,17.72 0,0 -0.19,2.31 -0.03,3.41 0.16,1.11 2.02,1.64 2.68,1.23 0.66,-0.41 4.45,-3.73 6.57,-7.01 2.12,-3.28 4.01,-6.88 1.83,-11.15 z m -2.97,6.13 c -0.85,2.31 -4.39,6.28 -4.39,6.28 0,0 -0.44,-13.77 0.13,-15.16 0,0 3.28,1.64 3.95,3.19 0.66,1.55 1.17,3.38 0.32,5.68 z"
             id="path56" />
          <path
             class="cls-1"
             d="m 797.58,370.61 c 0,0 -1.39,1.93 -2.68,5.46 -1.29,3.53 -2.24,6.95 -3.32,7.83 -1.08,0.88 -3.13,0.57 -3.06,-0.95 0.07,-1.52 1.23,-3.76 2.97,-8.15 1.74,-4.39 4.23,-8.53 4.33,-8.97 0.1,-0.44 -3.88,-5.59 -4.42,-6.09 -0.54,-0.5 0.19,-1.52 0.85,-1.8 0.66,-0.28 2.08,-0.25 3.44,1.55 1.36,1.8 1.86,2.46 1.86,2.46 0,0 3.38,-6.51 4.42,-7.14 1.04,-0.63 2.53,-0.54 3.25,0.28 0.72,0.82 -1.36,3.16 -1.93,4.2 -0.57,1.04 -3.51,6.95 -3.51,6.95 0,0 0.51,1.11 2.27,4.29 1.76,3.18 2.62,5.24 2.62,5.62 0,0.38 -0.57,1.52 -1.48,1.45 -0.91,-0.07 -2.56,-0.88 -3.38,-3.16 -0.82,-2.28 -1.29,-2.87 -2.24,-3.85 z"
             id="path57" />
          <path
             class="cls-1"
             d="m 873.06,368.69 c -0.66,-3.22 -1.89,-6.02 -3.93,-6.21 -2.04,-0.19 -2.46,-0.71 -3.77,-1.61 -1.31,-0.9 -2.67,-0.14 -3.72,0.81 -1.04,0.95 -4.17,4.55 -3.98,8.67 0.19,4.12 0.76,5.21 2.94,7.06 2.18,1.85 3.88,1.85 6.49,0.9 2.61,-0.95 4.26,-3.6 5.16,-5.4 0.9,-1.8 0.9,-3.75 0.81,-4.22 z m -3.79,0.42 c -0.19,1.09 0.05,2.89 -2.08,4.88 -2.13,1.99 -2.94,2.13 -4.31,1.04 -1.37,-1.09 -1.71,-2.46 -1.66,-3.76 0.05,-1.3 0.38,-2.95 0.71,-3.48 0.33,-0.53 0.66,-1.31 0.95,-1.15 0.28,0.15 0.99,0.77 1.42,0.87 0.43,0.1 1.66,-1.33 1.99,-1.75 0.33,-0.43 0.71,-1.23 2.04,0.24 0.61,0.68 1.14,2.04 0.95,3.13 z"
             id="path58" />
          <path
             class="cls-1"
             d="m 994.7,368.69 c -0.66,-3.22 -1.89,-6.02 -3.93,-6.21 -2.04,-0.19 -2.46,-0.71 -3.77,-1.61 -1.31,-0.9 -2.67,-0.14 -3.72,0.81 -1.04,0.95 -4.17,4.55 -3.98,8.67 0.19,4.12 0.76,5.21 2.94,7.06 2.18,1.85 3.88,1.85 6.49,0.9 2.61,-0.95 4.26,-3.6 5.16,-5.4 0.9,-1.8 0.9,-3.75 0.81,-4.22 z m -3.79,0.42 c -0.19,1.09 0.05,2.89 -2.08,4.88 -2.13,1.99 -2.94,2.13 -4.31,1.04 -1.37,-1.09 -1.71,-2.46 -1.66,-3.76 0.05,-1.3 0.38,-2.95 0.71,-3.48 0.33,-0.53 0.66,-1.31 0.95,-1.15 0.28,0.15 0.99,0.77 1.42,0.87 0.43,0.1 1.66,-1.33 1.99,-1.75 0.33,-0.43 0.71,-1.23 2.04,0.24 0.61,0.68 1.14,2.04 0.95,3.13 z"
             id="path59" />
          <path
             class="cls-1"
             d="m 912.94,363.1 c -0.18,1.52 -1.04,8.72 -1.33,13.26 -0.29,4.54 0.57,6.53 -1.8,6.86 -2.37,0.33 -2.27,-3.2 -2.18,-5.88 0.09,-2.68 1.42,-8.94 1.42,-12.73 0,-3.79 -0.28,-6.57 1.89,-6.74 2.17,-0.17 2.23,3.23 1.99,5.23 z"
             id="path60" />
          <path
             class="cls-1"
             d="m 976.43,363.1 c -0.18,1.52 -1.04,8.72 -1.33,13.26 -0.29,4.54 0.57,6.53 -1.8,6.86 -2.37,0.33 -2.27,-3.2 -2.18,-5.88 0.09,-2.68 1.42,-8.94 1.42,-12.73 0,-3.79 -0.28,-6.57 1.89,-6.74 2.17,-0.17 2.23,3.23 1.99,5.23 z"
             id="path61" />
          <path
             class="cls-1"
             d="m 921.21,363.79 c 0,0 -0.95,4.8 -0.82,8.34 0.13,3.54 -0.02,10.47 -0.01,12.09 0.01,1.62 -0.94,2.18 -1.95,2.06 -1.01,-0.12 -1.96,-0.89 -1.83,-2.43 0.13,-1.54 0,-10.07 0.32,-13.55 0.32,-3.48 0.69,-11.14 0.95,-12.93 0.26,-1.79 0.19,-3.55 1.71,-3.43 1.52,0.12 3.22,2.84 4.67,7.01 1.45,4.17 4.48,11.05 4.48,11.05 0,0 1.14,-9.6 1.45,-11.56 0.31,-1.96 0.57,-4.04 0.57,-4.67 0,-0.63 0.13,-1.97 1.77,-1.84 1.64,0.13 1.71,0.95 1.71,1.84 0,0.89 -1.58,11.24 -1.64,16.04 -0.06,4.8 -0.19,6.69 0,9.35 0.19,2.66 -3.41,2.02 -4.17,0.13 -0.76,-1.89 -7.2,-17.49 -7.2,-17.49 z"
             id="path62" />
        </g>
        <g
           id="g64">
          <path
             class="cls-1"
             d="m 563.32,356.99 c -0.69,-0.25 -3.03,0 -4.8,0.38 -1.77,0.38 -3.98,1.2 -5.18,1.64 -1.2,0.44 -5.12,2.08 -4.8,3.66 0.32,1.58 2.21,1.64 2.21,1.64 l -0.06,4.17 c 0,0 -1.71,0.32 -1.71,1.2 0,0.88 1.07,1.71 1.07,1.71 0,0 0.19,2.53 0.19,6.06 0,3.53 2.65,4.48 5.56,4.8 2.91,0.32 6.19,0.38 6.95,0.38 0.76,0 1.2,-1.01 1.2,-1.96 0,-0.95 -0.88,-1.89 -1.26,-1.83 -0.38,0.06 -1.2,0.76 -1.2,0.76 0,0 -1.96,0.51 -4.04,0 -2.08,-0.51 -4.11,-0.63 -3.85,-3.16 0.25,-2.53 0.32,-5.56 1.83,-5.49 1.52,0.06 3.92,-0.19 5.81,-0.32 1.89,-0.13 1.45,-2.91 0.44,-2.97 -1.01,-0.06 -3.35,0.13 -4.55,0.38 -1.2,0.25 -2.59,-0.51 -2.59,-1.33 0,-0.82 0.44,-4.04 0.44,-4.04 l 6.32,-1.96 c 0,0 0.88,-0.25 2.59,-0.95 1.71,-0.69 0.13,-2.53 -0.57,-2.78 z"
             id="path63" />
          <path
             class="cls-1"
             d="m 566.84,363.1 c -0.06,-3.09 0.06,-5.43 0,-6.69 -0.06,-1.26 2.53,-1.45 3.09,-0.38 0.56,1.07 -0.51,21.98 -0.51,21.98 0,0 4.11,-2.65 5.43,-3.41 1.32,-0.76 2.84,-0.76 3.79,-0.06 0.95,0.7 -0.32,1.89 -1.71,2.84 -1.39,0.95 -6.32,4.71 -7.52,5.26 -1.2,0.55 -3.35,0.42 -3.54,-1.54 -0.19,-1.96 0.95,-18 0.95,-18 z"
             id="path64" />
        </g>
      </g>
      <g
         id="g90">
        <g
           id="g68">
          <path
             class="cls-5"
             d="m 656.92,356.45 c -0.69,-0.25 -3.03,0 -4.8,0.38 -1.77,0.38 -3.98,1.2 -5.18,1.64 -1.2,0.44 -5.12,2.08 -4.8,3.66 0.32,1.58 2.21,1.64 2.21,1.64 l -0.06,4.17 c 0,0 -1.71,0.32 -1.71,1.2 0,0.88 1.07,1.71 1.07,1.71 0,0 0.19,2.53 0.19,6.06 0,3.53 2.65,4.48 5.56,4.8 2.91,0.32 6.19,0.38 6.95,0.38 0.76,0 1.2,-1.01 1.2,-1.96 0,-0.95 -0.88,-1.89 -1.26,-1.83 -0.38,0.06 -1.2,0.76 -1.2,0.76 0,0 -1.96,0.51 -4.04,0 -2.08,-0.51 -4.11,-0.63 -3.85,-3.16 0.25,-2.53 0.32,-5.56 1.83,-5.49 1.52,0.06 3.92,-0.19 5.81,-0.32 1.89,-0.13 1.45,-2.91 0.44,-2.97 -1.01,-0.06 -3.35,0.13 -4.55,0.38 -1.2,0.25 -2.59,-0.51 -2.59,-1.33 0,-0.82 0.44,-4.04 0.44,-4.04 l 6.32,-1.96 c 0,0 0.88,-0.25 2.59,-0.95 1.71,-0.69 0.13,-2.53 -0.57,-2.78 z"
             id="path65" />
          <path
             class="cls-5"
             d="m 607.39,378.99 c -0.24,-0.81 -0.9,-2.79 -1.75,-5.83 -0.85,-3.03 -2.84,-11.08 -3.13,-12.41 -0.28,-1.33 0.09,-2.61 -0.52,-3.84 -0.62,-1.23 -1.28,-2.32 -2.18,-2.32 -0.9,0 -1.33,0.99 -1.8,2.56 -0.47,1.56 -2.46,8.19 -3.22,10.71 0,0 -0.24,0.95 -0.71,2.08 -0.47,1.14 -1.04,1.71 -1.66,1.71 -0.62,0 -0.66,1.33 -0.09,1.61 0.57,0.28 0.76,1.47 0.24,2.56 -0.52,1.09 -1.52,4.59 -1.75,5.02 -0.24,0.43 -0.57,3.08 0.66,3.51 1.23,0.43 1.99,0.05 2.27,-0.76 0.28,-0.81 0.95,-3.6 1.66,-6.35 0.71,-2.75 0.81,-3.17 2.13,-3.65 1.33,-0.47 3.27,-0.57 3.88,-0.52 0.61,0.05 0.9,1.56 1.37,3.46 0.47,1.89 1.04,4.36 1.56,4.83 0.52,0.47 1.75,0.81 2.61,0 0.85,-0.81 0.66,-1.56 0.43,-2.37 z m -7.04,-8.53 c -0.89,-0.12 -3,0.02 -3,0.02 0,0 1.54,-5.02 2.27,-6.96 0,0 1.35,6.18 1.44,6.37 0.09,0.19 0.17,0.69 -0.72,0.57 z"
             id="path66" />
          <path
             class="cls-5"
             d="m 627.16,380.63 c -0.44,-0.73 -1.8,-2.15 -3.54,-3.95 -1.74,-1.8 -5.34,-4.96 -6.51,-5.87 -1.17,-0.92 -1.33,-1.58 -0.82,-1.83 0.51,-0.25 2.31,-1.67 4.2,-4.04 1.89,-2.37 0.95,-5.59 -0.22,-7.58 -1.17,-1.99 -3.06,-2.72 -6,-2.62 -2.94,0.09 -3.44,2.18 -3.76,4.99 -0.32,2.81 -0.16,9.79 -0.32,12.95 -0.16,3.16 -0.51,7.93 -0.41,9.82 0.1,1.89 3,1.23 3.22,0.41 0.22,-0.82 1.11,-10.96 1.11,-10.96 0,0 7.58,7.58 9.85,9.63 2.27,2.05 2.12,1.48 2.75,0.92 0.63,-0.57 0.88,-1.14 0.44,-1.86 z m -13.04,-21.66 c 0.28,-1.17 1.55,-1.42 2.18,-1.07 0.63,0.35 2.75,1.07 1.83,3.88 -0.92,2.81 -2.84,4.42 -3.85,4.74 0,0 -0.44,-6.38 -0.16,-7.55 z"
             id="path67" />
          <path
             class="cls-5"
             d="m 632.47,357.71 c 0,0 -4.36,0.57 -5.87,0.63 -1.51,0.06 -3.54,-0.38 -4.2,-1.39 -0.66,-1.01 0,-1.77 1.42,-1.93 1.42,-0.16 3.28,-0.41 5.43,-0.51 2.15,-0.1 3.6,-1.48 4.29,-1.45 0.69,0.03 2.24,0.95 4.99,0.51 2.75,-0.44 5.97,-1.36 7.42,-1.26 1.45,0.1 2.27,2.11 0.82,3.02 -1.45,0.91 -10.26,1.91 -10.26,1.91 0,0 -0.76,7.26 -0.79,11.15 -0.03,3.89 -0.06,10.93 0.06,11.4 0.12,0.47 0.06,2.62 -0.63,2.91 -0.69,0.29 -3.19,-0.19 -3.32,-3.09"
             id="path68" />
        </g>
        <g
           id="g70">
          <path
             class="cls-5"
             d="m 701.12,356.45 c -0.69,-0.25 -3.03,0 -4.8,0.38 -1.77,0.38 -3.98,1.2 -5.18,1.64 -1.2,0.44 -5.12,2.08 -4.8,3.66 0.32,1.58 2.21,1.64 2.21,1.64 l -0.06,4.17 c 0,0 -1.71,0.32 -1.71,1.2 0,0.88 1.07,1.71 1.07,1.71 0,0 0.19,2.53 0.19,6.06 0,3.53 2.65,4.48 5.56,4.8 2.91,0.32 6.19,0.38 6.95,0.38 0.76,0 1.2,-1.01 1.2,-1.96 0,-0.95 -0.88,-1.89 -1.26,-1.83 -0.38,0.06 -1.2,0.76 -1.2,0.76 0,0 -1.96,0.51 -4.04,0 -2.08,-0.51 -4.11,-0.63 -3.85,-3.16 0.25,-2.53 0.32,-5.56 1.83,-5.49 1.52,0.06 3.92,-0.19 5.81,-0.32 1.89,-0.13 1.45,-2.91 0.44,-2.97 -1.01,-0.06 -3.35,0.13 -4.55,0.38 -1.2,0.25 -2.59,-0.51 -2.59,-1.33 0,-0.82 0.44,-4.04 0.44,-4.04 l 6.32,-1.96 c 0,0 0.88,-0.25 2.59,-0.95 1.71,-0.69 0.13,-2.53 -0.57,-2.78 z"
             id="path69" />
          <path
             class="cls-5"
             d="m 683.31,364.43 c -2.18,-4.26 -6.41,-6.41 -9.16,-7.26 -2.75,-0.85 -3.6,0.32 -3.28,1.07 0.32,0.76 1.64,1.99 1.64,1.99 0,0 -0.19,14.15 -0.25,17.72 0,0 -0.19,2.31 -0.03,3.41 0.16,1.11 2.02,1.64 2.68,1.23 0.66,-0.41 4.45,-3.73 6.57,-7.01 2.12,-3.28 4.01,-6.88 1.83,-11.15 z m -2.97,6.13 c -0.85,2.31 -4.39,6.28 -4.39,6.28 0,0 -0.44,-13.77 0.13,-15.16 0,0 3.28,1.64 3.95,3.19 0.66,1.55 1.17,3.38 0.32,5.68 z"
             id="path70" />
        </g>
        <g
           id="g73">
          <path
             class="cls-5"
             d="m 742.14,356.45 c -0.69,-0.25 -3.03,0 -4.8,0.38 -1.77,0.38 -3.98,1.2 -5.18,1.64 -1.2,0.44 -5.12,2.08 -4.8,3.66 0.32,1.58 2.21,1.64 2.21,1.64 l -0.06,4.17 c 0,0 -1.71,0.32 -1.71,1.2 0,0.88 1.07,1.71 1.07,1.71 0,0 0.19,2.53 0.19,6.06 0,3.53 2.65,4.48 5.56,4.8 2.91,0.32 6.19,0.38 6.95,0.38 0.76,0 1.2,-1.01 1.2,-1.96 0,-0.95 -0.88,-1.89 -1.26,-1.83 -0.38,0.06 -1.2,0.76 -1.2,0.76 0,0 -1.96,0.51 -4.04,0 -2.08,-0.51 -4.11,-0.63 -3.85,-3.16 0.25,-2.53 0.32,-5.56 1.83,-5.49 1.52,0.06 3.92,-0.19 5.81,-0.32 1.89,-0.13 1.45,-2.91 0.44,-2.97 -1.01,-0.06 -3.35,0.13 -4.55,0.38 -1.2,0.25 -2.59,-0.51 -2.59,-1.33 0,-0.82 0.44,-4.04 0.44,-4.04 l 6.32,-1.96 c 0,0 0.88,-0.25 2.59,-0.95 1.71,-0.69 0.13,-2.53 -0.57,-2.78 z"
             id="path71" />
          <path
             class="cls-5"
             d="m 762.83,380.63 c -0.44,-0.73 -1.8,-2.15 -3.54,-3.95 -1.74,-1.8 -5.34,-4.96 -6.51,-5.87 -1.17,-0.92 -1.33,-1.58 -0.82,-1.83 0.51,-0.25 2.31,-1.67 4.2,-4.04 1.89,-2.37 0.95,-5.59 -0.22,-7.58 -1.17,-1.99 -3.06,-2.72 -6,-2.62 -2.94,0.09 -3.44,2.18 -3.76,4.99 -0.32,2.81 -0.16,9.79 -0.32,12.95 -0.16,3.16 -0.51,7.93 -0.41,9.82 0.1,1.89 3,1.23 3.22,0.41 0.22,-0.82 1.11,-10.96 1.11,-10.96 0,0 7.58,7.58 9.85,9.63 2.27,2.05 2.12,1.48 2.75,0.92 0.63,-0.57 0.88,-1.14 0.44,-1.86 z m -13.05,-21.66 c 0.28,-1.17 1.55,-1.42 2.18,-1.07 0.63,0.35 2.75,1.07 1.83,3.88 -0.92,2.81 -2.84,4.42 -3.85,4.74 0,0 -0.44,-6.38 -0.16,-7.55 z"
             id="path72" />
          <path
             class="cls-5"
             d="m 719.75,373.08 c 0.82,1.83 1.39,3.69 1.26,5.49 -0.13,1.8 -1.11,3.6 -1.45,3.92 0,0 -0.95,-0.35 -1.36,0.41 -0.41,0.76 -0.47,1.77 0.22,2.12 0.69,0.35 1.64,0.92 3.6,-0.32 1.96,-1.24 2.84,-3.32 3.03,-5.75 0.19,-2.43 0,-4.45 -2.43,-9.13 -2.43,-4.67 -3.13,-5.34 -3.28,-7.96 -0.15,-2.62 2.31,-6.06 3.09,-6.16 0,0 0.32,0.47 0.98,0.35 0.66,-0.12 1.99,-1.36 1.26,-2.46 -0.73,-1.1 -3.13,-1.52 -5.46,-0.35 -2.33,1.17 -3.85,6.16 -3.82,7.96 0.03,1.8 1.48,5.97 2.46,7.96 0.98,1.99 1.89,3.92 1.89,3.92 z"
             id="path73" />
        </g>
        <g
           id="g87">
          <path
             class="cls-5"
             d="m 786.73,356.45 c -0.69,-0.25 -3.03,0 -4.8,0.38 -1.77,0.38 -3.98,1.2 -5.18,1.64 -1.2,0.44 -5.12,2.08 -4.8,3.66 0.32,1.58 2.21,1.64 2.21,1.64 l -0.06,4.17 c 0,0 -1.71,0.32 -1.71,1.2 0,0.88 1.07,1.71 1.07,1.71 0,0 0.19,2.53 0.19,6.06 0,3.53 2.65,4.48 5.56,4.8 2.91,0.32 6.19,0.38 6.95,0.38 0.76,0 1.2,-1.01 1.2,-1.96 0,-0.95 -0.88,-1.89 -1.26,-1.83 -0.38,0.06 -1.2,0.76 -1.2,0.76 0,0 -1.96,0.51 -4.04,0 -2.08,-0.51 -4.11,-0.63 -3.85,-3.16 0.25,-2.53 0.32,-5.56 1.83,-5.49 1.52,0.06 3.92,-0.19 5.81,-0.32 1.89,-0.13 1.45,-2.91 0.44,-2.97 -1.01,-0.06 -3.35,0.13 -4.55,0.38 -1.2,0.25 -2.59,-0.51 -2.59,-1.33 0,-0.82 0.44,-4.04 0.44,-4.04 l 6.32,-1.96 c 0,0 0.88,-0.25 2.59,-0.95 1.71,-0.69 0.13,-2.53 -0.57,-2.78 z"
             id="path74" />
          <path
             class="cls-5"
             d="m 892.24,380.26 c -0.44,-0.73 -1.8,-2.15 -3.54,-3.95 -1.74,-1.8 -5.34,-4.96 -6.51,-5.87 -1.17,-0.92 -1.33,-1.58 -0.82,-1.83 0.51,-0.25 2.31,-1.67 4.2,-4.04 1.89,-2.37 0.95,-5.59 -0.22,-7.58 -1.17,-1.99 -3.06,-2.72 -6,-2.62 -2.94,0.09 -3.44,2.18 -3.76,4.99 -0.32,2.81 -0.16,9.79 -0.32,12.95 -0.16,3.16 -0.51,7.93 -0.41,9.82 0.1,1.89 3,1.23 3.22,0.41 0.22,-0.82 1.11,-10.96 1.11,-10.96 0,0 7.58,7.58 9.85,9.63 2.27,2.05 2.12,1.48 2.75,0.92 0.63,-0.57 0.88,-1.14 0.44,-1.86 z m -13.05,-21.67 c 0.28,-1.17 1.55,-1.42 2.18,-1.07 0.63,0.35 2.75,1.07 1.83,3.88 -0.92,2.81 -2.84,4.42 -3.85,4.74 0,0 -0.44,-6.38 -0.16,-7.55 z"
             id="path75" />
          <path
             class="cls-5"
             d="m 972,380.26 c -0.44,-0.73 -1.8,-2.15 -3.54,-3.95 -1.74,-1.8 -5.34,-4.96 -6.51,-5.87 -1.17,-0.92 -1.33,-1.58 -0.82,-1.83 0.51,-0.25 2.31,-1.67 4.2,-4.04 1.89,-2.37 0.95,-5.59 -0.22,-7.58 -1.17,-1.99 -3.06,-2.72 -6,-2.62 -2.94,0.09 -3.44,2.18 -3.76,4.99 -0.32,2.81 -0.16,9.79 -0.32,12.95 -0.16,3.16 -0.51,7.93 -0.41,9.82 0.1,1.89 3,1.23 3.22,0.41 0.22,-0.82 1.11,-10.96 1.11,-10.96 0,0 7.58,7.58 9.85,9.63 2.27,2.05 2.12,1.48 2.75,0.92 0.63,-0.57 0.88,-1.14 0.44,-1.86 z m -13.04,-21.67 c 0.28,-1.17 1.55,-1.42 2.18,-1.07 0.63,0.35 2.75,1.07 1.83,3.88 -0.92,2.81 -2.84,4.42 -3.85,4.74 0,0 -0.44,-6.38 -0.16,-7.55 z"
             id="path76" />
          <path
             class="cls-5"
             d="m 855.08,379.28 c -0.24,-0.81 -0.9,-2.79 -1.75,-5.83 -0.85,-3.03 -2.84,-11.08 -3.13,-12.41 -0.28,-1.33 0.09,-2.61 -0.52,-3.84 -0.62,-1.23 -1.28,-2.32 -2.18,-2.32 -0.9,0 -1.33,0.99 -1.8,2.56 -0.47,1.56 -2.46,8.19 -3.22,10.71 0,0 -0.24,0.95 -0.71,2.08 -0.47,1.14 -1.04,1.71 -1.66,1.71 -0.62,0 -0.66,1.33 -0.09,1.61 0.57,0.28 0.76,1.47 0.24,2.56 -0.52,1.09 -1.52,4.59 -1.75,5.02 -0.24,0.43 -0.57,3.08 0.66,3.51 1.23,0.43 1.99,0.05 2.27,-0.76 0.28,-0.81 0.95,-3.6 1.66,-6.35 0.71,-2.75 0.81,-3.17 2.13,-3.65 1.33,-0.47 3.27,-0.57 3.88,-0.52 0.61,0.05 0.9,1.56 1.37,3.46 0.47,1.89 1.04,4.36 1.56,4.83 0.52,0.47 1.75,0.81 2.61,0 0.85,-0.81 0.66,-1.56 0.43,-2.37 z m -7.05,-8.52 c -0.89,-0.12 -3,0.02 -3,0.02 0,0 1.54,-5.02 2.27,-6.96 0,0 1.35,6.18 1.44,6.37 0.09,0.19 0.17,0.69 -0.72,0.57 z"
             id="path77" />
          <path
             class="cls-5"
             d="m 952.07,379.28 c -0.24,-0.81 -0.9,-2.79 -1.75,-5.83 -0.85,-3.03 -2.84,-11.08 -3.13,-12.41 -0.28,-1.33 0.09,-2.61 -0.52,-3.84 -0.62,-1.23 -1.28,-2.32 -2.18,-2.32 -0.9,0 -1.33,0.99 -1.8,2.56 -0.47,1.56 -2.46,8.19 -3.22,10.71 0,0 -0.24,0.95 -0.71,2.08 -0.47,1.14 -1.04,1.71 -1.66,1.71 -0.62,0 -0.66,1.33 -0.09,1.61 0.57,0.28 0.76,1.47 0.24,2.56 -0.52,1.09 -1.52,4.59 -1.75,5.02 -0.24,0.43 -0.57,3.08 0.66,3.51 1.23,0.43 1.99,0.05 2.27,-0.76 0.28,-0.81 0.95,-3.6 1.66,-6.35 0.71,-2.75 0.81,-3.17 2.13,-3.65 1.33,-0.47 3.27,-0.57 3.88,-0.52 0.61,0.05 0.9,1.56 1.37,3.46 0.47,1.89 1.04,4.36 1.56,4.83 0.52,0.47 1.75,0.81 2.61,0 0.85,-0.81 0.66,-1.56 0.43,-2.37 z m -7.04,-8.52 c -0.89,-0.12 -3,0.02 -3,0.02 0,0 1.54,-5.02 2.27,-6.96 0,0 1.35,6.18 1.44,6.37 0.09,0.19 0.17,0.69 -0.72,0.57 z"
             id="path78" />
          <path
             class="cls-5"
             d="m 840.6,380.26 c -0.44,-0.73 -1.8,-2.15 -3.54,-3.95 -1.74,-1.8 -5.34,-4.96 -6.51,-5.87 -1.17,-0.92 -1.33,-1.58 -0.82,-1.83 0.51,-0.25 2.31,-1.67 4.2,-4.04 1.89,-2.37 0.95,-5.59 -0.22,-7.58 -1.17,-1.99 -3.06,-2.72 -6,-2.62 -2.94,0.09 -3.44,2.18 -3.76,4.99 -0.32,2.81 -0.16,9.79 -0.32,12.95 -0.16,3.16 -0.51,7.93 -0.41,9.82 0.1,1.89 3,1.23 3.22,0.41 0.22,-0.82 1.11,-10.96 1.11,-10.96 0,0 7.58,7.58 9.85,9.63 2.27,2.05 2.12,1.48 2.75,0.92 0.63,-0.57 0.88,-1.14 0.44,-1.86 z m -13.04,-21.67 c 0.28,-1.17 1.55,-1.42 2.18,-1.07 0.63,0.35 2.75,1.07 1.83,3.88 -0.92,2.81 -2.84,4.42 -3.85,4.74 0,0 -0.44,-6.38 -0.16,-7.55 z"
             id="path79" />
          <path
             class="cls-5"
             d="m 812.94,357.81 c 0,0 -4.36,0.57 -5.87,0.63 -1.51,0.06 -3.54,-0.38 -4.2,-1.39 -0.66,-1.01 0,-1.77 1.42,-1.93 1.42,-0.16 3.28,-0.41 5.43,-0.51 2.15,-0.1 3.6,-1.48 4.29,-1.45 0.69,0.03 2.24,0.95 4.99,0.51 2.75,-0.44 5.97,-1.36 7.42,-1.26 1.45,0.1 2.27,2.11 0.82,3.02 -1.45,0.91 -10.26,1.91 -10.26,1.91 0,0 -0.76,7.26 -0.79,11.15 -0.03,3.89 -0.06,10.93 0.06,11.4 0.12,0.47 0.06,2.62 -0.63,2.91 -0.69,0.29 -3.19,-0.19 -3.32,-3.09"
             id="path80" />
          <path
             class="cls-5"
             d="m 903.03,364.43 c -2.18,-4.26 -6.41,-6.41 -9.16,-7.26 -2.75,-0.85 -3.6,0.32 -3.28,1.07 0.32,0.76 1.64,1.99 1.64,1.99 0,0 -0.19,14.15 -0.25,17.72 0,0 -0.19,2.31 -0.03,3.41 0.16,1.11 2.02,1.64 2.68,1.23 0.66,-0.41 4.45,-3.73 6.57,-7.01 2.12,-3.28 4.01,-6.88 1.83,-11.15 z m -2.97,6.13 c -0.85,2.31 -4.39,6.28 -4.39,6.28 0,0 -0.44,-13.77 0.13,-15.16 0,0 3.28,1.64 3.95,3.19 0.66,1.55 1.17,3.38 0.32,5.68 z"
             id="path81" />
          <path
             class="cls-5"
             d="m 796.99,370.12 c 0,0 -1.39,1.93 -2.68,5.46 -1.29,3.53 -2.24,6.95 -3.32,7.83 -1.08,0.88 -3.13,0.57 -3.06,-0.95 0.07,-1.52 1.23,-3.76 2.97,-8.15 1.74,-4.39 4.23,-8.53 4.33,-8.97 0.1,-0.44 -3.88,-5.59 -4.42,-6.09 -0.54,-0.5 0.19,-1.52 0.85,-1.8 0.66,-0.28 2.08,-0.25 3.44,1.55 1.36,1.8 1.86,2.46 1.86,2.46 0,0 3.38,-6.51 4.42,-7.14 1.04,-0.63 2.53,-0.54 3.25,0.28 0.72,0.82 -1.36,3.16 -1.93,4.2 -0.57,1.04 -3.51,6.95 -3.51,6.95 0,0 0.51,1.11 2.27,4.29 1.76,3.18 2.62,5.24 2.62,5.62 0,0.38 -0.57,1.52 -1.48,1.45 -0.91,-0.07 -2.56,-0.88 -3.38,-3.16 -0.82,-2.28 -1.29,-2.87 -2.24,-3.85 z"
             id="path82" />
          <path
             class="cls-5"
             d="m 872.47,368.19 c -0.66,-3.22 -1.89,-6.02 -3.93,-6.21 -2.04,-0.19 -2.46,-0.71 -3.77,-1.61 -1.31,-0.9 -2.67,-0.14 -3.72,0.81 -1.04,0.95 -4.17,4.55 -3.98,8.67 0.19,4.12 0.76,5.21 2.94,7.06 2.18,1.85 3.88,1.85 6.49,0.9 2.61,-0.95 4.26,-3.6 5.16,-5.4 0.9,-1.8 0.9,-3.75 0.81,-4.22 z m -3.79,0.43 c -0.19,1.09 0.05,2.89 -2.08,4.88 -2.13,1.99 -2.94,2.13 -4.31,1.04 -1.37,-1.09 -1.71,-2.46 -1.66,-3.76 0.05,-1.3 0.38,-2.95 0.71,-3.48 0.33,-0.53 0.66,-1.31 0.95,-1.15 0.28,0.15 0.99,0.77 1.42,0.87 0.43,0.1 1.66,-1.33 1.99,-1.75 0.33,-0.43 0.71,-1.23 2.04,0.24 0.61,0.68 1.14,2.04 0.95,3.13 z"
             id="path83" />
          <path
             class="cls-5"
             d="m 994.11,368.19 c -0.66,-3.22 -1.89,-6.02 -3.93,-6.21 -2.04,-0.19 -2.46,-0.71 -3.77,-1.61 -1.31,-0.9 -2.67,-0.14 -3.72,0.81 -1.04,0.95 -4.17,4.55 -3.98,8.67 0.19,4.12 0.76,5.21 2.94,7.06 2.18,1.85 3.88,1.85 6.49,0.9 2.61,-0.95 4.26,-3.6 5.16,-5.4 0.9,-1.8 0.9,-3.75 0.81,-4.22 z m -3.79,0.43 c -0.19,1.09 0.05,2.89 -2.08,4.88 -2.13,1.99 -2.94,2.13 -4.31,1.04 -1.37,-1.09 -1.71,-2.46 -1.66,-3.76 0.05,-1.3 0.38,-2.95 0.71,-3.48 0.33,-0.53 0.66,-1.31 0.95,-1.15 0.28,0.15 0.99,0.77 1.42,0.87 0.43,0.1 1.66,-1.33 1.99,-1.75 0.33,-0.43 0.71,-1.23 2.04,0.24 0.61,0.68 1.14,2.04 0.95,3.13 z"
             id="path84" />
          <path
             class="cls-5"
             d="m 912.35,362.6 c -0.18,1.52 -1.04,8.72 -1.33,13.26 -0.29,4.54 0.57,6.53 -1.8,6.86 -2.37,0.33 -2.27,-3.2 -2.18,-5.88 0.09,-2.68 1.42,-8.94 1.42,-12.73 0,-3.79 -0.28,-6.57 1.89,-6.74 2.17,-0.17 2.23,3.23 1.99,5.23 z"
             id="path85" />
          <path
             class="cls-5"
             d="m 975.84,362.6 c -0.18,1.52 -1.04,8.72 -1.33,13.26 -0.29,4.54 0.57,6.53 -1.8,6.86 -2.37,0.33 -2.27,-3.2 -2.18,-5.88 0.09,-2.68 1.42,-8.94 1.42,-12.73 0,-3.79 -0.28,-6.57 1.89,-6.74 2.17,-0.17 2.23,3.23 1.99,5.23 z"
             id="path86" />
          <path
             class="cls-5"
             d="m 920.63,363.29 c 0,0 -0.95,4.8 -0.82,8.34 0.13,3.54 -0.02,10.47 -0.01,12.09 0.01,1.62 -0.94,2.18 -1.95,2.06 -1.01,-0.12 -1.96,-0.89 -1.83,-2.43 0.13,-1.54 0,-10.07 0.32,-13.55 0.32,-3.48 0.69,-11.14 0.95,-12.93 0.26,-1.79 0.19,-3.55 1.71,-3.43 1.52,0.12 3.22,2.84 4.67,7.01 1.45,4.17 4.48,11.05 4.48,11.05 0,0 1.14,-9.6 1.45,-11.56 0.31,-1.96 0.57,-4.04 0.57,-4.67 0,-0.63 0.13,-1.97 1.77,-1.84 1.64,0.13 1.71,0.95 1.71,1.84 0,0.89 -1.58,11.24 -1.64,16.04 -0.06,4.8 -0.19,6.69 0,9.35 0.19,2.66 -3.41,2.02 -4.17,0.13 -0.76,-1.89 -7.2,-17.49 -7.2,-17.49 z"
             id="path87" />
        </g>
        <g
           id="g89">
          <path
             class="cls-5"
             d="m 562.73,356.49 c -0.69,-0.25 -3.03,0 -4.8,0.38 -1.77,0.38 -3.98,1.2 -5.18,1.64 -1.2,0.44 -5.12,2.08 -4.8,3.66 0.32,1.58 2.21,1.64 2.21,1.64 l -0.06,4.17 c 0,0 -1.71,0.32 -1.71,1.2 0,0.88 1.07,1.71 1.07,1.71 0,0 0.19,2.53 0.19,6.06 0,3.53 2.65,4.48 5.56,4.8 2.91,0.32 6.19,0.38 6.95,0.38 0.76,0 1.2,-1.01 1.2,-1.96 0,-0.95 -0.88,-1.89 -1.26,-1.83 -0.38,0.06 -1.2,0.76 -1.2,0.76 0,0 -1.96,0.51 -4.04,0 -2.08,-0.51 -4.11,-0.63 -3.85,-3.16 0.25,-2.53 0.32,-5.56 1.83,-5.49 1.52,0.06 3.92,-0.19 5.81,-0.32 1.89,-0.13 1.45,-2.91 0.44,-2.97 -1.01,-0.06 -3.35,0.13 -4.55,0.38 -1.2,0.25 -2.59,-0.51 -2.59,-1.33 0,-0.82 0.44,-4.04 0.44,-4.04 l 6.32,-1.96 c 0,0 0.88,-0.25 2.59,-0.95 1.71,-0.69 0.13,-2.53 -0.57,-2.78 z"
             id="path88" />
          <path
             class="cls-5"
             d="m 566.25,362.6 c -0.06,-3.09 0.06,-5.43 0,-6.69 -0.06,-1.26 2.53,-1.45 3.09,-0.38 0.56,1.07 -0.51,21.98 -0.51,21.98 0,0 4.11,-2.65 5.43,-3.41 1.32,-0.76 2.84,-0.76 3.79,-0.06 0.95,0.7 -0.32,1.89 -1.71,2.84 -1.39,0.95 -6.32,4.71 -7.52,5.26 -1.2,0.55 -3.35,0.42 -3.54,-1.54 -0.19,-1.96 0.95,-18 0.95,-18 z"
             id="path89" />
        </g>
      </g>
    </g>
  </g>
</svg>
