<?xml version="1.0" encoding="UTF-8"?>
<svg id="Capa_1" xmlns="http://www.w3.org/2000/svg" version="1.1" viewBox="0 0 105 140">
  <!-- Generator: Adobe Illustrator 29.3.1, SVG Export Plug-In . SVG Version: 2.1.0 Build 151)  -->
  <defs>
    <style>
      .st0 {
        stroke: #809979;
        stroke-miterlimit: 10;
      }

      .st0, .st1 {
        fill: #fff;
      }

      .st2 {
        fill: #93af8e;
      }

      .st3 {
        fill: #e8501e;
      }

      .st4 {
        fill: #cbdec8;
      }
    </style>
  </defs>
  <rect class="st0" x=".65" y="1" width="103.8" height="138.3"/>
  <g>
    <path class="st3" d="M63.1,26.09c-.04.28-.08,1.28-.16,2.04-.07.75-.3,3.78-.39,4.81-.09,1.03-.34,6.3-.39,7.03-.04.73-.34,4.57-.37,5.16-.04.59.12,1.54-1.49,1.77-1.06.15-2.29.27-3.11.36l-2.35.22c-.58.04-2.08.2-2.61.23s-3.63.33-4.27.37c-.64.04-3.31.32-3.94.38-.63.06-1.23.16-1.82.22s-.98-.2-1.04-.78c-.06-.58-.19-2.62-.28-3.27-.09-.65-.37-3.84-.47-4.58-.1-.74-.27-2.81-.39-3.72s-.47-5.41-.52-6.04c-.04-.63-.3-5.14-.34-5.79-.04-.65-.03-.83-.05-1.23-.02-.4.53-1.02,1.02-.93s2.23.34,3.08.46c.85.13,5.45.81,6.66.96,1.22.16,4.44.62,5.79.78,1.34.16,5,.62,5.43.69.43.07,1.05.14,1.4.19.36.04.62.38.58.66Z"/>
    <g>
      <path class="st2" d="M62.39,24.06c-1.72-.18-7.02-.85-7.02-.85,0,0-.71-2.14-1.04-2.95-.32-.81-.23-1.06-.67-1.8-.44-.74-1.12,0-1.12,0-.46.67-1.14,1.64-1.14,1.64l-1.75,2.48s-2.71-.31-4.54-.53c-1.83-.22-4.09-.36-5-.44s-1.55.96-1.58,1.55c-.03.59.04.71.07,1.1.03.39.24,2.05.32,3.25s.42,5.64.5,7.02.23,4.83.27,6.09c.04,1.25.18,3.93.2,4.65.03.71.16,2.63.16,2.63,0,0,.04,1.1.75,1.62s1.67.29,1.67.29c1.25-.18,4.17-.62,4.17-.62,1.51-.24,5.14-.85,5.14-.85.94-.16,3.08-.51,4.03-.66,0,0,2.4-.4,4.15-.61,1.75-.2,1.89-.81,1.98-1.71s2.26-17.45,2.41-18.7c.15-1.25-.26-2.41-1.98-2.59ZM63.09,26.09c-.04.28-.08,1.28-.16,2.04-.07.75-.3,3.78-.39,4.81-.09,1.03-.34,6.3-.39,7.03-.04.73-.34,4.57-.37,5.16-.04.59.12,1.54-1.49,1.77-1.06.15-2.29.27-3.11.36l-2.35.22c-.58.04-2.08.2-2.61.23s-3.63.33-4.27.37c-.64.04-3.31.32-3.94.38-.63.06-1.23.16-1.82.22s-.98-.2-1.04-.78c-.06-.58-.19-2.62-.28-3.27-.09-.65-.37-3.84-.47-4.58-.1-.74-.27-2.81-.39-3.72s-.47-5.41-.52-6.04c-.04-.63-.3-5.14-.34-5.79-.04-.65-.03-.83-.05-1.23-.02-.4.53-1.02,1.02-.93s2.23.34,3.08.46c.85.13,5.45.81,6.66.96,1.22.16,4.44.62,5.79.78,1.34.16,5,.62,5.43.69.43.07,1.05.14,1.4.19.36.04.62.38.58.66Z"/>
      <path class="st1" d="M60.86,26.04c-1.46-.22-6.36-.88-8.54-1.16s-5.99-.77-5.99-.77c-1.2-.13-4.32-.58-4.32-.58-1.13-.12-1.83.82-1.8,1.49.05,1.51.47,6.14.55,7.26s.47,5.8.59,7.14c.12,1.33.22,2.55.28,3.35.07.81.12,2.2.28,3.23s.71,1.62,1.8,1.52c1.05-.09,3.78-.27,5.9-.42,2.11-.15,8.59-.67,9.91-.78,1.32-.11,1.64-.79,1.7-1.44s.18-2.42.23-3.25c.05-.82.57-9.78.62-10.72.05-.94.16-3.47.16-3.47,0-.23-.13-1.23-1.37-1.41ZM49.4,46.83c-1.1.09-4.97.48-5.86.55-.21.02-.4-.04-.57-.13.04-.33.3-2.43.38-3.07.09-.69.83-6.2.92-6.81s.94-4.69,1.24-5.82c.3-1.14.93-2.69.93-2.69,0,0,.69,1.22.9,1.63.21.41.66,1.33.78,1.52.12.2.28.18.51.15.23-.03,2.99-.51,2.99-.51,0,0,.8-.05,1.08-.27.28-.22.34-.5.34-.5l1.1-2.06s1.04,4.36,1.12,4.66.23.28.37.27c.14-.01,1.71-.21,1.71-.21,0,0,0,.38,0,.51,0,.13-.03.65.34,1.05s.7.47.83.51c.13.03.97.02.97.02,0,0-.4,3.66-.43,3.9-.03.24-.09.33-.34.4s-1.27.36-2.2.61c-.92.25-2.24.46-2.24.46,0,0,.2,2.89.2,3.6,0,.58.01,1.45.02,1.73-2.25.22-4.54.45-5.1.49ZM58.38,33.63c0-.22.18-.3.4-.31.22,0,.88-.07.88-.07,0,0-.06,1.07-.06,1.16s-.01.2-.17.18-.57,0-.79-.05-.28-.22-.29-.38.03-.32.03-.53ZM61.96,27.71c-.07.55-.2,4.51-.34,6.75s-.86,9.33-.85,10.26c.01.93-.67,1.09-1.49,1.16-.34.03-1.93.18-3.74.36-.02-.21-.05-.75-.05-.94,0-.24-.15-2.89-.15-3.16,0-.28.07-.32.35-.38.28-.07.69-.2,1.11-.29.42-.09,1.69-.45,2.2-.6.5-.15.96-.36,1.02-.99s.36-3.27.38-3.7c.03-.43.24-2.34.25-2.87s-.11-.83-.59-.97c-.48-.14-1.43.02-2.08.1-.65.08-1.84.25-1.84.25,0,0-.42-1.63-.58-2.33s-.38-1.47-.57-2.1c-.19-.63-.34-.97-.72-.98-.38-.01-.67.53-.85.81-.18.29-.97,1.82-1.12,2.07-.15.26-.24.48-.7.53-.46.05-2.36.41-2.57.41s-.3-.13-.36-.29c-.22-.59-1.16-2.1-1.59-2.73-.43-.63-.98-.4-1.35.15-.36.55-.98,2.22-1.17,3.04-.19.82-.78,3.16-1.01,4.43s-.78,5.29-.94,6.44-.38,3.08-.38,3.08l-.04.53s0-.03,0-.04c0,0-.19-2.79-.28-4.46-.09-1.67-.55-8.47-.65-10.15-.09-1.68-.4-5.32-.38-5.95.03-.63.59-1.02,1.09-.97.5.05,4.78.59,5.83.73s6.77.74,8.55.97,3.3.4,4.32.51c1.02.11,1.35.78,1.28,1.33Z"/>
      <g>
        <ellipse class="st4" cx="53.03" cy="34.79" rx=".48" ry=".73"/>
        <path class="st4" d="M49.94,35.78c.28,0,.51-.32.51-.72s-.23-.72-.51-.72-.51.32-.51.72.23.72.51.72Z"/>
        <polygon class="st4" points="54.36 41.96 51.76 42.08 51.76 44.61 54.49 44.6 54.36 41.96"/>
        <polygon class="st4" points="49.17 44.79 49.4 46.83 52.2 46.56 51.76 44.61 49.17 44.79"/>
        <polygon class="st4" points="46.35 41.62 45.69 45.03 49.17 44.79 48.92 41.68 46.35 41.62"/>
        <path class="st4" d="M42.98,47.25c.17.1.35.15.57.13.34-.03,1.11-.1,2-.18l.14-2.17-2.34-.8c-.09.67-.33,2.7-.37,3.03Z"/>
        <polygon class="st4" points="44.15 38.3 43.74 41.34 46.35 41.62 46.54 39.09 44.15 38.3"/>
      </g>
    </g>
  </g>
</svg>