<?xml version="1.0" encoding="UTF-8"?>
<svg id="Capa_1" xmlns="http://www.w3.org/2000/svg" version="1.1" viewBox="0 0 231.99 230.61">
  <!-- Generator: Adobe Illustrator 29.3.1, SVG Export Plug-In . SVG Version: 2.1.0 Build 151)  -->
  <defs>
    <style>
      .st0 {
        fill: #ca5126;
      }

      .st1 {
        fill: #ce6547;
      }

      .st2 {
        fill: #fff;
      }

      .st3 {
        fill: #222220;
      }

      .st4 {
        fill: #ca4e2b;
      }

      .st5 {
        fill: #9aad8e;
      }

      .st6 {
        fill: #d0ddc8;
      }
    </style>
  </defs>
  <path class="st4" d="M171.15,213.88v-22.68l37.03-9.26s12.27-20.13,18.98-39.81c6.94-20.37,2.31-50,2.31-50l-13.89-2.78-.93-16.2,9.72-.93-6.94-12.96-33.79,5.56-14.81-57.4-23.61-7.41-20.83,36.11-45.83,5.56L61.9,7.87S23.94,31.48,20.69,40.74,1.25,130.08.79,141.66s22.22,44.9,22.22,44.9l20.37,1.85v18.52s37.58,22.32,66,22.32c40.65,0,61.77-15.37,61.77-15.37Z"/>
  <g>
    <path class="st1" d="M157.37,194.49h-35.05l-.96,35.12c27.9-1.57,49.79-15.73,49.79-15.73v-22.68l37.03-9.26s3.36-5.5,7.52-13.57l-59.47,12.68,1.14,13.45Z"/>
    <path class="st1" d="M45.77,188.62l.95-35.43-33.35-9.85L34.16,27.04c-6.71,5.24-12.31,10.39-13.47,13.7C17.45,50,1.25,130.08.79,141.66c-.46,11.57,22.22,44.9,22.22,44.9l20.37,1.85v18.52s17.47,10.92,41.09,17.71l-2.89-33.56-35.81-2.46Z"/>
    <path class="st1" d="M134.63,46.7l21.03-37.71,17.43,69.16,27.09-2.08s-1.89,14.78,6.25,21.79c8.15,7.01,24.32,7.67,24.32,7.67-.42-7.9-1.28-13.4-1.28-13.4l-13.89-2.78-.93-16.2,9.72-.93-6.94-12.96-33.79,5.56-14.81-57.4L145.22,0l-20.83,36.11-45.83,5.56L61.9,7.87s-5.77,3.59-13.01,8.52l23.22,39.41,62.53-9.09Z"/>
  </g>
  <g>
    <g>
      <g>
        <path class="st3" d="M100.53,123.79c-.03.1-.05.2-.06.3-.04,1.59-.38,13.38-.58,14.22-.22.9.08,1.93-.92,1.92s-1.42-.11-2.09-.05-1.17-.05-1.43-.3c-.11-.1-.19-.28-.24-.49-.12-.5-.62-.84-1.17-.78-.02,0-.04,0-.07,0-.67.06-3.24.32-4.8-.11s-2.93-1-4.17-2.46-1.74-3.14-1.69-4.65.36-2.84,1.16-4.02,2.29-2.47,4.41-2.88,3.23-.19,4.34,0c.82.14,1.81.4,2.28.53.23.06.46-.1.44-.33,0,0,0,0,0,0-.03-.26-.04-.94-.02-1.26s.32-.54.72-.55.82-.07,1.29-.08,1.03.09,1.45.15.87,0,1.09.29c.14.19.1.42.06.55ZM95.69,131.25c0-.05.02-.1.04-.15.1-.29.08-.71-.12-.88-.22-.19-.76-.67-1.35-.91s-.96-.5-2.2-.7-2.2-.03-2.97.26-1.62,1.61-1.37,2.72.29,1.55,1.42,2.32,2.4.67,3.77.48,2.04-.96,2.04-.96c.52-.43.71-1.84.75-2.18Z"/>
        <path class="st3" d="M49.04,123.79c-.03.1-.05.2-.06.3-.04,1.59-.38,13.38-.58,14.22-.22.9.08,1.93-.92,1.92s-1.42-.11-2.09-.05-1.17-.05-1.43-.3c-.11-.1-.19-.28-.24-.49-.12-.5-.62-.84-1.17-.78-.02,0-.04,0-.07,0-.67.06-3.24.32-4.8-.11s-2.93-1-4.17-2.46-1.74-3.14-1.69-4.65.36-2.84,1.16-4.02,2.29-2.47,4.41-2.88,3.23-.19,4.34,0c.82.14,1.81.4,2.28.53.23.06.46-.1.44-.33,0,0,0,0,0,0-.03-.26-.04-.94-.02-1.26s.32-.54.72-.55.82-.07,1.29-.08,1.03.09,1.45.15.87,0,1.09.29c.14.19.1.42.06.55ZM44.2,131.25c0-.05.02-.1.04-.15.1-.29.08-.71-.12-.88-.22-.19-.76-.67-1.35-.91s-.96-.5-2.2-.7-2.2-.03-2.97.26-1.62,1.61-1.37,2.72.29,1.55,1.42,2.32,2.4.67,3.77.48,2.04-.96,2.04-.96c.52-.43.71-1.84.75-2.18Z"/>
        <path class="st3" d="M63.89,125.48c.28-.56.6-.97.94-1.33s.48-.91-.14-1.2-2.08-.92-4.56-.99-5.08.82-6.33,2.04-2.37,2.52-2.76,4.12-.41,3.04.18,4.7,1.73,3.19,3.94,4.24,4.74.9,5.78.74,2.56-.38,3.44-.77.53-1.37.48-1.59-.36-1.15-.44-1.49-.59-1.2-1.61-.92-3.32.87-4.95.41-2.63-1.64-2.52-3.21.76-2.65,1.32-3.05,1.61-.85,2.54-.93,2.44.3,2.85.4,1.13.07,1.39-.3.33-.57.47-.85Z"/>
        <path class="st3" d="M66.54,133.84c.17,1.11.54,3.11,1.35,4.41s2.46,2.98,4.92,2.94,4.06-1.31,5.36-3.04,1.83-3.01,2.27-4.23,1.15-3.58,1.44-4.66.76-3.14.84-3.76-.14-1.32-.7-1.36-.88.1-1.25-.03-.73-.33-1.59-.38-.85.98-.96,1.45-.42,2.43-.66,3.26-1.35,4.43-2.13,5.97-1.31,2.4-2.3,2.4-1.51-.44-1.9-2.03-.48-3.59-.53-4.29.18-4.51.17-5.11-.49-1.3-1.17-1.31-1.35.03-1.65,0-.67-.2-.88-.2-.73.2-.73.81-.01,4.98-.05,6.24.07,2.54.13,2.93Z"/>
        <path class="st3" d="M117.96,139.28c0,.67-.62.95-.93.93s-.56-.11-.93-.13-.91.06-1.31.09-.84-.01-1.15-.36-.32-.6-.32-1.02-.23-.38-.56-.36-.81.32-1.33.38-1.69.1-2.78,0-3.46-.68-5.14-2.48-2.02-3.71-2.04-5.59,1.6-4.48,3.7-5.71,4.18-1.28,5.46-1.09,1.21.43,2.18.43,1.03-.68.99-.99.04-1.32.11-1.78-.09-.97,0-1.88.9-.92,1.21-.97,1.93.09,2.33.14.9.09.92,1.16-.09,4.61-.14,6.58-.16,8.08-.23,9.24,0,1.76,0,1.76c.03.58-.02,1-.02,1.66ZM113.63,128.34s-.26.47-.82.54-.87-.16-1.44-.37-1.19-.38-1.7-.37-1.84.1-2.72.99-1.03,1.28-1.05,2.12.69,2.19,1.42,2.63,1.7.7,2.86.71,1.75-.36,2.17-.56,1.45-1.03,1.39-1.8-.16-1.56-.14-2.16.05-1.73.05-1.73Z"/>
        <path class="st3" d="M120.9,131.83c-.1-.98-.26-3.87-.31-4.83,0,0-.12-1.48-.17-2.59s-.22-2.05-.22-2.05c0,0-.02-.66.35-.82s.52.05.88,0,.72-.23,1.23-.27,1.03-.11,1.42.11.53.59.67.84.58.35.87.14.43-.46,1.23-.91,1.47-.57,1.71-.36.72.73.82,1.28.19.91.24,1.23.14.43.19.73-.02.68-.36.82-1.18.61-2.36,1.78-1.54,3.37-1.59,4.38.02,3.21.14,4.17.31,2.03.19,2.62-.53,1.05-1.08,1.05-.99-.14-1.18-.11-.77.3-1.25.25-.94-.68-.91-1.28-.16-1.78-.25-2.96-.26-3.19-.26-3.19Z"/>
        <path class="st3" d="M147.53,127.37c-.12-.8-.43-2.03-.58-2.39-.14-.36-.58-.68-.79-.68s-.89.16-1.66.55-1.13.62-1.3.62-.46-.07-.46-.07c0,0,.46-.82.87-1.39.41-.57.84-.77.75-1.43-.1-.66-.87-.93-1.61-1.07-.75-.14-1.49-.41-2.52-.41s-2.72.32-4.18,1.25-2.43,2.12-3.17,3.05-1.68,3.21-1.95,4.83c-.26,1.62-.22,3.23.77,5.38.99,2.14,3.15,3.55,4.81,3.92,1.66.36,4.5.3,6.95-1.59,2.45-1.89,3.61-4.37,4.01-6.17.41-1.8.19-3.58.07-4.37ZM143.01,131.01c-.25.85-.38,1.14-.61,1.69-.22.51-1.17,1.71-2.61,2.31-1.44.6-2.34.7-3.5-.44s-1.15-2.36-1.12-2.72c.04-.36.18-2.07.74-3.18.56-1.11,1.44-2.1,2.18-2.53s1.75-.84,2.97-.68c1.23.15,1.8,1.33,1.95,2.34.14,1.01.25,2.36,0,3.21Z"/>
        <path class="st3" d="M154.31,144.59c.09.43.43,1.49.49,1.74s.11.56.25.77.45.61,1.19.32,1.42-.72,2.51-1.69,1.82-2.27,2.02-2.96.65-2.15.5-3.62-.96-3.5-2.11-4.37-1.66-1.23-2.65-1.67-2.24-1.23-2.54-2.53c-.28-1.17.09-2.02.65-3.18s1.26-1.84,1.95-2.56c0,0,.63-.67,1.37-1.13s1.35-.67.83-1.57-.81-1.11-1.08-1.95-.76-1.3-1.6-.87-2.7,2.08-3.64,3.06-2.72,3.74-3.17,6.05.38,5.69,2.78,7.24,3.32,1.81,4.15,3.14.29,2.29-.04,2.72-1.53.87-1.75,1.78c-.18.75-.09,1.28-.09,1.28Z"/>
      </g>
      <g>
        <path class="st3" d="M178.64,125.38c.28-.56.6-.97.94-1.33s.48-.91-.14-1.2-2.08-.92-4.56-.99-5.08.82-6.33,2.04-2.37,2.52-2.76,4.12-.41,3.04.18,4.7,1.73,3.19,3.94,4.24,4.74.9,5.78.74,2.56-.38,3.44-.77.53-1.37.48-1.59-.36-1.15-.44-1.49-.59-1.2-1.61-.92-3.32.87-4.95.41-2.63-1.64-2.52-3.21.76-2.65,1.32-3.05,1.61-.85,2.54-.93,2.44.3,2.85.4,1.13.07,1.39-.3.33-.57.47-.85Z"/>
        <path class="st3" d="M165.49,137.84c.02-.26,0-1.37,0-1.61s-.2-.87-.74-.92-.65-.05-1.1-.1-1.44.38-1.44.91.05,1.26,0,1.55-.02.94.31,1.2.87.29,1.1.31,1.32.03,1.57-.32.28-.67.31-1.01Z"/>
        <path class="st3" d="M198.09,127.59c-.05-.62-.33-1.65-.44-2.18-.11-.53-.62-1.02-.95-1.02s-.72.08-1.03.18c-.31.1-.18.07-1,.43-.82.36-1.18.41-1.18.41-.08-.21.14-.5.4-.98s.3-.34.6-.79c.31-.45.43-.74.41-1.05-.02-.31-.5-.67-.5-.67,0,0-.86-.59-2.72-.79-1.87-.21-3.84.35-5.16,1.26-1.32.91-2.85,2.37-3.54,3.59-.69,1.22-1.53,3.28-1.63,4.51s.05,3.08.36,3.92c.31.84.87,2.31,2.08,3.44s3.49,1.9,5.17,1.9,3.18-.67,3.92-1.1c.74-.43,2.04-1.43,2.58-2.05.54-.62,2-2.09,2.49-4.72.49-2.63.2-3.66.14-4.27ZM193.75,129.35c-.02.65,0,1.55-.46,2.49-.46.95-.9,1.9-2.15,2.77s-1.91.88-2.76.76c-.85-.11-2.03-1-2.38-2-.35-1-.4-2.36,0-3.61s1.36-2.65,2.49-3.44,2.7-1.02,3.95-.51,1.32,3.14,1.31,3.54Z"/>
      </g>
    </g>
    <g>
      <g>
        <path class="st2" d="M100.25,123.42c-.03.1-.05.2-.06.3-.04,1.59-.38,13.38-.58,14.22-.22.9.08,1.93-.92,1.92s-1.42-.11-2.09-.05-1.17-.05-1.43-.3c-.11-.1-.19-.28-.24-.49-.12-.5-.62-.84-1.17-.78-.02,0-.04,0-.07,0-.67.06-3.24.32-4.8-.11s-2.93-1-4.17-2.46-1.74-3.14-1.69-4.65.36-2.84,1.16-4.02,2.29-2.47,4.41-2.88,3.23-.19,4.34,0c.82.14,1.81.4,2.28.53.23.06.46-.1.44-.33,0,0,0,0,0,0-.03-.26-.04-.94-.02-1.26s.32-.54.72-.55.82-.07,1.29-.08,1.03.09,1.45.15.87,0,1.09.29c.14.19.1.42.06.55ZM95.4,130.89c0-.05.02-.1.04-.15.1-.29.08-.71-.12-.88-.22-.19-.76-.67-1.35-.91s-.96-.5-2.2-.7-2.2-.03-2.97.26-1.62,1.61-1.37,2.72.29,1.55,1.42,2.32,2.4.67,3.77.48,2.04-.96,2.04-.96c.52-.43.71-1.84.75-2.18Z"/>
        <path class="st5" d="M48.76,123.42c-.03.1-.05.2-.06.3-.04,1.59-.38,13.38-.58,14.22-.22.9.08,1.93-.92,1.92s-1.42-.11-2.09-.05-1.17-.05-1.43-.3c-.11-.1-.19-.28-.24-.49-.12-.5-.62-.84-1.17-.78-.02,0-.04,0-.07,0-.67.06-3.24.32-4.8-.11s-2.93-1-4.17-2.46-1.74-3.14-1.69-4.65.36-2.84,1.16-4.02,2.29-2.47,4.41-2.88,3.23-.19,4.34,0c.82.14,1.81.4,2.28.53.23.06.46-.1.44-.33,0,0,0,0,0,0-.03-.26-.04-.94-.02-1.26s.32-.54.72-.55.82-.07,1.29-.08,1.03.09,1.45.15.87,0,1.09.29c.14.19.1.42.06.55ZM43.91,130.89c0-.05.02-.1.04-.15.1-.29.08-.71-.12-.88-.22-.19-.76-.67-1.35-.91s-.96-.5-2.2-.7-2.2-.03-2.97.26-1.62,1.61-1.37,2.72.29,1.55,1.42,2.32,2.4.67,3.77.48,2.04-.96,2.04-.96c.52-.43.71-1.84.75-2.18Z"/>
        <path class="st2" d="M63.6,125.12c.28-.56.6-.97.94-1.33s.48-.91-.14-1.2-2.08-.92-4.56-.99-5.08.82-6.33,2.04-2.37,2.52-2.76,4.12-.41,3.04.18,4.7,1.73,3.19,3.94,4.24,4.74.9,5.78.74,2.56-.38,3.44-.77.53-1.37.48-1.59-.36-1.15-.44-1.49-.59-1.2-1.61-.92-3.32.87-4.95.41-2.63-1.64-2.52-3.21.76-2.65,1.32-3.05,1.61-.85,2.54-.93,2.44.3,2.85.4,1.13.07,1.39-.3.33-.57.47-.85Z"/>
        <path class="st2" d="M66.26,133.47c.17,1.11.54,3.11,1.35,4.41s2.46,2.98,4.92,2.94,4.06-1.31,5.36-3.04,1.83-3.01,2.27-4.23,1.15-3.58,1.44-4.66.76-3.14.84-3.76-.14-1.32-.7-1.36-.88.1-1.25-.03-.73-.33-1.59-.38-.85.98-.96,1.45-.42,2.43-.66,3.26-1.35,4.43-2.13,5.97-1.31,2.4-2.3,2.4-1.51-.44-1.9-2.03-.48-3.59-.53-4.29.18-4.51.17-5.11-.49-1.3-1.17-1.31-1.35.03-1.65,0-.67-.2-.88-.2-.73.2-.73.81-.01,4.98-.05,6.24.07,2.54.13,2.93Z"/>
        <path class="st2" d="M117.67,138.92c0,.67-.62.95-.93.93s-.56-.11-.93-.13-.91.06-1.31.09-.84-.01-1.15-.36-.32-.6-.32-1.02-.23-.38-.56-.36-.81.32-1.33.38-1.69.1-2.78,0-3.46-.68-5.14-2.48-2.02-3.71-2.04-5.59,1.6-4.48,3.7-5.71,4.18-1.28,5.46-1.09,1.21.43,2.18.43,1.03-.68.99-.99.04-1.32.11-1.78-.09-.97,0-1.88.9-.92,1.21-.97,1.93.09,2.33.14.9.09.92,1.16-.09,4.61-.14,6.58-.16,8.08-.23,9.24,0,1.76,0,1.76c.03.58-.02,1-.02,1.66ZM113.34,127.98s-.26.47-.82.54-.87-.16-1.44-.37-1.19-.38-1.7-.37-1.84.1-2.72.99-1.03,1.28-1.05,2.12.69,2.19,1.42,2.63,1.7.7,2.86.71,1.75-.36,2.17-.56,1.45-1.03,1.39-1.8-.16-1.56-.14-2.16.05-1.73.05-1.73Z"/>
        <path class="st2" d="M120.61,131.47c-.1-.98-.26-3.87-.31-4.83,0,0-.12-1.48-.17-2.59s-.22-2.05-.22-2.05c0,0-.02-.66.35-.82s.52.05.88,0,.72-.23,1.23-.27,1.03-.11,1.42.11.53.59.67.84.58.35.87.14.43-.46,1.23-.91,1.47-.57,1.71-.36.72.73.82,1.28.19.91.24,1.23.14.43.19.73-.02.68-.36.82-1.18.61-2.36,1.78-1.54,3.37-1.59,4.38.02,3.21.14,4.17.31,2.03.19,2.62-.53,1.05-1.08,1.05-.99-.14-1.18-.11-.77.3-1.25.25-.94-.68-.91-1.28-.16-1.78-.25-2.96-.26-3.19-.26-3.19Z"/>
        <path class="st2" d="M147.25,127.01c-.12-.8-.43-2.03-.58-2.39-.14-.36-.58-.68-.79-.68s-.89.16-1.66.55-1.13.62-1.3.62-.46-.07-.46-.07c0,0,.46-.82.87-1.39.41-.57.84-.77.75-1.43-.1-.66-.87-.93-1.61-1.07-.75-.14-1.49-.41-2.52-.41s-2.72.32-4.18,1.25-2.43,2.12-3.17,3.05-1.68,3.21-1.95,4.83c-.26,1.62-.22,3.23.77,5.38.99,2.14,3.15,3.55,4.81,3.92,1.66.36,4.5.3,6.95-1.59,2.45-1.89,3.61-4.37,4.01-6.17.41-1.8.19-3.58.07-4.37ZM142.72,130.64c-.25.85-.38,1.14-.61,1.69-.22.51-1.17,1.71-2.61,2.31-1.44.6-2.34.7-3.5-.44s-1.15-2.36-1.12-2.72c.04-.36.18-2.07.74-3.18.56-1.11,1.44-2.1,2.18-2.53s1.75-.84,2.97-.68c1.23.15,1.8,1.33,1.95,2.34.14,1.01.25,2.36,0,3.21Z"/>
        <path class="st2" d="M154.02,144.23c.09.43.43,1.49.49,1.74s.11.56.25.77.45.61,1.19.32,1.42-.72,2.51-1.69,1.82-2.27,2.02-2.96.65-2.15.5-3.62-.96-3.5-2.11-4.37-1.66-1.23-2.65-1.67-2.24-1.23-2.54-2.53c-.28-1.17.09-2.02.65-3.18s1.26-1.84,1.95-2.56c0,0,.63-.67,1.37-1.13s1.35-.67.83-1.57-.81-1.11-1.08-1.95-.76-1.3-1.6-.87-2.7,2.08-3.64,3.06-2.72,3.74-3.17,6.05.38,5.69,2.78,7.24,3.32,1.81,4.15,3.14.29,2.29-.04,2.72-1.53.87-1.75,1.78c-.18.75-.09,1.28-.09,1.28Z"/>
      </g>
      <g>
        <path class="st5" d="M178.35,125.02c.28-.56.6-.97.94-1.33s.48-.91-.14-1.2-2.08-.92-4.56-.99-5.08.82-6.33,2.04-2.37,2.52-2.76,4.12-.41,3.04.18,4.7,1.73,3.19,3.94,4.24,4.74.9,5.78.74,2.56-.38,3.44-.77.53-1.37.48-1.59-.36-1.15-.44-1.49-.59-1.2-1.61-.92-3.32.87-4.95.41-2.63-1.64-2.52-3.21.76-2.65,1.32-3.05,1.61-.85,2.54-.93,2.44.3,2.85.4,1.13.07,1.39-.3.33-.57.47-.85Z"/>
        <path class="st5" d="M165.2,137.48c.02-.26,0-1.37,0-1.61s-.2-.87-.74-.92-.65-.05-1.1-.1-1.44.38-1.44.91.05,1.26,0,1.55-.02.94.31,1.2.87.29,1.1.31,1.32.03,1.57-.32.28-.67.31-1.01Z"/>
        <path class="st5" d="M197.8,127.23c-.05-.62-.33-1.65-.44-2.18-.11-.53-.62-1.02-.95-1.02s-.72.08-1.03.18c-.31.1-.18.07-1,.43-.82.36-1.18.41-1.18.41-.08-.21.14-.5.4-.98s.3-.34.6-.79c.31-.45.43-.74.41-1.05-.02-.31-.5-.67-.5-.67,0,0-.86-.59-2.72-.79-1.87-.21-3.84.35-5.16,1.26-1.32.91-2.85,2.37-3.54,3.59-.69,1.22-1.53,3.28-1.63,4.51s.05,3.08.36,3.92c.31.84.87,2.31,2.08,3.44s3.49,1.9,5.17,1.9,3.18-.67,3.92-1.1c.74-.43,2.04-1.43,2.58-2.05.54-.62,2-2.09,2.49-4.72.49-2.63.2-3.66.14-4.27ZM193.46,128.99c-.02.65,0,1.55-.46,2.49-.46.95-.9,1.9-2.15,2.77s-1.91.88-2.76.76c-.85-.11-2.03-1-2.38-2-.35-1-.4-2.36,0-3.61s1.36-2.65,2.49-3.44,2.7-1.02,3.95-.51,1.32,3.14,1.31,3.54Z"/>
      </g>
    </g>
  </g>
  <g>
    <path class="st0" d="M131.98,84.33c-.05.4-.12,1.8-.22,2.86-.1,1.06-.42,5.29-.54,6.74-.13,1.44-.48,8.82-.54,9.84-.06,1.03-.47,6.4-.52,7.23-.05.83.16,2.16-2.08,2.48-1.48.21-3.2.38-4.35.5l-3.28.3c-.82.05-2.92.28-3.66.32s-5.08.46-5.98.51c-.9.05-4.63.45-5.51.53-.88.08-1.72.22-2.54.31s-1.37-.28-1.45-1.09c-.08-.81-.26-3.67-.39-4.58-.13-.91-.51-5.38-.66-6.41-.15-1.04-.38-3.93-.54-5.21s-.66-7.57-.72-8.46c-.06-.89-.42-7.2-.48-8.11-.06-.91-.04-1.16-.07-1.73-.03-.56.74-1.42,1.43-1.3s3.12.47,4.31.65c1.19.18,7.63,1.13,9.33,1.35,1.7.22,6.22.87,8.11,1.09,1.88.22,7,.87,7.6.97.61.1,1.46.2,1.97.26.5.06.87.53.82.93Z"/>
    <g>
      <path class="st5" d="M130.99,81.48c-2.41-.25-9.82-1.19-9.82-1.19,0,0-1-3-1.45-4.13-.45-1.13-.32-1.49-.94-2.53-.62-1.04-1.57,0-1.57,0-.64.94-1.6,2.3-1.6,2.3l-2.45,3.47s-3.79-.43-6.35-.74c-2.56-.3-5.73-.51-7-.62s-2.17,1.34-2.21,2.17c-.04.83.06,1,.09,1.55.04.55.34,2.87.45,4.54s.58,7.9.7,9.82.32,6.77.38,8.52c.06,1.75.25,5.51.28,6.51.04,1,.23,3.68.23,3.68,0,0,.06,1.55,1.06,2.27s2.34.41,2.34.41c1.75-.25,5.85-.87,5.85-.87,2.11-.34,7.2-1.19,7.2-1.19,1.32-.23,4.32-.72,5.64-.92,0,0,3.36-.57,5.81-.85,2.45-.28,2.64-1.13,2.77-2.39s3.17-24.44,3.38-26.19c.21-1.75-.36-3.38-2.77-3.62ZM131.98,84.33c-.05.4-.12,1.8-.22,2.86-.1,1.06-.42,5.29-.54,6.74-.13,1.44-.48,8.82-.54,9.84-.06,1.03-.47,6.4-.52,7.23-.05.83.16,2.16-2.08,2.48-1.48.21-3.2.38-4.35.5l-3.28.3c-.82.05-2.92.28-3.66.32s-5.08.46-5.98.51c-.9.05-4.63.45-5.51.53-.88.08-1.72.22-2.54.31s-1.37-.28-1.45-1.09c-.08-.81-.26-3.67-.39-4.58-.13-.91-.51-5.38-.66-6.41-.15-1.04-.38-3.93-.54-5.21s-.66-7.57-.72-8.46c-.06-.89-.42-7.2-.48-8.11-.06-.91-.04-1.16-.07-1.73-.03-.56.74-1.42,1.43-1.3s3.12.47,4.31.65c1.19.18,7.63,1.13,9.33,1.35,1.7.22,6.22.87,8.11,1.09,1.88.22,7,.87,7.6.97.61.1,1.46.2,1.97.26.5.06.87.53.82.93Z"/>
      <path class="st2" d="M128.86,84.25c-2.05-.31-8.9-1.23-11.96-1.62s-8.39-1.07-8.39-1.07c-1.68-.19-6.05-.81-6.05-.81-1.58-.17-2.56,1.14-2.53,2.09.08,2.11.66,8.6.77,10.16s.66,8.13.83,9.99c.17,1.87.3,3.56.4,4.7.09,1.13.17,3.07.4,4.53s1,2.27,2.53,2.13c1.47-.13,5.3-.38,8.26-.58,2.96-.21,12.03-.94,13.88-1.09,1.85-.15,2.3-1.11,2.38-2.02s.25-3.39.32-4.54c.08-1.15.79-13.69.87-15.01.08-1.32.23-4.87.23-4.87,0-.32-.19-1.72-1.92-1.98ZM112.81,113.37c-1.55.13-6.96.68-8.2.77-.3.02-.56-.05-.79-.19.06-.46.42-3.41.53-4.29.12-.96,1.17-8.68,1.29-9.54s1.32-6.56,1.73-8.16c.41-1.59,1.3-3.76,1.3-3.76,0,0,.97,1.71,1.26,2.28.29.58.92,1.86,1.09,2.13.17.27.4.25.72.21.32-.05,4.19-.71,4.19-.71,0,0,1.12-.08,1.52-.38.4-.3.47-.7.47-.7l1.54-2.89s1.46,6.1,1.57,6.52.32.4.52.38c.2-.02,2.39-.29,2.39-.29,0,0,0,.53,0,.72,0,.19-.04.91.48,1.47s.98.66,1.17.71c.19.05,1.36.03,1.36.03,0,0-.57,5.12-.6,5.46-.04.34-.12.46-.48.57s-1.78.5-3.07.85c-1.29.35-3.14.65-3.14.65,0,0,.27,4.04.27,5.03,0,.82.02,2.03.03,2.43-3.15.31-6.36.63-7.14.69ZM125.38,94.88c0-.3.25-.42.56-.43.3,0,1.24-.09,1.24-.09,0,0-.08,1.5-.08,1.62s-.02.27-.24.25-.79,0-1.11-.07-.39-.31-.41-.54.05-.44.05-.74ZM130.38,86.59c-.09.77-.28,6.32-.47,9.45s-1.21,13.07-1.19,14.37c.02,1.3-.94,1.53-2.09,1.62-.48.04-2.7.26-5.24.51-.02-.3-.07-1.05-.07-1.32,0-.34-.22-4.04-.21-4.43,0-.39.1-.44.49-.54.39-.09.96-.27,1.56-.41.59-.13,2.37-.63,3.07-.84.71-.21,1.35-.5,1.43-1.39s.5-4.57.54-5.18c.04-.6.34-3.27.35-4.02s-.16-1.16-.83-1.36c-.67-.2-2,.03-2.91.14-.91.11-2.57.35-2.57.35,0,0-.58-2.28-.81-3.26s-.53-2.06-.79-2.94c-.26-.89-.47-1.36-1.01-1.38-.54-.02-.94.74-1.19,1.14-.25.41-1.36,2.55-1.57,2.9-.22.36-.34.67-.98.74-.64.07-3.31.58-3.6.58s-.42-.18-.51-.41c-.31-.82-1.62-2.94-2.23-3.83-.6-.89-1.38-.57-1.89.21-.51.77-1.38,3.11-1.64,4.26-.26,1.15-1.09,4.43-1.41,6.2s-1.09,7.41-1.32,9.01-.53,4.32-.53,4.32l-.06.74s0-.04,0-.06c0,0-.26-3.9-.4-6.24-.13-2.34-.77-11.86-.91-14.22-.13-2.36-.57-7.45-.53-8.33.04-.89.83-1.43,1.53-1.36.7.08,6.69.83,8.16,1.02s9.48,1.04,11.97,1.36,4.62.57,6.05.72c1.43.15,1.89,1.09,1.79,1.87Z"/>
      <g>
        <ellipse class="st6" cx="117.89" cy="96.5" rx=".67" ry="1.02"/>
        <path class="st6" d="M113.56,97.89c.4,0,.72-.45.72-1s-.32-1-.72-1-.72.45-.72,1,.32,1,.72,1Z"/>
        <polygon class="st6" points="119.75 106.54 116.11 106.72 116.11 110.25 119.93 110.25 119.75 106.54"/>
        <polygon class="st6" points="112.48 110.5 112.81 113.37 116.72 112.99 116.11 110.25 112.48 110.5"/>
        <polygon class="st6" points="108.53 106.08 107.61 110.84 112.48 110.5 112.14 106.15 108.53 106.08"/>
        <path class="st6" d="M103.81,113.96c.23.13.5.21.79.19.48-.04,1.56-.14,2.8-.26l.2-3.04-3.28-1.12c-.12.94-.47,3.78-.52,4.24Z"/>
        <polygon class="st6" points="105.46 101.42 104.88 105.68 108.53 106.08 108.79 102.53 105.46 101.42"/>
      </g>
    </g>
  </g>
  <g>
    <g>
      <g>
        <path class="st3" d="M85.87,143.09c-.14-.05-.59,0-.94.07-.34.07-.78.23-1.01.32s-1,.41-.94.71.43.32.43.32v.81s-.34.06-.34.23.21.33.21.33c0,0,.04.49.04,1.18s.52.87,1.08.94c.57.06,1.21.07,1.35.07s.23-.2.23-.38-.17-.37-.25-.36-.23.15-.23.15c0,0-.38.1-.79,0-.41-.1-.8-.12-.75-.62.05-.49.06-1.08.36-1.07.3.01.76-.04,1.13-.06.37-.02.28-.57.09-.58-.2-.01-.65.02-.89.07-.23.05-.5-.1-.5-.26s.09-.79.09-.79l1.23-.38s.17-.05.5-.18c.33-.14.02-.49-.11-.54Z"/>
        <path class="st3" d="M76.23,147.48c-.05-.16-.18-.54-.34-1.14-.17-.59-.55-2.16-.61-2.42-.06-.26.02-.51-.1-.75-.12-.24-.25-.45-.42-.45s-.26.19-.35.5c-.09.3-.48,1.6-.63,2.09,0,0-.05.18-.14.41-.09.22-.2.33-.32.33s-.13.26-.02.31c.11.06.15.29.05.5-.1.21-.3.9-.34.98-.05.08-.11.6.13.68s.39,0,.44-.15c.06-.16.18-.7.32-1.24.14-.54.16-.62.42-.71.26-.09.64-.11.76-.1s.18.3.27.67c.09.37.2.85.3.94s.34.16.51,0c.17-.16.13-.3.08-.46ZM74.85,145.82c-.17-.02-.58,0-.58,0,0,0,.3-.98.44-1.36,0,0,.26,1.2.28,1.24s.03.13-.14.11Z"/>
        <path class="st3" d="M80.08,147.8c-.09-.14-.35-.42-.69-.77-.34-.35-1.04-.97-1.27-1.14-.23-.18-.26-.31-.16-.36.1-.05.45-.33.82-.79.37-.46.18-1.09-.04-1.48-.23-.39-.6-.53-1.17-.51-.57.02-.67.42-.73.97-.06.55-.03,1.91-.06,2.52-.03.62-.1,1.54-.08,1.91s.58.24.63.08.22-2.13.22-2.13c0,0,1.48,1.48,1.92,1.88.44.4.41.29.54.18.12-.11.17-.22.09-.36ZM77.54,143.58c.06-.23.3-.28.42-.21.12.07.54.21.36.76s-.55.86-.75.92c0,0-.09-1.24-.03-1.47Z"/>
        <path class="st3" d="M81.11,143.33s-.85.11-1.14.12-.69-.07-.82-.27,0-.34.28-.38.64-.08,1.06-.1.7-.29.84-.28.44.18.97.1,1.16-.26,1.45-.25.44.41.16.59-2,.37-2,.37c0,0-.15,1.42-.15,2.17s-.01,2.13.01,2.22.01.51-.12.57-.62-.04-.65-.6"/>
      </g>
      <g>
        <path class="st3" d="M94.48,143.09c-.14-.05-.59,0-.94.07-.34.07-.78.23-1.01.32s-1,.41-.94.71.43.32.43.32v.81s-.34.06-.34.23.21.33.21.33c0,0,.04.49.04,1.18s.52.87,1.08.94c.57.06,1.21.07,1.35.07s.23-.2.23-.38-.17-.37-.25-.36-.23.15-.23.15c0,0-.38.1-.79,0-.41-.1-.8-.12-.75-.62.05-.49.06-1.08.36-1.07.3.01.76-.04,1.13-.06.37-.02.28-.57.09-.58-.2-.01-.65.02-.89.07-.23.05-.5-.1-.5-.26s.09-.79.09-.79l1.23-.38s.17-.05.5-.18c.33-.14.02-.49-.11-.54Z"/>
        <path class="st3" d="M91.02,144.64c-.42-.83-1.25-1.25-1.78-1.42s-.7.06-.64.21c.06.15.32.39.32.39,0,0-.04,2.76-.05,3.45,0,0-.04.45,0,.66.03.22.39.32.52.24.13-.08.87-.73,1.28-1.37s.78-1.34.36-2.17ZM90.44,145.84c-.17.45-.86,1.22-.86,1.22,0,0-.09-2.68.02-2.95,0,0,.64.32.77.62.13.3.23.66.06,1.11Z"/>
      </g>
      <g>
        <path class="st3" d="M102.48,143.09c-.14-.05-.59,0-.94.07-.34.07-.78.23-1.01.32s-1,.41-.94.71.43.32.43.32v.81s-.34.06-.34.23.21.33.21.33c0,0,.04.49.04,1.18s.52.87,1.08.94c.57.06,1.21.07,1.35.07s.23-.2.23-.38-.17-.37-.25-.36-.23.15-.23.15c0,0-.38.1-.79,0-.41-.1-.8-.12-.75-.62.05-.49.06-1.08.36-1.07.3.01.76-.04,1.13-.06.37-.02.28-.57.09-.58-.2-.01-.65.02-.89.07-.23.05-.5-.1-.5-.26s.09-.79.09-.79l1.23-.38s.17-.05.5-.18c.33-.14.02-.49-.11-.54Z"/>
        <path class="st3" d="M106.51,147.8c-.09-.14-.35-.42-.69-.77-.34-.35-1.04-.97-1.27-1.14-.23-.18-.26-.31-.16-.36.1-.05.45-.33.82-.79.37-.46.18-1.09-.04-1.48-.23-.39-.6-.53-1.17-.51-.57.02-.67.42-.73.97-.06.55-.03,1.91-.06,2.52-.03.62-.1,1.54-.08,1.91s.58.24.63.08.22-2.13.22-2.13c0,0,1.48,1.48,1.92,1.88.44.4.41.29.54.18.12-.11.17-.22.09-.36ZM103.97,143.58c.06-.23.3-.28.42-.21.12.07.54.21.36.76s-.55.86-.75.92c0,0-.09-1.24-.03-1.47Z"/>
        <path class="st3" d="M98.12,146.33c.16.36.27.72.25,1.07s-.22.7-.28.76c0,0-.18-.07-.26.08s-.09.34.04.41.32.18.7-.06.55-.65.59-1.12,0-.87-.47-1.78-.61-1.04-.64-1.55.45-1.18.6-1.2c0,0,.06.09.19.07s.39-.26.25-.48-.61-.3-1.06-.07-.75,1.2-.74,1.55.29,1.16.48,1.55.37.76.37.76Z"/>
      </g>
      <g>
        <path class="st3" d="M111.16,143.09c-.14-.05-.59,0-.94.07-.34.07-.78.23-1.01.32s-1,.41-.94.71.43.32.43.32v.81s-.34.06-.34.23.21.33.21.33c0,0,.04.49.04,1.18s.52.87,1.08.94c.57.06,1.21.07,1.35.07s.23-.2.23-.38-.17-.37-.25-.36-.23.15-.23.15c0,0-.38.1-.79,0-.41-.1-.8-.12-.75-.62.05-.49.06-1.08.36-1.07.3.01.76-.04,1.13-.06.37-.02.28-.57.09-.58-.2-.01-.65.02-.89.07-.23.05-.5-.1-.5-.26s.09-.79.09-.79l1.23-.38s.17-.05.5-.18c.33-.14.02-.49-.11-.54Z"/>
        <path class="st3" d="M131.72,147.73c-.09-.14-.35-.42-.69-.77-.34-.35-1.04-.97-1.27-1.14-.23-.18-.26-.31-.16-.36.1-.05.45-.33.82-.79.37-.46.18-1.09-.04-1.48-.23-.39-.6-.53-1.17-.51-.57.02-.67.42-.73.97-.06.55-.03,1.91-.06,2.52-.03.62-.1,1.54-.08,1.91s.58.24.63.08.22-2.13.22-2.13c0,0,1.48,1.48,1.92,1.88.44.4.41.29.54.18.12-.11.17-.22.09-.36ZM129.18,143.51c.06-.23.3-.28.42-.21.12.07.54.21.36.76s-.55.86-.75.92c0,0-.09-1.24-.03-1.47Z"/>
        <path class="st3" d="M147.26,147.73c-.09-.14-.35-.42-.69-.77-.34-.35-1.04-.97-1.27-1.14-.23-.18-.26-.31-.16-.36.1-.05.45-.33.82-.79.37-.46.18-1.09-.04-1.48-.23-.39-.6-.53-1.17-.51-.57.02-.67.42-.73.97-.06.55-.03,1.91-.06,2.52-.03.62-.1,1.54-.08,1.91s.58.24.63.08.22-2.13.22-2.13c0,0,1.48,1.48,1.92,1.88.44.4.41.29.54.18.12-.11.17-.22.09-.36ZM144.72,143.51c.06-.23.3-.28.42-.21.12.07.54.21.36.76s-.55.86-.75.92c0,0-.09-1.24-.03-1.47Z"/>
        <path class="st3" d="M124.48,147.54c-.05-.16-.18-.54-.34-1.14-.17-.59-.55-2.16-.61-2.42-.06-.26.02-.51-.1-.75-.12-.24-.25-.45-.42-.45s-.26.19-.35.5c-.09.3-.48,1.6-.63,2.09,0,0-.05.18-.14.41-.09.22-.2.33-.32.33s-.13.26-.02.31c.11.06.15.29.05.5-.1.21-.3.9-.34.98-.05.08-.11.6.13.68s.39,0,.44-.15c.06-.16.18-.7.32-1.24.14-.54.16-.62.42-.71.26-.09.64-.11.76-.1s.18.3.27.67c.09.37.2.85.3.94s.34.16.51,0c.17-.16.13-.3.08-.46ZM123.11,145.88c-.17-.02-.58,0-.58,0,0,0,.3-.98.44-1.36,0,0,.26,1.2.28,1.24s.03.13-.14.11Z"/>
        <path class="st3" d="M143.38,147.54c-.05-.16-.18-.54-.34-1.14-.17-.59-.55-2.16-.61-2.42-.06-.26.02-.51-.1-.75-.12-.24-.25-.45-.42-.45s-.26.19-.35.5c-.09.3-.48,1.6-.63,2.09,0,0-.05.18-.14.41-.09.22-.2.33-.32.33s-.13.26-.02.31c.11.06.15.29.05.5-.1.21-.3.9-.34.98-.05.08-.11.6.13.68s.39,0,.44-.15c.06-.16.18-.7.32-1.24.14-.54.16-.62.42-.71.26-.09.64-.11.76-.1s.18.3.27.67c.09.37.2.85.3.94s.34.16.51,0c.17-.16.13-.3.08-.46ZM142.01,145.88c-.17-.02-.58,0-.58,0,0,0,.3-.98.44-1.36,0,0,.26,1.2.28,1.24s.03.13-.14.11Z"/>
        <path class="st3" d="M121.66,147.73c-.09-.14-.35-.42-.69-.77-.34-.35-1.04-.97-1.27-1.14-.23-.18-.26-.31-.16-.36.1-.05.45-.33.82-.79.37-.46.18-1.09-.04-1.48-.23-.39-.6-.53-1.17-.51-.57.02-.67.42-.73.97-.06.55-.03,1.91-.06,2.52-.03.62-.1,1.54-.08,1.91s.58.24.63.08.22-2.13.22-2.13c0,0,1.48,1.48,1.92,1.88.44.4.41.29.54.18.12-.11.17-.22.09-.36ZM119.12,143.51c.06-.23.3-.28.42-.21.12.07.54.21.36.76s-.55.86-.75.92c0,0-.09-1.24-.03-1.47Z"/>
        <path class="st3" d="M116.27,143.36s-.85.11-1.14.12-.69-.07-.82-.27,0-.34.28-.38.64-.08,1.06-.1.7-.29.84-.28.44.18.97.1,1.16-.26,1.45-.25.44.41.16.59-2,.37-2,.37c0,0-.15,1.42-.15,2.17s-.01,2.13.01,2.22.01.51-.12.57-.62-.04-.65-.6"/>
        <path class="st3" d="M133.82,144.64c-.42-.83-1.25-1.25-1.78-1.42s-.7.06-.64.21c.06.15.32.39.32.39,0,0-.04,2.76-.05,3.45,0,0-.04.45,0,.66.03.22.39.32.52.24.13-.08.87-.73,1.28-1.37s.78-1.34.36-2.17ZM133.25,145.84c-.17.45-.86,1.22-.86,1.22,0,0-.09-2.68.02-2.95,0,0,.64.32.77.62.13.3.23.66.06,1.11Z"/>
        <path class="st3" d="M113.16,145.75s-.27.38-.52,1.06-.44,1.35-.65,1.53-.61.11-.6-.18.24-.73.58-1.59.82-1.66.84-1.75-.76-1.09-.86-1.19.04-.3.17-.35.41-.05.67.3.36.48.36.48c0,0,.66-1.27.86-1.39s.49-.1.63.06-.26.62-.38.82-.68,1.35-.68,1.35c0,0,.1.22.44.84s.51,1.02.51,1.1-.11.3-.29.28-.5-.17-.66-.62-.25-.56-.44-.75Z"/>
        <path class="st3" d="M127.87,145.38c-.13-.63-.37-1.17-.77-1.21-.4-.04-.48-.14-.73-.31-.25-.18-.52-.03-.72.16-.2.18-.81.89-.78,1.69.04.8.15,1.01.57,1.37.42.36.76.36,1.26.18.51-.18.83-.7,1.01-1.05.18-.35.18-.73.16-.82ZM127.13,145.46c-.04.21,0,.56-.41.95-.42.39-.57.42-.84.2-.27-.21-.33-.48-.32-.73,0-.25.07-.58.14-.68.06-.1.13-.26.18-.22.06.03.19.15.28.17s.32-.26.39-.34c.06-.08.14-.24.4.05.12.13.22.4.18.61Z"/>
        <path class="st3" d="M151.57,145.38c-.13-.63-.37-1.17-.77-1.21-.4-.04-.48-.14-.73-.31-.25-.18-.52-.03-.72.16-.2.18-.81.89-.78,1.69.04.8.15,1.01.57,1.37.42.36.76.36,1.26.18.51-.18.83-.7,1.01-1.05.18-.35.18-.73.16-.82ZM150.83,145.46c-.04.21,0,.56-.41.95-.42.39-.57.42-.84.2-.27-.21-.33-.48-.32-.73,0-.25.07-.58.14-.68.06-.1.13-.26.18-.22.06.03.19.15.28.17s.32-.26.39-.34c.06-.08.14-.24.4.05.12.13.22.4.18.61Z"/>
        <path class="st3" d="M135.64,144.29c-.04.3-.2,1.7-.26,2.58s.11,1.27-.35,1.34-.44-.62-.42-1.15.28-1.74.28-2.48-.06-1.28.37-1.31.43.63.39,1.02Z"/>
        <path class="st3" d="M148.01,144.29c-.04.3-.2,1.7-.26,2.58s.11,1.27-.35,1.34-.44-.62-.42-1.15.28-1.74.28-2.48-.06-1.28.37-1.31.43.63.39,1.02Z"/>
        <path class="st3" d="M137.25,144.42s-.18.94-.16,1.62,0,2.04,0,2.36-.18.43-.38.4-.38-.17-.36-.47,0-1.96.06-2.64.14-2.17.18-2.52.04-.69.33-.67.63.55.91,1.37.87,2.15.87,2.15c0,0,.22-1.87.28-2.25s.11-.79.11-.91.02-.38.34-.36.33.19.33.36-.31,2.19-.32,3.13-.04,1.3,0,1.82-.66.39-.81.02-1.4-3.41-1.4-3.41Z"/>
      </g>
      <g>
        <path class="st3" d="M67.52,143.1c-.14-.05-.59,0-.94.07-.34.07-.78.23-1.01.32s-1,.41-.94.71.43.32.43.32v.81s-.34.06-.34.23.21.33.21.33c0,0,.04.49.04,1.18s.52.87,1.08.94c.57.06,1.21.07,1.35.07s.23-.2.23-.38-.17-.37-.25-.36-.23.15-.23.15c0,0-.38.1-.79,0-.41-.1-.8-.12-.75-.62.05-.49.06-1.08.36-1.07.3.01.76-.04,1.13-.06.37-.02.28-.57.09-.58-.2-.01-.65.02-.89.07-.23.05-.5-.1-.5-.26s.09-.79.09-.79l1.23-.38s.17-.05.5-.18c.33-.14.02-.49-.11-.54Z"/>
        <path class="st3" d="M68.21,144.29c-.01-.6.01-1.06,0-1.3s.49-.28.6-.07-.1,4.28-.1,4.28c0,0,.8-.52,1.06-.66s.55-.15.74-.01-.06.37-.33.55-1.23.92-1.46,1.03-.65.08-.69-.3.18-3.51.18-3.51Z"/>
      </g>
    </g>
    <g>
      <g>
        <path class="st6" d="M85.76,142.99c-.14-.05-.59,0-.94.07-.34.07-.78.23-1.01.32s-1,.41-.94.71.43.32.43.32v.81s-.34.06-.34.23.21.33.21.33c0,0,.04.49.04,1.18s.52.87,1.08.94c.57.06,1.21.07,1.35.07s.23-.2.23-.38-.17-.37-.25-.36-.23.15-.23.15c0,0-.38.1-.79,0-.41-.1-.8-.12-.75-.62.05-.49.06-1.08.36-1.07.3.01.76-.04,1.13-.06.37-.02.28-.57.09-.58-.2-.01-.65.02-.89.07-.23.05-.5-.1-.5-.26s.09-.79.09-.79l1.23-.38s.17-.05.5-.18c.33-.14.02-.49-.11-.54Z"/>
        <path class="st6" d="M76.11,147.38c-.05-.16-.18-.54-.34-1.14-.17-.59-.55-2.16-.61-2.42-.06-.26.02-.51-.1-.75-.12-.24-.25-.45-.42-.45s-.26.19-.35.5c-.09.3-.48,1.6-.63,2.09,0,0-.05.18-.14.41-.09.22-.2.33-.32.33s-.13.26-.02.31c.11.06.15.29.05.5-.1.21-.3.9-.34.98-.05.08-.11.6.13.68s.39,0,.44-.15c.06-.16.18-.7.32-1.24.14-.54.16-.62.42-.71.26-.09.64-.11.76-.1s.18.3.27.67c.09.37.2.85.3.94s.34.16.51,0c.17-.16.13-.3.08-.46ZM74.74,145.72c-.17-.02-.58,0-.58,0,0,0,.3-.98.44-1.36,0,0,.26,1.2.28,1.24s.03.13-.14.11Z"/>
        <path class="st6" d="M79.96,147.7c-.09-.14-.35-.42-.69-.77-.34-.35-1.04-.97-1.27-1.14-.23-.18-.26-.31-.16-.36.1-.05.45-.33.82-.79.37-.46.18-1.09-.04-1.48-.23-.39-.6-.53-1.17-.51-.57.02-.67.42-.73.97-.06.55-.03,1.91-.06,2.52-.03.62-.1,1.54-.08,1.91s.58.24.63.08.22-2.13.22-2.13c0,0,1.48,1.48,1.92,1.88.44.4.41.29.54.18.12-.11.17-.22.09-.36ZM77.42,143.48c.06-.23.3-.28.42-.21.12.07.54.21.36.76s-.55.86-.75.92c0,0-.09-1.24-.03-1.47Z"/>
        <path class="st6" d="M81,143.24s-.85.11-1.14.12-.69-.07-.82-.27,0-.34.28-.38.64-.08,1.06-.1.7-.29.84-.28.44.18.97.1,1.16-.26,1.45-.25.44.41.16.59-2,.37-2,.37c0,0-.15,1.42-.15,2.17s-.01,2.13.01,2.22.01.51-.12.57-.62-.04-.65-.6"/>
      </g>
      <g>
        <path class="st6" d="M94.37,142.99c-.14-.05-.59,0-.94.07-.34.07-.78.23-1.01.32s-1,.41-.94.71.43.32.43.32v.81s-.34.06-.34.23.21.33.21.33c0,0,.04.49.04,1.18s.52.87,1.08.94c.57.06,1.21.07,1.35.07s.23-.2.23-.38-.17-.37-.25-.36-.23.15-.23.15c0,0-.38.1-.79,0-.41-.1-.8-.12-.75-.62.05-.49.06-1.08.36-1.07.3.01.76-.04,1.13-.06.37-.02.28-.57.09-.58-.2-.01-.65.02-.89.07-.23.05-.5-.1-.5-.26s.09-.79.09-.79l1.23-.38s.17-.05.5-.18c.33-.14.02-.49-.11-.54Z"/>
        <path class="st6" d="M90.9,144.55c-.42-.83-1.25-1.25-1.78-1.42s-.7.06-.64.21c.06.15.32.39.32.39,0,0-.04,2.76-.05,3.45,0,0-.04.45,0,.66.03.22.39.32.52.24.13-.08.87-.73,1.28-1.37s.78-1.34.36-2.17ZM90.32,145.74c-.17.45-.86,1.22-.86,1.22,0,0-.09-2.68.02-2.95,0,0,.64.32.77.62.13.3.23.66.06,1.11Z"/>
      </g>
      <g>
        <path class="st6" d="M102.36,142.99c-.14-.05-.59,0-.94.07-.34.07-.78.23-1.01.32s-1,.41-.94.71.43.32.43.32v.81s-.34.06-.34.23.21.33.21.33c0,0,.04.49.04,1.18s.52.87,1.08.94c.57.06,1.21.07,1.35.07s.23-.2.23-.38-.17-.37-.25-.36-.23.15-.23.15c0,0-.38.1-.79,0-.41-.1-.8-.12-.75-.62.05-.49.06-1.08.36-1.07.3.01.76-.04,1.13-.06.37-.02.28-.57.09-.58-.2-.01-.65.02-.89.07-.23.05-.5-.1-.5-.26s.09-.79.09-.79l1.23-.38s.17-.05.5-.18c.33-.14.02-.49-.11-.54Z"/>
        <path class="st6" d="M106.39,147.7c-.09-.14-.35-.42-.69-.77-.34-.35-1.04-.97-1.27-1.14-.23-.18-.26-.31-.16-.36.1-.05.45-.33.82-.79.37-.46.18-1.09-.04-1.48-.23-.39-.6-.53-1.17-.51-.57.02-.67.42-.73.97-.06.55-.03,1.91-.06,2.52-.03.62-.1,1.54-.08,1.91s.58.24.63.08.22-2.13.22-2.13c0,0,1.48,1.48,1.92,1.88.44.4.41.29.54.18.12-.11.17-.22.09-.36ZM103.85,143.48c.06-.23.3-.28.42-.21.12.07.54.21.36.76s-.55.86-.75.92c0,0-.09-1.24-.03-1.47Z"/>
        <path class="st6" d="M98,146.23c.16.36.27.72.25,1.07s-.22.7-.28.76c0,0-.18-.07-.26.08s-.09.34.04.41.32.18.7-.06.55-.65.59-1.12,0-.87-.47-1.78-.61-1.04-.64-1.55.45-1.18.6-1.2c0,0,.06.09.19.07s.39-.26.25-.48-.61-.3-1.06-.07-.75,1.2-.74,1.55.29,1.16.48,1.55.37.76.37.76Z"/>
      </g>
      <g>
        <path class="st6" d="M111.05,142.99c-.14-.05-.59,0-.94.07-.34.07-.78.23-1.01.32s-1,.41-.94.71.43.32.43.32v.81s-.34.06-.34.23.21.33.21.33c0,0,.04.49.04,1.18s.52.87,1.08.94c.57.06,1.21.07,1.35.07s.23-.2.23-.38-.17-.37-.25-.36-.23.15-.23.15c0,0-.38.1-.79,0-.41-.1-.8-.12-.75-.62.05-.49.06-1.08.36-1.07.3.01.76-.04,1.13-.06.37-.02.28-.57.09-.58-.2-.01-.65.02-.89.07-.23.05-.5-.1-.5-.26s.09-.79.09-.79l1.23-.38s.17-.05.5-.18c.33-.14.02-.49-.11-.54Z"/>
        <path class="st6" d="M131.61,147.63c-.09-.14-.35-.42-.69-.77-.34-.35-1.04-.97-1.27-1.14-.23-.18-.26-.31-.16-.36.1-.05.45-.33.82-.79.37-.46.18-1.09-.04-1.48-.23-.39-.6-.53-1.17-.51-.57.02-.67.42-.73.97-.06.55-.03,1.91-.06,2.52-.03.62-.1,1.54-.08,1.91s.58.24.63.08.22-2.13.22-2.13c0,0,1.48,1.48,1.92,1.88.44.4.41.29.54.18.12-.11.17-.22.09-.36ZM129.06,143.41c.06-.23.3-.28.42-.21.12.07.54.21.36.76s-.55.86-.75.92c0,0-.09-1.24-.03-1.47Z"/>
        <path class="st6" d="M147.15,147.63c-.09-.14-.35-.42-.69-.77-.34-.35-1.04-.97-1.27-1.14-.23-.18-.26-.31-.16-.36.1-.05.45-.33.82-.79.37-.46.18-1.09-.04-1.48-.23-.39-.6-.53-1.17-.51-.57.02-.67.42-.73.97-.06.55-.03,1.91-.06,2.52-.03.62-.1,1.54-.08,1.91s.58.24.63.08.22-2.13.22-2.13c0,0,1.48,1.48,1.92,1.88.44.4.41.29.54.18.12-.11.17-.22.09-.36ZM144.61,143.41c.06-.23.3-.28.42-.21.12.07.54.21.36.76s-.55.86-.75.92c0,0-.09-1.24-.03-1.47Z"/>
        <path class="st6" d="M124.37,147.44c-.05-.16-.18-.54-.34-1.14-.17-.59-.55-2.16-.61-2.42-.06-.26.02-.51-.1-.75-.12-.24-.25-.45-.42-.45s-.26.19-.35.5c-.09.3-.48,1.6-.63,2.09,0,0-.05.18-.14.41-.09.22-.2.33-.32.33s-.13.26-.02.31c.11.06.15.29.05.5-.1.21-.3.9-.34.98-.05.08-.11.6.13.68s.39,0,.44-.15c.06-.16.18-.7.32-1.24.14-.54.16-.62.42-.71.26-.09.64-.11.76-.1s.18.3.27.67c.09.37.2.85.3.94s.34.16.51,0c.17-.16.13-.3.08-.46ZM122.99,145.78c-.17-.02-.58,0-.58,0,0,0,.3-.98.44-1.36,0,0,.26,1.2.28,1.24s.03.13-.14.11Z"/>
        <path class="st6" d="M143.26,147.44c-.05-.16-.18-.54-.34-1.14-.17-.59-.55-2.16-.61-2.42-.06-.26.02-.51-.1-.75-.12-.24-.25-.45-.42-.45s-.26.19-.35.5c-.09.3-.48,1.6-.63,2.09,0,0-.05.18-.14.41-.09.22-.2.33-.32.33s-.13.26-.02.31c.11.06.15.29.05.5-.1.21-.3.9-.34.98-.05.08-.11.6.13.68s.39,0,.44-.15c.06-.16.18-.7.32-1.24.14-.54.16-.62.42-.71.26-.09.64-.11.76-.1s.18.3.27.67c.09.37.2.85.3.94s.34.16.51,0c.17-.16.13-.3.08-.46ZM141.89,145.78c-.17-.02-.58,0-.58,0,0,0,.3-.98.44-1.36,0,0,.26,1.2.28,1.24s.03.13-.14.11Z"/>
        <path class="st6" d="M121.55,147.63c-.09-.14-.35-.42-.69-.77-.34-.35-1.04-.97-1.27-1.14-.23-.18-.26-.31-.16-.36.1-.05.45-.33.82-.79.37-.46.18-1.09-.04-1.48-.23-.39-.6-.53-1.17-.51-.57.02-.67.42-.73.97-.06.55-.03,1.91-.06,2.52-.03.62-.1,1.54-.08,1.91s.58.24.63.08.22-2.13.22-2.13c0,0,1.48,1.48,1.92,1.88.44.4.41.29.54.18.12-.11.17-.22.09-.36ZM119,143.41c.06-.23.3-.28.42-.21.12.07.54.21.36.76s-.55.86-.75.92c0,0-.09-1.24-.03-1.47Z"/>
        <path class="st6" d="M116.16,143.26s-.85.11-1.14.12-.69-.07-.82-.27,0-.34.28-.38.64-.08,1.06-.1.7-.29.84-.28.44.18.97.1,1.16-.26,1.45-.25.44.41.16.59-2,.37-2,.37c0,0-.15,1.42-.15,2.17s-.01,2.13.01,2.22.01.51-.12.57-.62-.04-.65-.6"/>
        <path class="st6" d="M133.71,144.55c-.42-.83-1.25-1.25-1.78-1.42s-.7.06-.64.21c.06.15.32.39.32.39,0,0-.04,2.76-.05,3.45,0,0-.04.45,0,.66.03.22.39.32.52.24.13-.08.87-.73,1.28-1.37s.78-1.34.36-2.17ZM133.13,145.74c-.17.45-.86,1.22-.86,1.22,0,0-.09-2.68.02-2.95,0,0,.64.32.77.62.13.3.23.66.06,1.11Z"/>
        <path class="st6" d="M113.05,145.66s-.27.38-.52,1.06-.44,1.35-.65,1.53-.61.11-.6-.18.24-.73.58-1.59.82-1.66.84-1.75-.76-1.09-.86-1.19.04-.3.17-.35.41-.05.67.3.36.48.36.48c0,0,.66-1.27.86-1.39s.49-.1.63.06-.26.62-.38.82-.68,1.35-.68,1.35c0,0,.1.22.44.84s.51,1.02.51,1.1-.11.3-.29.28-.5-.17-.66-.62-.25-.56-.44-.75Z"/>
        <path class="st6" d="M127.75,145.28c-.13-.63-.37-1.17-.77-1.21-.4-.04-.48-.14-.73-.31-.25-.18-.52-.03-.72.16-.2.18-.81.89-.78,1.69.04.8.15,1.01.57,1.37.42.36.76.36,1.26.18.51-.18.83-.7,1.01-1.05.18-.35.18-.73.16-.82ZM127.02,145.36c-.04.21,0,.56-.41.95-.42.39-.57.42-.84.2-.27-.21-.33-.48-.32-.73,0-.25.07-.58.14-.68.06-.1.13-.26.18-.22.06.03.19.15.28.17s.32-.26.39-.34c.06-.08.14-.24.4.05.12.13.22.4.18.61Z"/>
        <path class="st6" d="M151.45,145.28c-.13-.63-.37-1.17-.77-1.21-.4-.04-.48-.14-.73-.31-.25-.18-.52-.03-.72.16-.2.18-.81.89-.78,1.69.04.8.15,1.01.57,1.37.42.36.76.36,1.26.18.51-.18.83-.7,1.01-1.05.18-.35.18-.73.16-.82ZM150.71,145.36c-.04.21,0,.56-.41.95-.42.39-.57.42-.84.2-.27-.21-.33-.48-.32-.73,0-.25.07-.58.14-.68.06-.1.13-.26.18-.22.06.03.19.15.28.17s.32-.26.39-.34c.06-.08.14-.24.4.05.12.13.22.4.18.61Z"/>
        <path class="st6" d="M135.52,144.19c-.04.3-.2,1.7-.26,2.58s.11,1.27-.35,1.34-.44-.62-.42-1.15.28-1.74.28-2.48-.06-1.28.37-1.31.43.63.39,1.02Z"/>
        <path class="st6" d="M147.89,144.19c-.04.3-.2,1.7-.26,2.58s.11,1.27-.35,1.34-.44-.62-.42-1.15.28-1.74.28-2.48-.06-1.28.37-1.31.43.63.39,1.02Z"/>
        <path class="st6" d="M137.14,144.33s-.18.94-.16,1.62,0,2.04,0,2.36-.18.43-.38.4-.38-.17-.36-.47,0-1.96.06-2.64.14-2.17.18-2.52.04-.69.33-.67.63.55.91,1.37.87,2.15.87,2.15c0,0,.22-1.87.28-2.25s.11-.79.11-.91.02-.38.34-.36.33.19.33.36-.31,2.19-.32,3.13-.04,1.3,0,1.82-.66.39-.81.02-1.4-3.41-1.4-3.41Z"/>
      </g>
      <g>
        <path class="st6" d="M67.41,143c-.14-.05-.59,0-.94.07-.34.07-.78.23-1.01.32s-1,.41-.94.71.43.32.43.32v.81s-.34.06-.34.23.21.33.21.33c0,0,.04.49.04,1.18s.52.87,1.08.94c.57.06,1.21.07,1.35.07s.23-.2.23-.38-.17-.37-.25-.36-.23.15-.23.15c0,0-.38.1-.79,0-.41-.1-.8-.12-.75-.62.05-.49.06-1.08.36-1.07.3.01.76-.04,1.13-.06.37-.02.28-.57.09-.58-.2-.01-.65.02-.89.07-.23.05-.5-.1-.5-.26s.09-.79.09-.79l1.23-.38s.17-.05.5-.18c.33-.14.02-.49-.11-.54Z"/>
        <path class="st6" d="M68.09,144.19c-.01-.6.01-1.06,0-1.3s.49-.28.6-.07-.1,4.28-.1,4.28c0,0,.8-.52,1.06-.66s.55-.15.74-.01-.06.37-.33.55-1.23.92-1.46,1.03-.65.08-.69-.3.18-3.51.18-3.51Z"/>
      </g>
    </g>
  </g>
</svg>