<?xml version="1.0" encoding="UTF-8"?>
<svg id="Capa_1" data-name="Capa 1" xmlns="http://www.w3.org/2000/svg" viewBox="0 0 1242.92 2563.48">
  <defs>
    <style>
      .cls-1 {
        fill: #1d1d1b;
      }

      .cls-2 {
        fill: #fff;
      }

      .cls-3 {
        fill: #93af8e;
      }

      .cls-4 {
        fill: #e8501e;
      }

      .cls-5 {
        fill: #cbdec8;
      }
    </style>
  </defs>
  <path class="cls-2" d="M3.16,2494.99c0-3.03-1.01-18.44-1.52-23.87s-1.39-20.46-1.64-25.77"/>
  <path class="cls-2" d="M1.64,2471.11c-.51-5.43-1.39-21.46-1.64-26.77"/>
  <path class="cls-2" d="M1.64,2470.11c-.51-5.43-1.39-21.46-1.64-26.77"/>
  <path class="cls-2" d="M1.64,2469.11c-.51-5.43-1.39-21.46-1.64-26.77"/>
  <path class="cls-2" d="M1.64,2470.11c-.51-5.43-1.39-21.46-1.64-26.77"/>
  <path class="cls-2" d="M1.64,2471.11c-.51-5.43-1.39-21.46-1.64-26.77"/>
  <path class="cls-2" d="M1.64,2472.11c-.51-5.43-1.39-21.46-1.64-26.77"/>
  <path class="cls-5" d="M58.77,2560.39c-.44-.73-1.8-2.15-3.54-3.95-1.74-1.8-5.34-4.96-6.51-5.87-1.17-.92-1.33-1.58-.82-1.83.51-.25,2.31-1.67,4.2-4.04,1.89-2.37.95-5.59-.22-7.58-1.17-1.99-3.06-2.72-6-2.62-2.94.09-3.44,2.18-3.76,4.99-.32,2.81-.16,9.79-.32,12.95-.16,3.16-.51,7.93-.41,9.82s3,1.23,3.22.41,1.11-10.96,1.11-10.96c0,0,7.58,7.58,9.85,9.63,2.27,2.05,2.12,1.48,2.75.92.63-.57.88-1.14.44-1.86ZM45.73,2538.73c.28-1.17,1.55-1.42,2.18-1.07.63.35,2.75,1.07,1.83,3.88s-2.84,4.42-3.85,4.74c0,0-.44-6.38-.16-7.55Z"/>
  <g>
    <g>
      <g>
        <g>
          <path class="cls-1" d="M729.62,250.76c-.17.54-.28,1.1-.29,1.67-.23,8.82-2,74.2-3.07,78.86-1.15,4.99.44,10.68-4.81,10.63s-7.44-.62-10.99-.28-6.16-.28-7.53-1.66c-.57-.57-.98-1.54-1.23-2.7-.61-2.8-3.28-4.65-6.13-4.35-.12.01-.24.02-.35.04-3.51.33-17.01,1.75-25.25-.62s-15.39-5.54-21.93-13.64c-6.54-8.1-9.14-17.43-8.91-25.77.24-8.34,1.89-15.77,6.11-22.31s12.03-13.69,23.16-15.96c11.13-2.27,16.96-1.04,22.78,0,4.29.77,9.52,2.22,11.99,2.94,1.19.35,2.42-.58,2.32-1.81,0-.01,0-.03,0-.04-.14-1.47-.19-5.21-.09-7.01s1.71-2.98,3.79-3.03c2.08-.05,4.31-.38,6.77-.43,2.46-.05,5.4.52,7.63.81,2.23.28,4.59-.05,5.73,1.61.73,1.07.54,2.31.31,3.06ZM704.16,292.17c.03-.29.11-.56.19-.84.5-1.62.42-3.93-.63-4.88-1.14-1.04-3.98-3.69-7.11-5.02s-5.02-2.75-11.56-3.88c-6.54-1.14-11.56-.19-15.63,1.42s-8.53,8.91-7.2,15.06,1.52,8.62,7.48,12.88c5.97,4.26,12.6,3.69,19.8,2.65,7.2-1.04,10.71-5.31,10.71-5.31,2.74-2.41,3.73-10.2,3.94-12.09Z"/>
          <path class="cls-1" d="M459.05,250.76c-.17.54-.28,1.1-.29,1.67-.23,8.82-2,74.2-3.07,78.86-1.15,4.99.44,10.68-4.81,10.63s-7.44-.62-10.99-.28-6.16-.28-7.53-1.66c-.57-.57-.98-1.54-1.23-2.7-.61-2.8-3.28-4.65-6.13-4.35-.12.01-.24.02-.35.04-3.51.33-17.01,1.75-25.25-.62s-15.39-5.54-21.93-13.64c-6.54-8.1-9.14-17.43-8.91-25.77s1.89-15.77,6.11-22.31c4.22-6.54,12.03-13.69,23.16-15.96,11.13-2.27,16.96-1.04,22.78,0,4.29.77,9.52,2.22,11.99,2.94,1.19.35,2.42-.58,2.32-1.81,0-.01,0-.03,0-.04-.14-1.47-.19-5.21-.09-7.01s1.71-2.98,3.79-3.03c2.08-.05,4.31-.38,6.77-.43,2.46-.05,5.4.52,7.63.81,2.23.28,4.59-.05,5.73,1.61.73,1.07.54,2.31.31,3.06ZM433.59,292.17c.03-.29.11-.56.19-.84.5-1.62.42-3.93-.63-4.88-1.14-1.04-3.98-3.69-7.11-5.02s-5.02-2.75-11.56-3.88c-6.54-1.14-11.56-.19-15.63,1.42-4.07,1.61-8.53,8.91-7.2,15.06s1.52,8.62,7.48,12.88c5.97,4.26,12.6,3.69,19.8,2.65,7.2-1.04,10.71-5.31,10.71-5.31,2.74-2.41,3.73-10.2,3.94-12.09Z"/>
          <path class="cls-1" d="M537.06,260.15c1.46-3.1,3.16-5.37,4.93-7.39s2.53-5.05-.76-6.63-10.93-5.12-23.94-5.49c-13.01-.38-26.72,4.55-33.28,11.31-6.57,6.76-12.44,13.96-14.53,22.86-2.08,8.91-2.15,16.86.95,26.08,3.09,9.22,9.09,17.68,20.72,23.49s24.88,4.99,30.38,4.11c5.49-.88,13.45-2.08,18.06-4.29s2.78-7.58,2.53-8.84-1.89-6.38-2.34-8.27-3.09-6.63-8.46-5.12c-5.37,1.52-17.43,4.8-26.02,2.27-8.59-2.53-13.83-9.09-13.26-17.81.57-8.72,3.98-14.72,6.95-16.93s8.46-4.74,13.33-5.18,12.82,1.64,14.97,2.21,5.94.38,7.33-1.64,1.72-3.15,2.46-4.74Z"/>
          <path class="cls-1" d="M551.01,306.51c.88,6.18,2.84,17.24,7.07,24.44s12.95,16.55,25.83,16.29,21.35-7.26,28.17-16.86c6.82-9.6,9.6-16.67,11.94-23.43s6.06-19.83,7.58-25.83,3.98-17.43,4.42-20.84-.76-7.33-3.66-7.52-4.61.57-6.57-.19c-1.96-.76-3.85-1.83-8.34-2.08-4.48-.25-4.48,5.43-5.05,8.02s-2.21,13.45-3.47,18.06-7.07,24.57-11.18,33.09c-4.11,8.53-6.88,13.33-12.06,13.33s-7.96-2.46-9.98-11.24-2.53-19.89-2.78-23.81.95-25.01.88-28.36-2.59-7.2-6.13-7.26c-3.54-.06-7.07.19-8.65,0-1.58-.19-3.54-1.14-4.61-1.14s-3.85,1.14-3.85,4.48-.06,27.6-.25,34.61c-.19,7.01.38,14.06.69,16.23Z"/>
          <path class="cls-1" d="M821.17,336.69c-.03,3.69-3.25,5.24-4.89,5.18-1.64-.06-2.97-.6-4.89-.73-1.93-.13-4.77.35-6.88.47s-4.42-.06-6.06-2.02-1.67-3.32-1.67-5.68-1.23-2.08-2.94-1.99c-1.71.09-4.26,1.8-7.01,2.08-2.75.28-8.91.57-14.59,0-5.68-.57-18.19-3.79-27-13.74-8.81-9.95-10.61-20.56-10.71-30.98-.09-10.42,8.43-24.82,19.42-31.64,10.99-6.82,21.98-7.11,28.71-6.06,6.73,1.04,6.35,2.37,11.46,2.37s5.4-3.79,5.21-5.49.19-7.29.57-9.85-.47-5.4,0-10.42,4.74-5.12,6.35-5.4c1.61-.28,10.14.47,12.22.76,2.08.28,4.74.47,4.83,6.44.09,5.97-.47,25.58-.76,36.47-.28,10.89-.85,44.81-1.23,51.25s0,9.76,0,9.76c.16,3.22-.09,5.53-.13,9.22ZM798.42,276.03s-1.37,2.61-4.31,2.98-4.55-.9-7.58-2.04-6.25-2.13-8.95-2.04c-2.7.09-9.66.57-14.31,5.49-4.64,4.93-5.4,7.11-5.49,11.75s3.6,12.13,7.44,14.59c3.84,2.46,8.95,3.88,15.02,3.93,6.06.05,9.19-1.99,11.42-3.08s7.63-5.73,7.29-9.99c-.33-4.26-.85-8.67-.76-11.98s.24-9.62.24-9.62Z"/>
          <path class="cls-1" d="M836.61,295.37c-.51-5.43-1.39-21.46-1.64-26.77,0,0-.63-8.2-.88-14.39s-1.14-11.36-1.14-11.36c0,0-.13-3.68,1.83-4.56s2.72.25,4.61,0,3.79-1.26,6.44-1.52,5.43-.63,7.45.63,2.78,3.28,3.54,4.67,3.03,1.92,4.55.77,2.27-2.54,6.44-5.07,7.71-3.16,8.97-2.02,3.79,4.07,4.29,7.09,1.01,5.04,1.26,6.81.76,2.4,1.01,4.04-.13,3.79-1.89,4.55-6.19,3.41-12.38,9.85c-6.19,6.44-8.08,18.72-8.34,24.26s.13,17.8.76,23.11,1.64,11.24,1.01,14.53-2.78,5.81-5.68,5.81-5.18-.76-6.19-.63-4.04,1.64-6.57,1.39-4.93-3.79-4.8-7.07-.83-9.85-1.3-16.42c-.47-6.57-1.35-17.71-1.35-17.71Z"/>
          <path class="cls-1" d="M976.57,270.63c-.63-4.42-2.27-11.24-3.03-13.26-.76-2.02-3.03-3.79-4.17-3.79s-4.67.88-8.72,3.03-5.94,3.41-6.82,3.41-2.4-.38-2.4-.38c0,0,2.4-4.55,4.55-7.71,2.15-3.16,4.42-4.29,3.92-7.96-.51-3.66-4.55-5.18-8.46-5.94-3.92-.76-7.83-2.27-13.26-2.27s-14.27,1.77-21.98,6.95-12.76,11.75-16.67,16.93-8.84,17.81-10.23,26.78c-1.39,8.97-1.14,17.94,4.04,29.81,5.18,11.87,16.55,19.71,25.26,21.73,8.72,2.02,23.62,1.64,36.51-8.84,12.88-10.48,18.95-24.25,21.09-34.23,2.15-9.98,1.01-19.83.38-24.25ZM952.79,290.81c-1.33,4.74-1.99,6.35-3.22,9.38-1.16,2.85-6.16,9.47-13.74,12.79-7.58,3.32-12.32,3.88-18.38-2.46s-6.06-13.07-5.87-15.06c.19-1.99.95-11.46,3.88-17.62,2.94-6.16,7.58-11.65,11.46-14.02s9.19-4.64,15.63-3.79c6.44.85,9.47,7.39,10.23,12.98.76,5.59,1.33,13.07,0,17.81Z"/>
          <path class="cls-1" d="M1012.19,366.13c.47,2.37,2.27,8.24,2.56,9.66s.57,3.13,1.33,4.26,2.37,3.41,6.25,1.8,7.48-3.98,13.17-9.38,9.57-12.6,10.61-16.39,3.41-11.94,2.65-20.08-5.02-19.42-11.08-24.25-8.72-6.82-13.93-9.28-11.75-6.82-13.36-14.02c-1.45-6.47.47-11.18,3.41-17.62s6.63-10.23,10.23-14.21c0,0,3.32-3.69,7.2-6.25s7.11-3.69,4.36-8.72-4.26-6.16-5.68-10.8-3.98-7.2-8.43-4.83-14.21,11.56-19.14,16.96-14.31,20.75-16.67,33.54,1.99,31.55,14.59,40.17,17.43,10.04,21.79,17.43,1.52,12.69-.19,15.06-8.01,4.8-9.19,9.85c-.97,4.18-.47,7.11-.47,7.11Z"/>
        </g>
        <g>
          <path class="cls-1" d="M1140.03,259.6c1.46-3.1,3.16-5.37,4.93-7.39s2.53-5.05-.76-6.63-10.93-5.12-23.94-5.49c-13.01-.38-26.72,4.55-33.28,11.31-6.57,6.76-12.44,13.96-14.53,22.86-2.08,8.91-2.15,16.86.95,26.08,3.09,9.22,9.09,17.68,20.72,23.49s24.88,4.99,30.38,4.11c5.49-.88,13.45-2.08,18.06-4.29s2.78-7.58,2.53-8.84-1.89-6.38-2.34-8.27-3.09-6.63-8.46-5.12c-5.37,1.52-17.43,4.8-26.02,2.27-8.59-2.53-13.83-9.09-13.26-17.81.57-8.72,3.98-14.72,6.95-16.93s8.46-4.74,13.33-5.18,12.82,1.64,14.97,2.21,5.94.38,7.33-1.64,1.72-3.15,2.46-4.74Z"/>
          <path class="cls-1" d="M1070.93,328.71c.09-1.45,0-7.58,0-8.91s-1.04-4.83-3.88-5.12-3.41-.28-5.78-.57-7.58,2.08-7.58,5.02.28,7.01,0,8.62-.09,5.21,1.61,6.63,4.55,1.61,5.78,1.71,6.92.19,8.24-1.8,1.49-3.69,1.61-5.59Z"/>
          <path class="cls-1" d="M1242.21,271.86c-.28-3.41-1.75-9.14-2.32-12.08-.57-2.94-3.27-5.68-4.97-5.64s-3.79.43-5.4.99c-1.61.57-.95.38-5.26,2.37-4.31,1.99-6.21,2.27-6.21,2.27-.43-1.18.76-2.75,2.08-5.45s1.56-1.89,3.17-4.41c1.61-2.51,2.27-4.12,2.18-5.83-.09-1.71-2.65-3.69-2.65-3.69,0,0-4.5-3.27-14.31-4.41-9.81-1.14-20.18,1.94-27.09,6.96-6.92,5.02-14.97,13.12-18.62,19.89-3.65,6.77-8.05,18.19-8.57,25.01s.28,17.1,1.89,21.74c1.61,4.64,4.55,12.84,10.94,19.09s18.33,10.52,27.14,10.52,16.72-3.74,20.61-6.11c3.88-2.37,10.71-7.96,13.55-11.37,2.84-3.41,10.52-11.61,13.07-26.19,2.56-14.59,1.04-20.27.76-23.68ZM1219.41,281.62c-.11,3.6,0,8.59-2.4,13.83-2.4,5.24-4.74,10.55-11.31,15.35s-10.04,4.86-14.53,4.23c-4.48-.63-10.67-5.56-12.51-11.12-1.83-5.56-2.08-13.07,0-20.02s7.14-14.72,13.07-19.07,14.21-5.68,20.78-2.84,6.95,17.44,6.88,19.64Z"/>
        </g>
      </g>
      <g>
        <g>
          <path class="cls-2" d="M728.12,248.75c-.17.54-.28,1.1-.29,1.67-.23,8.82-2,74.2-3.07,78.86-1.15,4.99.44,10.68-4.81,10.63s-7.44-.62-10.99-.28-6.16-.28-7.53-1.66c-.57-.57-.98-1.54-1.23-2.7-.61-2.8-3.28-4.65-6.13-4.35-.12.01-.24.02-.35.04-3.51.33-17.01,1.75-25.25-.62s-15.39-5.54-21.93-13.64c-6.54-8.1-9.14-17.43-8.91-25.77.24-8.34,1.89-15.77,6.11-22.31s12.03-13.69,23.16-15.96c11.13-2.27,16.96-1.04,22.78,0,4.29.77,9.52,2.22,11.99,2.94,1.19.35,2.42-.58,2.32-1.81,0-.01,0-.03,0-.04-.14-1.47-.19-5.21-.09-7.01s1.71-2.98,3.79-3.03c2.08-.05,4.31-.38,6.77-.43,2.46-.05,5.4.52,7.63.81,2.23.28,4.59-.05,5.73,1.61.73,1.07.54,2.31.31,3.06ZM702.66,290.16c.03-.29.11-.56.19-.84.5-1.62.42-3.93-.63-4.88-1.14-1.04-3.98-3.69-7.11-5.02s-5.02-2.75-11.56-3.88c-6.54-1.14-11.56-.19-15.63,1.42s-8.53,8.91-7.2,15.06,1.52,8.62,7.48,12.88c5.97,4.26,12.6,3.69,19.8,2.65,7.2-1.04,10.71-5.31,10.71-5.31,2.74-2.41,3.73-10.2,3.94-12.09Z"/>
          <path class="cls-3" d="M457.55,248.75c-.17.54-.28,1.1-.29,1.67-.23,8.82-2,74.2-3.07,78.86-1.15,4.99.44,10.68-4.81,10.63s-7.44-.62-10.99-.28-6.16-.28-7.53-1.66c-.57-.57-.98-1.54-1.23-2.7-.61-2.8-3.28-4.65-6.13-4.35-.12.01-.24.02-.35.04-3.51.33-17.01,1.75-25.25-.62s-15.39-5.54-21.93-13.64c-6.54-8.1-9.14-17.43-8.91-25.77s1.89-15.77,6.11-22.31c4.22-6.54,12.03-13.69,23.16-15.96,11.13-2.27,16.96-1.04,22.78,0,4.29.77,9.52,2.22,11.99,2.94,1.19.35,2.42-.58,2.32-1.81,0-.01,0-.03,0-.04-.14-1.47-.19-5.21-.09-7.01s1.71-2.98,3.79-3.03c2.08-.05,4.31-.38,6.77-.43,2.46-.05,5.4.52,7.63.81,2.23.28,4.59-.05,5.73,1.61.73,1.07.54,2.31.31,3.06ZM432.09,290.16c.03-.29.11-.56.19-.84.5-1.62.42-3.93-.63-4.88-1.14-1.04-3.98-3.69-7.11-5.02s-5.02-2.75-11.56-3.88c-6.54-1.14-11.56-.19-15.63,1.42-4.07,1.61-8.53,8.91-7.2,15.06s1.52,8.62,7.48,12.88c5.97,4.26,12.6,3.69,19.8,2.65,7.2-1.04,10.71-5.31,10.71-5.31,2.74-2.41,3.73-10.2,3.94-12.09Z"/>
          <path class="cls-2" d="M535.55,258.14c1.46-3.1,3.16-5.37,4.93-7.39s2.53-5.05-.76-6.63-10.93-5.12-23.94-5.49c-13.01-.38-26.72,4.55-33.28,11.31-6.57,6.76-12.44,13.96-14.53,22.86-2.08,8.91-2.15,16.86.95,26.08,3.09,9.22,9.09,17.68,20.72,23.49s24.88,4.99,30.38,4.11c5.49-.88,13.45-2.08,18.06-4.29s2.78-7.58,2.53-8.84-1.89-6.38-2.34-8.27-3.09-6.63-8.46-5.12c-5.37,1.52-17.43,4.8-26.02,2.27-8.59-2.53-13.83-9.09-13.26-17.81.57-8.72,3.98-14.72,6.95-16.93s8.46-4.74,13.33-5.18,12.82,1.64,14.97,2.21,5.94.38,7.33-1.64,1.72-3.15,2.46-4.74Z"/>
          <path class="cls-2" d="M549.51,304.49c.88,6.18,2.84,17.24,7.07,24.44s12.95,16.55,25.83,16.29,21.35-7.26,28.17-16.86c6.82-9.6,9.6-16.67,11.94-23.43s6.06-19.83,7.58-25.83,3.98-17.43,4.42-20.84-.76-7.33-3.66-7.52-4.61.57-6.57-.19c-1.96-.76-3.85-1.83-8.34-2.08-4.48-.25-4.48,5.43-5.05,8.02s-2.21,13.45-3.47,18.06-7.07,24.57-11.18,33.09c-4.11,8.53-6.88,13.33-12.06,13.33s-7.96-2.46-9.98-11.24-2.53-19.89-2.78-23.81.95-25.01.88-28.36-2.59-7.2-6.13-7.26c-3.54-.06-7.07.19-8.65,0-1.58-.19-3.54-1.14-4.61-1.14s-3.85,1.14-3.85,4.48-.06,27.6-.25,34.61c-.19,7.01.38,14.06.69,16.23Z"/>
          <path class="cls-2" d="M819.67,334.68c-.03,3.69-3.25,5.24-4.89,5.18-1.64-.06-2.97-.6-4.89-.73-1.93-.13-4.77.35-6.88.47s-4.42-.06-6.06-2.02-1.67-3.32-1.67-5.68-1.23-2.08-2.94-1.99c-1.71.09-4.26,1.8-7.01,2.08-2.75.28-8.91.57-14.59,0-5.68-.57-18.19-3.79-27-13.74-8.81-9.95-10.61-20.56-10.71-30.98-.09-10.42,8.43-24.82,19.42-31.64,10.99-6.82,21.98-7.11,28.71-6.06,6.73,1.04,6.35,2.37,11.46,2.37s5.4-3.79,5.21-5.49.19-7.29.57-9.85-.47-5.4,0-10.42,4.74-5.12,6.35-5.4c1.61-.28,10.14.47,12.22.76,2.08.28,4.74.47,4.83,6.44.09,5.97-.47,25.58-.76,36.47-.28,10.89-.85,44.81-1.23,51.25s0,9.76,0,9.76c.16,3.22-.09,5.53-.13,9.22ZM796.91,274.02s-1.37,2.61-4.31,2.98-4.55-.9-7.58-2.04-6.25-2.13-8.95-2.04c-2.7.09-9.66.57-14.31,5.49-4.64,4.93-5.4,7.11-5.49,11.75s3.6,12.13,7.44,14.59c3.84,2.46,8.95,3.88,15.02,3.93,6.06.05,9.19-1.99,11.42-3.08s7.63-5.73,7.29-9.99c-.33-4.26-.85-8.67-.76-11.98s.24-9.62.24-9.62Z"/>
          <path class="cls-2" d="M835.11,293.36c-.51-5.43-1.39-21.46-1.64-26.77,0,0-.63-8.2-.88-14.39s-1.14-11.36-1.14-11.36c0,0-.13-3.68,1.83-4.56s2.72.25,4.61,0,3.79-1.26,6.44-1.52,5.43-.63,7.45.63,2.78,3.28,3.54,4.67,3.03,1.92,4.55.77,2.27-2.54,6.44-5.07,7.71-3.16,8.97-2.02,3.79,4.07,4.29,7.09,1.01,5.04,1.26,6.81.76,2.4,1.01,4.04-.13,3.79-1.89,4.55-6.19,3.41-12.38,9.85c-6.19,6.44-8.08,18.72-8.34,24.26s.13,17.8.76,23.11,1.64,11.24,1.01,14.53-2.78,5.81-5.68,5.81-5.18-.76-6.19-.63-4.04,1.64-6.57,1.39-4.93-3.79-4.8-7.07-.83-9.85-1.3-16.42c-.47-6.57-1.35-17.71-1.35-17.71Z"/>
          <path class="cls-2" d="M975.07,268.62c-.63-4.42-2.27-11.24-3.03-13.26-.76-2.02-3.03-3.79-4.17-3.79s-4.67.88-8.72,3.03-5.94,3.41-6.82,3.41-2.4-.38-2.4-.38c0,0,2.4-4.55,4.55-7.71,2.15-3.16,4.42-4.29,3.92-7.96-.51-3.66-4.55-5.18-8.46-5.94-3.92-.76-7.83-2.27-13.26-2.27s-14.27,1.77-21.98,6.95-12.76,11.75-16.67,16.93-8.84,17.81-10.23,26.78c-1.39,8.97-1.14,17.94,4.04,29.81,5.18,11.87,16.55,19.71,25.26,21.73,8.72,2.02,23.62,1.64,36.51-8.84,12.88-10.48,18.95-24.25,21.09-34.23,2.15-9.98,1.01-19.83.38-24.25ZM951.29,288.8c-1.33,4.74-1.99,6.35-3.22,9.38-1.16,2.85-6.16,9.47-13.74,12.79-7.58,3.32-12.32,3.88-18.38-2.46s-6.06-13.07-5.87-15.06c.19-1.99.95-11.46,3.88-17.62,2.94-6.16,7.58-11.65,11.46-14.02s9.19-4.64,15.63-3.79c6.44.85,9.47,7.39,10.23,12.98.76,5.59,1.33,13.07,0,17.81Z"/>
          <path class="cls-2" d="M1010.69,364.12c.47,2.37,2.27,8.24,2.56,9.66s.57,3.13,1.33,4.26,2.37,3.41,6.25,1.8,7.48-3.98,13.17-9.38,9.57-12.6,10.61-16.39,3.41-11.94,2.65-20.08-5.02-19.42-11.08-24.25-8.72-6.82-13.93-9.28-11.75-6.82-13.36-14.02c-1.45-6.47.47-11.18,3.41-17.62s6.63-10.23,10.23-14.21c0,0,3.32-3.69,7.2-6.25s7.11-3.69,4.36-8.72-4.26-6.16-5.68-10.8-3.98-7.2-8.43-4.83-14.21,11.56-19.14,16.96-14.31,20.75-16.67,33.54,1.99,31.55,14.59,40.17,17.43,10.04,21.79,17.43,1.52,12.69-.19,15.06-8.01,4.8-9.19,9.85c-.97,4.18-.47,7.11-.47,7.11Z"/>
        </g>
        <g>
          <path class="cls-3" d="M1138.53,257.59c1.46-3.1,3.16-5.37,4.93-7.39s2.53-5.05-.76-6.63-10.93-5.12-23.94-5.49c-13.01-.38-26.72,4.55-33.28,11.31-6.57,6.76-12.44,13.96-14.53,22.86-2.08,8.91-2.15,16.86.95,26.08,3.09,9.22,9.09,17.68,20.72,23.49s24.88,4.99,30.38,4.11c5.49-.88,13.45-2.08,18.06-4.29s2.78-7.58,2.53-8.84-1.89-6.38-2.34-8.27-3.09-6.63-8.46-5.12c-5.37,1.52-17.43,4.8-26.02,2.27-8.59-2.53-13.83-9.09-13.26-17.81.57-8.72,3.98-14.72,6.95-16.93s8.46-4.74,13.33-5.18,12.82,1.64,14.97,2.21,5.94.38,7.33-1.64,1.72-3.15,2.46-4.74Z"/>
          <path class="cls-3" d="M1069.43,326.69c.09-1.45,0-7.58,0-8.91s-1.04-4.83-3.88-5.12-3.41-.28-5.78-.57-7.58,2.08-7.58,5.02.28,7.01,0,8.62-.09,5.21,1.61,6.63,4.55,1.61,5.78,1.71,6.92.19,8.24-1.8,1.49-3.69,1.61-5.59Z"/>
          <path class="cls-3" d="M1240.71,269.85c-.28-3.41-1.75-9.14-2.32-12.08-.57-2.94-3.27-5.68-4.97-5.64s-3.79.43-5.4.99c-1.61.57-.95.38-5.26,2.37-4.31,1.99-6.21,2.27-6.21,2.27-.43-1.18.76-2.75,2.08-5.45s1.56-1.89,3.17-4.41c1.61-2.51,2.27-4.12,2.18-5.83-.09-1.71-2.65-3.69-2.65-3.69,0,0-4.5-3.27-14.31-4.41-9.81-1.14-20.18,1.94-27.09,6.96-6.92,5.02-14.97,13.12-18.62,19.89-3.65,6.77-8.05,18.19-8.57,25.01s.28,17.1,1.89,21.74c1.61,4.64,4.55,12.84,10.94,19.09s18.33,10.52,27.14,10.52,16.72-3.74,20.61-6.11c3.88-2.37,10.71-7.96,13.55-11.37,2.84-3.41,10.52-11.61,13.07-26.19,2.56-14.59,1.04-20.27.76-23.68ZM1217.91,279.61c-.11,3.6,0,8.59-2.4,13.83-2.4,5.24-4.74,10.55-11.31,15.35s-10.04,4.86-14.53,4.23c-4.48-.63-10.67-5.56-12.51-11.12-1.83-5.56-2.08-13.07,0-20.02s7.14-14.72,13.07-19.07,14.21-5.68,20.78-2.84,6.95,17.44,6.88,19.64Z"/>
        </g>
      </g>
    </g>
    <g>
      <path class="cls-4" d="M885.81,56.03c-.26,2-.58,9.04-1.1,14.35-.53,5.31-2.1,26.59-2.73,33.84-.63,7.25-2.42,44.3-2.73,49.45-.32,5.15-2.36,32.16-2.63,36.31-.26,4.15.81,10.83-10.46,12.46-7.43,1.07-16.08,1.89-21.86,2.52l-16.5,1.52c-4.1.26-14.66,1.42-18.39,1.63s-25.54,2.31-30.06,2.57c-4.52.26-23.28,2.26-27.7,2.68-4.41.42-8.62,1.1-12.77,1.58s-6.88-1.42-7.3-5.47c-.42-4.05-1.31-18.45-1.94-23.02-.63-4.57-2.58-27.01-3.31-32.21-.74-5.2-1.89-19.76-2.73-26.17s-3.31-38.05-3.63-42.51c-.32-4.47-2.1-36.16-2.42-40.73-.32-4.57-.21-5.83-.37-8.67-.16-2.84,3.73-7.15,7.2-6.52s15.66,2.36,21.65,3.26c5.99.89,38.31,5.68,46.88,6.78,8.57,1.1,31.27,4.36,40.73,5.47,9.46,1.1,35.16,4.36,38.21,4.89,3.05.53,7.36,1,9.88,1.31,2.52.32,4.36,2.68,4.1,4.68Z"/>
      <g>
        <path class="cls-3" d="M880.8,41.73c-12.13-1.23-49.36-5.97-49.36-5.97,0,0-5.02-15.06-7.29-20.75-2.27-5.68-1.61-7.48-4.74-12.69-3.13-5.21-7.86,0-7.86,0-3.22,4.74-8.05,11.56-8.05,11.56l-12.32,17.43s-19.04-2.18-31.93-3.69c-12.88-1.52-28.8-2.56-35.15-3.13s-10.89,6.73-11.08,10.89c-.19,4.17.28,5.02.47,7.77.19,2.75,1.71,14.4,2.27,22.83s2.94,39.69,3.51,49.36,1.61,34.01,1.89,42.82c.28,8.81,1.23,27.66,1.42,32.68.19,5.02,1.14,18.47,1.14,18.47,0,0,.28,7.77,5.31,11.4s11.75,2.05,11.75,2.05c8.81-1.23,29.37-4.36,29.37-4.36,10.61-1.71,36.19-5.97,36.19-5.97,6.63-1.14,21.69-3.6,28.33-4.64,0,0,16.86-2.84,29.18-4.26,12.32-1.42,13.26-5.68,13.93-12.03s15.92-122.78,16.96-131.59c1.04-8.81-1.8-16.96-13.93-18.19ZM885.78,56.02c-.26,2-.58,9.04-1.1,14.35-.53,5.31-2.1,26.59-2.73,33.84-.63,7.25-2.42,44.3-2.73,49.45-.32,5.15-2.36,32.16-2.63,36.31-.26,4.15.81,10.83-10.46,12.46-7.43,1.07-16.08,1.89-21.86,2.52l-16.5,1.52c-4.1.26-14.66,1.42-18.39,1.63s-25.54,2.31-30.06,2.57c-4.52.26-23.28,2.26-27.7,2.68-4.41.42-8.62,1.1-12.77,1.58s-6.88-1.42-7.3-5.47c-.42-4.05-1.31-18.45-1.94-23.02-.63-4.57-2.58-27.01-3.31-32.21-.74-5.2-1.89-19.76-2.73-26.17s-3.31-38.05-3.63-42.51c-.32-4.47-2.1-36.16-2.42-40.73-.32-4.57-.21-5.83-.37-8.67-.16-2.84,3.73-7.15,7.2-6.52s15.66,2.36,21.65,3.26c5.99.89,38.31,5.68,46.88,6.78,8.57,1.1,31.27,4.36,40.73,5.47,9.46,1.1,35.16,4.36,38.21,4.89,3.05.53,7.36,1,9.88,1.31,2.52.32,4.36,2.68,4.1,4.68Z"/>
        <path class="cls-2" d="M870.1,55.65c-10.29-1.57-44.72-6.16-60.06-8.15s-42.16-5.4-42.16-5.4c-8.43-.95-30.41-4.07-30.41-4.07-7.96-.85-12.87,5.74-12.69,10.52.38,10.61,3.32,43.2,3.88,51.06s3.32,40.83,4.17,50.21c.85,9.38,1.52,17.91,1.99,23.59.47,5.68.85,15.44,1.99,22.74s5.01,11.39,12.69,10.71c7.39-.66,26.62-1.89,41.49-2.94,14.87-1.04,60.44-4.74,69.73-5.49,9.28-.76,11.56-5.59,11.94-10.14s1.23-17.05,1.61-22.83c.38-5.78,3.98-68.78,4.36-75.41.38-6.63,1.14-24.44,1.14-24.44,0-1.61-.95-8.62-9.66-9.95ZM789.48,201.93c-7.77.66-34.96,3.41-41.21,3.88-1.49.11-2.82-.26-3.99-.93.28-2.32,2.09-17.12,2.66-21.57.62-4.83,5.87-43.63,6.49-47.94s6.63-32.97,8.72-40.97c2.08-8.01,6.54-18.9,6.54-18.9,0,0,4.88,8.57,6.35,11.46,1.47,2.89,4.64,9.33,5.49,10.71.85,1.37,1.99,1.28,3.6,1.04,1.61-.24,21.03-3.55,21.03-3.55,0,0,5.64-.38,7.63-1.89,1.99-1.52,2.37-3.51,2.37-3.51l7.72-14.49s7.34,30.65,7.91,32.78,1.61,1.99,2.61,1.89c.99-.09,12.03-1.47,12.03-1.47,0,0-.05,2.65,0,3.6.05.95-.19,4.59,2.42,7.39s4.93,3.32,5.87,3.55c.95.24,6.82.14,6.82.14,0,0-2.84,25.72-3.03,27.43-.19,1.71-.62,2.32-2.42,2.84s-8.95,2.51-15.44,4.26c-6.49,1.75-15.77,3.27-15.77,3.27,0,0,1.37,20.32,1.37,25.29,0,4.1.1,10.19.13,12.2-15.8,1.55-31.97,3.14-35.89,3.48ZM852.62,109.04c0-1.52,1.28-2.13,2.79-2.18,1.52-.05,6.21-.47,6.21-.47,0,0-.43,7.53-.43,8.15s-.09,1.37-1.18,1.28-3.98,0-5.59-.33-1.94-1.56-2.04-2.7.24-2.23.24-3.74ZM877.77,67.4c-.47,3.88-1.42,31.74-2.37,47.46s-6.06,65.65-5.97,72.19c.09,6.54-4.74,7.67-10.52,8.15-2.42.2-13.59,1.29-26.34,2.54-.11-1.5-.37-5.26-.33-6.62.05-1.71-1.09-20.32-1.04-22.26.05-1.94.52-2.23,2.46-2.7,1.94-.47,4.83-1.37,7.82-2.04,2.98-.66,11.89-3.17,15.44-4.22,3.55-1.04,6.77-2.51,7.2-6.96s2.51-22.97,2.7-26.01c.19-3.03,1.71-16.44,1.75-20.18s-.81-5.83-4.17-6.82c-3.36-.99-10.04.14-14.64.71-4.59.57-12.93,1.75-12.93,1.75,0,0-2.94-11.46-4.07-16.39s-2.65-10.33-3.98-14.78c-1.33-4.45-2.37-6.82-5.07-6.92-2.7-.09-4.74,3.69-5.97,5.73-1.23,2.04-6.82,12.79-7.91,14.59-1.09,1.8-1.71,3.36-4.93,3.69-3.22.33-16.63,2.89-18.09,2.89s-2.13-.9-2.56-2.04c-1.55-4.13-8.15-14.78-11.18-19.23-3.03-4.45-6.92-2.84-9.47,1.04-2.56,3.88-6.92,15.63-8.24,21.41-1.33,5.78-5.49,22.26-7.11,31.17s-5.49,37.23-6.63,45.28-2.65,21.69-2.65,21.69l-.28,3.7c0-.1,0-.2,0-.29,0,0-1.33-19.61-1.99-31.36-.66-11.75-3.88-59.59-4.55-71.43-.66-11.84-2.84-37.42-2.65-41.87.19-4.45,4.17-7.2,7.67-6.82,3.51.38,33.63,4.17,41.02,5.12s47.65,5.21,60.16,6.82,23.21,2.84,30.41,3.6c7.2.76,9.47,5.49,9,9.38Z"/>
        <g>
          <ellipse class="cls-5" cx="814.99" cy="117.18" rx="3.38" ry="5.12"/>
          <path class="cls-5" d="M793.24,124.14c1.99,0,3.6-2.25,3.6-5.03s-1.61-5.03-3.6-5.03-3.6,2.25-3.6,5.03,1.61,5.03,3.6,5.03Z"/>
          <polygon class="cls-5" points="824.36 167.64 806.06 168.52 806.06 186.26 825.24 186.25 824.36 167.64"/>
          <polygon class="cls-5" points="787.8 187.53 789.48 201.93 809.15 200.04 806.06 186.26 787.8 187.53"/>
          <polygon class="cls-5" points="767.97 165.29 763.36 189.23 787.8 187.53 786.1 165.67 767.97 165.29"/>
          <path class="cls-5" d="M744.28,204.88c1.17.68,2.5,1.05,3.99.93,2.39-.18,7.83-.69,14.08-1.29l1.02-15.28-16.46-5.65c-.6,4.74-2.35,19.01-2.63,21.29Z"/>
          <polygon class="cls-5" points="752.53 141.9 749.62 163.32 767.97 165.29 769.3 147.45 752.53 141.9"/>
        </g>
      </g>
    </g>
    <g>
      <g>
        <g>
          <path class="cls-1" d="M657.51,356.95c-.69-.25-3.03,0-4.8.38-1.77.38-3.98,1.2-5.18,1.64s-5.12,2.08-4.8,3.66,2.21,1.64,2.21,1.64l-.06,4.17s-1.71.32-1.71,1.2,1.07,1.71,1.07,1.71c0,0,.19,2.53.19,6.06s2.65,4.48,5.56,4.8c2.91.32,6.19.38,6.95.38s1.2-1.01,1.2-1.96-.88-1.89-1.26-1.83-1.2.76-1.2.76c0,0-1.96.51-4.04,0-2.08-.51-4.11-.63-3.85-3.16.25-2.53.32-5.56,1.83-5.49,1.52.06,3.92-.19,5.81-.32,1.89-.13,1.45-2.91.44-2.97-1.01-.06-3.35.13-4.55.38-1.2.25-2.59-.51-2.59-1.33s.44-4.04.44-4.04l6.32-1.96s.88-.25,2.59-.95c1.71-.69.13-2.53-.57-2.78Z"/>
          <path class="cls-1" d="M607.98,379.49c-.24-.81-.9-2.79-1.75-5.83-.85-3.03-2.84-11.08-3.13-12.41-.28-1.33.09-2.61-.52-3.84-.62-1.23-1.28-2.32-2.18-2.32s-1.33.99-1.8,2.56c-.47,1.56-2.46,8.19-3.22,10.71,0,0-.24.95-.71,2.08-.47,1.14-1.04,1.71-1.66,1.71s-.66,1.33-.09,1.61c.57.28.76,1.47.24,2.56-.52,1.09-1.52,4.59-1.75,5.02-.24.43-.57,3.08.66,3.51s1.99.05,2.27-.76c.28-.81.95-3.6,1.66-6.35.71-2.75.81-3.17,2.13-3.65,1.33-.47,3.27-.57,3.88-.52s.9,1.56,1.37,3.46c.47,1.89,1.04,4.36,1.56,4.83s1.75.81,2.61,0c.85-.81.66-1.56.43-2.37ZM600.94,370.96c-.89-.12-3,.02-3,.02,0,0,1.54-5.02,2.27-6.96,0,0,1.35,6.18,1.44,6.37s.17.69-.72.57Z"/>
          <path class="cls-1" d="M627.75,381.13c-.44-.73-1.8-2.15-3.54-3.95-1.74-1.8-5.34-4.96-6.51-5.87-1.17-.92-1.33-1.58-.82-1.83.51-.25,2.31-1.67,4.2-4.04,1.89-2.37.95-5.59-.22-7.58-1.17-1.99-3.06-2.72-6-2.62-2.94.09-3.44,2.18-3.76,4.99-.32,2.81-.16,9.79-.32,12.95-.16,3.16-.51,7.93-.41,9.82s3,1.23,3.22.41,1.11-10.96,1.11-10.96c0,0,7.58,7.58,9.85,9.63,2.27,2.05,2.12,1.48,2.75.92.63-.57.88-1.14.44-1.86ZM614.71,359.47c.28-1.17,1.55-1.42,2.18-1.07.63.35,2.75,1.07,1.83,3.88s-2.84,4.42-3.85,4.74c0,0-.44-6.38-.16-7.55Z"/>
          <path class="cls-1" d="M633.06,358.2s-4.36.57-5.87.63-3.54-.38-4.2-1.39,0-1.77,1.42-1.93,3.28-.41,5.43-.51,3.6-1.48,4.29-1.45,2.24.95,4.99.51,5.97-1.36,7.42-1.26,2.27,2.11.82,3.02-10.26,1.91-10.26,1.91c0,0-.76,7.26-.79,11.15s-.06,10.93.06,11.4.06,2.62-.63,2.91-3.19-.19-3.32-3.09"/>
        </g>
        <g>
          <path class="cls-1" d="M701.71,356.95c-.69-.25-3.03,0-4.8.38-1.77.38-3.98,1.2-5.18,1.64s-5.12,2.08-4.8,3.66,2.21,1.64,2.21,1.64l-.06,4.17s-1.71.32-1.71,1.2,1.07,1.71,1.07,1.71c0,0,.19,2.53.19,6.06s2.65,4.48,5.56,4.8c2.91.32,6.19.38,6.95.38s1.2-1.01,1.2-1.96-.88-1.89-1.26-1.83-1.2.76-1.2.76c0,0-1.96.51-4.04,0-2.08-.51-4.11-.63-3.85-3.16.25-2.53.32-5.56,1.83-5.49,1.52.06,3.92-.19,5.81-.32,1.89-.13,1.45-2.91.44-2.97-1.01-.06-3.35.13-4.55.38-1.2.25-2.59-.51-2.59-1.33s.44-4.04.44-4.04l6.32-1.96s.88-.25,2.59-.95c1.71-.69.13-2.53-.57-2.78Z"/>
          <path class="cls-1" d="M683.9,364.93c-2.18-4.26-6.41-6.41-9.16-7.26s-3.6.32-3.28,1.07c.32.76,1.64,1.99,1.64,1.99,0,0-.19,14.15-.25,17.72,0,0-.19,2.31-.03,3.41.16,1.11,2.02,1.64,2.68,1.23.66-.41,4.45-3.73,6.57-7.01s4.01-6.88,1.83-11.15ZM680.93,371.06c-.85,2.31-4.39,6.28-4.39,6.28,0,0-.44-13.77.13-15.16,0,0,3.28,1.64,3.95,3.19.66,1.55,1.17,3.38.32,5.68Z"/>
        </g>
        <g>
          <path class="cls-1" d="M742.73,356.95c-.69-.25-3.03,0-4.8.38-1.77.38-3.98,1.2-5.18,1.64s-5.12,2.08-4.8,3.66,2.21,1.64,2.21,1.64l-.06,4.17s-1.71.32-1.71,1.2,1.07,1.71,1.07,1.71c0,0,.19,2.53.19,6.06s2.65,4.48,5.56,4.8c2.91.32,6.19.38,6.95.38s1.2-1.01,1.2-1.96-.88-1.89-1.26-1.83-1.2.76-1.2.76c0,0-1.96.51-4.04,0-2.08-.51-4.11-.63-3.85-3.16.25-2.53.32-5.56,1.83-5.49,1.52.06,3.92-.19,5.81-.32,1.89-.13,1.45-2.91.44-2.97-1.01-.06-3.35.13-4.55.38-1.2.25-2.59-.51-2.59-1.33s.44-4.04.44-4.04l6.32-1.96s.88-.25,2.59-.95c1.71-.69.13-2.53-.57-2.78Z"/>
          <path class="cls-1" d="M763.41,381.13c-.44-.73-1.8-2.15-3.54-3.95-1.74-1.8-5.34-4.96-6.51-5.87-1.17-.92-1.33-1.58-.82-1.83.51-.25,2.31-1.67,4.2-4.04,1.89-2.37.95-5.59-.22-7.58-1.17-1.99-3.06-2.72-6-2.62-2.94.09-3.44,2.18-3.76,4.99-.32,2.81-.16,9.79-.32,12.95-.16,3.16-.51,7.93-.41,9.82s3,1.23,3.22.41,1.11-10.96,1.11-10.96c0,0,7.58,7.58,9.85,9.63,2.27,2.05,2.12,1.48,2.75.92.63-.57.88-1.14.44-1.86ZM750.37,359.47c.28-1.17,1.55-1.42,2.18-1.07.63.35,2.75,1.07,1.83,3.88s-2.84,4.42-3.85,4.74c0,0-.44-6.38-.16-7.55Z"/>
          <path class="cls-1" d="M720.34,373.58c.82,1.83,1.39,3.69,1.26,5.49s-1.11,3.6-1.45,3.92c0,0-.95-.35-1.36.41s-.47,1.77.22,2.12,1.64.92,3.6-.32,2.84-3.32,3.03-5.75,0-4.45-2.43-9.13-3.13-5.34-3.28-7.96,2.31-6.06,3.09-6.16c0,0,.32.47.98.35s1.99-1.36,1.26-2.46-3.13-1.52-5.46-.35-3.85,6.16-3.82,7.96,1.48,5.97,2.46,7.96,1.89,3.92,1.89,3.92Z"/>
        </g>
        <g>
          <path class="cls-1" d="M787.32,356.95c-.69-.25-3.03,0-4.8.38-1.77.38-3.98,1.2-5.18,1.64s-5.12,2.08-4.8,3.66,2.21,1.64,2.21,1.64l-.06,4.17s-1.71.32-1.71,1.2,1.07,1.71,1.07,1.71c0,0,.19,2.53.19,6.06s2.65,4.48,5.56,4.8c2.91.32,6.19.38,6.95.38s1.2-1.01,1.2-1.96-.88-1.89-1.26-1.83-1.2.76-1.2.76c0,0-1.96.51-4.04,0-2.08-.51-4.11-.63-3.85-3.16.25-2.53.32-5.56,1.83-5.49,1.52.06,3.92-.19,5.81-.32,1.89-.13,1.45-2.91.44-2.97-1.01-.06-3.35.13-4.55.38-1.2.25-2.59-.51-2.59-1.33s.44-4.04.44-4.04l6.32-1.96s.88-.25,2.59-.95c1.71-.69.13-2.53-.57-2.78Z"/>
          <path class="cls-1" d="M892.83,380.75c-.44-.73-1.8-2.15-3.54-3.95-1.74-1.8-5.34-4.96-6.51-5.87-1.17-.92-1.33-1.58-.82-1.83.51-.25,2.31-1.67,4.2-4.04,1.89-2.37.95-5.59-.22-7.58-1.17-1.99-3.06-2.72-6-2.62-2.94.09-3.44,2.18-3.76,4.99-.32,2.81-.16,9.79-.32,12.95-.16,3.16-.51,7.93-.41,9.82s3,1.23,3.22.41,1.11-10.96,1.11-10.96c0,0,7.58,7.58,9.85,9.63,2.27,2.05,2.12,1.48,2.75.92.63-.57.88-1.14.44-1.86ZM879.78,359.09c.28-1.17,1.55-1.42,2.18-1.07.63.35,2.75,1.07,1.83,3.88s-2.84,4.42-3.85,4.74c0,0-.44-6.38-.16-7.55Z"/>
          <path class="cls-1" d="M972.59,380.75c-.44-.73-1.8-2.15-3.54-3.95-1.74-1.8-5.34-4.96-6.51-5.87-1.17-.92-1.33-1.58-.82-1.83.51-.25,2.31-1.67,4.2-4.04,1.89-2.37.95-5.59-.22-7.58-1.17-1.99-3.06-2.72-6-2.62-2.94.09-3.44,2.18-3.76,4.99-.32,2.81-.16,9.79-.32,12.95-.16,3.16-.51,7.93-.41,9.82s3,1.23,3.22.41,1.11-10.96,1.11-10.96c0,0,7.58,7.58,9.85,9.63,2.27,2.05,2.12,1.48,2.75.92.63-.57.88-1.14.44-1.86ZM959.55,359.09c.28-1.17,1.55-1.42,2.18-1.07.63.35,2.75,1.07,1.83,3.88s-2.84,4.42-3.85,4.74c0,0-.44-6.38-.16-7.55Z"/>
          <path class="cls-1" d="M855.67,379.78c-.24-.81-.9-2.79-1.75-5.83-.85-3.03-2.84-11.08-3.13-12.41-.28-1.33.09-2.61-.52-3.84-.62-1.23-1.28-2.32-2.18-2.32s-1.33.99-1.8,2.56c-.47,1.56-2.46,8.19-3.22,10.71,0,0-.24.95-.71,2.08-.47,1.14-1.04,1.71-1.66,1.71s-.66,1.33-.09,1.61c.57.28.76,1.47.24,2.56-.52,1.09-1.52,4.59-1.75,5.02-.24.43-.57,3.08.66,3.51s1.99.05,2.27-.76c.28-.81.95-3.6,1.66-6.35.71-2.75.81-3.17,2.13-3.65,1.33-.47,3.27-.57,3.88-.52s.9,1.56,1.37,3.46c.47,1.89,1.04,4.36,1.56,4.83s1.75.81,2.61,0c.85-.81.66-1.56.43-2.37ZM848.62,371.25c-.89-.12-3,.02-3,.02,0,0,1.54-5.02,2.27-6.96,0,0,1.35,6.18,1.44,6.37s.17.69-.72.57Z"/>
          <path class="cls-1" d="M952.66,379.78c-.24-.81-.9-2.79-1.75-5.83-.85-3.03-2.84-11.08-3.13-12.41-.28-1.33.09-2.61-.52-3.84-.62-1.23-1.28-2.32-2.18-2.32s-1.33.99-1.8,2.56c-.47,1.56-2.46,8.19-3.22,10.71,0,0-.24.95-.71,2.08-.47,1.14-1.04,1.71-1.66,1.71s-.66,1.33-.09,1.61c.57.28.76,1.47.24,2.56-.52,1.09-1.52,4.59-1.75,5.02-.24.43-.57,3.08.66,3.51s1.99.05,2.27-.76c.28-.81.95-3.6,1.66-6.35.71-2.75.81-3.17,2.13-3.65,1.33-.47,3.27-.57,3.88-.52s.9,1.56,1.37,3.46c.47,1.89,1.04,4.36,1.56,4.83s1.75.81,2.61,0c.85-.81.66-1.56.43-2.37ZM945.62,371.25c-.89-.12-3,.02-3,.02,0,0,1.54-5.02,2.27-6.96,0,0,1.35,6.18,1.44,6.37s.17.69-.72.57Z"/>
          <path class="cls-1" d="M841.19,380.75c-.44-.73-1.8-2.15-3.54-3.95-1.74-1.8-5.34-4.96-6.51-5.87-1.17-.92-1.33-1.58-.82-1.83.51-.25,2.31-1.67,4.2-4.04,1.89-2.37.95-5.59-.22-7.58-1.17-1.99-3.06-2.72-6-2.62-2.94.09-3.44,2.18-3.76,4.99-.32,2.81-.16,9.79-.32,12.95-.16,3.16-.51,7.93-.41,9.82s3,1.23,3.22.41,1.11-10.96,1.11-10.96c0,0,7.58,7.58,9.85,9.63,2.27,2.05,2.12,1.48,2.75.92.63-.57.88-1.14.44-1.86ZM828.15,359.09c.28-1.17,1.55-1.42,2.18-1.07.63.35,2.75,1.07,1.83,3.88s-2.84,4.42-3.85,4.74c0,0-.44-6.38-.16-7.55Z"/>
          <path class="cls-1" d="M813.52,358.31s-4.36.57-5.87.63-3.54-.38-4.2-1.39,0-1.77,1.42-1.93,3.28-.41,5.43-.51,3.6-1.48,4.29-1.45,2.24.95,4.99.51,5.97-1.36,7.42-1.26,2.27,2.11.82,3.02-10.26,1.91-10.26,1.91c0,0-.76,7.26-.79,11.15s-.06,10.93.06,11.4.06,2.62-.63,2.91-3.19-.19-3.32-3.09"/>
          <path class="cls-1" d="M903.62,364.93c-2.18-4.26-6.41-6.41-9.16-7.26s-3.6.32-3.28,1.07c.32.76,1.64,1.99,1.64,1.99,0,0-.19,14.15-.25,17.72,0,0-.19,2.31-.03,3.41.16,1.11,2.02,1.64,2.68,1.23.66-.41,4.45-3.73,6.57-7.01s4.01-6.88,1.83-11.15ZM900.65,371.06c-.85,2.31-4.39,6.28-4.39,6.28,0,0-.44-13.77.13-15.16,0,0,3.28,1.64,3.95,3.19.66,1.55,1.17,3.38.32,5.68Z"/>
          <path class="cls-1" d="M797.58,370.61s-1.39,1.93-2.68,5.46-2.24,6.95-3.32,7.83-3.13.57-3.06-.95,1.23-3.76,2.97-8.15,4.23-8.53,4.33-8.97-3.88-5.59-4.42-6.09.19-1.52.85-1.8,2.08-.25,3.44,1.55,1.86,2.46,1.86,2.46c0,0,3.38-6.51,4.42-7.14s2.53-.54,3.25.28-1.36,3.16-1.93,4.2-3.51,6.95-3.51,6.95c0,0,.51,1.11,2.27,4.29s2.62,5.24,2.62,5.62-.57,1.52-1.48,1.45-2.56-.88-3.38-3.16-1.29-2.87-2.24-3.85Z"/>
          <path class="cls-1" d="M873.06,368.69c-.66-3.22-1.89-6.02-3.93-6.21-2.04-.19-2.46-.71-3.77-1.61-1.31-.9-2.67-.14-3.72.81-1.04.95-4.17,4.55-3.98,8.67.19,4.12.76,5.21,2.94,7.06,2.18,1.85,3.88,1.85,6.49.9,2.61-.95,4.26-3.6,5.16-5.4.9-1.8.9-3.75.81-4.22ZM869.27,369.11c-.19,1.09.05,2.89-2.08,4.88-2.13,1.99-2.94,2.13-4.31,1.04-1.37-1.09-1.71-2.46-1.66-3.76.05-1.3.38-2.95.71-3.48.33-.53.66-1.31.95-1.15.28.15.99.77,1.42.87s1.66-1.33,1.99-1.75c.33-.43.71-1.23,2.04.24.61.68,1.14,2.04.95,3.13Z"/>
          <path class="cls-1" d="M994.7,368.69c-.66-3.22-1.89-6.02-3.93-6.21-2.04-.19-2.46-.71-3.77-1.61-1.31-.9-2.67-.14-3.72.81-1.04.95-4.17,4.55-3.98,8.67.19,4.12.76,5.21,2.94,7.06,2.18,1.85,3.88,1.85,6.49.9,2.61-.95,4.26-3.6,5.16-5.4.9-1.8.9-3.75.81-4.22ZM990.91,369.11c-.19,1.09.05,2.89-2.08,4.88-2.13,1.99-2.94,2.13-4.31,1.04-1.37-1.09-1.71-2.46-1.66-3.76.05-1.3.38-2.95.71-3.48.33-.53.66-1.31.95-1.15.28.15.99.77,1.42.87s1.66-1.33,1.99-1.75c.33-.43.71-1.23,2.04.24.61.68,1.14,2.04.95,3.13Z"/>
          <path class="cls-1" d="M912.94,363.1c-.18,1.52-1.04,8.72-1.33,13.26s.57,6.53-1.8,6.86-2.27-3.2-2.18-5.88,1.42-8.94,1.42-12.73-.28-6.57,1.89-6.74,2.23,3.23,1.99,5.23Z"/>
          <path class="cls-1" d="M976.43,363.1c-.18,1.52-1.04,8.72-1.33,13.26s.57,6.53-1.8,6.86-2.27-3.2-2.18-5.88,1.42-8.94,1.42-12.73-.28-6.57,1.89-6.74,2.23,3.23,1.99,5.23Z"/>
          <path class="cls-1" d="M921.21,363.79s-.95,4.8-.82,8.34-.02,10.47-.01,12.09-.94,2.18-1.95,2.06-1.96-.89-1.83-2.43,0-10.07.32-13.55.69-11.14.95-12.93.19-3.55,1.71-3.43,3.22,2.84,4.67,7.01,4.48,11.05,4.48,11.05c0,0,1.14-9.6,1.45-11.56s.57-4.04.57-4.67.13-1.97,1.77-1.84,1.71.95,1.71,1.84-1.58,11.24-1.64,16.04-.19,6.69,0,9.35-3.41,2.02-4.17.13-7.2-17.49-7.2-17.49Z"/>
        </g>
        <g>
          <path class="cls-1" d="M563.32,356.99c-.69-.25-3.03,0-4.8.38-1.77.38-3.98,1.2-5.18,1.64s-5.12,2.08-4.8,3.66,2.21,1.64,2.21,1.64l-.06,4.17s-1.71.32-1.71,1.2,1.07,1.71,1.07,1.71c0,0,.19,2.53.19,6.06s2.65,4.48,5.56,4.8c2.91.32,6.19.38,6.95.38s1.2-1.01,1.2-1.96-.88-1.89-1.26-1.83-1.2.76-1.2.76c0,0-1.96.51-4.04,0-2.08-.51-4.11-.63-3.85-3.16.25-2.53.32-5.56,1.83-5.49,1.52.06,3.92-.19,5.81-.32,1.89-.13,1.45-2.91.44-2.97-1.01-.06-3.35.13-4.55.38-1.2.25-2.59-.51-2.59-1.33s.44-4.04.44-4.04l6.32-1.96s.88-.25,2.59-.95c1.71-.69.13-2.53-.57-2.78Z"/>
          <path class="cls-1" d="M566.84,363.1c-.06-3.09.06-5.43,0-6.69s2.53-1.45,3.09-.38-.51,21.98-.51,21.98c0,0,4.11-2.65,5.43-3.41s2.84-.76,3.79-.06-.32,1.89-1.71,2.84-6.32,4.71-7.52,5.26-3.35.42-3.54-1.54.95-18,.95-18Z"/>
        </g>
      </g>
      <g>
        <g>
          <path class="cls-5" d="M656.92,356.45c-.69-.25-3.03,0-4.8.38-1.77.38-3.98,1.2-5.18,1.64s-5.12,2.08-4.8,3.66,2.21,1.64,2.21,1.64l-.06,4.17s-1.71.32-1.71,1.2,1.07,1.71,1.07,1.71c0,0,.19,2.53.19,6.06s2.65,4.48,5.56,4.8c2.91.32,6.19.38,6.95.38s1.2-1.01,1.2-1.96-.88-1.89-1.26-1.83-1.2.76-1.2.76c0,0-1.96.51-4.04,0-2.08-.51-4.11-.63-3.85-3.16.25-2.53.32-5.56,1.83-5.49,1.52.06,3.92-.19,5.81-.32,1.89-.13,1.45-2.91.44-2.97-1.01-.06-3.35.13-4.55.38-1.2.25-2.59-.51-2.59-1.33s.44-4.04.44-4.04l6.32-1.96s.88-.25,2.59-.95c1.71-.69.13-2.53-.57-2.78Z"/>
          <path class="cls-5" d="M607.39,378.99c-.24-.81-.9-2.79-1.75-5.83-.85-3.03-2.84-11.08-3.13-12.41-.28-1.33.09-2.61-.52-3.84-.62-1.23-1.28-2.32-2.18-2.32s-1.33.99-1.8,2.56c-.47,1.56-2.46,8.19-3.22,10.71,0,0-.24.95-.71,2.08-.47,1.14-1.04,1.71-1.66,1.71s-.66,1.33-.09,1.61c.57.28.76,1.47.24,2.56-.52,1.09-1.52,4.59-1.75,5.02-.24.43-.57,3.08.66,3.51s1.99.05,2.27-.76c.28-.81.95-3.6,1.66-6.35.71-2.75.81-3.17,2.13-3.65,1.33-.47,3.27-.57,3.88-.52s.9,1.56,1.37,3.46c.47,1.89,1.04,4.36,1.56,4.83s1.75.81,2.61,0c.85-.81.66-1.56.43-2.37ZM600.35,370.46c-.89-.12-3,.02-3,.02,0,0,1.54-5.02,2.27-6.96,0,0,1.35,6.18,1.44,6.37s.17.69-.72.57Z"/>
          <path class="cls-5" d="M627.16,380.63c-.44-.73-1.8-2.15-3.54-3.95-1.74-1.8-5.34-4.96-6.51-5.87-1.17-.92-1.33-1.58-.82-1.83.51-.25,2.31-1.67,4.2-4.04,1.89-2.37.95-5.59-.22-7.58-1.17-1.99-3.06-2.72-6-2.62-2.94.09-3.44,2.18-3.76,4.99-.32,2.81-.16,9.79-.32,12.95-.16,3.16-.51,7.93-.41,9.82s3,1.23,3.22.41,1.11-10.96,1.11-10.96c0,0,7.58,7.58,9.85,9.63,2.27,2.05,2.12,1.48,2.75.92.63-.57.88-1.14.44-1.86ZM614.12,358.97c.28-1.17,1.55-1.42,2.18-1.07.63.35,2.75,1.07,1.83,3.88s-2.84,4.42-3.85,4.74c0,0-.44-6.38-.16-7.55Z"/>
          <path class="cls-5" d="M632.47,357.71s-4.36.57-5.87.63-3.54-.38-4.2-1.39,0-1.77,1.42-1.93,3.28-.41,5.43-.51,3.6-1.48,4.29-1.45,2.24.95,4.99.51,5.97-1.36,7.42-1.26,2.27,2.11.82,3.02-10.26,1.91-10.26,1.91c0,0-.76,7.26-.79,11.15s-.06,10.93.06,11.4.06,2.62-.63,2.91-3.19-.19-3.32-3.09"/>
        </g>
        <g>
          <path class="cls-5" d="M701.12,356.45c-.69-.25-3.03,0-4.8.38-1.77.38-3.98,1.2-5.18,1.64s-5.12,2.08-4.8,3.66,2.21,1.64,2.21,1.64l-.06,4.17s-1.71.32-1.71,1.2,1.07,1.71,1.07,1.71c0,0,.19,2.53.19,6.06s2.65,4.48,5.56,4.8c2.91.32,6.19.38,6.95.38s1.2-1.01,1.2-1.96-.88-1.89-1.26-1.83-1.2.76-1.2.76c0,0-1.96.51-4.04,0-2.08-.51-4.11-.63-3.85-3.16.25-2.53.32-5.56,1.83-5.49,1.52.06,3.92-.19,5.81-.32,1.89-.13,1.45-2.91.44-2.97-1.01-.06-3.35.13-4.55.38-1.2.25-2.59-.51-2.59-1.33s.44-4.04.44-4.04l6.32-1.96s.88-.25,2.59-.95c1.71-.69.13-2.53-.57-2.78Z"/>
          <path class="cls-5" d="M683.31,364.43c-2.18-4.26-6.41-6.41-9.16-7.26s-3.6.32-3.28,1.07c.32.76,1.64,1.99,1.64,1.99,0,0-.19,14.15-.25,17.72,0,0-.19,2.31-.03,3.41.16,1.11,2.02,1.64,2.68,1.23.66-.41,4.45-3.73,6.57-7.01s4.01-6.88,1.83-11.15ZM680.34,370.56c-.85,2.31-4.39,6.28-4.39,6.28,0,0-.44-13.77.13-15.16,0,0,3.28,1.64,3.95,3.19.66,1.55,1.17,3.38.32,5.68Z"/>
        </g>
        <g>
          <path class="cls-5" d="M742.14,356.45c-.69-.25-3.03,0-4.8.38-1.77.38-3.98,1.2-5.18,1.64s-5.12,2.08-4.8,3.66,2.21,1.64,2.21,1.64l-.06,4.17s-1.71.32-1.71,1.2,1.07,1.71,1.07,1.71c0,0,.19,2.53.19,6.06s2.65,4.48,5.56,4.8c2.91.32,6.19.38,6.95.38s1.2-1.01,1.2-1.96-.88-1.89-1.26-1.83-1.2.76-1.2.76c0,0-1.96.51-4.04,0-2.08-.51-4.11-.63-3.85-3.16.25-2.53.32-5.56,1.83-5.49,1.52.06,3.92-.19,5.81-.32,1.89-.13,1.45-2.91.44-2.97-1.01-.06-3.35.13-4.55.38-1.2.25-2.59-.51-2.59-1.33s.44-4.04.44-4.04l6.32-1.96s.88-.25,2.59-.95c1.71-.69.13-2.53-.57-2.78Z"/>
          <path class="cls-5" d="M762.83,380.63c-.44-.73-1.8-2.15-3.54-3.95-1.74-1.8-5.34-4.96-6.51-5.87-1.17-.92-1.33-1.58-.82-1.83.51-.25,2.31-1.67,4.2-4.04,1.89-2.37.95-5.59-.22-7.58-1.17-1.99-3.06-2.72-6-2.62-2.94.09-3.44,2.18-3.76,4.99-.32,2.81-.16,9.79-.32,12.95-.16,3.16-.51,7.93-.41,9.82s3,1.23,3.22.41,1.11-10.96,1.11-10.96c0,0,7.58,7.58,9.85,9.63,2.27,2.05,2.12,1.48,2.75.92.63-.57.88-1.14.44-1.86ZM749.78,358.97c.28-1.17,1.55-1.42,2.18-1.07.63.35,2.75,1.07,1.83,3.88s-2.84,4.42-3.85,4.74c0,0-.44-6.38-.16-7.55Z"/>
          <path class="cls-5" d="M719.75,373.08c.82,1.83,1.39,3.69,1.26,5.49s-1.11,3.6-1.45,3.92c0,0-.95-.35-1.36.41s-.47,1.77.22,2.12,1.64.92,3.6-.32,2.84-3.32,3.03-5.75,0-4.45-2.43-9.13c-2.43-4.67-3.13-5.34-3.28-7.96s2.31-6.06,3.09-6.16c0,0,.32.47.98.35s1.99-1.36,1.26-2.46-3.13-1.52-5.46-.35-3.85,6.16-3.82,7.96,1.48,5.97,2.46,7.96,1.89,3.92,1.89,3.92Z"/>
        </g>
        <g>
          <path class="cls-5" d="M786.73,356.45c-.69-.25-3.03,0-4.8.38-1.77.38-3.98,1.2-5.18,1.64s-5.12,2.08-4.8,3.66,2.21,1.64,2.21,1.64l-.06,4.17s-1.71.32-1.71,1.2,1.07,1.71,1.07,1.71c0,0,.19,2.53.19,6.06s2.65,4.48,5.56,4.8c2.91.32,6.19.38,6.95.38s1.2-1.01,1.2-1.96-.88-1.89-1.26-1.83-1.2.76-1.2.76c0,0-1.96.51-4.04,0-2.08-.51-4.11-.63-3.85-3.16.25-2.53.32-5.56,1.83-5.49,1.52.06,3.92-.19,5.81-.32,1.89-.13,1.45-2.91.44-2.97-1.01-.06-3.35.13-4.55.38-1.2.25-2.59-.51-2.59-1.33s.44-4.04.44-4.04l6.32-1.96s.88-.25,2.59-.95c1.71-.69.13-2.53-.57-2.78Z"/>
          <path class="cls-5" d="M892.24,380.26c-.44-.73-1.8-2.15-3.54-3.95-1.74-1.8-5.34-4.96-6.51-5.87-1.17-.92-1.33-1.58-.82-1.83.51-.25,2.31-1.67,4.2-4.04,1.89-2.37.95-5.59-.22-7.58-1.17-1.99-3.06-2.72-6-2.62-2.94.09-3.44,2.18-3.76,4.99-.32,2.81-.16,9.79-.32,12.95-.16,3.16-.51,7.93-.41,9.82s3,1.23,3.22.41,1.11-10.96,1.11-10.96c0,0,7.58,7.58,9.85,9.63,2.27,2.05,2.12,1.48,2.75.92.63-.57.88-1.14.44-1.86ZM879.19,358.59c.28-1.17,1.55-1.42,2.18-1.07.63.35,2.75,1.07,1.83,3.88s-2.84,4.42-3.85,4.74c0,0-.44-6.38-.16-7.55Z"/>
          <path class="cls-5" d="M972,380.26c-.44-.73-1.8-2.15-3.54-3.95-1.74-1.8-5.34-4.96-6.51-5.87-1.17-.92-1.33-1.58-.82-1.83.51-.25,2.31-1.67,4.2-4.04,1.89-2.37.95-5.59-.22-7.58-1.17-1.99-3.06-2.72-6-2.62-2.94.09-3.44,2.18-3.76,4.99-.32,2.81-.16,9.79-.32,12.95-.16,3.16-.51,7.93-.41,9.82s3,1.23,3.22.41,1.11-10.96,1.11-10.96c0,0,7.58,7.58,9.85,9.63,2.27,2.05,2.12,1.48,2.75.92.63-.57.88-1.14.44-1.86ZM958.96,358.59c.28-1.17,1.55-1.42,2.18-1.07.63.35,2.75,1.07,1.83,3.88s-2.84,4.42-3.85,4.74c0,0-.44-6.38-.16-7.55Z"/>
          <path class="cls-5" d="M855.08,379.28c-.24-.81-.9-2.79-1.75-5.83-.85-3.03-2.84-11.08-3.13-12.41-.28-1.33.09-2.61-.52-3.84-.62-1.23-1.28-2.32-2.18-2.32s-1.33.99-1.8,2.56c-.47,1.56-2.46,8.19-3.22,10.71,0,0-.24.95-.71,2.08-.47,1.14-1.04,1.71-1.66,1.71s-.66,1.33-.09,1.61c.57.28.76,1.47.24,2.56-.52,1.09-1.52,4.59-1.75,5.02-.24.43-.57,3.08.66,3.51s1.99.05,2.27-.76c.28-.81.95-3.6,1.66-6.35.71-2.75.81-3.17,2.13-3.65,1.33-.47,3.27-.57,3.88-.52s.9,1.56,1.37,3.46c.47,1.89,1.04,4.36,1.56,4.83s1.75.81,2.61,0c.85-.81.66-1.56.43-2.37ZM848.03,370.76c-.89-.12-3,.02-3,.02,0,0,1.54-5.02,2.27-6.96,0,0,1.35,6.18,1.44,6.37s.17.69-.72.57Z"/>
          <path class="cls-5" d="M952.07,379.28c-.24-.81-.9-2.79-1.75-5.83-.85-3.03-2.84-11.08-3.13-12.41-.28-1.33.09-2.61-.52-3.84-.62-1.23-1.28-2.32-2.18-2.32s-1.33.99-1.8,2.56c-.47,1.56-2.46,8.19-3.22,10.71,0,0-.24.95-.71,2.08-.47,1.14-1.04,1.71-1.66,1.71s-.66,1.33-.09,1.61c.57.28.76,1.47.24,2.56-.52,1.09-1.52,4.59-1.75,5.02-.24.43-.57,3.08.66,3.51s1.99.05,2.27-.76c.28-.81.95-3.6,1.66-6.35.71-2.75.81-3.17,2.13-3.65,1.33-.47,3.27-.57,3.88-.52s.9,1.56,1.37,3.46c.47,1.89,1.04,4.36,1.56,4.83s1.75.81,2.61,0c.85-.81.66-1.56.43-2.37ZM945.03,370.76c-.89-.12-3,.02-3,.02,0,0,1.54-5.02,2.27-6.96,0,0,1.35,6.18,1.44,6.37s.17.69-.72.57Z"/>
          <path class="cls-5" d="M840.6,380.26c-.44-.73-1.8-2.15-3.54-3.95-1.74-1.8-5.34-4.96-6.51-5.87-1.17-.92-1.33-1.58-.82-1.83.51-.25,2.31-1.67,4.2-4.04,1.89-2.37.95-5.59-.22-7.58-1.17-1.99-3.06-2.72-6-2.62-2.94.09-3.44,2.18-3.76,4.99-.32,2.81-.16,9.79-.32,12.95-.16,3.16-.51,7.93-.41,9.82s3,1.23,3.22.41,1.11-10.96,1.11-10.96c0,0,7.58,7.58,9.85,9.63,2.27,2.05,2.12,1.48,2.75.92.63-.57.88-1.14.44-1.86ZM827.56,358.59c.28-1.17,1.55-1.42,2.18-1.07.63.35,2.75,1.07,1.83,3.88s-2.84,4.42-3.85,4.74c0,0-.44-6.38-.16-7.55Z"/>
          <path class="cls-5" d="M812.94,357.81s-4.36.57-5.87.63-3.54-.38-4.2-1.39,0-1.77,1.42-1.93,3.28-.41,5.43-.51,3.6-1.48,4.29-1.45,2.24.95,4.99.51,5.97-1.36,7.42-1.26,2.27,2.11.82,3.02-10.26,1.91-10.26,1.91c0,0-.76,7.26-.79,11.15s-.06,10.93.06,11.4.06,2.62-.63,2.91-3.19-.19-3.32-3.09"/>
          <path class="cls-5" d="M903.03,364.43c-2.18-4.26-6.41-6.41-9.16-7.26s-3.6.32-3.28,1.07c.32.76,1.64,1.99,1.64,1.99,0,0-.19,14.15-.25,17.72,0,0-.19,2.31-.03,3.41.16,1.11,2.02,1.64,2.68,1.23.66-.41,4.45-3.73,6.57-7.01s4.01-6.88,1.83-11.15ZM900.06,370.56c-.85,2.31-4.39,6.28-4.39,6.28,0,0-.44-13.77.13-15.16,0,0,3.28,1.64,3.95,3.19.66,1.55,1.17,3.38.32,5.68Z"/>
          <path class="cls-5" d="M796.99,370.12s-1.39,1.93-2.68,5.46-2.24,6.95-3.32,7.83-3.13.57-3.06-.95,1.23-3.76,2.97-8.15,4.23-8.53,4.33-8.97-3.88-5.59-4.42-6.09.19-1.52.85-1.8,2.08-.25,3.44,1.55,1.86,2.46,1.86,2.46c0,0,3.38-6.51,4.42-7.14s2.53-.54,3.25.28-1.36,3.16-1.93,4.2-3.51,6.95-3.51,6.95c0,0,.51,1.11,2.27,4.29s2.62,5.24,2.62,5.62-.57,1.52-1.48,1.45-2.56-.88-3.38-3.16-1.29-2.87-2.24-3.85Z"/>
          <path class="cls-5" d="M872.47,368.19c-.66-3.22-1.89-6.02-3.93-6.21-2.04-.19-2.46-.71-3.77-1.61-1.31-.9-2.67-.14-3.72.81-1.04.95-4.17,4.55-3.98,8.67.19,4.12.76,5.21,2.94,7.06,2.18,1.85,3.88,1.85,6.49.9,2.61-.95,4.26-3.6,5.16-5.4.9-1.8.9-3.75.81-4.22ZM868.68,368.62c-.19,1.09.05,2.89-2.08,4.88-2.13,1.99-2.94,2.13-4.31,1.04-1.37-1.09-1.71-2.46-1.66-3.76.05-1.3.38-2.95.71-3.48.33-.53.66-1.31.95-1.15.28.15.99.77,1.42.87s1.66-1.33,1.99-1.75c.33-.43.71-1.23,2.04.24.61.68,1.14,2.04.95,3.13Z"/>
          <path class="cls-5" d="M994.11,368.19c-.66-3.22-1.89-6.02-3.93-6.21-2.04-.19-2.46-.71-3.77-1.61-1.31-.9-2.67-.14-3.72.81-1.04.95-4.17,4.55-3.98,8.67.19,4.12.76,5.21,2.94,7.06,2.18,1.85,3.88,1.85,6.49.9,2.61-.95,4.26-3.6,5.16-5.4.9-1.8.9-3.75.81-4.22ZM990.32,368.62c-.19,1.09.05,2.89-2.08,4.88-2.13,1.99-2.94,2.13-4.31,1.04-1.37-1.09-1.71-2.46-1.66-3.76.05-1.3.38-2.95.71-3.48.33-.53.66-1.31.95-1.15.28.15.99.77,1.42.87s1.66-1.33,1.99-1.75c.33-.43.71-1.23,2.04.24.61.68,1.14,2.04.95,3.13Z"/>
          <path class="cls-5" d="M912.35,362.6c-.18,1.52-1.04,8.72-1.33,13.26s.57,6.53-1.8,6.86-2.27-3.2-2.18-5.88,1.42-8.94,1.42-12.73-.28-6.57,1.89-6.74,2.23,3.23,1.99,5.23Z"/>
          <path class="cls-5" d="M975.84,362.6c-.18,1.52-1.04,8.72-1.33,13.26s.57,6.53-1.8,6.86-2.27-3.2-2.18-5.88,1.42-8.94,1.42-12.73-.28-6.57,1.89-6.74,2.23,3.23,1.99,5.23Z"/>
          <path class="cls-5" d="M920.63,363.29s-.95,4.8-.82,8.34-.02,10.47-.01,12.09-.94,2.18-1.95,2.06-1.96-.89-1.83-2.43,0-10.07.32-13.55.69-11.14.95-12.93.19-3.55,1.71-3.43,3.22,2.84,4.67,7.01,4.48,11.05,4.48,11.05c0,0,1.14-9.6,1.45-11.56s.57-4.04.57-4.67.13-1.97,1.77-1.84,1.71.95,1.71,1.84-1.58,11.24-1.64,16.04-.19,6.69,0,9.35-3.41,2.02-4.17.13-7.2-17.49-7.2-17.49Z"/>
        </g>
        <g>
          <path class="cls-5" d="M562.73,356.49c-.69-.25-3.03,0-4.8.38-1.77.38-3.98,1.2-5.18,1.64s-5.12,2.08-4.8,3.66,2.21,1.64,2.21,1.64l-.06,4.17s-1.71.32-1.71,1.2,1.07,1.71,1.07,1.71c0,0,.19,2.53.19,6.06s2.65,4.48,5.56,4.8c2.91.32,6.19.38,6.95.38s1.2-1.01,1.2-1.96-.88-1.89-1.26-1.83-1.2.76-1.2.76c0,0-1.96.51-4.04,0-2.08-.51-4.11-.63-3.85-3.16.25-2.53.32-5.56,1.83-5.49,1.52.06,3.92-.19,5.81-.32,1.89-.13,1.45-2.91.44-2.97-1.01-.06-3.35.13-4.55.38-1.2.25-2.59-.51-2.59-1.33s.44-4.04.44-4.04l6.32-1.96s.88-.25,2.59-.95c1.71-.69.13-2.53-.57-2.78Z"/>
          <path class="cls-5" d="M566.25,362.6c-.06-3.09.06-5.43,0-6.69s2.53-1.45,3.09-.38-.51,21.98-.51,21.98c0,0,4.11-2.65,5.43-3.41s2.84-.76,3.79-.06-.32,1.89-1.71,2.84-6.32,4.71-7.52,5.26-3.35.42-3.54-1.54.95-18,.95-18Z"/>
        </g>
      </g>
    </g>
  </g>
</svg>