<?xml version="1.0" encoding="UTF-8"?>
<svg id="Capa_1" xmlns="http://www.w3.org/2000/svg" version="1.1" viewBox="0 0 280 335">
  <!-- Generator: Adobe Illustrator 29.3.1, SVG Export Plug-In . SVG Version: 2.1.0 Build 151)  -->
  <defs>
    <style>
      .st0 {
        fill: none;
      }

      .st1 {
        fill: #eaf2e9;
      }
    </style>
  </defs>
  <path class="st0" d="M265.97,84.13c-.4,3-.89,13.57-1.7,21.54-.81,7.97-3.23,39.93-4.21,50.82-.97,10.89-3.72,66.52-4.21,74.25-.49,7.73-3.64,48.29-4.04,54.52-.4,6.23,1.25,16.27-16.09,18.7-11.44,1.61-24.75,2.84-33.64,3.79l-25.39,2.29c-6.31.39-22.56,2.13-28.31,2.45-5.74.32-39.3,3.47-46.26,3.87-6.96.39-35.83,3.39-42.62,4.02-6.79.63-13.26,1.66-19.65,2.37-6.39.71-10.59-2.13-11.24-8.21-.65-6.08-2.02-27.7-2.99-34.56-.97-6.86-3.96-40.56-5.09-48.37-1.13-7.81-2.91-29.67-4.21-39.3-1.29-9.63-5.09-57.13-5.58-63.84-.49-6.71-3.23-54.29-3.72-61.15-.49-6.86-.32-8.76-.57-13.02-.24-4.26,5.74-10.73,11.08-9.78s24.1,3.55,33.32,4.89c9.22,1.34,58.96,8.52,72.14,10.18,13.18,1.66,48.12,6.55,62.68,8.21,14.56,1.66,54.1,6.55,58.79,7.34,4.69.79,11.32,1.5,15.2,1.97,3.88.47,6.71,4.02,6.31,7.02Z"/>
  <g>
    <path class="st1" d="M258.26,62.65c-18.66-1.85-75.96-8.96-75.96-8.96,0,0-7.73-22.62-11.23-31.15-3.5-8.54-2.48-11.24-7.29-19.06-4.81-7.82-12.1,0-12.1,0-4.96,7.11-12.39,17.35-12.39,17.35l-18.95,26.17s-29.3-3.27-49.13-5.55c-19.83-2.28-44.32-3.84-54.09-4.69C7.36,35.91.36,46.86.07,53.12c-.29,6.26.44,7.54.73,11.66.29,4.13,2.62,21.62,3.5,34.28.87,12.66,4.52,59.6,5.39,74.11.87,14.51,2.48,51.07,2.92,64.3.44,13.23,1.9,41.54,2.19,49.08.29,7.54,1.75,27.74,1.75,27.74,0,0,.44,11.66,8.16,17.12,7.73,5.45,18.08,3.08,18.08,3.08,13.56-1.85,45.2-6.54,45.2-6.54,16.33-2.56,55.69-8.96,55.69-8.96,10.21-1.71,33.39-5.41,43.59-6.97,0,0,25.95-4.27,44.9-6.4,18.95-2.13,20.41-8.53,21.43-18.07,1.02-9.53,24.49-184.35,26.1-197.58,1.6-13.23-2.77-25.46-21.43-27.31ZM265.92,84.12c-.4,3-.89,13.57-1.7,21.54-.81,7.97-3.23,39.93-4.21,50.82-.97,10.89-3.72,66.52-4.21,74.25-.49,7.73-3.64,48.29-4.04,54.52-.4,6.23,1.25,16.27-16.09,18.7-11.44,1.61-24.75,2.84-33.64,3.79l-25.39,2.29c-6.31.39-22.56,2.13-28.31,2.45-5.74.32-39.3,3.47-46.26,3.87-6.96.39-35.83,3.39-42.62,4.02-6.79.63-13.26,1.66-19.65,2.37-6.39.71-10.59-2.13-11.24-8.21-.65-6.08-2.02-27.7-2.99-34.56-.97-6.86-3.96-40.56-5.09-48.37-1.13-7.81-2.91-29.67-4.21-39.3-1.29-9.63-5.09-57.13-5.58-63.84-.49-6.71-3.23-54.29-3.72-61.15-.49-6.86-.32-8.76-.57-13.02-.24-4.26,5.74-10.73,11.08-9.78s24.1,3.55,33.32,4.89c9.22,1.34,58.96,8.52,72.14,10.18,13.18,1.66,48.12,6.55,62.68,8.21,14.56,1.66,54.1,6.55,58.79,7.34,4.69.79,11.32,1.5,15.2,1.97,3.88.47,6.71,4.02,6.31,7.02Z"/>
    <path class="st1" d="M241.79,83.56c-15.84-2.35-68.81-9.25-92.43-12.23-23.62-2.99-64.88-8.11-64.88-8.11-12.98-1.42-46.8-6.12-46.8-6.12-12.25-1.28-19.8,8.61-19.54,15.79.58,15.93,5.1,64.87,5.98,76.67.87,11.81,5.1,61.31,6.41,75.39,1.31,14.08,2.33,26.88,3.06,35.42.73,8.53,1.31,23.19,3.06,34.14,1.75,10.95,7.72,17.11,19.54,16.07,11.37-1,40.97-2.85,63.86-4.41,22.89-1.56,93.01-7.11,107.3-8.25,14.29-1.14,17.79-8.39,18.37-15.22.58-6.83,1.9-25.6,2.48-34.28.58-8.68,6.12-103.27,6.71-113.23.58-9.96,1.75-36.7,1.75-36.7,0-2.42-1.46-12.94-14.87-14.94ZM117.72,303.19c-11.95,1-53.8,5.12-63.42,5.83-2.3.17-4.34-.39-6.14-1.4.44-3.49,3.22-25.7,4.1-32.38.95-7.25,9.04-65.5,9.99-71.98.95-6.47,10.21-49.5,13.41-61.52,3.21-12.02,10.06-28.38,10.06-28.38,0,0,7.51,12.87,9.77,17.21,2.26,4.34,7.14,14.01,8.46,16.07,1.31,2.06,3.06,1.92,5.54,1.56,2.48-.36,32.37-5.33,32.37-5.33,0,0,8.67-.57,11.74-2.85,3.06-2.28,3.64-5.26,3.64-5.26l11.88-21.76s11.3,46.02,12.17,49.22c.87,3.2,2.48,2.99,4.01,2.85,1.53-.14,18.52-2.2,18.52-2.2,0,0-.07,3.98,0,5.41.07,1.42-.29,6.9,3.72,11.1,4.01,4.2,7.58,4.98,9.04,5.33,1.46.36,10.5.21,10.5.21,0,0-4.37,38.62-4.67,41.18-.29,2.56-.95,3.49-3.72,4.27-2.77.78-13.78,3.77-23.76,6.4-9.99,2.63-24.27,4.91-24.27,4.91,0,0,2.11,30.51,2.11,37.98,0,6.16.15,15.3.2,18.32-24.32,2.33-49.21,4.72-55.24,5.22ZM214.89,163.72c0-2.28,1.97-3.2,4.3-3.27,2.33-.07,9.55-.71,9.55-.71,0,0-.66,11.31-.66,12.23s-.15,2.06-1.82,1.92c-1.68-.14-6.12,0-8.6-.5s-2.99-2.35-3.13-4.05.36-3.34.36-5.62ZM253.6,101.2c-.73,5.83-2.19,47.65-3.64,71.27-1.46,23.61-9.33,98.58-9.18,108.39.15,9.82-7.29,11.52-16.18,12.23-3.72.3-20.91,1.94-40.53,3.82-.17-2.25-.57-7.9-.51-9.93.07-2.56-1.68-30.51-1.6-33.43.07-2.92.8-3.34,3.79-4.05,2.99-.71,7.44-2.06,12.03-3.06,4.59-1,18.3-4.77,23.76-6.33,5.47-1.56,10.42-3.77,11.08-10.46.66-6.69,3.86-34.5,4.16-39.05.29-4.55,2.62-24.68,2.7-30.3.07-5.62-1.24-8.75-6.41-10.24-5.18-1.49-15.45.21-22.52,1.07-7.07.85-19.9,2.63-19.9,2.63,0,0-4.52-17.21-6.27-24.61-1.75-7.4-4.08-15.51-6.12-22.19-2.04-6.69-3.64-10.24-7.8-10.38-4.16-.14-7.29,5.55-9.18,8.61-1.9,3.06-10.5,19.2-12.17,21.91-1.68,2.7-2.62,5.05-7.58,5.55-4.96.5-25.59,4.34-27.85,4.34s-3.28-1.35-3.94-3.06c-2.39-6.21-12.54-22.19-17.2-28.88-4.67-6.69-10.64-4.27-14.58,1.56-3.94,5.83-10.64,23.47-12.68,32.15-2.04,8.68-8.46,33.43-10.93,46.8-2.48,13.37-8.46,55.9-10.21,67.99-1.75,12.09-4.08,32.57-4.08,32.57l-.43,5.56c0-.15-.01-.3,0-.44,0,0-2.04-29.45-3.06-47.08-1.02-17.64-5.98-89.47-7-107.25-1.02-17.78-4.37-56.19-4.08-62.87.29-6.69,6.41-10.81,11.81-10.24,5.39.57,51.76,6.26,63.13,7.68,11.37,1.42,73.33,7.82,92.58,10.24s35.72,4.27,46.8,5.41c11.08,1.14,14.58,8.25,13.85,14.08Z"/>
    <g>
      <ellipse class="st1" cx="156.99" cy="175.94" rx="5.2" ry="7.69"/>
      <path class="st1" d="M123.5,186.4c3.06,0,5.54-3.38,5.54-7.56s-2.48-7.56-5.54-7.56-5.54,3.38-5.54,7.56,2.48,7.56,5.54,7.56Z"/>
      <polygon class="st1" points="171.4 251.7 143.23 253.03 143.23 279.67 172.76 279.65 171.4 251.7"/>
      <polygon class="st1" points="115.15 281.57 117.72 303.19 147.99 300.36 143.23 279.67 115.15 281.57"/>
      <polygon class="st1" points="84.63 248.19 77.53 284.13 115.15 281.57 112.52 248.76 84.63 248.19"/>
      <path class="st1" d="M48.17,307.62c1.79,1.02,3.84,1.57,6.14,1.4,3.67-.27,12.05-1.04,21.66-1.94l1.57-22.95-25.32-8.48c-.93,7.12-3.61,28.55-4.04,31.97Z"/>
      <polygon class="st1" points="60.86 213.07 56.38 245.23 84.63 248.19 86.67 221.4 60.86 213.07"/>
    </g>
  </g>
</svg>