<?xml version="1.0" encoding="UTF-8"?>
<svg id="Capa_1" data-name="Capa 1" xmlns="http://www.w3.org/2000/svg" viewBox="0 0 875.89 161.69">
  <defs>
    <style>
      .cls-1 {
        fill: #1d1d1b;
      }

      .cls-2 {
        fill: #fff;
      }

      .cls-3 {
        fill: #93af8e;
      }
    </style>
  </defs>
  <g>
    <g>
      <path class="cls-1" d="M362.59,30.05c-.17.54-.28,1.1-.29,1.67-.23,8.82-2,74.2-3.07,78.86-1.15,4.99.44,10.68-4.81,10.63s-7.44-.62-10.99-.28-6.16-.28-7.53-1.66c-.57-.57-.98-1.54-1.23-2.7-.61-2.8-3.28-4.65-6.13-4.35-.12.01-.24.02-.35.04-3.51.33-17.01,1.75-25.25-.62s-15.39-5.54-21.93-13.64c-6.54-8.1-9.14-17.43-8.91-25.77.24-8.34,1.89-15.77,6.11-22.31s12.03-13.69,23.16-15.96c11.13-2.27,16.96-1.04,22.78,0,4.29.77,9.52,2.22,11.99,2.94,1.19.35,2.42-.58,2.32-1.81,0-.01,0-.03,0-.04-.14-1.47-.19-5.21-.09-7.01s1.71-2.98,3.79-3.03c2.08-.05,4.31-.38,6.77-.43,2.46-.05,5.4.52,7.63.81,2.23.28,4.59-.05,5.73,1.61.73,1.07.54,2.31.31,3.06ZM337.13,71.46c.03-.29.11-.56.19-.84.5-1.62.42-3.93-.63-4.88-1.14-1.04-3.98-3.69-7.11-5.02s-5.02-2.75-11.56-3.88c-6.54-1.14-11.56-.19-15.63,1.42s-8.53,8.91-7.2,15.06,1.52,8.62,7.48,12.88c5.97,4.26,12.6,3.69,19.8,2.65,7.2-1.04,10.71-5.31,10.71-5.31,2.74-2.41,3.73-10.2,3.94-12.09Z"/>
      <path class="cls-1" d="M92.02,30.05c-.17.54-.28,1.1-.29,1.67-.23,8.82-2,74.2-3.07,78.86-1.15,4.99.44,10.68-4.81,10.63s-7.44-.62-10.99-.28-6.16-.28-7.53-1.66c-.57-.57-.98-1.54-1.23-2.7-.61-2.8-3.28-4.65-6.13-4.35-.12.01-.24.02-.35.04-3.51.33-17.01,1.75-25.25-.62s-15.39-5.54-21.93-13.64c-6.54-8.1-9.14-17.43-8.91-25.77s1.89-15.77,6.11-22.31c4.22-6.54,12.03-13.69,23.16-15.96,11.13-2.27,16.96-1.04,22.78,0,4.29.77,9.52,2.22,11.99,2.94,1.19.35,2.42-.58,2.32-1.81,0-.01,0-.03,0-.04-.14-1.47-.19-5.21-.09-7.01s1.71-2.98,3.79-3.03c2.08-.05,4.31-.38,6.77-.43,2.46-.05,5.4.52,7.63.81,2.23.28,4.59-.05,5.73,1.61.73,1.07.54,2.31.31,3.06ZM66.56,71.46c.03-.29.11-.56.19-.84.5-1.62.42-3.93-.63-4.88-1.14-1.04-3.98-3.69-7.11-5.02s-5.02-2.75-11.56-3.88c-6.54-1.14-11.56-.19-15.63,1.42-4.07,1.61-8.53,8.91-7.2,15.06s1.52,8.62,7.48,12.88c5.97,4.26,12.6,3.69,19.8,2.65,7.2-1.04,10.71-5.31,10.71-5.31,2.74-2.41,3.73-10.2,3.94-12.09Z"/>
      <path class="cls-1" d="M170.03,39.43c1.46-3.1,3.16-5.37,4.93-7.39s2.53-5.05-.76-6.63-10.93-5.12-23.94-5.49c-13.01-.38-26.72,4.55-33.28,11.31-6.57,6.76-12.44,13.96-14.53,22.86-2.08,8.91-2.15,16.86.95,26.08,3.09,9.22,9.09,17.68,20.72,23.49s24.88,4.99,30.38,4.11c5.49-.88,13.45-2.08,18.06-4.29s2.78-7.58,2.53-8.84-1.89-6.38-2.34-8.27-3.09-6.63-8.46-5.12c-5.37,1.52-17.43,4.8-26.02,2.27-8.59-2.53-13.83-9.09-13.26-17.81.57-8.72,3.98-14.72,6.95-16.93s8.46-4.74,13.33-5.18,12.82,1.64,14.97,2.21,5.94.38,7.33-1.64,1.72-3.15,2.46-4.74Z"/>
      <path class="cls-1" d="M183.98,85.79c.88,6.18,2.84,17.24,7.07,24.44s12.95,16.55,25.83,16.29,21.35-7.26,28.17-16.86c6.82-9.6,9.6-16.67,11.94-23.43s6.06-19.83,7.58-25.83,3.98-17.43,4.42-20.84-.76-7.33-3.66-7.52-4.61.57-6.57-.19c-1.96-.76-3.85-1.83-8.34-2.08-4.48-.25-4.48,5.43-5.05,8.02s-2.21,13.45-3.47,18.06-7.07,24.57-11.18,33.09c-4.11,8.53-6.88,13.33-12.06,13.33s-7.96-2.46-9.98-11.24-2.53-19.89-2.78-23.81.95-25.01.88-28.36-2.59-7.2-6.13-7.26c-3.54-.06-7.07.19-8.65,0-1.58-.19-3.54-1.14-4.61-1.14s-3.85,1.14-3.85,4.48-.06,27.6-.25,34.61c-.19,7.01.38,14.06.69,16.23Z"/>
      <path class="cls-1" d="M454.14,115.98c-.03,3.69-3.25,5.24-4.89,5.18-1.64-.06-2.97-.6-4.89-.73-1.93-.13-4.77.35-6.88.47s-4.42-.06-6.06-2.02-1.67-3.32-1.67-5.68-1.23-2.08-2.94-1.99c-1.71.09-4.26,1.8-7.01,2.08-2.75.28-8.91.57-14.59,0-5.68-.57-18.19-3.79-27-13.74-8.81-9.95-10.61-20.56-10.71-30.98-.09-10.42,8.43-24.82,19.42-31.64,10.99-6.82,21.98-7.11,28.71-6.06,6.73,1.04,6.35,2.37,11.46,2.37s5.4-3.79,5.21-5.49.19-7.29.57-9.85-.47-5.4,0-10.42,4.74-5.12,6.35-5.4c1.61-.28,10.14.47,12.22.76,2.08.28,4.74.47,4.83,6.44.09,5.97-.47,25.58-.76,36.47-.28,10.89-.85,44.81-1.23,51.25s0,9.76,0,9.76c.16,3.22-.09,5.53-.13,9.22ZM431.39,55.32s-1.37,2.61-4.31,2.98-4.55-.9-7.58-2.04-6.25-2.13-8.95-2.04c-2.7.09-9.66.57-14.31,5.49-4.64,4.93-5.4,7.11-5.49,11.75s3.6,12.13,7.44,14.59c3.84,2.46,8.95,3.88,15.02,3.93,6.06.05,9.19-1.99,11.42-3.08s7.63-5.73,7.29-9.99c-.33-4.26-.85-8.67-.76-11.98s.24-9.62.24-9.62Z"/>
      <path class="cls-1" d="M469.58,74.65c-.51-5.43-1.39-21.46-1.64-26.77,0,0-.63-8.2-.88-14.39s-1.14-11.36-1.14-11.36c0,0-.13-3.68,1.83-4.56s2.72.25,4.61,0,3.79-1.26,6.44-1.52,5.43-.63,7.45.63,2.78,3.28,3.54,4.67,3.03,1.92,4.55.77,2.27-2.54,6.44-5.07,7.71-3.16,8.97-2.02,3.79,4.07,4.29,7.09,1.01,5.04,1.26,6.81.76,2.4,1.01,4.04-.13,3.79-1.89,4.55-6.19,3.41-12.38,9.85c-6.19,6.44-8.08,18.72-8.34,24.26s.13,17.8.76,23.11,1.64,11.24,1.01,14.53-2.78,5.81-5.68,5.81-5.18-.76-6.19-.63-4.04,1.64-6.57,1.39-4.93-3.79-4.8-7.07-.83-9.85-1.3-16.42c-.47-6.57-1.35-17.71-1.35-17.71Z"/>
      <path class="cls-1" d="M609.54,49.92c-.63-4.42-2.27-11.24-3.03-13.26-.76-2.02-3.03-3.79-4.17-3.79s-4.67.88-8.72,3.03-5.94,3.41-6.82,3.41-2.4-.38-2.4-.38c0,0,2.4-4.55,4.55-7.71,2.15-3.16,4.42-4.29,3.92-7.96-.51-3.66-4.55-5.18-8.46-5.94-3.92-.76-7.83-2.27-13.26-2.27s-14.27,1.77-21.98,6.95-12.76,11.75-16.67,16.93-8.84,17.81-10.23,26.78c-1.39,8.97-1.14,17.94,4.04,29.81,5.18,11.87,16.55,19.71,25.26,21.73,8.72,2.02,23.62,1.64,36.51-8.84,12.88-10.48,18.95-24.25,21.09-34.23,2.15-9.98,1.01-19.83.38-24.25ZM585.76,70.09c-1.33,4.74-1.99,6.35-3.22,9.38-1.16,2.85-6.16,9.47-13.74,12.79-7.58,3.32-12.32,3.88-18.38-2.46s-6.06-13.07-5.87-15.06c.19-1.99.95-11.46,3.88-17.62,2.94-6.16,7.58-11.65,11.46-14.02s9.19-4.64,15.63-3.79c6.44.85,9.47,7.39,10.23,12.98.76,5.59,1.33,13.07,0,17.81Z"/>
      <path class="cls-1" d="M645.16,145.41c.47,2.37,2.27,8.24,2.56,9.66s.57,3.13,1.33,4.26,2.37,3.41,6.25,1.8,7.48-3.98,13.17-9.38,9.57-12.6,10.61-16.39,3.41-11.94,2.65-20.08-5.02-19.42-11.08-24.25-8.72-6.82-13.93-9.28-11.75-6.82-13.36-14.02c-1.45-6.47.47-11.18,3.41-17.62s6.63-10.23,10.23-14.21c0,0,3.32-3.69,7.2-6.25s7.11-3.69,4.36-8.72-4.26-6.16-5.68-10.8-3.98-7.2-8.43-4.83-14.21,11.56-19.14,16.96-14.31,20.75-16.67,33.54,1.99,31.55,14.59,40.17,17.43,10.04,21.79,17.43,1.52,12.69-.19,15.06-8.01,4.8-9.19,9.85c-.97,4.18-.47,7.11-.47,7.11Z"/>
    </g>
    <g>
      <path class="cls-1" d="M773,38.89c1.46-3.1,3.16-5.37,4.93-7.39s2.53-5.05-.76-6.63-10.93-5.12-23.94-5.49c-13.01-.38-26.72,4.55-33.28,11.31-6.57,6.76-12.44,13.96-14.53,22.86-2.08,8.91-2.15,16.86.95,26.08,3.09,9.22,9.09,17.68,20.72,23.49s24.88,4.99,30.38,4.11c5.49-.88,13.45-2.08,18.06-4.29s2.78-7.58,2.53-8.84-1.89-6.38-2.34-8.27-3.09-6.63-8.46-5.12c-5.37,1.52-17.43,4.8-26.02,2.27-8.59-2.53-13.83-9.09-13.26-17.81.57-8.72,3.98-14.72,6.95-16.93s8.46-4.74,13.33-5.18,12.82,1.64,14.97,2.21,5.94.38,7.33-1.64,1.72-3.15,2.46-4.74Z"/>
      <path class="cls-1" d="M703.9,107.99c.09-1.45,0-7.58,0-8.91s-1.04-4.83-3.88-5.12-3.41-.28-5.78-.57-7.58,2.08-7.58,5.02.28,7.01,0,8.62-.09,5.21,1.61,6.63,4.55,1.61,5.78,1.71,6.92.19,8.24-1.8,1.49-3.69,1.61-5.59Z"/>
      <path class="cls-1" d="M875.18,51.15c-.28-3.41-1.75-9.14-2.32-12.08-.57-2.94-3.27-5.68-4.97-5.64s-3.79.43-5.4.99c-1.61.57-.95.38-5.26,2.37-4.31,1.99-6.21,2.27-6.21,2.27-.43-1.18.76-2.75,2.08-5.45s1.56-1.89,3.17-4.41c1.61-2.51,2.27-4.12,2.18-5.83-.09-1.71-2.65-3.69-2.65-3.69,0,0-4.5-3.27-14.31-4.41-9.81-1.14-20.18,1.94-27.09,6.96-6.92,5.02-14.97,13.12-18.62,19.89-3.65,6.77-8.05,18.19-8.57,25.01s.28,17.1,1.89,21.74c1.61,4.64,4.55,12.84,10.94,19.09s18.33,10.52,27.14,10.52,16.72-3.74,20.61-6.11c3.88-2.37,10.71-7.96,13.55-11.37,2.84-3.41,10.52-11.61,13.07-26.19,2.56-14.59,1.04-20.27.76-23.68ZM852.38,60.9c-.11,3.6,0,8.59-2.4,13.83-2.4,5.24-4.74,10.55-11.31,15.35s-10.04,4.86-14.53,4.23c-4.48-.63-10.67-5.56-12.51-11.12-1.83-5.56-2.08-13.07,0-20.02s7.14-14.72,13.07-19.07,14.21-5.68,20.78-2.84,6.95,17.44,6.88,19.64Z"/>
    </g>
  </g>
  <g>
    <g>
      <path class="cls-2" d="M361.09,28.04c-.17.54-.28,1.1-.29,1.67-.23,8.82-2,74.2-3.07,78.86-1.15,4.99.44,10.68-4.81,10.63s-7.44-.62-10.99-.28-6.16-.28-7.53-1.66c-.57-.57-.98-1.54-1.23-2.7-.61-2.8-3.28-4.65-6.13-4.35-.12.01-.24.02-.35.04-3.51.33-17.01,1.75-25.25-.62s-15.39-5.54-21.93-13.64c-6.54-8.1-9.14-17.43-8.91-25.77.24-8.34,1.89-15.77,6.11-22.31s12.03-13.69,23.16-15.96c11.13-2.27,16.96-1.04,22.78,0,4.29.77,9.52,2.22,11.99,2.94,1.19.35,2.42-.58,2.32-1.81,0-.01,0-.03,0-.04-.14-1.47-.19-5.21-.09-7.01s1.71-2.98,3.79-3.03c2.08-.05,4.31-.38,6.77-.43,2.46-.05,5.4.52,7.63.81,2.23.28,4.59-.05,5.73,1.61.73,1.07.54,2.31.31,3.06ZM335.63,69.45c.03-.29.11-.56.19-.84.5-1.62.42-3.93-.63-4.88-1.14-1.04-3.98-3.69-7.11-5.02s-5.02-2.75-11.56-3.88c-6.54-1.14-11.56-.19-15.63,1.42s-8.53,8.91-7.2,15.06,1.52,8.62,7.48,12.88c5.97,4.26,12.6,3.69,19.8,2.65,7.2-1.04,10.71-5.31,10.71-5.31,2.74-2.41,3.73-10.2,3.94-12.09Z"/>
      <path class="cls-3" d="M90.52,28.04c-.17.54-.28,1.1-.29,1.67-.23,8.82-2,74.2-3.07,78.86-1.15,4.99.44,10.68-4.81,10.63s-7.44-.62-10.99-.28-6.16-.28-7.53-1.66c-.57-.57-.98-1.54-1.23-2.7-.61-2.8-3.28-4.65-6.13-4.35-.12.01-.24.02-.35.04-3.51.33-17.01,1.75-25.25-.62s-15.39-5.54-21.93-13.64C2.38,87.88-.22,78.55.01,70.22s1.89-15.77,6.11-22.31c4.22-6.54,12.03-13.69,23.16-15.96,11.13-2.27,16.96-1.04,22.78,0,4.29.77,9.52,2.22,11.99,2.94,1.19.35,2.42-.58,2.32-1.81,0-.01,0-.03,0-.04-.14-1.47-.19-5.21-.09-7.01s1.71-2.98,3.79-3.03c2.08-.05,4.31-.38,6.77-.43,2.46-.05,5.4.52,7.63.81,2.23.28,4.59-.05,5.73,1.61.73,1.07.54,2.31.31,3.06ZM65.06,69.45c.03-.29.11-.56.19-.84.5-1.62.42-3.93-.63-4.88-1.14-1.04-3.98-3.69-7.11-5.02s-5.02-2.75-11.56-3.88c-6.54-1.14-11.56-.19-15.63,1.42-4.07,1.61-8.53,8.91-7.2,15.06s1.52,8.62,7.48,12.88c5.97,4.26,12.6,3.69,19.8,2.65,7.2-1.04,10.71-5.31,10.71-5.31,2.74-2.41,3.73-10.2,3.94-12.09Z"/>
      <path class="cls-2" d="M168.52,37.42c1.46-3.1,3.16-5.37,4.93-7.39s2.53-5.05-.76-6.63-10.93-5.12-23.94-5.49c-13.01-.38-26.72,4.55-33.28,11.31-6.57,6.76-12.44,13.96-14.53,22.86-2.08,8.91-2.15,16.86.95,26.08,3.09,9.22,9.09,17.68,20.72,23.49s24.88,4.99,30.38,4.11c5.49-.88,13.45-2.08,18.06-4.29s2.78-7.58,2.53-8.84-1.89-6.38-2.34-8.27-3.09-6.63-8.46-5.12c-5.37,1.52-17.43,4.8-26.02,2.27-8.59-2.53-13.83-9.09-13.26-17.81.57-8.72,3.98-14.72,6.95-16.93s8.46-4.74,13.33-5.18,12.82,1.64,14.97,2.21,5.94.38,7.33-1.64,1.72-3.15,2.46-4.74Z"/>
      <path class="cls-2" d="M182.48,83.78c.88,6.18,2.84,17.24,7.07,24.44s12.95,16.55,25.83,16.29,21.35-7.26,28.17-16.86c6.82-9.6,9.6-16.67,11.94-23.43s6.06-19.83,7.58-25.83,3.98-17.43,4.42-20.84-.76-7.33-3.66-7.52-4.61.57-6.57-.19c-1.96-.76-3.85-1.83-8.34-2.08-4.48-.25-4.48,5.43-5.05,8.02s-2.21,13.45-3.47,18.06-7.07,24.57-11.18,33.09c-4.11,8.53-6.88,13.33-12.06,13.33s-7.96-2.46-9.98-11.24-2.53-19.89-2.78-23.81.95-25.01.88-28.36-2.59-7.2-6.13-7.26c-3.54-.06-7.07.19-8.65,0-1.58-.19-3.54-1.14-4.61-1.14s-3.85,1.14-3.85,4.48-.06,27.6-.25,34.61c-.19,7.01.38,14.06.69,16.23Z"/>
      <path class="cls-2" d="M452.64,113.97c-.03,3.69-3.25,5.24-4.89,5.18-1.64-.06-2.97-.6-4.89-.73-1.93-.13-4.77.35-6.88.47s-4.42-.06-6.06-2.02-1.67-3.32-1.67-5.68-1.23-2.08-2.94-1.99c-1.71.09-4.26,1.8-7.01,2.08-2.75.28-8.91.57-14.59,0-5.68-.57-18.19-3.79-27-13.74-8.81-9.95-10.61-20.56-10.71-30.98-.09-10.42,8.43-24.82,19.42-31.64,10.99-6.82,21.98-7.11,28.71-6.06,6.73,1.04,6.35,2.37,11.46,2.37s5.4-3.79,5.21-5.49.19-7.29.57-9.85-.47-5.4,0-10.42,4.74-5.12,6.35-5.4c1.61-.28,10.14.47,12.22.76,2.08.28,4.74.47,4.83,6.44.09,5.97-.47,25.58-.76,36.47-.28,10.89-.85,44.81-1.23,51.25s0,9.76,0,9.76c.16,3.22-.09,5.53-.13,9.22ZM429.88,53.3s-1.37,2.61-4.31,2.98-4.55-.9-7.58-2.04-6.25-2.13-8.95-2.04c-2.7.09-9.66.57-14.31,5.49-4.64,4.93-5.4,7.11-5.49,11.75s3.6,12.13,7.44,14.59c3.84,2.46,8.95,3.88,15.02,3.93,6.06.05,9.19-1.99,11.42-3.08s7.63-5.73,7.29-9.99c-.33-4.26-.85-8.67-.76-11.98s.24-9.62.24-9.62Z"/>
      <path class="cls-2" d="M468.08,72.64c-.51-5.43-1.39-21.46-1.64-26.77,0,0-.63-8.2-.88-14.39s-1.14-11.36-1.14-11.36c0,0-.13-3.68,1.83-4.56s2.72.25,4.61,0,3.79-1.26,6.44-1.52,5.43-.63,7.45.63,2.78,3.28,3.54,4.67,3.03,1.92,4.55.77,2.27-2.54,6.44-5.07,7.71-3.16,8.97-2.02,3.79,4.07,4.29,7.09,1.01,5.04,1.26,6.81.76,2.4,1.01,4.04-.13,3.79-1.89,4.55-6.19,3.41-12.38,9.85c-6.19,6.44-8.08,18.72-8.34,24.26s.13,17.8.76,23.11,1.64,11.24,1.01,14.53-2.78,5.81-5.68,5.81-5.18-.76-6.19-.63-4.04,1.64-6.57,1.39-4.93-3.79-4.8-7.07-.83-9.85-1.3-16.42c-.47-6.57-1.35-17.71-1.35-17.71Z"/>
      <path class="cls-2" d="M608.04,47.9c-.63-4.42-2.27-11.24-3.03-13.26-.76-2.02-3.03-3.79-4.17-3.79s-4.67.88-8.72,3.03-5.94,3.41-6.82,3.41-2.4-.38-2.4-.38c0,0,2.4-4.55,4.55-7.71,2.15-3.16,4.42-4.29,3.92-7.96-.51-3.66-4.55-5.18-8.46-5.94-3.92-.76-7.83-2.27-13.26-2.27s-14.27,1.77-21.98,6.95-12.76,11.75-16.67,16.93-8.84,17.81-10.23,26.78c-1.39,8.97-1.14,17.94,4.04,29.81,5.18,11.87,16.55,19.71,25.26,21.73,8.72,2.02,23.62,1.64,36.51-8.84,12.88-10.48,18.95-24.25,21.09-34.23,2.15-9.98,1.01-19.83.38-24.25ZM584.26,68.08c-1.33,4.74-1.99,6.35-3.22,9.38-1.16,2.85-6.16,9.47-13.74,12.79-7.58,3.32-12.32,3.88-18.38-2.46s-6.06-13.07-5.87-15.06c.19-1.99.95-11.46,3.88-17.62,2.94-6.16,7.58-11.65,11.46-14.02s9.19-4.64,15.63-3.79c6.44.85,9.47,7.39,10.23,12.98.76,5.59,1.33,13.07,0,17.81Z"/>
      <path class="cls-2" d="M643.66,143.4c.47,2.37,2.27,8.24,2.56,9.66s.57,3.13,1.33,4.26,2.37,3.41,6.25,1.8,7.48-3.98,13.17-9.38,9.57-12.6,10.61-16.39,3.41-11.94,2.65-20.08-5.02-19.42-11.08-24.25-8.72-6.82-13.93-9.28-11.75-6.82-13.36-14.02c-1.45-6.47.47-11.18,3.41-17.62s6.63-10.23,10.23-14.21c0,0,3.32-3.69,7.2-6.25s7.11-3.69,4.36-8.72-4.26-6.16-5.68-10.8-3.98-7.2-8.43-4.83-14.21,11.56-19.14,16.96-14.31,20.75-16.67,33.54,1.99,31.55,14.59,40.17,17.43,10.04,21.79,17.43,1.52,12.69-.19,15.06-8.01,4.8-9.19,9.85c-.97,4.18-.47,7.11-.47,7.11Z"/>
    </g>
    <g>
      <path class="cls-3" d="M771.5,36.88c1.46-3.1,3.16-5.37,4.93-7.39s2.53-5.05-.76-6.63-10.93-5.12-23.94-5.49c-13.01-.38-26.72,4.55-33.28,11.31-6.57,6.76-12.44,13.96-14.53,22.86-2.08,8.91-2.15,16.86.95,26.08,3.09,9.22,9.09,17.68,20.72,23.49s24.88,4.99,30.38,4.11c5.49-.88,13.45-2.08,18.06-4.29s2.78-7.58,2.53-8.84-1.89-6.38-2.34-8.27-3.09-6.63-8.46-5.12c-5.37,1.52-17.43,4.8-26.02,2.27-8.59-2.53-13.83-9.09-13.26-17.81.57-8.72,3.98-14.72,6.95-16.93s8.46-4.74,13.33-5.18,12.82,1.64,14.97,2.21,5.94.38,7.33-1.64,1.72-3.15,2.46-4.74Z"/>
      <path class="cls-3" d="M702.39,105.98c.09-1.45,0-7.58,0-8.91s-1.04-4.83-3.88-5.12-3.41-.28-5.78-.57-7.58,2.08-7.58,5.02.28,7.01,0,8.62-.09,5.21,1.61,6.63,4.55,1.61,5.78,1.71,6.92.19,8.24-1.8,1.49-3.69,1.61-5.59Z"/>
      <path class="cls-3" d="M873.68,49.14c-.28-3.41-1.75-9.14-2.32-12.08-.57-2.94-3.27-5.68-4.97-5.64s-3.79.43-5.4.99c-1.61.57-.95.38-5.26,2.37-4.31,1.99-6.21,2.27-6.21,2.27-.43-1.18.76-2.75,2.08-5.45s1.56-1.89,3.17-4.41c1.61-2.51,2.27-4.12,2.18-5.83-.09-1.71-2.65-3.69-2.65-3.69,0,0-4.5-3.27-14.31-4.41-9.81-1.14-20.18,1.94-27.09,6.96-6.92,5.02-14.97,13.12-18.62,19.89-3.65,6.77-8.05,18.19-8.57,25.01s.28,17.1,1.89,21.74c1.61,4.64,4.55,12.84,10.94,19.09s18.33,10.52,27.14,10.52,16.72-3.74,20.61-6.11c3.88-2.37,10.71-7.96,13.55-11.37,2.84-3.41,10.52-11.61,13.07-26.19,2.56-14.59,1.04-20.27.76-23.68ZM850.88,58.89c-.11,3.6,0,8.59-2.4,13.83-2.4,5.24-4.74,10.55-11.31,15.35s-10.04,4.86-14.53,4.23c-4.48-.63-10.67-5.56-12.51-11.12-1.83-5.56-2.08-13.07,0-20.02s7.14-14.72,13.07-19.07,14.21-5.68,20.78-2.84,6.95,17.44,6.88,19.64Z"/>
    </g>
  </g>
</svg>