<?xml version="1.0" encoding="UTF-8"?>
<svg id="Capa_1" data-name="Capa 1" xmlns="http://www.w3.org/2000/svg" xmlns:xlink="http://www.w3.org/1999/xlink" viewBox="0 0 612 792">
  <defs>
    <style>
      .cls-1, .cls-2 {
        fill: #e8542c;
      }

      .cls-3 {
        fill: #1d1d1b;
      }

      .cls-4, .cls-5, .cls-6, .cls-7, .cls-8, .cls-9, .cls-10, .cls-11, .cls-12, .cls-2, .cls-13, .cls-14 {
        stroke-linecap: round;
      }

      .cls-4, .cls-5, .cls-7, .cls-9, .cls-15, .cls-11, .cls-12 {
        fill: none;
      }

      .cls-4, .cls-5, .cls-7, .cls-10, .cls-13 {
        stroke: #e8532b;
      }

      .cls-4, .cls-7, .cls-8, .cls-10, .cls-11, .cls-12, .cls-2, .cls-13, .cls-14 {
        stroke-linejoin: round;
      }

      .cls-16 {
        fill: #ea552a;
      }

      .cls-17, .cls-6, .cls-8, .cls-18, .cls-10, .cls-13, .cls-14 {
        fill: #fff;
      }

      .cls-5, .cls-6, .cls-19, .cls-18, .cls-9, .cls-15 {
        stroke-miterlimit: 10;
      }

      .cls-6, .cls-19, .cls-8, .cls-18, .cls-9, .cls-15, .cls-11, .cls-2 {
        stroke: #e8542c;
      }

      .cls-7, .cls-15, .cls-2 {
        stroke-width: 2px;
      }

      .cls-19, .cls-11 {
        stroke-width: 3px;
      }

      .cls-19, .cls-20 {
        fill: #e8532b;
      }

      .cls-21 {
        fill: #93af8e;
      }

      .cls-22 {
        fill: #e8501e;
      }

      .cls-23 {
        fill: #ea552c;
      }

      .cls-24 {
        fill: #f7b190;
      }

      .cls-12, .cls-14 {
        stroke: #fff;
      }

      .cls-25 {
        fill: #cbdec8;
      }

      .cls-13 {
        stroke-width: 1.5px;
      }

      .cls-26 {
        fill: #d6e6d3;
      }
    </style>
  </defs>
  <rect class="cls-25" y="108.28" width="612" height="683.72"/>
  <image width="4376" height="5838" transform="translate(277.46 345.69) scale(.08)" xlink:href="WhatSie/ACUADROS LOGO-12.png"/>
  <g>
    <image width="4376" height="5838" transform="translate(0 108.32) scale(.03)" xlink:href="WhatSie/ACUADROS LOGO-14.png"/>
    <polygon class="cls-26" points="177.8 231.85 160.04 232.68 160.04 249.55 178.66 249.53 177.8 231.85"/>
    <polygon class="cls-26" points="142.33 250.75 143.95 264.43 163.04 262.64 160.04 249.55 142.33 250.75"/>
    <polygon class="cls-26" points="123.09 229.62 118.61 252.37 142.33 250.75 140.68 229.98 123.09 229.62"/>
    <path class="cls-26" d="M100.1,267.23c1.13.64,2.42,1,3.87.89,2.32-.17,7.6-.66,13.66-1.23l.99-14.52-15.97-5.37c-.58,4.51-2.28,18.07-2.55,20.23Z"/>
    <polygon class="cls-26" points="108.1 207.4 105.28 227.75 123.09 229.62 124.37 212.67 108.1 207.4"/>
    <polygon class="cls-26" points="140.68 229.98 160.04 232.68 163.04 211.88 142.33 210.48 140.68 229.98"/>
    <polygon class="cls-26" points="124.37 212.67 142.33 210.48 140.68 189.44 118.61 189.44 124.37 212.67"/>
    <polygon class="cls-26" points="108.1 207.4 105.28 191.41 87.1 192.53 91.03 209.08 108.1 207.4"/>
    <polygon class="cls-26" points="89 247 72.71 243.99 70.43 266.92 89 268.14 89 247"/>
    <polygon class="cls-26" points="57.74 245.32 57.74 269 39.93 269 35.38 247 57.74 245.32"/>
    <polygon class="cls-26" points="14.92 247 0 247 .89 269 23.44 269 22.12 247 14.92 247"/>
    <polygon class="cls-26" points="105.28 191.41 100.68 173.25 121.35 171.23 118.61 189.44 105.28 191.41"/>
    <polygon class="cls-26" points="140.68 189.44 139.12 169.21 158.28 171.23 157.27 191.41 140.68 189.44"/>
    <polygon class="cls-26" points="163.04 211.88 184.05 210.48 182.54 188.16 157.27 191.41 163.04 211.88"/>
    <polygon class="cls-26" points="158.28 171.23 177.5 171.23 181.61 144.2 162.92 145.97 158.28 171.23"/>
    <polygon class="cls-26" points="139.12 169.21 121.35 171.23 117.11 148.75 140.68 148.75 139.12 169.21"/>
    <polygon class="cls-26" points="140.68 148.75 162.92 145.97 160.05 125.76 134.74 129.04 140.68 148.75"/>
    <polygon class="cls-26" points="117.11 148.75 98.17 150.26 102.48 125.76 125.74 121.21 117.11 148.75"/>
    <polygon class="cls-26" points="160.05 125.76 183.41 123.99 183.6 107.34 158.28 108.28 160.05 125.76"/>
    <polygon class="cls-26" points="134.74 129.04 137.48 109 123.17 107.97 125.74 121.21 134.74 129.04"/>
    <polygon class="cls-26" points="102.48 125.76 100.68 107.69 83.06 109 81.06 131.57 102.48 125.76"/>
    <polygon class="cls-26" points="178.66 249.53 180.01 265.46 198.45 262.68 200.22 243.99 178.66 249.53"/>
    <polygon class="cls-26" points="177.8 231.85 198.45 229.62 204.52 207.4 184.05 210.48 177.8 231.85"/>
    <polygon class="cls-26" points="200.22 243.99 198.45 229.62 217.65 224.28 221.44 247.53 200.22 243.99"/>
    <polygon class="cls-26" points="182.54 188.16 177.5 171.23 197.67 169.21 198.45 189.44 182.54 188.16"/>
    <polygon class="cls-26" points="181.61 144.2 183.41 123.99 202.75 123.99 204.91 144.2 181.61 144.2"/>
    <polygon class="cls-26" points="197.67 169.21 204.91 144.2 232.88 142.68 227.31 166.43 197.67 169.21"/>
    <polygon class="cls-26" points="202.75 123.99 204.91 107.57 229.53 108.58 233.9 126.77 202.75 123.99"/>
    <polygon class="cls-26" points="198.45 189.44 222.71 184.37 222.71 208.87 204.52 207.4 198.45 189.44"/>
    <polygon class="cls-26" points="221.44 247.53 219.93 263.19 240.39 267.74 244.18 249.55 221.44 247.53"/>
    <polygon class="cls-26" points="217.65 224.28 222.71 208.87 249.99 210.48 253.02 231.85 217.65 224.28"/>
    <polygon class="cls-26" points="222.71 184.37 227.31 166.43 253.02 163.65 254.17 185.38 222.71 184.37"/>
    <polygon class="cls-26" points="232.88 142.68 233.9 126.77 264.49 121.97 262.87 144.2 232.88 142.68"/>
    <polygon class="cls-26" points="244.18 249.55 253.02 231.85 276.01 231.85 275.39 252.37 244.18 249.55"/>
    <polygon class="cls-26" points="249.99 210.48 254.17 185.38 282.48 181.66 279.38 207.4 249.99 210.48"/>
    <polygon class="cls-26" points="253.02 163.65 262.87 144.2 288.66 144.2 300.26 163.65 253.02 163.65"/>
    <polygon class="cls-26" points="264.49 121.97 266.23 107.83 288.66 107.43 292.29 125.76 264.49 121.97"/>
    <polygon class="cls-26" points="275.39 252.37 277.88 265.46 306 265.46 302.28 249.55 275.39 252.37"/>
    <polygon class="cls-26" points="276.01 231.85 302.28 224.28 306 207.4 279.38 207.4 276.01 231.85"/>
    <polygon class="cls-26" points="282.48 181.66 300.26 163.65 321.48 163.65 324.01 184.37 282.48 181.66"/>
    <polygon class="cls-26" points="288.66 144.2 292.29 125.76 318.45 125.76 324.01 150.26 288.66 144.2"/>
    <polygon class="cls-26" points="302.28 249.55 336.14 249.55 342.71 221.58 302.28 224.28 302.28 249.55"/>
    <polygon class="cls-26" points="306 207.4 324.01 184.37 342.71 184.37 342.71 207.4 306 207.4"/>
    <polygon class="cls-26" points="321.48 163.65 324.01 150.26 345.23 148.75 342.71 169.21 321.48 163.65"/>
    <polygon class="cls-26" points="318.45 125.76 316.94 107.57 338.66 105.89 345.23 126.77 318.45 125.76"/>
    <polygon class="cls-26" points="336.14 249.55 339.67 267.74 362.78 267.74 366.96 249.55 336.14 249.55"/>
    <polygon class="cls-26" points="342.71 221.58 342.71 207.4 369.41 201.06 366.96 224.28 342.71 221.58"/>
    <polygon class="cls-26" points="342.71 184.37 342.71 169.21 369.01 169.21 366.96 188.16 342.71 184.37"/>
    <polygon class="cls-26" points="345.23 148.75 345.23 126.77 375.12 117.17 371.51 144.2 345.23 148.75"/>
    <polygon class="cls-26" points="366.96 249.55 366.96 224.28 394.24 224.28 397.78 242.11 366.96 249.55"/>
    <polygon class="cls-26" points="369.41 201.06 366.96 188.16 395.25 188.16 392.73 207.4 369.41 201.06"/>
    <polygon class="cls-26" points="369.01 169.21 371.51 144.2 400.51 148.75 397.78 171.23 369.01 169.21"/>
    <polygon class="cls-26" points="375.12 117.17 378.58 101.93 410.36 104.8 410.36 123.99 375.12 117.17"/>
    <polygon class="cls-26" points="397.78 242.11 397.78 267.74 423.58 267.74 418.64 242.11 397.78 242.11"/>
    <polygon class="cls-26" points="394.24 224.28 392.73 207.4 420.42 207.4 418.48 231.85 394.24 224.28"/>
    <polygon class="cls-26" points="395.25 188.16 397.78 171.23 424.29 163.65 425.12 185.38 395.25 188.16"/>
    <polygon class="cls-26" points="410.36 123.99 400.51 148.75 423.88 146.22 428.96 119.44 410.36 123.99"/>
    <polygon class="cls-26" points="424.29 163.65 423.88 146.22 449.78 144.2 447.59 169.21 424.29 163.65"/>
    <polygon class="cls-26" points="428.96 119.44 433.59 107.43 457.53 107.43 457.69 125.76 428.96 119.44"/>
    <polygon class="cls-26" points="425.12 185.38 454.01 188.16 454.01 212.67 420.42 207.4 425.12 185.38"/>
    <polygon class="cls-26" points="418.48 231.85 451.97 231.85 451.97 247.27 418.64 242.11 418.48 231.85"/>
    <polygon class="cls-26" points="457.69 125.76 449.78 144.2 489.5 146.73 497 119.44 457.69 125.76"/>
    <polygon class="cls-26" points="447.59 169.21 486.85 163.65 484.86 188.16 454.01 188.16 447.59 169.21"/>
    <polygon class="cls-26" points="454.01 212.67 483.7 212.67 486.85 235.56 451.97 231.85 454.01 212.67"/>
    <polygon class="cls-26" points="451.97 247.27 485.53 254.92 482.18 270.52 451.97 267.74 451.97 247.27"/>
    <polygon class="cls-26" points="497 119.44 498.32 107.43 529.14 107.95 536.22 125.76 497 119.44"/>
    <polygon class="cls-26" points="489.5 146.73 533.5 142.18 532.31 171.23 486.85 163.65 489.5 146.73"/>
    <polygon class="cls-26" points="484.86 188.16 532.31 188.16 529.3 219.62 483.7 212.67 484.86 188.16"/>
    <polygon class="cls-26" points="486.85 235.56 528.39 231.85 528.39 264.45 485.53 254.92 486.85 235.56"/>
    <polygon class="cls-26" points="529.3 219.62 528.39 231.85 551.46 235.56 564.5 212.67 529.3 219.62"/>
    <polygon class="cls-26" points="532.31 188.16 567.55 190.68 576.84 169.21 532.31 171.23 532.31 188.16"/>
    <polygon class="cls-26" points="536.22 125.76 533.5 142.18 556.94 142.18 564.5 123.99 536.22 125.76"/>
    <polygon class="cls-26" points="528.39 264.45 529.14 270.52 564.5 267.74 561.48 252.33 528.39 264.45"/>
    <polygon class="cls-26" points="564.5 123.99 574.36 107.43 588.92 105.06 594.61 123.99 564.5 123.99"/>
    <polygon class="cls-26" points="556.94 142.18 588.92 142.18 594.2 169.21 576.84 169.21 556.94 142.18"/>
    <polygon class="cls-26" points="567.55 190.68 594.2 188.16 591.8 212.67 564.5 212.67 567.55 190.68"/>
    <polygon class="cls-26" points="551.46 235.56 584.22 231.85 584.22 254.92 561.48 252.33 551.46 235.56"/>
    <polygon class="cls-26" points="591.8 212.67 584.22 231.85 612 231.85 612 203.89 591.8 212.67"/>
    <polygon class="cls-26" points="584.22 254.92 579.35 270.52 612 270.52 612 248.15 584.22 254.92"/>
    <polygon class="cls-26" points="594.2 188.16 594.2 169.21 612 165.93 612 190.68 594.2 188.16"/>
    <polygon class="cls-26" points="588.92 142.18 594.61 123.99 612 125.76 612 142.18 588.92 142.18"/>
  </g>
  <path class="cls-24" d="M612,109H0v-1.43h316.94s-15.18-50.67,31.06-65.79C406.37,22.68,408.26,0,408.26,0h203.74v109Z"/>
  <g>
    <g>
      <g>
        <g>
          <path class="cls-3" d="M461.4,68.2c-.05.15-.08.3-.08.45-.06,2.4-.54,20.18-.84,21.45-.31,1.36.12,2.9-1.31,2.89s-2.02-.17-2.99-.08-1.67-.08-2.05-.45c-.15-.15-.27-.42-.34-.73-.17-.76-.89-1.26-1.67-1.18-.03,0-.06,0-.1,0-.95.09-4.63.48-6.87-.17s-4.19-1.51-5.96-3.71-2.49-4.74-2.42-7.01.52-4.29,1.66-6.07,3.27-3.72,6.3-4.34,4.61-.28,6.2,0c1.17.21,2.59.61,3.26.8.32.09.66-.16.63-.49,0,0,0,0,0-.01-.04-.4-.05-1.42-.03-1.91s.46-.81,1.03-.82,1.17-.1,1.84-.12,1.47.14,2.07.22,1.25-.01,1.56.44c.2.29.15.63.09.83ZM454.47,79.46c0-.08.03-.15.05-.23.14-.44.11-1.07-.17-1.33-.31-.28-1.08-1-1.93-1.37s-1.37-.75-3.14-1.06-3.14-.05-4.25.39-2.32,2.42-1.96,4.1.41,2.34,2.04,3.5,3.43,1,5.39.72,2.91-1.44,2.91-1.44c.75-.65,1.02-2.78,1.07-3.29Z"/>
          <path class="cls-3" d="M387.81,68.2c-.05.15-.08.3-.08.45-.06,2.4-.54,20.18-.84,21.45-.31,1.36.12,2.9-1.31,2.89s-2.02-.17-2.99-.08-1.67-.08-2.05-.45c-.15-.15-.27-.42-.34-.73-.17-.76-.89-1.26-1.67-1.18-.03,0-.06,0-.1,0-.95.09-4.63.48-6.87-.17s-4.19-1.51-5.96-3.71-2.49-4.74-2.42-7.01.52-4.29,1.66-6.07c1.15-1.78,3.27-3.72,6.3-4.34s4.61-.28,6.2,0c1.17.21,2.59.61,3.26.8.32.09.66-.16.63-.49,0,0,0,0,0-.01-.04-.4-.05-1.42-.03-1.91s.46-.81,1.03-.82,1.17-.1,1.84-.12,1.47.14,2.07.22,1.25-.01,1.56.44c.2.29.15.63.09.83ZM380.88,79.46c0-.08.03-.15.05-.23.14-.44.11-1.07-.17-1.33-.31-.28-1.08-1-1.93-1.37s-1.37-.75-3.14-1.06-3.14-.05-4.25.39-2.32,2.42-1.96,4.1.41,2.34,2.04,3.5,3.43,1,5.39.72,2.91-1.44,2.91-1.44c.75-.65,1.02-2.78,1.07-3.29Z"/>
          <path class="cls-3" d="M409.02,70.75c.4-.84.86-1.46,1.34-2.01s.69-1.37-.21-1.8-2.97-1.39-6.51-1.49-7.27,1.24-9.05,3.07-3.38,3.8-3.95,6.22-.58,4.59.26,7.09,2.47,4.81,5.63,6.39,6.77,1.36,8.26,1.12,3.66-.57,4.91-1.17.76-2.06.69-2.4-.52-1.73-.64-2.25-.84-1.8-2.3-1.39-4.74,1.31-7.08.62-3.76-2.47-3.61-4.84,1.08-4,1.89-4.6,2.3-1.29,3.62-1.41,3.49.45,4.07.6,1.61.1,1.99-.45.47-.86.67-1.29Z"/>
          <path class="cls-3" d="M412.82,83.36c.24,1.68.77,4.69,1.92,6.65s3.52,4.5,7.03,4.43,5.81-1.98,7.66-4.59,2.61-4.53,3.25-6.37,1.65-5.39,2.06-7.03,1.08-4.74,1.2-5.67-.21-1.99-1-2.04-1.25.15-1.79-.05-1.05-.5-2.27-.57-1.22,1.48-1.37,2.18-.6,3.66-.94,4.91-1.92,6.68-3.04,9-1.87,3.62-3.28,3.62-2.16-.67-2.71-3.06-.69-5.41-.76-6.48.26-6.8.24-7.71-.7-1.96-1.67-1.98-1.92.05-2.35,0-.96-.31-1.25-.31-1.05.31-1.05,1.22-.02,7.51-.07,9.41.1,3.83.19,4.41Z"/>
          <path class="cls-3" d="M486.29,91.57c0,1-.88,1.43-1.33,1.41s-.81-.16-1.33-.2-1.3.09-1.87.13-1.2-.02-1.65-.55-.46-.9-.46-1.55-.33-.57-.8-.54-1.16.49-1.91.57-2.42.15-3.97,0-4.95-1.03-7.34-3.74-2.89-5.59-2.91-8.43c-.03-2.83,2.29-6.75,5.28-8.61s5.98-1.93,7.81-1.65,1.73.64,3.12.64,1.47-1.03,1.42-1.49.05-1.98.15-2.68-.13-1.47,0-2.83,1.29-1.39,1.73-1.47,2.76.13,3.32.21,1.29.13,1.31,1.75-.13,6.96-.21,9.92-.23,12.19-.33,13.94,0,2.65,0,2.65c.04.88-.03,1.5-.03,2.51ZM480.11,75.07s-.37.71-1.17.81-1.24-.24-2.06-.55-1.7-.58-2.43-.55-2.63.15-3.89,1.49-1.47,1.93-1.49,3.2.98,3.3,2.02,3.97,2.43,1.06,4.08,1.07,2.5-.54,3.1-.84,2.07-1.56,1.98-2.72-.23-2.36-.21-3.26.06-2.62.06-2.62Z"/>
          <path class="cls-3" d="M490.49,80.33c-.14-1.48-.38-5.84-.45-7.28,0,0-.17-2.23-.24-3.91s-.31-3.09-.31-3.09c0,0-.03-1,.5-1.24s.74.07,1.25,0,1.03-.34,1.75-.41,1.48-.17,2.03.17.76.89.96,1.27.82.52,1.24.21.62-.69,1.75-1.38,2.1-.86,2.44-.55,1.03,1.11,1.17,1.93.27,1.37.34,1.85.21.65.27,1.1-.03,1.03-.52,1.24-1.68.93-3.37,2.68-2.2,5.09-2.27,6.6.03,4.84.21,6.28.45,3.06.27,3.95-.76,1.58-1.55,1.58-1.41-.21-1.68-.17-1.1.45-1.79.38-1.34-1.03-1.31-1.92-.23-2.68-.35-4.47-.37-4.82-.37-4.82Z"/>
          <path class="cls-3" d="M528.56,73.61c-.17-1.2-.62-3.06-.82-3.61-.21-.55-.82-1.03-1.13-1.03s-1.27.24-2.37.82-1.61.93-1.86.93-.65-.1-.65-.1c0,0,.65-1.24,1.24-2.1.58-.86,1.2-1.17,1.07-2.16-.14-1-1.24-1.41-2.3-1.61-1.06-.21-2.13-.62-3.61-.62s-3.88.48-5.98,1.89-3.47,3.19-4.53,4.6-2.4,4.84-2.78,7.28c-.38,2.44-.31,4.88,1.1,8.11,1.41,3.23,4.5,5.36,6.87,5.91,2.37.55,6.42.45,9.93-2.4,3.5-2.85,5.15-6.6,5.74-9.31.58-2.71.27-5.39.1-6.6ZM522.09,79.09c-.36,1.29-.54,1.73-.88,2.55-.31.77-1.67,2.58-3.74,3.48-2.06.9-3.35,1.06-5-.67s-1.65-3.56-1.6-4.1c.05-.54.26-3.12,1.06-4.79.8-1.67,2.06-3.17,3.12-3.81s2.5-1.26,4.25-1.03c1.75.23,2.58,2.01,2.78,3.53.21,1.52.36,3.56,0,4.84Z"/>
          <path class="cls-3" d="M538.25,99.58c.13.64.62,2.24.7,2.63s.15.85.36,1.16.64.93,1.7.49,2.04-1.08,3.58-2.55,2.6-3.43,2.89-4.46.93-3.25.72-5.46-1.37-5.28-3.01-6.6-2.37-1.86-3.79-2.53-3.2-1.86-3.63-3.81c-.39-1.76.13-3.04.93-4.79s1.8-2.78,2.78-3.86c0,0,.9-1,1.96-1.7s1.93-1,1.19-2.37-1.16-1.67-1.55-2.94-1.08-1.96-2.29-1.31-3.86,3.14-5.2,4.61-3.89,5.64-4.53,9.12.54,8.58,3.97,10.92,4.74,2.73,5.93,4.74.41,3.45-.05,4.1-2.18,1.3-2.5,2.68c-.26,1.14-.13,1.93-.13,1.93Z"/>
        </g>
        <g>
          <path class="cls-3" d="M573.02,70.61c.4-.84.86-1.46,1.34-2.01s.69-1.37-.21-1.8-2.97-1.39-6.51-1.49-7.27,1.24-9.05,3.07-3.38,3.8-3.95,6.22-.58,4.59.26,7.09,2.47,4.81,5.63,6.39,6.77,1.36,8.26,1.12,3.66-.57,4.91-1.17.76-2.06.69-2.4-.52-1.73-.64-2.25-.84-1.8-2.3-1.39-4.74,1.31-7.08.62-3.76-2.47-3.61-4.84,1.08-4,1.89-4.6,2.3-1.29,3.62-1.41,3.49.45,4.07.6,1.61.1,1.99-.45.47-.86.67-1.29Z"/>
          <path class="cls-3" d="M554.22,89.4c.03-.39,0-2.06,0-2.42s-.28-1.31-1.06-1.39-.93-.08-1.57-.15-2.06.57-2.06,1.37.08,1.91,0,2.34-.03,1.42.44,1.8,1.24.44,1.57.46,1.88.05,2.24-.49.41-1,.44-1.52Z"/>
          <path class="cls-3" d="M600.81,73.94c-.08-.93-.48-2.49-.63-3.29-.15-.8-.89-1.55-1.35-1.53s-1.03.12-1.47.27c-.44.15-.26.1-1.43.64-1.17.54-1.69.62-1.69.62-.12-.32.21-.75.57-1.48s.43-.52.86-1.2c.44-.68.62-1.12.59-1.58-.03-.46-.72-1-.72-1,0,0-1.22-.89-3.89-1.2-2.67-.31-5.49.53-7.37,1.89-1.88,1.37-4.07,3.57-5.06,5.41-.99,1.84-2.19,4.95-2.33,6.8s.08,4.65.52,5.91c.44,1.26,1.24,3.49,2.98,5.19s4.99,2.86,7.38,2.86,4.55-1.02,5.6-1.66c1.06-.64,2.91-2.16,3.68-3.09.77-.93,2.86-3.16,3.56-7.12.7-3.97.28-5.51.21-6.44ZM594.61,76.59c-.03.98,0,2.34-.65,3.76-.65,1.43-1.29,2.87-3.07,4.17s-2.73,1.32-3.95,1.15c-1.22-.17-2.9-1.51-3.4-3.02-.5-1.51-.57-3.56,0-5.45s1.94-4,3.56-5.19,3.86-1.55,5.65-.77,1.89,4.74,1.87,5.34Z"/>
        </g>
      </g>
      <g>
        <g>
          <path class="cls-17" d="M460.99,67.66c-.05.15-.08.3-.08.45-.06,2.4-.54,20.18-.84,21.45-.31,1.36.12,2.9-1.31,2.89s-2.02-.17-2.99-.08-1.67-.08-2.05-.45c-.15-.15-.27-.42-.34-.73-.17-.76-.89-1.26-1.67-1.18-.03,0-.06,0-.1,0-.95.09-4.63.48-6.87-.17s-4.19-1.51-5.96-3.71-2.49-4.74-2.42-7.01c.06-2.27.52-4.29,1.66-6.07s3.27-3.72,6.3-4.34,4.61-.28,6.2,0c1.17.21,2.59.61,3.26.8.32.09.66-.16.63-.49,0,0,0,0,0-.01-.04-.4-.05-1.42-.03-1.91s.46-.81,1.03-.82,1.17-.1,1.84-.12,1.47.14,2.07.22,1.25-.01,1.56.44c.2.29.15.63.09.83ZM454.06,78.92c0-.08.03-.15.05-.23.14-.44.11-1.07-.17-1.33-.31-.28-1.08-1-1.93-1.37s-1.37-.75-3.14-1.06-3.14-.05-4.25.39-2.32,2.42-1.96,4.1.41,2.34,2.04,3.5,3.43,1,5.39.72,2.91-1.44,2.91-1.44c.75-.65,1.02-2.78,1.07-3.29Z"/>
          <path class="cls-21" d="M387.4,67.66c-.05.15-.08.3-.08.45-.06,2.4-.54,20.18-.84,21.45-.31,1.36.12,2.9-1.31,2.89s-2.02-.17-2.99-.08-1.67-.08-2.05-.45c-.15-.15-.27-.42-.34-.73-.17-.76-.89-1.26-1.67-1.18-.03,0-.06,0-.1,0-.95.09-4.63.48-6.87-.17s-4.19-1.51-5.96-3.71-2.49-4.74-2.42-7.01.52-4.29,1.66-6.07c1.15-1.78,3.27-3.72,6.3-4.34s4.61-.28,6.2,0c1.17.21,2.59.61,3.26.8.32.09.66-.16.63-.49,0,0,0,0,0-.01-.04-.4-.05-1.42-.03-1.91s.46-.81,1.03-.82,1.17-.1,1.84-.12,1.47.14,2.07.22,1.25-.01,1.56.44c.2.29.15.63.09.83ZM380.47,78.92c0-.08.03-.15.05-.23.14-.44.11-1.07-.17-1.33-.31-.28-1.08-1-1.93-1.37s-1.37-.75-3.14-1.06-3.14-.05-4.25.39-2.32,2.42-1.96,4.1.41,2.34,2.04,3.5,3.43,1,5.39.72,2.91-1.44,2.91-1.44c.75-.65,1.02-2.78,1.07-3.29Z"/>
          <path class="cls-17" d="M408.61,70.21c.4-.84.86-1.46,1.34-2.01s.69-1.37-.21-1.8-2.97-1.39-6.51-1.49-7.27,1.24-9.05,3.07c-1.79,1.84-3.38,3.8-3.95,6.22s-.58,4.59.26,7.09,2.47,4.81,5.63,6.39,6.77,1.36,8.26,1.12,3.66-.57,4.91-1.17.76-2.06.69-2.4-.52-1.73-.64-2.25-.84-1.8-2.3-1.39-4.74,1.31-7.08.62-3.76-2.47-3.61-4.84,1.08-4,1.89-4.6,2.3-1.29,3.62-1.41,3.49.45,4.07.6,1.61.1,1.99-.45.47-.86.67-1.29Z"/>
          <path class="cls-17" d="M412.41,82.82c.24,1.68.77,4.69,1.92,6.65s3.52,4.5,7.03,4.43,5.81-1.98,7.66-4.59,2.61-4.53,3.25-6.37,1.65-5.39,2.06-7.03,1.08-4.74,1.2-5.67-.21-1.99-1-2.04-1.25.15-1.79-.05-1.05-.5-2.27-.57-1.22,1.48-1.37,2.18-.6,3.66-.94,4.91-1.92,6.68-3.04,9-1.87,3.62-3.28,3.62-2.16-.67-2.71-3.06-.69-5.41-.76-6.48.26-6.8.24-7.71-.7-1.96-1.67-1.98-1.92.05-2.35,0-.96-.31-1.25-.31-1.05.31-1.05,1.22-.02,7.51-.07,9.41.1,3.83.19,4.41Z"/>
          <path class="cls-17" d="M485.89,91.03c0,1-.88,1.43-1.33,1.41s-.81-.16-1.33-.2-1.3.09-1.87.13-1.2-.02-1.65-.55-.46-.9-.46-1.55-.33-.57-.8-.54-1.16.49-1.91.57-2.42.15-3.97,0-4.95-1.03-7.34-3.74-2.89-5.59-2.91-8.43c-.03-2.83,2.29-6.75,5.28-8.61s5.98-1.93,7.81-1.65,1.73.64,3.12.64,1.47-1.03,1.42-1.49.05-1.98.15-2.68-.13-1.47,0-2.83,1.29-1.39,1.73-1.47,2.76.13,3.32.21,1.29.13,1.31,1.75-.13,6.96-.21,9.92-.23,12.19-.33,13.94,0,2.65,0,2.65c.04.88-.03,1.5-.03,2.51ZM479.7,74.53s-.37.71-1.17.81-1.24-.24-2.06-.55-1.7-.58-2.43-.55-2.63.15-3.89,1.49-1.47,1.93-1.49,3.2.98,3.3,2.02,3.97,2.43,1.06,4.08,1.07,2.5-.54,3.1-.84,2.07-1.56,1.98-2.72-.23-2.36-.21-3.26.06-2.62.06-2.62Z"/>
          <path class="cls-17" d="M490.09,79.79c-.14-1.48-.38-5.84-.45-7.28,0,0-.17-2.23-.24-3.91s-.31-3.09-.31-3.09c0,0-.03-1,.5-1.24s.74.07,1.25,0,1.03-.34,1.75-.41,1.48-.17,2.03.17.76.89.96,1.27.82.52,1.24.21.62-.69,1.75-1.38,2.1-.86,2.44-.55,1.03,1.11,1.17,1.93.27,1.37.34,1.85.21.65.27,1.1-.03,1.03-.52,1.24-1.68.93-3.37,2.68-2.2,5.09-2.27,6.6.03,4.84.21,6.28.45,3.06.27,3.95-.76,1.58-1.55,1.58-1.41-.21-1.68-.17-1.1.45-1.79.38-1.34-1.03-1.31-1.92-.23-2.68-.35-4.47-.37-4.82-.37-4.82Z"/>
          <path class="cls-17" d="M528.15,73.06c-.17-1.2-.62-3.06-.82-3.61-.21-.55-.82-1.03-1.13-1.03s-1.27.24-2.37.82-1.61.93-1.86.93-.65-.1-.65-.1c0,0,.65-1.24,1.24-2.1.58-.86,1.2-1.17,1.07-2.16-.14-1-1.24-1.41-2.3-1.61-1.06-.21-2.13-.62-3.61-.62s-3.88.48-5.98,1.89-3.47,3.19-4.53,4.6-2.4,4.84-2.78,7.28c-.38,2.44-.31,4.88,1.1,8.11,1.41,3.23,4.5,5.36,6.87,5.91,2.37.55,6.42.45,9.93-2.4,3.5-2.85,5.15-6.6,5.74-9.31.58-2.71.27-5.39.1-6.6ZM521.68,78.55c-.36,1.29-.54,1.73-.88,2.55-.31.77-1.67,2.58-3.74,3.48-2.06.9-3.35,1.06-5-.67s-1.65-3.56-1.6-4.1c.05-.54.26-3.12,1.06-4.79.8-1.67,2.06-3.17,3.12-3.81s2.5-1.26,4.25-1.03c1.75.23,2.58,2.01,2.78,3.53.21,1.52.36,3.56,0,4.84Z"/>
          <path class="cls-17" d="M537.84,99.03c.13.64.62,2.24.7,2.63s.15.85.36,1.16.64.93,1.7.49,2.04-1.08,3.58-2.55,2.6-3.43,2.89-4.46.93-3.25.72-5.46-1.37-5.28-3.01-6.6-2.37-1.86-3.79-2.53-3.2-1.86-3.63-3.81c-.39-1.76.13-3.04.93-4.79s1.8-2.78,2.78-3.86c0,0,.9-1,1.96-1.7s1.93-1,1.19-2.37-1.16-1.67-1.55-2.94-1.08-1.96-2.29-1.31-3.86,3.14-5.2,4.61-3.89,5.64-4.53,9.12.54,8.58,3.97,10.92,4.74,2.73,5.93,4.74.41,3.45-.05,4.1-2.18,1.3-2.5,2.68c-.26,1.14-.13,1.93-.13,1.93Z"/>
        </g>
        <g>
          <path class="cls-21" d="M572.61,70.06c.4-.84.86-1.46,1.34-2.01s.69-1.37-.21-1.8-2.97-1.39-6.51-1.49-7.27,1.24-9.05,3.07-3.38,3.8-3.95,6.22-.58,4.59.26,7.09,2.47,4.81,5.63,6.39,6.77,1.36,8.26,1.12,3.66-.57,4.91-1.17.76-2.06.69-2.4-.52-1.73-.64-2.25-.84-1.8-2.3-1.39-4.74,1.31-7.08.62-3.76-2.47-3.61-4.84,1.08-4,1.89-4.6,2.3-1.29,3.62-1.41,3.49.45,4.07.6,1.61.1,1.99-.45.47-.86.67-1.29Z"/>
          <path class="cls-21" d="M553.81,88.85c.03-.39,0-2.06,0-2.42s-.28-1.31-1.06-1.39-.93-.08-1.57-.15-2.06.57-2.06,1.37.08,1.91,0,2.34-.03,1.42.44,1.8,1.24.44,1.57.46,1.88.05,2.24-.49.41-1,.44-1.52Z"/>
          <path class="cls-21" d="M600.4,73.39c-.08-.93-.48-2.49-.63-3.29-.15-.8-.89-1.55-1.35-1.53s-1.03.12-1.47.27c-.44.15-.26.1-1.43.64-1.17.54-1.69.62-1.69.62-.12-.32.21-.75.57-1.48s.43-.52.86-1.2c.44-.68.62-1.12.59-1.58-.03-.46-.72-1-.72-1,0,0-1.22-.89-3.89-1.2-2.67-.31-5.49.53-7.37,1.89-1.88,1.37-4.07,3.57-5.06,5.41-.99,1.84-2.19,4.95-2.33,6.8s.08,4.65.52,5.91c.44,1.26,1.24,3.49,2.98,5.19s4.99,2.86,7.38,2.86,4.55-1.02,5.6-1.66c1.06-.64,2.91-2.16,3.68-3.09.77-.93,2.86-3.16,3.56-7.12.7-3.97.28-5.51.21-6.44ZM594.2,76.05c-.03.98,0,2.34-.65,3.76-.65,1.43-1.29,2.87-3.07,4.17-1.79,1.31-2.73,1.32-3.95,1.15-1.22-.17-2.9-1.51-3.4-3.02-.5-1.51-.57-3.56,0-5.45s1.94-4,3.56-5.19,3.86-1.55,5.65-.77,1.89,4.74,1.87,5.34Z"/>
        </g>
      </g>
    </g>
    <g>
      <path class="cls-22" d="M503.88,15.24c-.07.54-.16,2.46-.3,3.9-.14,1.44-.57,7.23-.74,9.2-.17,1.97-.66,12.05-.74,13.45-.09,1.4-.64,8.75-.71,9.88-.07,1.13.22,2.95-2.84,3.39-2.02.29-4.37.51-5.95.69l-4.49.41c-1.11.07-3.99.39-5,.44s-6.95.63-8.18.7c-1.23.07-6.33.61-7.53.73-1.2.11-2.34.3-3.47.43s-1.87-.39-1.99-1.49c-.11-1.1-.36-5.02-.53-6.26-.17-1.24-.7-7.35-.9-8.76-.2-1.41-.51-5.37-.74-7.12s-.9-10.35-.99-11.56c-.09-1.21-.57-9.83-.66-11.08-.09-1.24-.06-1.59-.1-2.36-.04-.77,1.01-1.94,1.96-1.77s4.26.64,5.89.89c1.63.24,10.42,1.54,12.75,1.84,2.33.3,8.5,1.19,11.08,1.49,2.57.3,9.56,1.19,10.39,1.33.83.14,2,.27,2.69.36.69.09,1.19.73,1.11,1.27Z"/>
      <g>
        <path class="cls-21" d="M502.51,11.35c-3.3-.33-13.42-1.62-13.42-1.62,0,0-1.37-4.1-1.98-5.64-.62-1.55-.44-2.04-1.29-3.45-.85-1.42-2.14,0-2.14,0-.88,1.29-2.19,3.14-2.19,3.14l-3.35,4.74s-5.18-.59-8.68-1c-3.5-.41-7.83-.7-9.56-.85s-2.96,1.83-3.01,2.96c-.05,1.13.08,1.37.13,2.11.05.75.46,3.92.62,6.21s.8,10.8.95,13.42.44,9.25.52,11.65c.08,2.4.33,7.52.39,8.89.05,1.37.31,5.02.31,5.02,0,0,.08,2.11,1.44,3.1s3.2.56,3.2.56c2.4-.33,7.99-1.19,7.99-1.19,2.89-.46,9.84-1.62,9.84-1.62,1.8-.31,5.9-.98,7.7-1.26,0,0,4.59-.77,7.94-1.16,3.35-.39,3.61-1.55,3.79-3.27s4.33-33.39,4.61-35.79c.28-2.4-.49-4.61-3.79-4.95ZM503.87,15.24c-.07.54-.16,2.46-.3,3.9-.14,1.44-.57,7.23-.74,9.2-.17,1.97-.66,12.05-.74,13.45-.09,1.4-.64,8.75-.71,9.88-.07,1.13.22,2.95-2.84,3.39-2.02.29-4.37.51-5.95.69l-4.49.41c-1.11.07-3.99.39-5,.44s-6.95.63-8.18.7c-1.23.07-6.33.61-7.53.73-1.2.11-2.34.3-3.47.43s-1.87-.39-1.99-1.49c-.11-1.1-.36-5.02-.53-6.26-.17-1.24-.7-7.35-.9-8.76-.2-1.41-.51-5.37-.74-7.12s-.9-10.35-.99-11.56c-.09-1.21-.57-9.83-.66-11.08-.09-1.24-.06-1.59-.1-2.36-.04-.77,1.01-1.94,1.96-1.77s4.26.64,5.89.89c1.63.24,10.42,1.54,12.75,1.84,2.33.3,8.5,1.19,11.08,1.49,2.57.3,9.56,1.19,10.39,1.33.83.14,2,.27,2.69.36.69.09,1.19.73,1.11,1.27Z"/>
        <path class="cls-17" d="M499.6,15.14c-2.8-.43-12.16-1.67-16.34-2.22s-11.47-1.47-11.47-1.47c-2.29-.26-8.27-1.11-8.27-1.11-2.16-.23-3.5,1.56-3.45,2.86.1,2.89.9,11.75,1.06,13.89s.9,11.11,1.13,13.66c.23,2.55.41,4.87.54,6.42.13,1.55.23,4.2.54,6.18s1.36,3.1,3.45,2.91c2.01-.18,7.24-.52,11.29-.8,4.05-.28,16.44-1.29,18.96-1.49,2.53-.21,3.14-1.52,3.25-2.76s.33-4.64.44-6.21c.1-1.57,1.08-18.71,1.19-20.51.1-1.8.31-6.65.31-6.65,0-.44-.26-2.34-2.63-2.71ZM477.67,54.92c-2.11.18-9.51.93-11.21,1.06-.41.03-.77-.07-1.08-.25.08-.63.57-4.66.72-5.87.17-1.31,1.6-11.87,1.76-13.04s1.8-8.97,2.37-11.14c.57-2.18,1.78-5.14,1.78-5.14,0,0,1.33,2.33,1.73,3.12.4.79,1.26,2.54,1.49,2.91.23.37.54.35.98.28.44-.06,5.72-.97,5.72-.97,0,0,1.53-.1,2.07-.52.54-.41.64-.95.64-.95l2.1-3.94s2,8.34,2.15,8.92.44.54.71.52c.27-.03,3.27-.4,3.27-.4,0,0-.01.72,0,.98.01.26-.05,1.25.66,2.01s1.34.9,1.6.97c.26.06,1.86.04,1.86.04,0,0-.77,7-.82,7.46-.05.46-.17.63-.66.77s-2.43.68-4.2,1.16c-1.76.48-4.29.89-4.29.89,0,0,.37,5.53.37,6.88,0,1.12.03,2.77.04,3.32-4.3.42-8.7.85-9.76.95ZM494.85,29.66c0-.41.35-.58.76-.59.41-.01,1.69-.13,1.69-.13,0,0-.12,2.05-.12,2.22s-.03.37-.32.35-1.08,0-1.52-.09-.53-.43-.55-.73.06-.61.06-1.02ZM501.69,18.33c-.13,1.06-.39,8.63-.64,12.91-.26,4.28-1.65,17.86-1.62,19.63.03,1.78-1.29,2.09-2.86,2.22-.66.05-3.69.35-7.16.69-.03-.41-.1-1.43-.09-1.8.01-.46-.3-5.53-.28-6.06.01-.53.14-.61.67-.73.53-.13,1.31-.37,2.13-.55.81-.18,3.23-.86,4.2-1.15.97-.28,1.84-.68,1.96-1.89s.68-6.25.73-7.07c.05-.82.46-4.47.48-5.49s-.22-1.58-1.13-1.86c-.91-.27-2.73.04-3.98.19-1.25.15-3.52.48-3.52.48,0,0-.8-3.12-1.11-4.46s-.72-2.81-1.08-4.02c-.36-1.21-.64-1.86-1.38-1.88-.73-.03-1.29,1-1.62,1.56-.33.55-1.86,3.48-2.15,3.97-.3.49-.46.91-1.34,1-.88.09-4.52.79-4.92.79s-.58-.24-.7-.55c-.42-1.12-2.22-4.02-3.04-5.23-.82-1.21-1.88-.77-2.58.28-.7,1.06-1.88,4.25-2.24,5.82-.36,1.57-1.49,6.06-1.93,8.48s-1.49,10.13-1.8,12.32-.72,5.9-.72,5.9l-.08,1.01s0-.05,0-.08c0,0-.36-5.33-.54-8.53-.18-3.19-1.06-16.21-1.24-19.43-.18-3.22-.77-10.18-.72-11.39.05-1.21,1.13-1.96,2.09-1.86.95.1,9.15,1.13,11.16,1.39s12.96,1.42,16.36,1.86,6.31.77,8.27.98c1.96.21,2.58,1.49,2.45,2.55Z"/>
        <g>
          <ellipse class="cls-25" cx="484.61" cy="31.87" rx=".92" ry="1.39"/>
          <path class="cls-25" d="M478.7,33.76c.54,0,.98-.61.98-1.37s-.44-1.37-.98-1.37-.98.61-.98,1.37.44,1.37.98,1.37Z"/>
          <polygon class="cls-25" points="487.16 45.59 482.18 45.83 482.18 50.66 487.4 50.65 487.16 45.59"/>
          <polygon class="cls-25" points="477.22 51 477.67 54.92 483.02 54.41 482.18 50.66 477.22 51"/>
          <polygon class="cls-25" points="471.83 44.96 470.57 51.47 477.22 51 476.76 45.06 471.83 44.96"/>
          <path class="cls-25" d="M465.38,55.72c.32.18.68.28,1.08.25.65-.05,2.13-.19,3.83-.35l.28-4.16-4.48-1.54c-.16,1.29-.64,5.17-.71,5.79Z"/>
          <polygon class="cls-25" points="467.63 38.59 466.83 44.42 471.83 44.96 472.19 40.1 467.63 38.59"/>
        </g>
      </g>
    </g>
    <g>
      <g>
        <g>
          <path class="cls-3" d="M441.78,97.08c-.19-.07-.82,0-1.31.1-.48.1-1.08.33-1.41.45s-1.39.57-1.31,1,.6.45.6.45l-.02,1.13s-.46.09-.46.33.29.46.29.46c0,0,.05.69.05,1.65s.72,1.22,1.51,1.31c.79.09,1.68.1,1.89.1s.33-.27.33-.53-.24-.52-.34-.5-.33.21-.33.21c0,0-.53.14-1.1,0-.57-.14-1.12-.17-1.05-.86.07-.69.09-1.51.5-1.49.41.02,1.06-.05,1.58-.09.52-.03.4-.79.12-.81-.27-.02-.91.03-1.24.1-.33.07-.7-.14-.7-.36s.12-1.1.12-1.1l1.72-.53s.24-.07.7-.26c.46-.19.03-.69-.15-.76Z"/>
          <path class="cls-3" d="M428.31,103.21c-.06-.22-.24-.76-.48-1.58-.23-.82-.77-3.01-.85-3.38-.08-.36.03-.71-.14-1.04-.17-.33-.35-.63-.59-.63s-.36.27-.49.7c-.13.43-.67,2.23-.88,2.91,0,0-.06.26-.19.57-.13.31-.28.46-.45.46s-.18.36-.03.44c.15.08.21.4.06.7-.14.3-.41,1.25-.48,1.37-.06.12-.15.84.18.95s.54.01.62-.21c.08-.22.26-.98.45-1.73.19-.75.22-.86.58-.99.36-.13.89-.15,1.06-.14s.24.43.37.94c.13.52.28,1.19.43,1.31s.48.22.71,0c.23-.22.18-.43.12-.64ZM426.4,100.89c-.24-.03-.81,0-.81,0,0,0,.42-1.36.62-1.89,0,0,.37,1.68.39,1.73s.05.19-.2.15Z"/>
          <path class="cls-3" d="M433.69,103.66c-.12-.2-.49-.58-.96-1.07-.47-.49-1.45-1.35-1.77-1.6-.32-.25-.36-.43-.22-.5.14-.07.63-.46,1.14-1.1.52-.64.26-1.52-.06-2.06-.32-.54-.83-.74-1.63-.71-.8.03-.94.59-1.02,1.36-.09.76-.04,2.66-.09,3.52-.04.86-.14,2.16-.11,2.67s.82.33.88.11.3-2.98.3-2.98c0,0,2.06,2.06,2.68,2.62.62.56.58.4.75.25.17-.15.24-.31.12-.51ZM430.14,97.77c.08-.32.42-.39.59-.29.17.09.75.29.5,1.06s-.77,1.2-1.05,1.29c0,0-.12-1.73-.04-2.05Z"/>
          <path class="cls-3" d="M435.13,97.42s-1.19.15-1.6.17-.96-.1-1.14-.38,0-.48.39-.52.89-.11,1.48-.14.98-.4,1.17-.4.61.26,1.36.14,1.62-.37,2.02-.34.62.58.22.82-2.79.52-2.79.52c0,0-.21,1.98-.21,3.03s-.02,2.97.02,3.1.02.71-.17.79-.87-.05-.9-.84"/>
        </g>
        <g>
          <path class="cls-3" d="M453.8,97.08c-.19-.07-.82,0-1.31.1-.48.1-1.08.33-1.41.45s-1.39.57-1.31,1,.6.45.6.45l-.02,1.13s-.46.09-.46.33.29.46.29.46c0,0,.05.69.05,1.65s.72,1.22,1.51,1.31c.79.09,1.68.1,1.89.1s.33-.27.33-.53-.24-.52-.34-.5-.33.21-.33.21c0,0-.53.14-1.1,0-.57-.14-1.12-.17-1.05-.86.07-.69.09-1.51.5-1.49.41.02,1.06-.05,1.58-.09.52-.03.4-.79.12-.81-.27-.02-.91.03-1.24.1-.33.07-.7-.14-.7-.36s.12-1.1.12-1.1l1.72-.53s.24-.07.7-.26c.46-.19.03-.69-.15-.76Z"/>
          <path class="cls-3" d="M448.96,99.25c-.59-1.16-1.74-1.74-2.49-1.98s-.98.09-.89.29c.09.21.45.54.45.54,0,0-.05,3.85-.07,4.82,0,0-.05.63,0,.93.04.3.55.45.73.33.18-.11,1.21-1.01,1.79-1.91s1.09-1.87.5-3.03ZM448.15,100.92c-.23.63-1.19,1.71-1.19,1.71,0,0-.12-3.74.03-4.12,0,0,.89.45,1.07.87.18.42.32.92.09,1.55Z"/>
        </g>
        <g>
          <path class="cls-3" d="M464.96,97.08c-.19-.07-.82,0-1.31.1-.48.1-1.08.33-1.41.45s-1.39.57-1.31,1,.6.45.6.45l-.02,1.13s-.46.09-.46.33.29.46.29.46c0,0,.05.69.05,1.65s.72,1.22,1.51,1.31c.79.09,1.68.1,1.89.1s.33-.27.33-.53-.24-.52-.34-.5-.33.21-.33.21c0,0-.53.14-1.1,0-.57-.14-1.12-.17-1.05-.86.07-.69.09-1.51.5-1.49.41.02,1.06-.05,1.58-.09.52-.03.4-.79.12-.81-.27-.02-.91.03-1.24.1-.33.07-.7-.14-.7-.36s.12-1.1.12-1.1l1.72-.53s.24-.07.7-.26c.46-.19.03-.69-.15-.76Z"/>
          <path class="cls-3" d="M470.59,103.66c-.12-.2-.49-.58-.96-1.07-.47-.49-1.45-1.35-1.77-1.6-.32-.25-.36-.43-.22-.5.14-.07.63-.46,1.14-1.1.52-.64.26-1.52-.06-2.06-.32-.54-.83-.74-1.63-.71-.8.03-.94.59-1.02,1.36-.09.76-.04,2.66-.09,3.52-.04.86-.14,2.16-.11,2.67s.82.33.88.11.3-2.98.3-2.98c0,0,2.06,2.06,2.68,2.62.62.56.58.4.75.25.17-.15.24-.31.12-.51ZM467.04,97.77c.08-.32.42-.39.59-.29.17.09.75.29.5,1.06s-.77,1.2-1.05,1.29c0,0-.12-1.73-.04-2.05Z"/>
          <path class="cls-3" d="M458.87,101.61c.22.5.38,1,.34,1.49s-.3.98-.4,1.07c0,0-.26-.09-.37.11s-.13.48.06.58.45.25.98-.09.77-.9.82-1.56,0-1.21-.66-2.48-.85-1.45-.89-2.16.63-1.65.84-1.67c0,0,.09.13.27.09s.54-.37.34-.67-.85-.41-1.49-.09-1.05,1.67-1.04,2.16.4,1.62.67,2.16.52,1.07.52,1.07Z"/>
        </g>
        <g>
          <path class="cls-3" d="M477.09,97.08c-.19-.07-.82,0-1.31.1-.48.1-1.08.33-1.41.45s-1.39.57-1.31,1,.6.45.6.45l-.02,1.13s-.46.09-.46.33.29.46.29.46c0,0,.05.69.05,1.65s.72,1.22,1.51,1.31c.79.09,1.68.1,1.89.1s.33-.27.33-.53-.24-.52-.34-.5-.33.21-.33.21c0,0-.53.14-1.1,0-.57-.14-1.12-.17-1.05-.86.07-.69.09-1.51.5-1.49.41.02,1.06-.05,1.58-.09.52-.03.4-.79.12-.81-.27-.02-.91.03-1.24.1-.33.07-.7-.14-.7-.36s.12-1.1.12-1.1l1.72-.53s.24-.07.7-.26c.46-.19.03-.69-.15-.76Z"/>
          <path class="cls-3" d="M505.78,103.56c-.12-.2-.49-.58-.96-1.07-.47-.49-1.45-1.35-1.77-1.6-.32-.25-.36-.43-.22-.5.14-.07.63-.46,1.14-1.1.52-.64.26-1.52-.06-2.06-.32-.54-.83-.74-1.63-.71-.8.03-.94.59-1.02,1.36-.09.76-.04,2.66-.09,3.52-.04.86-.14,2.16-.11,2.67s.82.33.88.11.3-2.98.3-2.98c0,0,2.06,2.06,2.68,2.62.62.56.58.4.75.25.17-.15.24-.31.12-.51ZM502.24,97.66c.08-.32.42-.39.59-.29.17.09.75.29.5,1.06s-.77,1.2-1.05,1.29c0,0-.12-1.73-.04-2.05Z"/>
          <path class="cls-3" d="M527.48,103.56c-.12-.2-.49-.58-.96-1.07-.47-.49-1.45-1.35-1.77-1.6-.32-.25-.36-.43-.22-.5.14-.07.63-.46,1.14-1.1.52-.64.26-1.52-.06-2.06-.32-.54-.83-.74-1.63-.71-.8.03-.94.59-1.02,1.36-.09.76-.04,2.66-.09,3.52-.04.86-.14,2.16-.11,2.67s.82.33.88.11.3-2.98.3-2.98c0,0,2.06,2.06,2.68,2.62.62.56.58.4.75.25.17-.15.24-.31.12-.51ZM523.93,97.66c.08-.32.42-.39.59-.29.17.09.75.29.5,1.06s-.77,1.2-1.05,1.29c0,0-.12-1.73-.04-2.05Z"/>
          <path class="cls-3" d="M495.68,103.29c-.06-.22-.24-.76-.48-1.58-.23-.82-.77-3.01-.85-3.38-.08-.36.03-.71-.14-1.04-.17-.33-.35-.63-.59-.63s-.36.27-.49.7c-.13.43-.67,2.23-.88,2.91,0,0-.06.26-.19.57-.13.31-.28.46-.45.46s-.18.36-.03.44c.15.08.21.4.06.7-.14.3-.41,1.25-.48,1.37-.06.12-.15.84.18.95s.54.01.62-.21c.08-.22.26-.98.45-1.73.19-.75.22-.86.58-.99.36-.13.89-.15,1.06-.14s.24.43.37.94c.13.52.28,1.19.43,1.31s.48.22.71,0c.23-.22.18-.43.12-.64ZM493.76,100.97c-.24-.03-.81,0-.81,0,0,0,.42-1.36.62-1.89,0,0,.37,1.68.39,1.73s.05.19-.2.15Z"/>
          <path class="cls-3" d="M522.06,103.29c-.06-.22-.24-.76-.48-1.58-.23-.82-.77-3.01-.85-3.38-.08-.36.03-.71-.14-1.04-.17-.33-.35-.63-.59-.63s-.36.27-.49.7c-.13.43-.67,2.23-.88,2.91,0,0-.06.26-.19.57-.13.31-.28.46-.45.46s-.18.36-.03.44c.15.08.21.4.06.7-.14.3-.41,1.25-.48,1.37-.06.12-.15.84.18.95s.54.01.62-.21c.08-.22.26-.98.45-1.73.19-.75.22-.86.58-.99.36-.13.89-.15,1.06-.14s.24.43.37.94c.13.52.28,1.19.43,1.31s.48.22.71,0c.23-.22.18-.43.12-.64ZM520.14,100.97c-.24-.03-.81,0-.81,0,0,0,.42-1.36.62-1.89,0,0,.37,1.68.39,1.73s.05.19-.2.15Z"/>
          <path class="cls-3" d="M491.74,103.56c-.12-.2-.49-.58-.96-1.07-.47-.49-1.45-1.35-1.77-1.6-.32-.25-.36-.43-.22-.5.14-.07.63-.46,1.14-1.1.52-.64.26-1.52-.06-2.06-.32-.54-.83-.74-1.63-.71-.8.03-.94.59-1.02,1.36-.09.76-.04,2.66-.09,3.52-.04.86-.14,2.16-.11,2.67s.82.33.88.11.3-2.98.3-2.98c0,0,2.06,2.06,2.68,2.62.62.56.58.4.75.25.17-.15.24-.31.12-.51ZM488.19,97.66c.08-.32.42-.39.59-.29.17.09.75.29.5,1.06s-.77,1.2-1.05,1.29c0,0-.12-1.73-.04-2.05Z"/>
          <path class="cls-3" d="M484.21,97.45s-1.19.15-1.6.17-.96-.1-1.14-.38,0-.48.39-.52.89-.11,1.48-.14.98-.4,1.17-.4.61.26,1.36.14,1.62-.37,2.02-.34.62.58.22.82-2.79.52-2.79.52c0,0-.21,1.98-.21,3.03s-.02,2.97.02,3.1.02.71-.17.79-.87-.05-.9-.84"/>
          <path class="cls-3" d="M508.72,99.25c-.59-1.16-1.74-1.74-2.49-1.98s-.98.09-.89.29c.09.21.45.54.45.54,0,0-.05,3.85-.07,4.82,0,0-.05.63,0,.93.04.3.55.45.73.33.18-.11,1.21-1.01,1.79-1.91s1.09-1.87.5-3.03ZM507.91,100.92c-.23.63-1.19,1.71-1.19,1.71,0,0-.12-3.74.03-4.12,0,0,.89.45,1.07.87.18.42.32.92.09,1.55Z"/>
          <path class="cls-3" d="M479.88,100.8s-.38.52-.73,1.49-.61,1.89-.9,2.13-.85.15-.83-.26.33-1.02.81-2.22,1.15-2.32,1.18-2.44-1.06-1.52-1.2-1.66.05-.41.23-.49.57-.07.94.42.51.67.51.67c0,0,.92-1.77,1.2-1.94s.69-.15.88.08-.37.86-.52,1.14-.95,1.89-.95,1.89c0,0,.14.3.62,1.17s.71,1.43.71,1.53-.15.41-.4.4-.7-.24-.92-.86-.35-.78-.61-1.05Z"/>
          <path class="cls-3" d="M500.41,100.27c-.18-.88-.52-1.64-1.07-1.69-.55-.05-.67-.19-1.02-.44-.36-.24-.73-.04-1.01.22-.28.26-1.13,1.24-1.08,2.36.05,1.12.21,1.42.8,1.92.59.5,1.06.5,1.76.24.71-.26,1.16-.98,1.4-1.47.24-.49.25-1.02.22-1.15ZM499.38,100.39c-.05.3.01.79-.57,1.33-.58.54-.8.58-1.17.28-.37-.3-.46-.67-.45-1.02.01-.35.1-.8.19-.95.09-.14.18-.36.26-.31.08.04.27.21.39.24s.45-.36.54-.48c.09-.12.19-.33.55.06.17.18.31.55.26.85Z"/>
          <path class="cls-3" d="M533.49,100.27c-.18-.88-.52-1.64-1.07-1.69-.55-.05-.67-.19-1.02-.44-.36-.24-.73-.04-1.01.22-.28.26-1.13,1.24-1.08,2.36.05,1.12.21,1.42.8,1.92.59.5,1.06.5,1.76.24.71-.26,1.16-.98,1.4-1.47.24-.49.25-1.02.22-1.15ZM532.46,100.39c-.05.3.01.79-.57,1.33-.58.54-.8.58-1.17.28-.37-.3-.46-.67-.45-1.02.01-.35.1-.8.19-.95.09-.14.18-.36.26-.31.08.04.27.21.39.24s.45-.36.54-.48c.09-.12.19-.33.55.06.17.18.31.55.26.85Z"/>
          <path class="cls-3" d="M511.25,98.75c-.05.41-.28,2.37-.36,3.61s.15,1.78-.49,1.87-.62-.87-.59-1.6.39-2.43.39-3.46-.08-1.79.52-1.83.61.88.54,1.42Z"/>
          <path class="cls-3" d="M528.52,98.75c-.05.41-.28,2.37-.36,3.61s.15,1.78-.49,1.87-.62-.87-.59-1.6.39-2.43.39-3.46-.08-1.79.52-1.83.61.88.54,1.42Z"/>
          <path class="cls-3" d="M513.5,98.94s-.26,1.31-.22,2.27,0,2.85,0,3.29-.25.59-.53.56-.53-.24-.5-.66,0-2.74.09-3.68.19-3.03.26-3.52.05-.97.46-.93.88.77,1.27,1.91,1.22,3.01,1.22,3.01c0,0,.31-2.61.4-3.14s.15-1.1.15-1.27.03-.54.48-.5.46.26.46.5-.43,3.06-.45,4.36-.05,1.82,0,2.54-.93.55-1.13.03-1.96-4.76-1.96-4.76Z"/>
        </g>
        <g>
          <path class="cls-3" d="M416.16,97.09c-.19-.07-.82,0-1.31.1-.48.1-1.08.33-1.41.45s-1.39.57-1.31,1,.6.45.6.45l-.02,1.13s-.46.09-.46.33.29.46.29.46c0,0,.05.69.05,1.65s.72,1.22,1.51,1.31c.79.09,1.68.1,1.89.1s.33-.27.33-.53-.24-.52-.34-.5-.33.21-.33.21c0,0-.53.14-1.1,0-.57-.14-1.12-.17-1.05-.86.07-.69.09-1.51.5-1.49.41.02,1.06-.05,1.58-.09.52-.03.4-.79.12-.81-.27-.02-.91.03-1.24.1-.33.07-.7-.14-.7-.36s.12-1.1.12-1.1l1.72-.53s.24-.07.7-.26c.46-.19.03-.69-.15-.76Z"/>
          <path class="cls-3" d="M417.12,98.75c-.02-.84.02-1.48,0-1.82s.69-.4.84-.1-.14,5.98-.14,5.98c0,0,1.12-.72,1.48-.93s.77-.21,1.03-.02-.09.52-.46.77-1.72,1.28-2.04,1.43-.91.11-.96-.42.26-4.9.26-4.9Z"/>
        </g>
      </g>
      <g>
        <g>
          <path class="cls-25" d="M441.62,96.95c-.19-.07-.82,0-1.31.1-.48.1-1.08.33-1.41.45s-1.39.57-1.31,1,.6.45.6.45l-.02,1.13s-.46.09-.46.33.29.46.29.46c0,0,.05.69.05,1.65s.72,1.22,1.51,1.31c.79.09,1.68.1,1.89.1s.33-.27.33-.53-.24-.52-.34-.5-.33.21-.33.21c0,0-.53.14-1.1,0-.57-.14-1.12-.17-1.05-.86.07-.69.09-1.51.5-1.49.41.02,1.06-.05,1.58-.09.52-.03.4-.79.12-.81-.27-.02-.91.03-1.24.1-.33.07-.7-.14-.7-.36s.12-1.1.12-1.1l1.72-.53s.24-.07.7-.26c.46-.19.03-.69-.15-.76Z"/>
          <path class="cls-25" d="M428.15,103.08c-.06-.22-.24-.76-.48-1.58-.23-.82-.77-3.01-.85-3.38-.08-.36.03-.71-.14-1.04-.17-.33-.35-.63-.59-.63s-.36.27-.49.7c-.13.43-.67,2.23-.88,2.91,0,0-.06.26-.19.57-.13.31-.28.46-.45.46s-.18.36-.03.44c.15.08.21.4.06.7-.14.3-.41,1.25-.48,1.37-.06.12-.15.84.18.95s.54.01.62-.21c.08-.22.26-.98.45-1.73.19-.75.22-.86.58-.99.36-.13.89-.15,1.06-.14s.24.43.37.94c.13.52.28,1.19.43,1.31s.48.22.71,0c.23-.22.18-.43.12-.64ZM426.24,100.76c-.24-.03-.81,0-.81,0,0,0,.42-1.36.62-1.89,0,0,.37,1.68.39,1.73s.05.19-.2.15Z"/>
          <path class="cls-25" d="M433.53,103.52c-.12-.2-.49-.58-.96-1.07-.47-.49-1.45-1.35-1.77-1.6-.32-.25-.36-.43-.22-.5.14-.07.63-.46,1.14-1.1.52-.64.26-1.52-.06-2.06-.32-.54-.83-.74-1.63-.71-.8.03-.94.59-1.02,1.36-.09.76-.04,2.66-.09,3.52-.04.86-.14,2.16-.11,2.67s.82.33.88.11.3-2.98.3-2.98c0,0,2.06,2.06,2.68,2.62.62.56.58.4.75.25.17-.15.24-.31.12-.51ZM429.98,97.63c.08-.32.42-.39.59-.29.17.09.75.29.5,1.06s-.77,1.2-1.05,1.29c0,0-.12-1.73-.04-2.05Z"/>
          <path class="cls-25" d="M434.97,97.29s-1.19.15-1.6.17-.96-.1-1.14-.38,0-.48.39-.52.89-.11,1.48-.14.98-.4,1.17-.4.61.26,1.36.14,1.62-.37,2.02-.34.62.58.22.82-2.79.52-2.79.52c0,0-.21,1.98-.21,3.03s-.02,2.97.02,3.1.02.71-.17.79-.87-.05-.9-.84"/>
        </g>
        <g>
          <path class="cls-25" d="M453.64,96.95c-.19-.07-.82,0-1.31.1-.48.1-1.08.33-1.41.45s-1.39.57-1.31,1,.6.45.6.45l-.02,1.13s-.46.09-.46.33.29.46.29.46c0,0,.05.69.05,1.65s.72,1.22,1.51,1.31c.79.09,1.68.1,1.89.1s.33-.27.33-.53-.24-.52-.34-.5-.33.21-.33.21c0,0-.53.14-1.1,0-.57-.14-1.12-.17-1.05-.86.07-.69.09-1.51.5-1.49.41.02,1.06-.05,1.58-.09.52-.03.4-.79.12-.81-.27-.02-.91.03-1.24.1-.33.07-.7-.14-.7-.36s.12-1.1.12-1.1l1.72-.53s.24-.07.7-.26c.46-.19.03-.69-.15-.76Z"/>
          <path class="cls-25" d="M448.8,99.12c-.59-1.16-1.74-1.74-2.49-1.98s-.98.09-.89.29c.09.21.45.54.45.54,0,0-.05,3.85-.07,4.82,0,0-.05.63,0,.93.04.3.55.45.73.33.18-.11,1.21-1.01,1.79-1.91s1.09-1.87.5-3.03ZM447.99,100.78c-.23.63-1.19,1.71-1.19,1.71,0,0-.12-3.74.03-4.12,0,0,.89.45,1.07.87.18.42.32.92.09,1.55Z"/>
        </g>
        <g>
          <path class="cls-25" d="M464.8,96.95c-.19-.07-.82,0-1.31.1-.48.1-1.08.33-1.41.45s-1.39.57-1.31,1,.6.45.6.45l-.02,1.13s-.46.09-.46.33.29.46.29.46c0,0,.05.69.05,1.65s.72,1.22,1.51,1.31c.79.09,1.68.1,1.89.1s.33-.27.33-.53-.24-.52-.34-.5-.33.21-.33.21c0,0-.53.14-1.1,0-.57-.14-1.12-.17-1.05-.86.07-.69.09-1.51.5-1.49.41.02,1.06-.05,1.58-.09.52-.03.4-.79.12-.81-.27-.02-.91.03-1.24.1-.33.07-.7-.14-.7-.36s.12-1.1.12-1.1l1.72-.53s.24-.07.7-.26c.46-.19.03-.69-.15-.76Z"/>
          <path class="cls-25" d="M470.43,103.52c-.12-.2-.49-.58-.96-1.07-.47-.49-1.45-1.35-1.77-1.6-.32-.25-.36-.43-.22-.5.14-.07.63-.46,1.14-1.1.52-.64.26-1.52-.06-2.06-.32-.54-.83-.74-1.63-.71-.8.03-.94.59-1.02,1.36-.09.76-.04,2.66-.09,3.52-.04.86-.14,2.16-.11,2.67s.82.33.88.11.3-2.98.3-2.98c0,0,2.06,2.06,2.68,2.62.62.56.58.4.75.25.17-.15.24-.31.12-.51ZM466.88,97.63c.08-.32.42-.39.59-.29.17.09.75.29.5,1.06s-.77,1.2-1.05,1.29c0,0-.12-1.73-.04-2.05Z"/>
          <path class="cls-25" d="M458.71,101.47c.22.5.38,1,.34,1.49s-.3.98-.4,1.07c0,0-.26-.09-.37.11s-.13.48.06.58.45.25.98-.09.77-.9.82-1.56,0-1.21-.66-2.48-.85-1.45-.89-2.16.63-1.65.84-1.67c0,0,.09.13.27.09s.54-.37.34-.67-.85-.41-1.49-.09-1.05,1.67-1.04,2.16.4,1.62.67,2.16.52,1.07.52,1.07Z"/>
        </g>
        <g>
          <path class="cls-25" d="M476.93,96.95c-.19-.07-.82,0-1.31.1-.48.1-1.08.33-1.41.45s-1.39.57-1.31,1,.6.45.6.45l-.02,1.13s-.46.09-.46.33.29.46.29.46c0,0,.05.69.05,1.65s.72,1.22,1.51,1.31c.79.09,1.68.1,1.89.1s.33-.27.33-.53-.24-.52-.34-.5-.33.21-.33.21c0,0-.53.14-1.1,0-.57-.14-1.12-.17-1.05-.86.07-.69.09-1.51.5-1.49.41.02,1.06-.05,1.58-.09.52-.03.4-.79.12-.81-.27-.02-.91.03-1.24.1-.33.07-.7-.14-.7-.36s.12-1.1.12-1.1l1.72-.53s.24-.07.7-.26c.46-.19.03-.69-.15-.76Z"/>
          <path class="cls-25" d="M505.62,103.42c-.12-.2-.49-.58-.96-1.07-.47-.49-1.45-1.35-1.77-1.6-.32-.25-.36-.43-.22-.5.14-.07.63-.46,1.14-1.1.52-.64.26-1.52-.06-2.06-.32-.54-.83-.74-1.63-.71-.8.03-.94.59-1.02,1.36-.09.76-.04,2.66-.09,3.52-.04.86-.14,2.16-.11,2.67s.82.33.88.11.3-2.98.3-2.98c0,0,2.06,2.06,2.68,2.62.62.56.58.4.75.25.17-.15.24-.31.12-.51ZM502.08,97.53c.08-.32.42-.39.59-.29.17.09.75.29.5,1.06s-.77,1.2-1.05,1.29c0,0-.12-1.73-.04-2.05Z"/>
          <path class="cls-25" d="M527.32,103.42c-.12-.2-.49-.58-.96-1.07-.47-.49-1.45-1.35-1.77-1.6-.32-.25-.36-.43-.22-.5.14-.07.63-.46,1.14-1.1.52-.64.26-1.52-.06-2.06-.32-.54-.83-.74-1.63-.71-.8.03-.94.59-1.02,1.36-.09.76-.04,2.66-.09,3.52-.04.86-.14,2.16-.11,2.67s.82.33.88.11.3-2.98.3-2.98c0,0,2.06,2.06,2.68,2.62.62.56.58.4.75.25.17-.15.24-.31.12-.51ZM523.77,97.53c.08-.32.42-.39.59-.29.17.09.75.29.5,1.06s-.77,1.2-1.05,1.29c0,0-.12-1.73-.04-2.05Z"/>
          <path class="cls-25" d="M495.52,103.16c-.06-.22-.24-.76-.48-1.58-.23-.82-.77-3.01-.85-3.38-.08-.36.03-.71-.14-1.04-.17-.33-.35-.63-.59-.63s-.36.27-.49.7c-.13.43-.67,2.23-.88,2.91,0,0-.06.26-.19.57-.13.31-.28.46-.45.46s-.18.36-.03.44c.15.08.21.4.06.7-.14.3-.41,1.25-.48,1.37-.06.12-.15.84.18.95s.54.01.62-.21c.08-.22.26-.98.45-1.73.19-.75.22-.86.58-.99.36-.13.89-.15,1.06-.14s.24.43.37.94c.13.52.28,1.19.43,1.31s.48.22.71,0c.23-.22.18-.43.12-.64ZM493.6,100.84c-.24-.03-.81,0-.81,0,0,0,.42-1.36.62-1.89,0,0,.37,1.68.39,1.73s.05.19-.2.15Z"/>
          <path class="cls-25" d="M521.9,103.16c-.06-.22-.24-.76-.48-1.58-.23-.82-.77-3.01-.85-3.38-.08-.36.03-.71-.14-1.04-.17-.33-.35-.63-.59-.63s-.36.27-.49.7c-.13.43-.67,2.23-.88,2.91,0,0-.06.26-.19.57-.13.31-.28.46-.45.46s-.18.36-.03.44c.15.08.21.4.06.7-.14.3-.41,1.25-.48,1.37-.06.12-.15.84.18.95s.54.01.62-.21c.08-.22.26-.98.45-1.73.19-.75.22-.86.58-.99.36-.13.89-.15,1.06-.14s.24.43.37.94c.13.52.28,1.19.43,1.31s.48.22.71,0c.23-.22.18-.43.12-.64ZM519.98,100.84c-.24-.03-.81,0-.81,0,0,0,.42-1.36.62-1.89,0,0,.37,1.68.39,1.73s.05.19-.2.15Z"/>
          <path class="cls-25" d="M491.58,103.42c-.12-.2-.49-.58-.96-1.07-.47-.49-1.45-1.35-1.77-1.6-.32-.25-.36-.43-.22-.5.14-.07.63-.46,1.14-1.1.52-.64.26-1.52-.06-2.06-.32-.54-.83-.74-1.63-.71-.8.03-.94.59-1.02,1.36-.09.76-.04,2.66-.09,3.52-.04.86-.14,2.16-.11,2.67s.82.33.88.11.3-2.98.3-2.98c0,0,2.06,2.06,2.68,2.62.62.56.58.4.75.25.17-.15.24-.31.12-.51ZM488.03,97.53c.08-.32.42-.39.59-.29.17.09.75.29.5,1.06s-.77,1.2-1.05,1.29c0,0-.12-1.73-.04-2.05Z"/>
          <path class="cls-25" d="M484.05,97.32s-1.19.15-1.6.17-.96-.1-1.14-.38,0-.48.39-.52.89-.11,1.48-.14.98-.4,1.17-.4.61.26,1.36.14,1.62-.37,2.02-.34.62.58.22.82-2.79.52-2.79.52c0,0-.21,1.98-.21,3.03s-.02,2.97.02,3.1.02.71-.17.79-.87-.05-.9-.84"/>
          <path class="cls-25" d="M508.56,99.12c-.59-1.16-1.74-1.74-2.49-1.98s-.98.09-.89.29c.09.21.45.54.45.54,0,0-.05,3.85-.07,4.82,0,0-.05.63,0,.93.04.3.55.45.73.33.18-.11,1.21-1.01,1.79-1.91s1.09-1.87.5-3.03ZM507.75,100.78c-.23.63-1.19,1.71-1.19,1.71,0,0-.12-3.74.03-4.12,0,0,.89.45,1.07.87.18.42.32.92.09,1.55Z"/>
          <path class="cls-25" d="M479.72,100.66s-.38.52-.73,1.49-.61,1.89-.9,2.13-.85.15-.83-.26.33-1.02.81-2.22,1.15-2.32,1.18-2.44-1.06-1.52-1.2-1.66.05-.41.23-.49.57-.07.94.42.51.67.51.67c0,0,.92-1.77,1.2-1.94s.69-.15.88.08-.37.86-.52,1.14-.95,1.89-.95,1.89c0,0,.14.3.62,1.17s.71,1.43.71,1.53-.15.41-.4.4-.7-.24-.92-.86-.35-.78-.61-1.05Z"/>
          <path class="cls-25" d="M500.25,100.14c-.18-.88-.52-1.64-1.07-1.69-.55-.05-.67-.19-1.02-.44-.36-.24-.73-.04-1.01.22-.28.26-1.13,1.24-1.08,2.36.05,1.12.21,1.42.8,1.92.59.5,1.06.5,1.76.24.71-.26,1.16-.98,1.4-1.47.24-.49.25-1.02.22-1.15ZM499.22,100.25c-.05.3.01.79-.57,1.33-.58.54-.8.58-1.17.28-.37-.3-.46-.67-.45-1.02.01-.35.1-.8.19-.95.09-.14.18-.36.26-.31.08.04.27.21.39.24s.45-.36.54-.48c.09-.12.19-.33.55.06.17.18.31.55.26.85Z"/>
          <path class="cls-25" d="M533.33,100.14c-.18-.88-.52-1.64-1.07-1.69-.55-.05-.67-.19-1.02-.44-.36-.24-.73-.04-1.01.22-.28.26-1.13,1.24-1.08,2.36.05,1.12.21,1.42.8,1.92.59.5,1.06.5,1.76.24.71-.26,1.16-.98,1.4-1.47.24-.49.25-1.02.22-1.15ZM532.3,100.25c-.05.3.01.79-.57,1.33-.58.54-.8.58-1.17.28-.37-.3-.46-.67-.45-1.02.01-.35.1-.8.19-.95.09-.14.18-.36.26-.31.08.04.27.21.39.24s.45-.36.54-.48c.09-.12.19-.33.55.06.17.18.31.55.26.85Z"/>
          <path class="cls-25" d="M511.09,98.62c-.05.41-.28,2.37-.36,3.61s.15,1.78-.49,1.87-.62-.87-.59-1.6.39-2.43.39-3.46-.08-1.79.52-1.83.61.88.54,1.42Z"/>
          <path class="cls-25" d="M528.36,98.62c-.05.41-.28,2.37-.36,3.61s.15,1.78-.49,1.87-.62-.87-.59-1.6.39-2.43.39-3.46-.08-1.79.52-1.83.61.88.54,1.42Z"/>
          <path class="cls-25" d="M513.34,98.81s-.26,1.31-.22,2.27,0,2.85,0,3.29-.25.59-.53.56-.53-.24-.5-.66,0-2.74.09-3.68.19-3.03.26-3.52.05-.97.46-.93.88.77,1.27,1.91,1.22,3.01,1.22,3.01c0,0,.31-2.61.4-3.14s.15-1.1.15-1.27.03-.54.48-.5.46.26.46.5-.43,3.06-.45,4.36-.05,1.82,0,2.54-.93.55-1.13.03-1.96-4.76-1.96-4.76Z"/>
        </g>
        <g>
          <path class="cls-25" d="M416,96.96c-.19-.07-.82,0-1.31.1-.48.1-1.08.33-1.41.45s-1.39.57-1.31,1,.6.45.6.45l-.02,1.13s-.46.09-.46.33.29.46.29.46c0,0,.05.69.05,1.65s.72,1.22,1.51,1.31c.79.09,1.68.1,1.89.1s.33-.27.33-.53-.24-.52-.34-.5-.33.21-.33.21c0,0-.53.14-1.1,0-.57-.14-1.12-.17-1.05-.86.07-.69.09-1.51.5-1.49.41.02,1.06-.05,1.58-.09.52-.03.4-.79.12-.81-.27-.02-.91.03-1.24.1-.33.07-.7-.14-.7-.36s.12-1.1.12-1.1l1.72-.53s.24-.07.7-.26c.46-.19.03-.69-.15-.76Z"/>
          <path class="cls-25" d="M416.96,98.62c-.02-.84.02-1.48,0-1.82s.69-.4.84-.1-.14,5.98-.14,5.98c0,0,1.12-.72,1.48-.93s.77-.21,1.03-.02-.09.52-.46.77-1.72,1.28-2.04,1.43-.91.11-.96-.42.26-4.9.26-4.9Z"/>
        </g>
      </g>
    </g>
  </g>
  <g>
    <line class="cls-19" y1="107.95" x2="612" y2="107.95"/>
    <g>
      <path class="cls-20" d="M26.28,107.74s-6.08-.11-8.74-3.54-3.54-10.5-1.22-13.38,2.21-7.96,1.33-8.96-1.24-1.55-2.67-.88-.87,2.65-1.7,3.32-3.81,1.71-5.53.28-4.26-4.75-1.66-8.29,6.3-5.97,9.23-5.75,6.86,3.1,8.02,5.69,1.66,4.64,1.27,9.4c-.3,3.7-1.44,6.53-1.9,8.38-.13.53-.12,3.32.23,4.41.39,1.21,1.15,2.31,2.67,2.63,0,0,0-5.92.28-8.24s1.55-11.72,3.26-17.64,8.07-20.12,11.28-23c0,0,5.14,3.37,6.47,10.73,0,0,6.19-.44,10.01-.28s8.96,1.77,9.84,1.93c0,0,4.31-8.46,13.16-8.57,0,0,.33.33-.39,1.33s-1.22,3.15-.83,4.2.77,1.77,0,7.74-.77,11.39-1,16.2.39,16.03.72,17.36,1.55,3.1,2.27,4.15.55,2.54-1.6,4.26c0,0-.83-1.77-1.11-1.71s-1.11,1.22-1.55,1.27-1.33-1.27-1.6-1.27-.88,1.77-1.6,1.71-1.11-1.99-1.38-1.93-.77,1.55-1.33,1.6-2.71-2.54-2.38-3.32l.5-.83h-30.41s.28,3.76-1.6,4.15c0,0-1.33-.33-1.38-1.44,0,0-1.27,1.66-1.6,1.66s-1.16-1.55-1.33-1.55-1.55,1.49-1.71,1.49-1.33-1.38-1.49-1.38-1.55,1.27-1.55,1.27c0,0-2.27-1.82-1.27-3.21Z"/>
      <path class="cls-17" d="M36.65,106.08s.86.61.8,1.58-.72,2.16-.8,2.16-1.11-.86-1.11-1.87,1.11-1.87,1.11-1.87Z"/>
      <path class="cls-17" d="M34.6,107.94s-.53,1.78-.97,1.87-1.16-1.24-1.11-1.87.63-2.2,1.04-2.14,1.22,1.59,1.04,2.14Z"/>
      <path class="cls-17" d="M31.78,107.81s-.47,1.9-1.05,2.01-1.13-1.3-1.08-1.75.55-2.18,1.06-2.16,1.07,1.89,1.07,1.89Z"/>
      <path class="cls-17" d="M28.8,107.94s-.22,1.59-.91,1.67-1.08-1.27-1-1.67.64-1.56.83-1.56,1.08,1.56,1.08,1.56Z"/>
      <path class="cls-17" d="M38.11,106.38s-.61-.91-1.3-.94-1.05.64-1.49.64-1.08-1-1.44-1.08-1.38.94-1.66.91,0-1.96-.91-1.96-2.18,2.13-2.18,2.13c0,0-1.55-.17-1.71-.91s-.39-3.29-.41-7.52.58-7.38.58-7.38c0,0,2.87,2.71,6.58,2.74,4.01.03,5.86-.06,8.18-.08s8.02-3.43,9.7-5.67c0,0,3.43,5.53,8.62,6.22s13.02-.19,15.54-1.22c0,0,.14,4.04.53,6.88s.86,5.94,1.19,6.72c0,0-1.3-1.11-1.47-1.11s-1.55,1.22-1.55,1.22c0,0,.36-1.91-.47-2.07s-2.18,1.49-2.54,2.21c0,0-.91-.61-1.52-.61s-1.35.88-1.35.88h-30.9Z"/>
      <g>
        <ellipse class="cls-16" cx="72.03" cy="98.06" rx="1.22" ry="1.47"/>
        <ellipse class="cls-16" cx="64.58" cy="97.33" rx=".87" ry=".95"/>
        <ellipse class="cls-16" cx="64.44" cy="103.85" rx="1.59" ry=".98"/>
        <ellipse class="cls-16" cx="55.67" cy="98.82" rx="1.05" ry=".54"/>
        <circle class="cls-16" cx="53.86" cy="103.2" r="1.4"/>
        <ellipse class="cls-16" cx="47.1" cy="104.01" rx="1" ry=".82"/>
        <ellipse class="cls-16" cx="43.09" cy="97.46" rx="1.52" ry="1.36"/>
        <ellipse class="cls-16" cx="37.67" cy="102.68" rx="1.38" ry="1.22"/>
        <circle class="cls-16" cx="32.83" cy="96.23" r=".93"/>
      </g>
      <path class="cls-7" d="M56.02,94s-1.3.86-2.27,0-1.88-3.37-1.74-6.22c0,0-.69,4.15-2.54,6.11-1.24,1.19-2.21.14-2.52-.14"/>
      <line class="cls-12" x1="28.66" y1="88.97" x2="44.04" y2="86.23"/>
      <line class="cls-12" x1="29.24" y1="84.24" x2="44.04" y2="84.94"/>
      <line class="cls-12" x1="29.24" y1="78.97" x2="44.37" y2="83.91"/>
      <line class="cls-12" x1="60.05" y1="87.18" x2="75.22" y2="90.25"/>
      <line class="cls-12" x1="60.05" y1="85.9" x2="75.22" y2="86.73"/>
      <line class="cls-12" x1="60.25" y1="84.24" x2="75.64" y2="82.95"/>
      <path class="cls-17" d="M55.73,81.7c-1.41-1.4-4.48-1.15-5.76-.73s-3.05,2.23-.91,3.63c1.39.91,2.02,1.72,3.06,1.72,1.42,0,5.02-3.22,3.62-4.62Z"/>
      <g>
        <circle class="cls-17" cx="67.4" cy="79.73" r="2.25"/>
        <circle class="cls-20" cx="67.95" cy="79.73" r=".73"/>
      </g>
      <g>
        <circle class="cls-17" cx="39.54" cy="78.22" r="2.25"/>
        <circle class="cls-20" cx="39.96" cy="78.33" r=".73"/>
      </g>
      <path class="cls-12" d="M70.29,75.53s-2.03-1.87-4.1-.79"/>
      <path class="cls-12" d="M36.64,74.07s2.22-1.87,4.48-.79"/>
      <path class="cls-14" d="M76.09,60.52s.55,4.51-1.16,7.33c0,0-2.38-1.66-4.53-1.85,0,0,1.8-4.51,5.69-5.47Z"/>
      <path class="cls-14" d="M37.23,63.92s2.1-5.83,3.68-6.8c0,0,2.49,3.48,2.35,6.08,0,0-3.95,1.05-6.03.72Z"/>
    </g>
    <g>
      <path class="cls-1" d="M96.49,107.24s1.27-2.93.94-7.8c0,0-3.81-.17-5.25-2.43s-3.87-3.65-4.42-18.02c-.55-14.37,7.85-19.13,13.66-25.65,5.8-6.52,14.1-10.28,18.91-10.23s16.31,3.76,22.17,14.76c5.86,11,6.52,14.43,6.91,21.95s-.55,13.77-3.87,15.37c-2.32,1.33-3.37.22-3.37.22,0,0,.61,7.02,1.38,9.73l.77,2.71-7.74-.39-40.08-.22Z"/>
      <path class="cls-17" d="M134.23,107.13h8.38s-1.86-10.74-2.13-11.73-3.67-2.65-4.09-9.22c0,0-8.59,3.57-14.62-2.46l-.97-.14s-17.5.25-17.62,4.06c-.02.49-.79,4.44-2.65,9-.38.92-2.14,2.28-2.14,2.28l-.21,8.63,36.05-.42Z"/>
      <path class="cls-10" d="M122.92,44.88s-1,11.22,4.75,17.53c5.75,6.3,7.24,3.15,12.11,9.45,4.87,6.3,1.82,11.28-.72,12.94s-5.36,3.48-9.56,2.82-6.88-2.85-8.1-3.9c0,0,5.33-2.57,5.44-4.61s-2.71-4.09-6.03-4.42-5.97,2.38-6.08,4.42,4.6,4.32,5.59,4.54c0,0-4.1,4.97-9.96,4.97s-10.75-.33-11.39-7.68c-.5-5.69,3.43-8.68,6.58-10.95,0,0,7.46-4.87,10.01-10.89s1.66-11.67,1.38-14.48c0,0,5.03-.39,5.97.28Z"/>
      <ellipse class="cls-23" cx="130" cy="80.57" rx=".58" ry=".73"/>
      <circle class="cls-23" cx="133.1" cy="82.65" r=".74"/>
      <ellipse class="cls-23" cx="129.98" cy="84.55" rx=".56" ry=".73"/>
      <circle class="cls-20" cx="112.26" cy="80.64" r=".8"/>
      <circle class="cls-20" cx="112.43" cy="84.46" r=".63"/>
      <ellipse class="cls-20" cx="109.41" cy="82.76" rx=".85" ry=".63"/>
      <g>
        <ellipse class="cls-17" cx="131.01" cy="57.7" rx="3.01" ry="3.15"/>
        <ellipse class="cls-1" cx="130.97" cy="58.57" rx="1.43" ry="1.7"/>
      </g>
      <g>
        <ellipse class="cls-17" cx="110.25" cy="58.89" rx="3.29" ry="3.17"/>
        <circle class="cls-1" cx="110.06" cy="59.37" r="1.67"/>
      </g>
      <path class="cls-4" d="M135.52,80.57s12-.81,18.24-3.3"/>
      <path class="cls-4" d="M135.52,82.19s13.05.69,18.85-.9"/>
      <path class="cls-4" d="M135.52,83.82s15.37,2.68,18.24,2.57"/>
      <path class="cls-4" d="M107.22,80.64s-14.04,2.56-25.6-.18"/>
      <path class="cls-4" d="M107.22,82.76s-14.21,2.09-25.6,2.53"/>
      <path class="cls-4" d="M106.94,83.82s-14.1,5.14-23.88,6.43"/>
      <path class="cls-5" d="M133.83,107.13s-1.46-2.05.31-3.43,2.71-2.87,2.65-3.87-.32-1.27-1.76-1.99-2.55-1.11-2.33-2.32,2.54-4.09,2.54-4.09"/>
      <path class="cls-5" d="M126.68,107.13s1.93-2.99,2.49-4.48-1.33-3.32-1.99-3.7-3.1-3.21.44-5.8"/>
      <path class="cls-5" d="M120.43,107.37s1.27-1.13.83-3.23-4.26-3.37-4.15-5.47,1.55-3.93,2.87-3.81"/>
      <path class="cls-5" d="M111.79,107.37s-.98-2.23-2.14-2.79-3.54-3.1-1.44-4.81,3.62-2.94.35-4.93"/>
      <path class="cls-5" d="M104.95,107.28s0-2.2-1.99-3.09-4.31-1.77-1.99-4.53,2.46-3.38,1.5-4.81"/>
      <g>
        <ellipse class="cls-20" cx="146.25" cy="107.71" rx="1.37" ry="2.49"/>
        <ellipse class="cls-20" cx="143.51" cy="107.85" rx="1.37" ry="2.49"/>
        <ellipse class="cls-20" cx="140.47" cy="107.53" rx="1.66" ry="2.81"/>
        <ellipse class="cls-20" cx="137.48" cy="107.78" rx="1.64" ry="2.42"/>
      </g>
      <g>
        <ellipse class="cls-20" cx="103.42" cy="107.55" rx="1.37" ry="2.49"/>
        <ellipse class="cls-20" cx="100.68" cy="107.69" rx="1.37" ry="2.49"/>
        <ellipse class="cls-20" cx="97.64" cy="107.37" rx="1.66" ry="2.81"/>
        <ellipse class="cls-20" cx="94.65" cy="107.62" rx="1.64" ry="2.42"/>
      </g>
    </g>
    <g>
      <path class="cls-1" d="M161.97,107.46s-.95-3.77.95-13.48,5.72-11.64,5.72-11.64c0,0-1-10.21-.54-15.02s3.52-14.76,7.59-21.02,14.06-12.77,20.4-12.27,8.54,3.77,8.87,5.93-4.69,4.81-6.47,5.68-8.58,5.31-13.77,10.86-9,13.02-8.75,19.57c0,0,6.8-2.4,11.07-2.4,5.43,0,9.66.75,11.32,1.78,0,0,2.49-11.9,7.88-17.95s8.96-10.86,17.62-14.14,14.01-3.48,20.9,3.28c1.62,2.4-1.63,6.55-2.65,7.21-1.33.87-4.52.54-7.21.17s-4.44-.7-8.25.46-11.07,4.35-15.84,11.98-5.14,15.18-5.14,15.18c0,0,2.53,4.35,3.69,10.86s.79,13.85.41,14.76l-47.81.21Z"/>
      <path class="cls-13" d="M163.33,106.08s-.66-8.57,1.33-13.6,4.15-8.4,4.87-9.12.11-3.54,0-4.64-1.88-15.26,4.37-26.7,15.76-16.7,21.84-16.59,7.46,2.99,7.8,4.31-3.76,3.93-6.86,5.47-12.77,8.02-17.25,16.09-5.31,14.71-4.59,17.3c0,0,4.09-3.7,11.89-3.48,7.8.22,12.44,1.99,12.44,1.99,0,0,2.54-14.04,10.23-21.62,7.68-7.57,14.43-12.27,24.55-12.83s9.67,5.2,9.62,6.86-2.32,4.04-4.31,3.98-5.92-1.11-7.74-1-10.06.88-15.2,5.75-9.9,12.33-10.95,17.25-1.38,6.08-.33,7.91,3.43,8.57,3.54,11.22.28,12.27.28,12.27l-45.39-.06-.11-.77Z"/>
      <path class="cls-1" d="M171.68,76.44s-.39-10.17,2.65-17.36,10.56-19.35,17.3-19.52,2.16,3.48-.33,4.98-10.84,8.29-13.1,13.82-4.53,8.62-6.52,18.08Z"/>
      <path class="cls-1" d="M202.52,75.49s.54-7.67,5.27-14.84,12.19-12.94,19.03-14.26,10.66,1.37,10.91,2.9-3.11,1.16-4.1,1.16-6.22-.25-10.12,1.41-9.91,4.85-13.39,10.45c-3.48,5.6-6.43,9.5-7.59,13.19Z"/>
      <ellipse class="cls-1" cx="197.62" cy="79.68" rx=".87" ry=".97"/>
      <ellipse class="cls-1" cx="188.67" cy="80.4" rx=".73" ry="1"/>
      <ellipse class="cls-1" cx="180.21" cy="79.53" rx=".65" ry=".54"/>
      <circle class="cls-1" cx="173.59" cy="80.67" r=".44"/>
      <circle class="cls-1" cx="184.19" cy="85.97" r=".59"/>
      <circle class="cls-1" cx="168.6" cy="92.91" r=".9"/>
      <circle class="cls-1" cx="178.37" cy="97.07" r=".47"/>
      <circle class="cls-1" cx="176.03" cy="98.37" r=".48"/>
      <ellipse class="cls-1" cx="177.96" cy="99.8" rx=".53" ry=".66"/>
      <circle class="cls-1" cx="190.52" cy="96.91" r=".62"/>
      <ellipse class="cls-1" cx="192.58" cy="98.12" rx=".47" ry=".58"/>
      <ellipse class="cls-1" cx="190.4" cy="99.35" rx=".64" ry=".5"/>
      <circle class="cls-1" cx="203.5" cy="90.18" r=".91"/>
      <circle class="cls-1" cx="193.33" cy="104.65" r=".91"/>
      <circle class="cls-1" cx="176.85" cy="104.99" r=".91"/>
      <circle class="cls-1" cx="166.79" cy="103.44" r=".91"/>
      <line class="cls-8" x1="200.4" y1="85.12" x2="198.14" y2="86.47"/>
      <line class="cls-8" x1="200.82" y1="88.2" x2="198.41" y2="88.2"/>
      <line class="cls-8" x1="199.15" y1="91.56" x2="197.67" y2="90.18"/>
      <line class="cls-8" x1="195.53" y1="93.28" x2="195.53" y2="91.39"/>
      <line class="cls-8" x1="191.9" y1="92.49" x2="193.33" y2="90.75"/>
      <line class="cls-8" x1="189.6" y1="89.53" x2="192.05" y2="88.74"/>
      <line class="cls-8" x1="190.82" y1="84.86" x2="192.79" y2="86.39"/>
      <line class="cls-8" x1="193.91" y1="82.39" x2="194.64" y2="85.42"/>
      <line class="cls-8" x1="197.52" y1="82.95" x2="196.13" y2="85.79"/>
      <circle class="cls-18" cx="195.16" cy="88.2" r="2.99"/>
      <ellipse class="cls-1" cx="195.12" cy="88.2" rx="1.02" ry=".77"/>
      <line class="cls-6" x1="181.08" y1="85.48" x2="177.85" y2="87.17"/>
      <line class="cls-6" x1="181.61" y1="88.7" x2="177.74" y2="88.5"/>
      <line class="cls-6" x1="179.95" y1="91.84" x2="177.46" y2="89.67"/>
      <line class="cls-6" x1="176.27" y1="93.28" x2="176.27" y2="90.49"/>
      <line class="cls-6" x1="172.95" y1="92.49" x2="174.69" y2="90.24"/>
      <line class="cls-6" x1="170.69" y1="89.67" x2="173.7" y2="88.74"/>
      <line class="cls-6" x1="171.32" y1="84.86" x2="174.03" y2="87.17"/>
      <line class="cls-6" x1="174.69" y1="82.66" x2="175.44" y2="86.56"/>
      <line class="cls-6" x1="178.15" y1="83.58" x2="176.85" y2="86.56"/>
      <ellipse class="cls-18" cx="175.88" cy="88.5" rx="2.74" ry="2.68"/>
      <circle class="cls-1" cx="175.88" cy="88.7" r=".97"/>
      <g>
        <ellipse class="cls-1" cx="184.3" cy="95.44" rx="3.57" ry="1.58"/>
        <path class="cls-9" d="M187.04,100.02s.55.33.58.97-.64.8-1.19.77-1.63-1.27-2.13-2.07c.08-.64,0-3.04,0-3.04l-.14-.3.14,2.85s-1.13,2.19-1.52,2.57-2.71.22-1.41-1.72"/>
      </g>
      <g>
        <path class="cls-17" d="M204.79,110.66c-.22,0-.45-.05-.69-.15-.33-.14-.55-.34-.7-.55-.02.02-.04.04-.06.06-.33.29-.63.57-1.1.57-.08,0-.18-.01-.26-.03-.3-.05-1.07-.18-1.5-.88-.19-.32-.37-.86-.12-1.63.48-1.49,3.07-2.4,4.16-2.72.09-.03.19-.04.28-.04.08,0,.16,0,.23.03,2.83.68,3.57,1.42,4.1,2.11.03.04.06.09.09.12.38.37.48.92.27,1.43-.29.7-1.12,1.27-1.85,1.27h0c-.55,0-1.02-.3-1.25-.79-.02,0-.05,0-.07,0-.3.55-.69,1.2-1.54,1.2Z"/>
        <path class="cls-1" d="M204.8,106.28c3.26.78,3.31,1.57,3.72,1.98.31.31-.4.99-.88.99-.16,0-.29-.07-.36-.25-.14-.37-.52-.55-.9-.55s-.74.16-.89.45c-.25.47-.39.76-.7.76-.09,0-.19-.02-.31-.07-.55-.23-.32-.92-.83-.92s-1.21.92-1.41.92c0,0,0,0-.01,0-.18-.05-1.29-.09-.92-1.24s3.49-2.07,3.49-2.07M204.8,104.28c-.19,0-.38.03-.56.08-1.89.56-4.26,1.59-4.83,3.38-.36,1.14-.08,1.97.22,2.46.44.73,1.18,1.18,2.19,1.35-.02,0-.05-.01-.08-.02.16.04.34.06.5.06.46,0,.83-.14,1.13-.33.11.06.22.12.35.17.37.15.72.23,1.07.23.77,0,1.32-.33,1.7-.71.34.19.74.29,1.15.29,1.14,0,2.33-.81,2.78-1.89.36-.88.19-1.82-.45-2.48l-.04-.05c-.77-1.03-1.82-1.81-4.66-2.49-.15-.04-.31-.05-.47-.05h0Z"/>
      </g>
      <g>
        <path class="cls-17" d="M166.3,110.77c-.84,0-1.22-.64-1.48-1.09-.01,0-.02,0-.04,0-.24.44-.68.71-1.2.71-.73,0-1.55-.55-1.82-1.23-.17-.44-.11-.89.16-1.24l.04-.08c.31-.73,1.27-2.95,4.21-2.95,2.25,0,3.71,1.1,4.34,3.26l.04.12c.25.73.08,1.25-.11,1.55-.42.69-1.19.81-1.48.86-.05,0-.19.03-.25.03-.44,0-.74-.25-1.06-.52-.01-.01-.03-.02-.04-.04-.15.19-.36.37-.66.49-.23.09-.45.14-.66.14Z"/>
        <path class="cls-1" d="M166.17,105.89c2.88,0,3.26,2.18,3.43,2.7.35,1.04-.7,1.08-.87,1.12,0,0,0,0-.01,0-.19,0-.87-.83-1.34-.83s-.26.62-.79.83c-.12.05-.21.07-.29.07-.3,0-.43-.27-.67-.69-.15-.26-.5-.41-.85-.41-.36,0-.72.16-.85.49-.06.16-.19.23-.34.23-.46,0-1.13-.61-.84-.89.2-.18.67-2.61,3.43-2.61M166.17,103.89c-2.39,0-4.11,1.19-5.13,3.54-.41.61-.49,1.38-.21,2.1.42,1.06,1.6,1.87,2.75,1.87.39,0,.76-.09,1.09-.26.38.35.9.64,1.63.64.34,0,.67-.07,1.03-.2.12-.05.22-.1.33-.15.29.17.64.29,1.07.29.13,0,.27-.01.4-.04,1.02-.16,1.75-.61,2.19-1.33.24-.4.59-1.24.2-2.39l-.02-.08c-.96-3.29-3.41-3.98-5.3-3.98h0Z"/>
      </g>
      <line class="cls-9" x1="196.83" y1="97.07" x2="215.85" y2="90.87"/>
      <line class="cls-9" x1="197.52" y1="99.14" x2="216.68" y2="96.29"/>
      <line class="cls-9" x1="197.67" y1="100.71" x2="216.68" y2="101.38"/>
      <line class="cls-9" x1="172.68" y1="100.22" x2="153.16" y2="102.26"/>
      <line class="cls-9" x1="172.68" y1="98.37" x2="153.16" y2="98.12"/>
      <line class="cls-9" x1="172.68" y1="97.34" x2="153.16" y2="93.86"/>
    </g>
    <g>
      <path class="cls-20" d="M232.58,107.46l54.32.12s.25-11.98-.12-19.07c-.37-7.09-.33-12.36-.33-12.36,0,0,2.2,2.57,4.23,3.07s4.19.41,5.43-2.53-1.58-9.91-4.1-14.31-8.5-9.79-17.75-9.74-20.03.04-21.31,0-14.1-.33-20.57,7.38c-6.47,7.71-8.38,17.29-7.92,19.49s2.99,3.11,4.6,3.11,4.1-1.45,4.1-1.45c0,0-.33,23.84-.58,26.29Z"/>
      <g>
        <ellipse class="cls-17" cx="245.85" cy="65.21" rx="1.37" ry="1.58"/>
        <circle class="cls-20" cx="245.85" cy="65.35" r=".62"/>
      </g>
      <path class="cls-17" d="M253.43,53.97s2.16,5.09,1,10.76-3.4,9.31-8.58,13.42-11.07,5.22-11.07,5.22l-.87,23.14,3.9.4,3.28.55,36.41.1,2.24-.97.79-1.12s-2.57-.79-3.98-2.07-1.62-2.9-1.58-4.1,2.36-3.44,5.18-5.06c2.82-1.62,4.77-3.23,4.98-4.31s-.21-10.12-.25-12.61-.46-5.72.58-5.56.66,1.12,2.24,2.9,3.28,3.36,4.98,3.36,3.03-2.07,2.11-5.89-4.23-10.28-7.42-13.43c-3.19-3.15-10.49-4.35-14.93-4.81s-18.99.08-18.99.08Z"/>
      <path class="cls-1" d="M276.07,58.78c1.06.15,5.27,1.91,5.8,6.34.54,4.44-2.65,6.84-5.39,6.88s-6.63-2.36-7.5-7.21,2.57-5.97,3.44-6.01,3.07-.08,3.65,0Z"/>
      <g>
        <ellipse class="cls-17" cx="275.39" cy="64.73" rx="1.37" ry="1.58"/>
        <circle class="cls-20" cx="275.39" cy="64.87" r=".62"/>
      </g>
      <ellipse class="cls-15" cx="260.71" cy="86.28" rx="17.14" ry="10.79"/>
      <circle class="cls-1" cx="269.69" cy="83.06" r=".82"/>
      <ellipse class="cls-1" cx="271.5" cy="86.62" rx=".75" ry=".94"/>
      <circle class="cls-1" cx="268.1" cy="86.73" r=".77"/>
      <ellipse class="cls-1" cx="268.73" cy="89.3" rx=".64" ry=".8"/>
      <circle class="cls-1" cx="252.31" cy="84.16" r=".69"/>
      <circle class="cls-1" cx="250.24" cy="86.73" r=".77"/>
      <circle class="cls-1" cx="253.59" cy="87.31" r=".58"/>
      <circle class="cls-1" cx="251.82" cy="90.11" r=".81"/>
      <ellipse class="cls-1" cx="260.52" cy="83.09" rx="5.58" ry="4.22"/>
      <line class="cls-2" x1="260.97" y1="86.28" x2="260.71" y2="93.8"/>
      <path class="cls-11" d="M255.27,91.65s4.7,5.03,10.84,0"/>
      <g>
        <path class="cls-9" d="M273.34,88.5s14.26,1.51,19.45.8"/>
        <path class="cls-9" d="M273.34,85.95s11.78.53,18.95-1.13"/>
        <path class="cls-9" d="M273.34,84.16s12.81-1.87,18.29-3.73"/>
      </g>
      <g>
        <path class="cls-9" d="M247.67,84.16s-17.04,1.41-21.56-.33"/>
        <path class="cls-9" d="M247.67,86.52s-9.12,3.11-21.35,2.16"/>
        <path class="cls-9" d="M247.67,88.68s-13.31,5.51-20.36,5.51"/>
      </g>
      <g>
        <ellipse class="cls-18" cx="277.88" cy="107.43" rx="1.49" ry="2.57"/>
        <ellipse class="cls-18" cx="280.87" cy="107.56" rx="1.49" ry="2.57"/>
        <ellipse class="cls-18" cx="284.19" cy="107.43" rx="1.49" ry="2.57"/>
        <ellipse class="cls-18" cx="287.17" cy="107.43" rx="1.49" ry="2.57"/>
      </g>
      <g>
        <ellipse class="cls-18" cx="232.88" cy="107.34" rx="1.49" ry="2.57"/>
        <ellipse class="cls-18" cx="235.86" cy="107.46" rx="1.49" ry="2.57"/>
        <ellipse class="cls-18" cx="238.98" cy="107.46" rx="1.49" ry="2.57"/>
        <ellipse class="cls-18" cx="241.97" cy="107.46" rx="1.49" ry="2.57"/>
      </g>
    </g>
  </g>
</svg>