<?xml version="1.0" encoding="UTF-8" standalone="no"?>
<svg
   id="Capa_1"
   version="1.1"
   viewBox="0 0 160 95"
   sodipodi:docname="EligeElTamanoDeTuHistoria.svg"
   inkscape:version="1.4.3 (0d15f75042, 2025-12-25)"
   xmlns:inkscape="http://www.inkscape.org/namespaces/inkscape"
   xmlns:sodipodi="http://sodipodi.sourceforge.net/DTD/sodipodi-0.dtd"
   xmlns="http://www.w3.org/2000/svg"
   xmlns:svg="http://www.w3.org/2000/svg">
  <sodipodi:namedview
     id="namedview27"
     pagecolor="#ffffff"
     bordercolor="#000000"
     borderopacity="0.25"
     inkscape:showpageshadow="2"
     inkscape:pageopacity="0.0"
     inkscape:pagecheckerboard="0"
     inkscape:deskcolor="#d1d1d1"
     inkscape:zoom="4.325"
     inkscape:cx="80"
     inkscape:cy="47.514451"
     inkscape:window-width="1366"
     inkscape:window-height="702"
     inkscape:window-x="0"
     inkscape:window-y="0"
     inkscape:window-maximized="1"
     inkscape:current-layer="Capa_1" />
  <!-- Generator: Adobe Illustrator 29.3.1, SVG Export Plug-In . SVG Version: 2.1.0 Build 151)  -->
  <defs
     id="defs1">
    <style
       id="style1">
      .st0 {
        fill: #fff;
      }

      .st1 {
        fill: #e95428;
      }

      .st2 {
        fill: #869e7f;
      }
    </style>
  </defs>
  <g
     id="g28">
    <g
       id="g8">
      <path
         class="st1"
         d="M75.59,0l.4.58c-1.16.94-1.7,1.58-2.22,3.03l-.17-.77.91.87c.62.55.81,1.04.81,1.58,0,.85-.46,1.24-1.19,1.24-.42,0-.79-.11-1.12-.43-.17-.45-.27-.96-.27-1.49,0-1.85,1.31-3.56,2.85-4.6ZM79.79,0l.4.58c-1.16.94-1.7,1.58-2.22,3.03l-.17-.77.91.87c.62.55.81,1.04.81,1.58,0,.85-.46,1.24-1.18,1.24-.42,0-.79-.11-1.12-.43-.17-.45-.27-.96-.27-1.49,0-1.85,1.31-3.56,2.85-4.6Z"
         id="path1" />
      <path
         class="st1"
         d="M81.29,2.56v-.85h2.91v1.17h-.21l-2.7-.32ZM84.2,14.81v1.17h-2.91v-.85l2.7-.32h.21ZM83.26,8.31c0-2.2,0-4.41-.06-6.61h2c-.06,2.15-.06,4.37-.06,6.61v.81c0,2.45,0,4.67.06,6.86h-2c.06-2.15.06-4.37.06-6.61v-1.07ZM89.96,1.71l.93,1.07h-6.69v-1.07h7.42l.15,3.79h-1.16l-.64-3.79ZM88.9,9.19h-4.7v-.98h4.7v.98ZM92.18,12.19l-.15,3.79h-7.84v-1.07h7.11l-.94,1.07.64-3.79h1.16ZM88.23,8.42l.31-2.26h.94v5.05h-.94l-.31-2.37v-.43Z"
         id="path2" />
      <path
         class="st1"
         d="M96.61.21l.29.17-.08,3.03v8.1c0,1.49.02,2.98.06,4.48h-1.79c.04-1.49.06-2.98.06-4.48V2.13l-1.73-.21v-.75l3.18-.96ZM98.54,15.24v.75h-5.11v-.75l2.35-.43h.42l2.35.43Z"
         id="path3" />
      <path
         class="st1"
         d="M101.37,15.99c.04-.96.06-3.15.06-4.48v-1c0-1.17-.02-1.83-.06-2.69l-1.7-.19v-.75l3.14-1.28.31.21-.06,2.88v2.81c0,1.32.02,3.52.06,4.48h-1.75ZM104.57,15.24v.75h-4.78v-.75l2.29-.43h.42l2.08.43ZM100.85,1.85c0-.81.6-1.34,1.37-1.34s1.37.53,1.37,1.34-.6,1.34-1.37,1.34-1.37-.55-1.37-1.34Z"
         id="path4" />
      <path
         class="st1"
         d="M113.88,17.95c0-.96-.58-1.68-2.1-1.68h-2.45c-.35,0-.73-.02-1.04-.06v-.06c-1.06-.23-1.6-.79-1.6-1.68,0-.75.48-1.56,1.89-2.81l.46.32c-.62.68-.89,1.15-.89,1.79,0,.58.23.96,1.21.96h2.74c2.23,0,3.28,1,3.28,2.73,0,1.83-1.7,3.67-5.07,3.67-2.99,0-4.3-1.07-4.3-2.6,0-1.04.64-1.83,2.74-2.75l.1.13c-.83.83-1.16,1.47-1.16,2.3,0,1.41,1.06,1.96,2.68,1.96,2.29,0,3.51-.98,3.51-2.2ZM110.22,5.61c2.12,0,3.7,1.15,3.7,3.5s-1.62,3.5-3.72,3.5-3.72-1.15-3.72-3.5,1.62-3.5,3.74-3.5ZM108.1,9.12c0,1.56.75,2.62,2.04,2.62,1.35,0,2.16-1.13,2.16-2.71s-.75-2.58-2.06-2.58-2.14,1.11-2.14,2.66ZM115.17,5.61l.31.21v1.32h-3.06v-.58l2.74-.96Z"
         id="path5" />
      <path
         class="st1"
         d="M125.29,9.68c0,.49-.06.92-.15,1.19h-7.67v-.9h4.95c1,0,1.23-.49,1.23-1.09,0-1.22-1-2.32-2.31-2.32s-2.87,1.15-2.87,4.2c0,2.71,1.33,4.16,3.41,4.16,1.33,0,2.16-.62,2.91-1.51l.48.38c-.75,1.51-2.08,2.47-3.97,2.47-2.79,0-4.59-1.98-4.59-5.22s2.16-5.44,4.74-5.44c2.14,0,3.85,1.49,3.85,4.07Z"
         id="path6" />
      <path
         class="st1"
         d="M140.73,9.68c0,.49-.06.92-.14,1.19h-7.67v-.9h4.95c1,0,1.23-.49,1.23-1.09,0-1.22-1-2.32-2.31-2.32s-2.87,1.15-2.87,4.2c0,2.71,1.33,4.16,3.41,4.16,1.33,0,2.16-.62,2.91-1.51l.48.38c-.75,1.51-2.08,2.47-3.97,2.47-2.79,0-4.59-1.98-4.59-5.22s2.16-5.44,4.74-5.44c2.14,0,3.85,1.49,3.85,4.07Z"
         id="path7" />
      <path
         class="st1"
         d="M145.27.21l.29.17-.08,3.03v8.1c0,1.49.02,2.98.06,4.48h-1.79c.04-1.49.06-2.98.06-4.48V2.13l-1.73-.21v-.75l3.18-.96ZM147.2,15.24v.75h-5.11v-.75l2.35-.43h.42l2.35.43Z"
         id="path8" />
    </g>
    <g
       id="g14">
      <path
         class="st2"
         d="M48.63,5.41c-.28.35-.63.52-1.07.52-.12,0-.53-.11-1.22-.33-.69-.22-1.34-.33-1.93-.33-1.9,0-4.06.1-6.47.3-2.41.2-4.41.49-6,.85.12,1.95.23,5.03.33,9.23.1,4.2.15,8.62.15,13.25,0,1.95-.03,4.12-.09,6.52-.06,2.4-.15,3.88-.27,4.45-.08.45-.35.81-.8,1.1-.46.28-.92.43-1.4.43-.28,0-.52-.12-.71-.37-.2-.24-.3-.53-.3-.85l.06-2.13c.24-3.17.36-7.07.36-11.7,0-3.33-.04-7.14-.12-11.42-.08-4.28-.16-6.93-.24-7.95-7.92.89-13.2,1.73-15.86,2.5-.48.16-1.01.24-1.6.24-.71,0-1.41-.26-2.08-.79-.67-.53-1.01-1.1-1.01-1.71,0-.41.12-.7.36-.88s.53-.27.89-.27c2.26-.12,4.16-.24,5.7-.37,3.52-.32,7.96-.83,13.3-1.52,0-1.26.03-2.15.09-2.68.06-.53.19-.79.39-.79.75,0,1.43.3,2.02.91.12.12.22.44.3.94.08.51.12.84.12,1.01.87-.04,2.3-.24,4.28-.61,4.28-.69,7.21-1.04,8.79-1.04,1.9,0,3.17.24,3.8.73.44.33.65.91.65,1.77,0,.33-.14.66-.42,1.01Z"
         id="path9" />
      <path
         class="st2"
         d="M69.72,39.54c.19.21.29.39.29.53,0,.34-.14.73-.41,1.16-.27.44-.55.65-.82.65-.47,0-.82-.3-1.07-.89-.25-.59-.37-1.28-.37-2.07,0-.68.04-2.7.12-6.08l.04-1.61c0-.65-.16-1.11-.49-1.39-1.24,2.14-2.39,4-3.46,5.58-1.07,1.58-2.43,3.06-4.08,4.46-1.65,1.39-3.38,2.09-5.19,2.09-.88,0-1.56-.28-2.04-.84-.48-.56-.72-1.3-.72-2.2,0-1.13.49-2.67,1.48-4.63.99-1.96,2.25-3.94,3.79-5.96,1.54-2.01,3.08-3.67,4.61-4.96,1.02-.84,1.83-1.42,2.43-1.71.6-.3,1.14-.44,1.61-.44.44,0,.89.14,1.36.42.47.28.87.68,1.19,1.18.33.51.49,1.08.49,1.73,0,.87-.23,1.7-.7,2.49l.7-.21c.3,0,.48.38.54,1.14.03.45.06,1.37.1,2.75.04,1.38.08,2.52.1,3.42.03.93.05,1.83.08,2.7.03.87.05,1.56.08,2.07.03.2.14.4.33.61ZM59.13,38c1.37-1.13,2.6-2.47,3.69-4.04,1.08-1.56,2.29-3.49,3.6-5.77.33-.84.49-1.76.49-2.75,0-.59-.17-1.11-.51-1.54-.34-.44-.8-.66-1.38-.66-.69,0-1.57.48-2.64,1.44-1.24,1.07-2.54,2.5-3.91,4.29-1.37,1.79-2.51,3.56-3.42,5.3-.91,1.75-1.36,3.13-1.36,4.14,0,.84.38,1.27,1.15,1.27,1.48,0,2.91-.56,4.28-1.69Z"
         id="path10" />
      <path
         class="st2"
         d="M99.78,42.07c-.22.24-.51.36-.87.36-.49,0-.74-.25-.74-.76,0-5.69-.18-10.05-.54-13.08-.36-3.03-.98-4.54-1.85-4.54-1.48,0-3.65,5.31-6.51,15.93v.04c0,.34-.11.63-.33.87-.22.24-.51.36-.87.36-.49,0-.74-.25-.74-.76,0-1.13.06-2.87.17-5.24.11-2.65.16-4.73.16-6.25,0-2.11-.06-3.61-.19-4.5-.12-.89-.39-1.33-.8-1.33-.93,0-2.11,1.75-3.54,5.26s-2.92,7.64-4.49,12.4l-.37,1.1c-.11.28-.27.52-.47.72-.21.2-.43.3-.68.3-.33,0-.55-.03-.66-.08-.11-.06-.18-.23-.21-.51-.14-1.38-.25-3.22-.33-5.54-.06-.59-.11-1.56-.16-2.92-.27-4.76-.52-7.98-.74-9.65-.22-1.68-.33-2.61-.33-2.81,0-.23.11-.49.33-.8.22-.31.43-.47.62-.47.44,0,.8.32,1.07.97.14.31.29,1.55.45,3.72.16,2.17.3,4.86.41,8.07l.21,6.46c1.51-4.79,3.07-9.13,4.7-13.03,1.62-3.9,3.1-5.85,4.45-5.85.91,0,1.52.68,1.85,2.03s.49,3.31.49,5.87c0,1.35-.03,3.3-.08,5.83l-.04,1.94c1.13-4.03,2.24-7.41,3.36-10.14,1.11-2.73,2.23-4.1,3.36-4.1,2.83,0,4.24,6.42,4.24,19.27,0,.34-.11.63-.33.87Z"
         id="path11" />
      <path
         class="st2"
         d="M122.36,39.54c.19.21.29.39.29.53,0,.34-.14.73-.41,1.16-.27.44-.55.65-.82.65-.47,0-.82-.3-1.07-.89s-.37-1.28-.37-2.07c0-.68.04-2.7.12-6.08l.04-1.61c0-.65-.16-1.11-.49-1.39-1.24,2.14-2.39,4-3.46,5.58-1.07,1.58-2.43,3.06-4.08,4.46-1.65,1.39-3.38,2.09-5.19,2.09-.88,0-1.56-.28-2.04-.84-.48-.56-.72-1.3-.72-2.2,0-1.13.5-2.67,1.48-4.63.99-1.96,2.25-3.94,3.79-5.96,1.54-2.01,3.07-3.67,4.61-4.96,1.02-.84,1.83-1.42,2.43-1.71.6-.3,1.14-.44,1.61-.44.44,0,.89.14,1.36.42.47.28.87.68,1.19,1.18s.49,1.08.49,1.73c0,.87-.23,1.7-.7,2.49l.7-.21c.3,0,.48.38.54,1.14.03.45.06,1.37.1,2.75.04,1.38.07,2.52.1,3.42.03.93.06,1.83.08,2.7.03.87.06,1.56.08,2.07.03.2.14.4.33.61ZM111.77,38c1.37-1.13,2.6-2.47,3.69-4.04s2.29-3.49,3.6-5.77c.33-.84.5-1.76.5-2.75,0-.59-.17-1.11-.52-1.54s-.8-.66-1.38-.66c-.69,0-1.56.48-2.64,1.44-1.24,1.07-2.54,2.5-3.91,4.29-1.37,1.79-2.51,3.56-3.42,5.3-.91,1.75-1.36,3.13-1.36,4.14,0,.84.38,1.27,1.15,1.27,1.48,0,2.91-.56,4.28-1.69Z"
         id="path12" />
      <path
         class="st2"
         d="M140.48,42.79c-.28.24-.6.36-.99.36-.27,0-.51-.06-.7-.19-.19-.13-.29-.3-.29-.53,0-1.15.08-2.94.25-5.37.16-2.59.25-4.75.25-6.46s-.05-3.02-.14-4.08-.32-1.58-.68-1.58c-.93,0-1.96,1.19-3.07,3.57-1.11,2.38-2.38,5.51-3.81,9.4l-.62,1.69c-.11.28-.3.51-.56.68-.26.17-.53.25-.8.25-.33,0-.55-.03-.66-.08-.11-.06-.18-.23-.21-.51l-.33-3.46-.62-6.08c-.19-2.42-.43-4.53-.7-6.34-.08-.42-.12-.75-.12-.97,0-.42.18-.77.54-1.04.36-.27.77-.4,1.24-.4.27,0,.47.68.6,2.03.12,1.35.25,3.54.39,6.55l.16,2.24c.22,2.85.34,4.65.37,5.41.08-.17.16-.36.23-.57s.16-.44.27-.7c1.48-3.94,2.88-7.23,4.18-9.87,1.3-2.63,2.56-3.95,3.77-3.95.85,0,1.43.74,1.75,2.22.31,1.48.51,3.37.6,5.68.08,2.56.12,6.31.12,11.24,0,.34-.14.63-.41.87ZM140.79,16.98c-.34.69-.8,1.26-1.36,1.71-.56.45-1.15.68-1.75.68-.63,0-1.19-.16-1.67-.49-.48-.32-1.06-.8-1.75-1.42-.55-.51-.99-.87-1.32-1.1-.33-.23-.67-.34-1.03-.34-1.26,0-2.28.8-3.05,2.41-.06.11-.1.26-.14.44-.04.18-.1.32-.17.42-.07.1-.16.15-.27.15-.19,0-.38-.08-.56-.23-.18-.15-.27-.34-.27-.57,0-.56.18-1.14.54-1.73.49-.82,1.11-1.48,1.85-1.99.74-.51,1.52-.76,2.35-.76.49,0,.93.13,1.32.4.38.27.88.7,1.48,1.29.58.59,1.07,1.04,1.48,1.33.41.3.88.44,1.4.44.47,0,.81-.15,1.03-.44.22-.3.39-.61.51-.95.12-.34.2-.56.23-.68.27-.68.56-1.01.86-1.01.19,0,.37.04.54.11.16.07.25.16.25.27,0,.68-.17,1.36-.51,2.05Z"
         id="path13" />
      <path
         class="st2"
         d="M158.81,36.69c-.8,1.44-1.92,2.67-3.38,3.7-1.46,1.03-3.12,1.54-4.98,1.54s-3.2-.52-4.08-1.56c-.88-1.04-1.32-2.34-1.32-3.89,0-1.35.24-3.03.72-5.03.48-2,1.16-3.79,2.04-5.37.06-.11.28-.53.68-1.25.4-.72.84-1.27,1.34-1.65.49-.38,1.02-.57,1.56-.57.25,0,.47.06.68.19s.31.29.31.49c0,.06-.08.19-.23.4-.15.21-.27.37-.35.49-.93,1.16-1.69,2.3-2.27,3.42-.77,1.44-1.37,2.86-1.79,4.27-.43,1.41-.64,2.94-.64,4.61,0,2.23,1.32,3.34,3.95,3.34,1.24,0,2.38-.37,3.44-1.1s1.9-1.63,2.53-2.68.95-2.02.95-2.89c0-.99-.32-1.84-.95-2.58-.63-.73-1.5-1.51-2.6-2.32-.71-.53-1.24-.97-1.56-1.31-.33-.34-.49-.62-.49-.84,0-.34.23-.61.7-.82.47-.21,1.02-.32,1.65-.32.36,0,.59.02.7.06.11.04.16.12.16.23,0,.06-.05.15-.14.27-.1.13-.14.23-.14.32s.27.37.82.84c1.1.93,2.02,1.87,2.76,2.83.74.96,1.11,2.08,1.11,3.38,0,1.1-.4,2.37-1.19,3.8Z"
         id="path14" />
    </g>
    <g
       id="g22">
      <path
         class="st2"
         d="M36.94,71.3c-.71.24-1.57.4-2.58.46s-1.67.09-1.99.09c-.04,1.26-.12,2.66-.24,4.2-.12,1.54-.22,2.82-.3,3.84l-.18,1.89-.12,1.95-.36,4.69c-.16,2.07-.81,3.11-1.96,3.11-.44,0-.86-.52-1.28-1.55-.42-1.03-.62-1.88-.62-2.53,0-.16.16-.49.47-.98.32-.49.51-1.1.59-1.83.16-1.14.34-3.03.53-5.67.2-2.64.34-4.85.42-6.64-1.54.12-3.21.31-4.99.55-.79.08-2.57.27-5.35.55-2.77.28-4.95.47-6.53.55-.16,2.68-.34,5.95-.53,9.81-.2,3.86-.3,6.21-.3,7.07,0,.32.05.75.15,1.28.1.53.15.93.15,1.22,0,.37-.27.73-.8,1.1-.53.36-.96.55-1.28.55-.4,0-.72-.26-.98-.79-.26-.53-.39-1.14-.39-1.83,0-.37.04-.97.12-1.8.08-.83.14-1.55.18-2.16.16-1.1.26-1.99.3-2.68.2-2.39.36-4.71.47-6.94.12-2.23.2-3.74.24-4.51-2.49.45-4.85.67-7.07.67-.75,0-1.4-.19-1.93-.58-.53-.39-.8-.94-.8-1.67,0-.53.13-.92.39-1.19.26-.26.78-.4,1.57-.4l3.15.06c2.06.08,3.72.12,4.99.12.2-3.45.3-6.22.3-8.29,0-4.71-.04-8.93-.12-12.67v-2.26c0-.61.23-1.11.68-1.49.46-.39.98-.58,1.57-.58.43,0,.73.35.89,1.04.16.69.24,1.46.24,2.31s-.1,2.72-.3,5.48c-.24,4.71-.36,7.21-.36,7.49l-.3,8.71c3.33-.08,8.97-.61,16.93-1.58.16-1.18.43-4.26.83-9.26.16-2.64.3-4.57.42-5.79l.36-4.75c.51-5.97.77-9.71.77-11.21,0-.53.2-.95.59-1.28.4-.32.85-.49,1.37-.49.71,0,1.07.71,1.07,2.13,0,.89-.2,3.27-.59,7.13-.44,5.04-.67,7.84-.71,8.41-.24,3.13-.47,6.11-.68,8.95-.22,2.84-.37,4.75-.45,5.73.71-.12,1.35-.31,1.9-.55.71-.24,1.27-.37,1.66-.37s.85.24,1.37.73c.51.49.77.83.77,1.03,0,.65-.46,1.12-1.37,1.4Z"
         id="path15" />
      <path
         class="st2"
         d="M45.15,60.65c-.47,0-.94-.2-1.42-.59-.48-.4-.72-.72-.72-.97,0-.31.14-.6.43-.89.29-.28.58-.42.89-.42.41.14.75.37,1.03.68.22.22.47.52.74.89.27.37.41.59.41.67,0,.42-.45.63-1.36.63ZM47.19,87.25c-.23.15-.5.22-.8.19-.39-.03-.67-.66-.84-1.9-.18-1.24-.36-3.59-.56-7.06-.11-2.28-.21-4.51-.29-6.7-.08-2.18-.14-3.86-.16-5.05,0-.31.05-.54.14-.7.1-.15.28-.23.56-.23.63,0,1.03.27,1.19.8.16.54.25,1.56.25,3.08l-.04,4.99c0,2.85.08,5.13.25,6.85,0,.08.12.99.37,2.7.19,1.18.29,1.97.29,2.37,0,.28-.12.5-.35.66Z"
         id="path16" />
      <path
         class="st2"
         d="M66.13,84.13c-.98,1.14-2.26,2.06-3.85,2.75-1.59.69-3.25,1.04-4.98,1.04-1.18,0-1.98-.11-2.39-.34-.41-.23-.62-.54-.62-.93,0-.25.32-.7.95-1.33.63-.63,1.06-.95,1.28-.95.33,0,.49.07.49.21,0,.11-.07.23-.21.34-.14.11-.21.21-.21.3,0,.11.17.23.51.34.34.11.76.17,1.26.17,1.15,0,2.31-.22,3.48-.65,1.17-.44,2.12-1.01,2.86-1.71s1.11-1.45,1.11-2.24-.23-1.37-.7-1.82c-.47-.45-1.05-.78-1.75-.99s-1.87-.51-3.52-.91c-1.81-.42-3.22-.8-4.22-1.12-1-.32-1.81-.73-2.41-1.22-.6-.49-.91-1.12-.91-1.88,0-1.35.65-2.59,1.94-3.72s2.77-2.01,4.45-2.66c1.67-.65,2.97-.97,3.87-.97s1.4.28,1.4.84c0,.34-.11.71-.33,1.12-.22.41-.55.61-.99.61-.16,0-.34-.06-.54-.19-.19-.13-.38-.19-.58-.19-.55,0-1.41.18-2.59.55-1.18.37-2.25.92-3.21,1.65-.96.73-1.44,1.62-1.44,2.66,0,.68.38,1.18,1.13,1.5.75.32,2.16.73,4.22,1.2.25.08.49.15.74.19.25.04.47.09.66.15,2.11.51,3.73,1.08,4.86,1.73,1.13.65,1.69,1.62,1.69,2.92s-.49,2.43-1.46,3.57Z"
         id="path17" />
      <path
         class="st2"
         d="M88.75,70.08c-.4.25-1.12.45-2.16.59-2.53.45-3.94.7-4.24.76l-2.68.46c0,1.46.02,3,.06,4.61.04,1.61.1,3.01.19,4.22.11,1.64.3,2.89.58,3.76.27.87.43,1.37.45,1.48,0,.28-.17.54-.52.78-.34.24-.67.36-.97.36-.16,0-.3-.05-.41-.15-.11-.1-.21-.26-.29-.49-.16-.39-.32-1.13-.47-2.2-.15-1.07-.27-2.25-.35-3.55-.08-1.15-.14-2.5-.19-4.04-.04-1.53-.06-3.02-.06-4.46-1.54.25-3.12.57-4.74.93-1.46.31-2.32.46-2.6.46-.33,0-.64-.1-.93-.3s-.43-.47-.43-.8c0-.37.12-.61.37-.72.25-.11.66-.17,1.24-.17.41,0,1.02-.08,1.81-.23.8-.15,1.3-.26,1.52-.32,1.84-.37,3.09-.6,3.75-.72,0-.59-.03-1.37-.08-2.32-.06-1.3-.08-2.28-.08-2.96,0-1.1.03-1.95.1-2.56.07-.61.2-1.15.39-1.63.22-.56.63-.84,1.24-.84.25,0,.41.04.49.13.08.08.12.24.12.46,0,.17-.07.66-.21,1.48-.14.82-.21,1.9-.21,3.25,0,1.04.03,2.21.08,3.51l.04,1.14c1.24-.2,3.68-.72,7.33-1.56.22-.06.4-.25.56-.59.15-.34.31-.51.47-.51.3,0,.61.18.93.53s.47.71.47,1.08c0,.48-.2.84-.6,1.1Z"
         id="path18" />
      <path
         class="st2"
         d="M104.54,81.53c-.8,1.44-1.92,2.67-3.38,3.7-1.46,1.03-3.12,1.54-4.98,1.54s-3.2-.52-4.08-1.56c-.88-1.04-1.32-2.34-1.32-3.89,0-1.35.24-3.03.72-5.03.48-2,1.16-3.79,2.04-5.37.06-.11.28-.53.68-1.25.4-.72.84-1.27,1.34-1.65.49-.38,1.02-.57,1.56-.57.25,0,.47.06.68.19.21.13.31.29.31.49,0,.06-.08.19-.23.4-.15.21-.27.37-.35.49-.93,1.15-1.69,2.29-2.27,3.42-.77,1.44-1.37,2.86-1.79,4.27s-.64,2.94-.64,4.61c0,2.23,1.32,3.34,3.95,3.34,1.24,0,2.38-.37,3.44-1.1,1.06-.73,1.9-1.63,2.53-2.68s.95-2.02.95-2.89c0-.99-.32-1.84-.95-2.58-.63-.73-1.5-1.51-2.6-2.32-.71-.53-1.24-.97-1.56-1.31s-.49-.62-.49-.84c0-.34.23-.61.7-.83.47-.21,1.02-.32,1.65-.32.36,0,.59.02.7.06.11.04.16.12.16.23,0,.06-.05.15-.14.27-.1.13-.14.23-.14.32s.27.37.82.84c1.1.93,2.02,1.87,2.76,2.83.74.96,1.11,2.08,1.11,3.38,0,1.1-.4,2.36-1.19,3.8Z"
         id="path19" />
      <path
         class="st2"
         d="M122.68,69.55c-.34.32-.64.49-.89.49-.19,0-.38-.08-.56-.25-.18-.17-.38-.41-.6-.72-.19-.28-.45-.52-.76-.72-.32-.2-.64-.3-.97-.3-.8,0-1.87,1.08-3.21,3.23-1.35,2.16-2.66,4.87-3.95,8.13.03.65.07,1.46.14,2.45s.12,1.72.14,2.2l.12,1.69c0,.4-.08.74-.25,1.03-.16.3-.47.44-.91.44-.47,0-.77-.64-.91-1.92-.14-1.28-.22-3.15-.25-5.6-.03-.62-.05-1.51-.06-2.66-.01-1.15-.05-2.53-.1-4.14-.08-2.42-.12-4.15-.12-5.2,0-.65.38-.97,1.15-.97.47,0,.75.21.84.61.1.41.14,1.19.14,2.35v6.72c.82-2.17,1.72-4.04,2.68-5.62.96-1.58,1.9-2.78,2.82-3.61.92-.83,1.74-1.25,2.45-1.25.6,0,1.18.14,1.73.42.55.28.99.64,1.32,1.08.33.44.49.85.49,1.25,0,.25-.17.54-.51.87Z"
         id="path20" />
      <path
         class="st2"
         d="M127.48,60.65c-.47,0-.94-.2-1.42-.59-.48-.4-.72-.72-.72-.97,0-.31.14-.6.43-.89.29-.28.58-.42.89-.42.41.14.75.37,1.03.68.22.22.47.52.74.89s.41.59.41.67c0,.42-.45.63-1.36.63ZM129.52,87.25c-.23.15-.5.22-.8.19-.38-.03-.67-.66-.84-1.9-.18-1.24-.36-3.59-.56-7.06-.11-2.28-.21-4.51-.29-6.7-.08-2.18-.14-3.86-.16-5.05,0-.31.05-.54.14-.7.1-.15.28-.23.56-.23.63,0,1.03.27,1.19.8.17.54.25,1.56.25,3.08l-.04,4.99c0,2.85.08,5.13.25,6.85,0,.08.12.99.37,2.7.19,1.18.29,1.97.29,2.37,0,.28-.12.5-.35.66Z"
         id="path21" />
      <path
         class="st2"
         d="M152.48,84.38c.19.21.29.39.29.53,0,.34-.14.73-.41,1.16s-.55.66-.82.66c-.47,0-.82-.3-1.07-.89-.25-.59-.37-1.28-.37-2.07,0-.68.04-2.71.12-6.08l.04-1.61c0-.65-.16-1.11-.49-1.39-1.24,2.14-2.39,4-3.46,5.58-1.07,1.58-2.43,3.06-4.08,4.46s-3.38,2.09-5.19,2.09c-.88,0-1.56-.28-2.04-.84-.48-.56-.72-1.29-.72-2.2,0-1.13.5-2.67,1.48-4.63.99-1.96,2.25-3.94,3.79-5.96,1.54-2.01,3.07-3.67,4.61-4.96,1.02-.84,1.83-1.42,2.43-1.71.6-.3,1.14-.44,1.61-.44.44,0,.89.14,1.36.42.47.28.87.68,1.19,1.18.33.51.49,1.09.49,1.73,0,.87-.23,1.7-.7,2.49l.7-.21c.3,0,.48.38.54,1.14.03.45.06,1.37.1,2.75s.07,2.52.1,3.42c.03.93.06,1.83.08,2.7.03.87.06,1.56.08,2.07.03.2.14.4.33.61ZM141.9,82.84c1.37-1.12,2.6-2.47,3.69-4.04,1.08-1.56,2.29-3.49,3.6-5.77.33-.84.5-1.76.5-2.75,0-.59-.17-1.11-.52-1.54-.34-.44-.8-.66-1.38-.66-.69,0-1.56.48-2.64,1.44-1.24,1.07-2.54,2.5-3.91,4.29-1.37,1.79-2.51,3.56-3.42,5.3-.91,1.75-1.36,3.13-1.36,4.14,0,.85.38,1.27,1.15,1.27,1.48,0,2.91-.56,4.28-1.69Z"
         id="path22" />
    </g>
    <path
       class="st1"
       d="M86.24,48.12c3.44-.11,32.19-.83,34.44-.9s2.25-.51,2.31.9,1.06,9.11,1.19,9.56-.81.96-1.88,1.09-37.38,2.5-38.82,2.63-1.81-1.47-1.63-2.05,1.5-8.66,1.88-9.81,1.19-1.37,2.5-1.41Z"
       id="path23" />
    <g
       id="g27">
      <path
         class="st0"
         d="M88.92,59.79c.86-.06,1.42-.48,2.13-1.54l.18.46c-.56,1.21-1.31,1.97-2.62,2.06-2.05.14-3.53-1.51-3.69-4-.17-2.62,1.23-4.48,3.29-4.61.96-.06,1.8.28,2.76,1.56l-.14.46c-1.04-.9-1.72-1.13-2.36-1.09-1.26.08-2.28,1.19-2.13,3.55.15,2.29,1.22,3.25,2.58,3.16ZM93.59,59.6l.04.6-2.56.34-.28-1.74-.32-5.04.04-.23-.28-4.34-1.45-.08-.04-.6,2.52-.95.24.12.09,2.45.65,10.16-.32-.86,1.68.16Z"
         id="path24" />
      <path
         class="st0"
         d="M101.26,54.57c.03.4,0,.74-.06.97l-6.19.42-.05-.72,3.99-.27c.81-.05.96-.46.93-.94-.06-.98-.93-1.82-1.98-1.75-1.07.07-2.26,1.09-2.1,3.55.14,2.18,1.29,3.28,2.97,3.17,1.07-.07,1.71-.62,2.27-1.38l.41.29c-.53,1.26-1.55,2.11-3.08,2.21-2.25.15-3.81-1.35-3.98-3.97-.17-2.63,1.46-4.51,3.55-4.65,1.73-.12,3.18,1,3.32,3.08Z"
         id="path25" />
      <path
         class="st0"
         d="M110.16,58.45c.37-.03.69-.2,1.11-.56l.42.44c-.38.58-1.05.95-1.89,1.01-1.16.08-1.92-.49-2-1.82-.03-.41-.03-.78-.08-1.45l-.26-4.1-1.41.1-.05-.74,2.06-.42-.63.61.32-2.82.97-.07.06,3.02.36,5.58c.06.9.45,1.25,1.02,1.21ZM111.05,50.83l.06.9-2.99.2-.06-.9,2.99-.2Z"
         id="path26" />
      <path
         class="st0"
         d="M114.51,55.74c.1,1.53.57,2.04,1.49,1.97.86-.06,1.7-.55,2.48-1.46l.35-.02.06.88-.86.06.57-.3c-.87,1.39-1.98,2.02-3.07,2.09-1.34.09-2.23-.68-2.36-2.95l-.24-4.55.37.31-1.58-.24-.04-.6,2.4-.39.18.16.07,2.42.17,2.63ZM118.7,58.65l-.36-2-.3-5.55.37.3-1.58-.24-.04-.6,2.37-.38.18.16.1,2.41.33,5.15-.43-.39,1.58.24.04.6-2.26.29Z"
         id="path27" />
    </g>
  </g>
</svg>
